<svg width="40" height="40" viewBox="0 0 40 40" fill="none" xmlns="http://www.w3.org/2000/svg">
<g clip-path="url(#clip0_304_9662)">
<path d="M39.9923 19.4961V20.6656C39.6938 22.3094 38.8079 23.1578 37.1399 23.4242C35.3305 23.7133 33.5227 24.0078 31.711 24.2852C31.6337 24.2969 31.5579 24.3148 31.4821 24.3344C30.8462 24.4977 30.6641 24.9031 30.9969 25.4742C31.3829 26.1352 31.7594 26.8023 32.1516 27.4602C32.9993 28.8797 32.8376 30.5453 31.7579 31.6695C30.6313 32.8422 28.8985 33.0484 27.4298 32.1727C26.8157 31.807 26.1915 31.4586 25.5743 31.0984C24.8024 30.6484 24.3954 30.843 24.2508 31.7328C24.0321 33.0766 23.8298 34.4234 23.6071 35.7672C23.5329 36.2148 23.4649 36.6641 23.393 37.1117C23.1102 38.8609 22.2758 39.7117 20.5454 39.9953H19.9985C19.8618 39.8906 19.8282 39.743 19.8204 39.582C19.8102 39.3742 19.8102 39.1664 19.8102 38.9594C19.8102 26.3398 19.8102 13.7211 19.8126 1.10156C19.8126 0.792968 19.7665 0.477343 19.8891 0.178905C19.9602 0.0304676 20.0977 0.0546863 20.2266 0.0492176C21.7399 -0.00781368 22.6719 0.841405 23.1548 2.05859C23.4454 2.78984 23.4829 3.57812 23.6094 4.34453C23.829 5.67578 24.0383 7.00937 24.2493 8.34219C24.2594 8.40625 24.2719 8.47031 24.2868 8.53281C24.4508 9.21797 24.8626 9.40547 25.468 9.05C26.118 8.66797 26.7766 8.30156 27.4243 7.91562C28.8883 7.04453 30.5907 7.23437 31.7282 8.38281C32.7282 9.39297 32.9938 10.9687 32.3516 12.2406C31.9657 13.0055 31.5024 13.7289 31.0766 14.4727C30.6329 15.2477 30.8219 15.6578 31.7118 15.7961C33.536 16.0797 35.3587 16.3734 37.1813 16.6648C38.1774 16.8242 38.9899 17.2711 39.5915 18.0992C39.9001 18.5242 39.8977 19.0203 39.9923 19.4961Z" fill="#00A4EA"/>
<path d="M19.9993 0.101563C19.9993 13.3992 19.9993 26.6969 19.9993 39.9953H19.3743C19.1657 39.9211 18.9446 39.9125 18.729 39.8781C18.5462 39.8492 18.3735 39.7969 18.2235 39.6859C17.461 39.1242 16.8501 38.4594 16.6852 37.4789C16.3602 35.5477 16.0594 33.6125 15.7571 31.6773C15.6313 30.8734 15.1837 30.6461 14.4634 31.05C13.6368 31.5133 12.8548 32.0625 11.9798 32.4336C10.6016 33.018 9.16335 32.6516 8.19617 31.6008C7.17039 30.4859 7.03601 28.9016 7.77664 27.6242C8.17351 26.9391 8.56101 26.2484 8.96414 25.5672C9.39148 24.8438 9.14695 24.4039 8.30398 24.2711C6.3782 23.9672 4.45085 23.6781 2.52976 23.3453C1.56023 23.1773 0.873511 22.5836 0.314136 21.8141C0.0633545 21.4695 0.136792 21.0406 0.00476074 20.6656V19.4188C0.118823 18.8656 0.186792 18.3148 0.612573 17.8602C1.14695 17.2898 1.74695 16.8719 2.52039 16.7391C4.45398 16.4078 6.39461 16.1125 8.33289 15.8094C9.14382 15.6828 9.37195 15.2438 8.97039 14.5234C8.50242 13.6852 7.94226 12.8969 7.56804 12.0094C7.00242 10.6688 7.39773 9.21719 8.35476 8.32266C9.66492 7.09766 11.336 7.22031 12.3962 7.83984C13.0915 8.24609 13.7876 8.65234 14.4899 9.04688C15.186 9.4375 15.6329 9.20078 15.7555 8.41641C16.0571 6.48125 16.3548 4.54531 16.6852 2.61484C16.8594 1.59688 17.4634 0.867188 18.3157 0.349219C18.8219 0.0414069 19.4141 0.0242194 19.9993 0.103126V0.101563Z" fill="#00C7FE"/>
<path d="M0.00549316 3.12812C0.130493 3.04375 0.108618 2.89687 0.142212 2.77969C0.639087 1.04219 2.35237 -0.120314 4.08987 0.107811C5.99377 0.357811 7.36096 1.88906 7.35862 3.76875C7.35627 5.59766 6.00315 7.14844 4.19065 7.40156C2.3844 7.65312 0.650024 6.51875 0.147681 4.76406C0.110181 4.63359 0.129712 4.47656 0.00549316 4.375V3.12812Z" fill="#00C7FE"/>
<path d="M39.9219 4.38437C39.6555 6.21406 37.9946 7.51171 36.0399 7.41796C34.2813 7.33359 32.7329 5.79218 32.6477 4.04062C32.5485 2.00234 33.9 0.37109 35.9079 0.107027C37.7641 -0.136723 39.5016 1.15156 39.9235 3.08125C39.9329 3.12578 39.9696 3.16406 39.993 3.20546V3.98515C39.9 4.10625 40.0047 4.26171 39.9227 4.38437H39.9219Z" fill="#00A4EA"/>
<path d="M0.00554199 35.7078C0.125073 35.5906 0.114136 35.425 0.156323 35.2812C0.656323 33.5711 2.34929 32.4641 4.15007 32.6758C5.85398 32.8758 7.26492 34.3586 7.35007 36.0391C7.4446 37.9055 6.26179 39.518 4.51492 39.9023C4.42664 39.9219 4.33445 39.9211 4.24382 39.9305C4.11414 39.9992 3.95867 39.9047 3.8321 39.9945H3.05085C2.55867 39.8648 2.02898 39.8969 1.58367 39.5633C1.14304 39.2336 0.767261 38.8586 0.436792 38.4187C0.103198 37.9742 0.134448 37.4461 0.00476074 36.9547V35.7078H0.00554199Z" fill="#00C7FE"/>
<path d="M35.754 39.9305C34.3556 39.7812 33.0821 38.6289 32.7376 37.2C32.3689 35.6711 33.0079 34.0711 34.3212 33.2344C36.5431 31.8187 39.5525 33.143 39.922 35.6984C40.004 35.8211 39.8993 35.9766 39.9923 36.0977V36.8773C39.9181 36.9672 39.9439 37.0797 39.9462 37.1758C39.9798 38.4523 38.44 40.0469 36.9735 39.957C36.9329 39.9547 36.8985 39.9703 36.8681 39.9953H36.165C36.0384 39.9055 35.8829 40 35.7532 39.9312L35.754 39.9305Z" fill="#00A4EA"/>
<path d="M36.868 39.9945C36.9555 39.8648 37.1048 39.9187 37.2227 39.8836C38.5719 39.4828 39.4594 38.625 39.8634 37.2711C39.9024 37.1398 39.8712 36.9812 39.9923 36.8766C39.9923 37.8508 39.9868 38.825 39.9969 39.7992C39.9985 39.9672 39.9649 40.0008 39.7969 39.9992C38.8212 39.9891 37.8446 39.9945 36.868 39.9945Z" fill="#FEFEFE"/>
<path d="M0.00552916 36.9555C0.0961542 36.993 0.0789667 37.0812 0.0984979 37.1523C0.489123 38.575 1.3899 39.4922 2.81725 39.8914C2.89772 39.9141 3.00553 39.8898 3.05162 39.9953C2.10162 39.9953 1.15084 39.9898 0.200842 40C0.0328729 40.0016 -0.00150209 39.968 0.000841657 39.8C0.0109979 38.8516 0.00552916 37.9031 0.00552916 36.9555Z" fill="#FEFEFE"/>
<path d="M39.9219 4.38437C39.8922 4.24218 39.9133 4.10859 39.9922 3.98515V4.375C39.968 4.375 39.9446 4.3789 39.9219 4.38437Z" fill="#53C1F1"/>
<path d="M39.9922 36.0977C39.9125 35.9742 39.8914 35.8406 39.9219 35.6984C39.9453 35.7047 39.9688 35.7078 39.9922 35.7078V36.0977Z" fill="#53C1F1"/>
<path d="M3.83203 39.9945C3.95859 39.9078 4.09844 39.9031 4.24375 39.9305C4.24063 39.9531 4.23359 39.9742 4.22266 39.9945H3.83203Z" fill="#3BD4FE"/>
<path d="M35.7539 39.9305C35.8992 39.9023 36.0383 39.9078 36.1656 39.9945H35.775C35.7641 39.9742 35.757 39.9531 35.7539 39.9305Z" fill="#3BB9EF"/>
</g>
<defs>
<clipPath id="clip0_304_9662">
<rect width="40" height="40" fill="white"/>
</clipPath>
</defs>
</svg>
