<svg width="40" height="40" viewBox="0 0 40 40" fill="none" xmlns="http://www.w3.org/2000/svg">
<path d="M23.3333 32.5H16.6666C16.4456 32.5 16.2337 32.5878 16.0774 32.7441C15.9211 32.9004 15.8333 33.1123 15.8333 33.3333V36.6667C15.8333 37.3297 16.0967 37.9656 16.5655 38.4344C17.0344 38.9033 17.6703 39.1667 18.3333 39.1667H21.6666C22.3297 39.1667 22.9656 38.9033 23.4344 38.4344C23.9033 37.9656 24.1666 37.3297 24.1666 36.6667V33.3333C24.1666 33.1123 24.0788 32.9004 23.9226 32.7441C23.7663 32.5878 23.5543 32.5 23.3333 32.5Z" fill="#7B8C8C"/>
<path d="M25 27.5H15C14.7789 27.5 14.567 27.5878 14.4107 27.7441C14.2544 27.9004 14.1666 28.1123 14.1666 28.3333V34.1667C14.1666 34.6087 14.3422 35.0326 14.6548 35.3452C14.9673 35.6577 15.3913 35.8333 15.8333 35.8333H24.1666C24.6087 35.8333 25.0326 35.6577 25.3451 35.3452C25.6577 35.0326 25.8333 34.6087 25.8333 34.1667V28.3333C25.8333 28.1123 25.7455 27.9004 25.5892 27.7441C25.4329 27.5878 25.221 27.5 25 27.5Z" fill="#8FA5A5"/>
<path d="M20 5.83334C16.9068 5.83664 13.9412 7.06687 11.754 9.25408C9.56683 11.4413 8.3366 14.4068 8.33329 17.5C8.28817 19.1277 8.5785 20.7472 9.18622 22.2578C9.79394 23.7685 10.7061 25.1379 11.8658 26.2808C12.5839 26.9576 13.1578 27.7724 13.5532 28.6764C13.9486 29.5804 14.1572 30.555 14.1666 31.5417H25.8333C25.8427 30.555 26.0514 29.5804 26.4467 28.6764C26.8421 27.7724 27.4161 26.9576 28.1341 26.2808C29.2939 25.1379 30.206 23.7685 30.8137 22.2578C31.4214 20.7472 31.7118 19.1277 31.6666 17.5C31.6633 14.4068 30.4331 11.4413 28.2459 9.25408C26.0587 7.06687 23.0931 5.83664 20 5.83334Z" fill="#FAC100"/>
<path d="M23.75 27.5C21.3609 27.4998 19.0255 26.7914 17.0389 25.4644C15.0523 24.1373 13.5037 22.2511 12.5887 20.0442C11.6738 17.8372 11.4336 15.4086 11.8985 13.0652C12.3635 10.7218 13.5126 8.56882 15.2008 6.87833C13.1566 7.80182 11.4217 9.29473 10.2038 11.1784C8.98586 13.0621 8.33647 15.2569 8.33329 17.5C8.28817 19.1277 8.5785 20.7472 9.18622 22.2578C9.79394 23.7685 10.7061 25.1379 11.8658 26.2808C12.5839 26.9576 13.1578 27.7724 13.5532 28.6764C13.9486 29.5804 14.1572 30.555 14.1666 31.5417H25.8333C25.8442 29.824 26.467 28.1665 27.59 26.8667C26.3528 27.2845 25.0558 27.4984 23.75 27.5Z" fill="#FF9500"/>
<path d="M23.3333 20C22.6703 20 22.0344 20.2634 21.5655 20.7322C21.0967 21.2011 20.8333 21.837 20.8333 22.5V23.3333H19.1666V22.5C19.1666 22.0055 19.02 21.5222 18.7453 21.1111C18.4706 20.7 18.0802 20.3795 17.6233 20.1903C17.1665 20.0011 16.6639 19.9516 16.1789 20.048C15.6939 20.1445 15.2485 20.3826 14.8989 20.7322C14.5492 21.0819 14.3111 21.5273 14.2147 22.0123C14.1182 22.4972 14.1677 22.9999 14.3569 23.4567C14.5461 23.9135 14.8666 24.304 15.2777 24.5787C15.6888 24.8534 16.1722 25 16.6666 25H17.5V31.5417H19.1666V25H20.8333V31.5417H22.5V25H23.3333C23.9963 25 24.6322 24.7366 25.1011 24.2678C25.5699 23.7989 25.8333 23.163 25.8333 22.5C25.8333 21.837 25.5699 21.2011 25.1011 20.7322C24.6322 20.2634 23.9963 20 23.3333 20ZM17.5 23.3333H16.6666C16.5018 23.3333 16.3407 23.2845 16.2037 23.1929C16.0666 23.1013 15.9598 22.9712 15.8967 22.8189C15.8337 22.6666 15.8172 22.4991 15.8493 22.3374C15.8815 22.1758 15.9608 22.0273 16.0774 21.9107C16.1939 21.7942 16.3424 21.7148 16.5041 21.6827C16.6657 21.6505 16.8333 21.667 16.9855 21.7301C17.1378 21.7932 17.268 21.9 17.3595 22.037C17.4511 22.1741 17.5 22.3352 17.5 22.5V23.3333ZM23.3333 23.3333H22.5V22.5C22.5 22.3352 22.5488 22.1741 22.6404 22.037C22.732 21.9 22.8621 21.7932 23.0144 21.7301C23.1667 21.667 23.3342 21.6505 23.4959 21.6827C23.6575 21.7148 23.806 21.7942 23.9226 21.9107C24.0391 22.0273 24.1185 22.1758 24.1506 22.3374C24.1828 22.4991 24.1663 22.6666 24.1032 22.8189C24.0401 22.9712 23.9333 23.1013 23.7963 23.1929C23.6592 23.2845 23.4981 23.3333 23.3333 23.3333Z" fill="#F87600"/>
<path d="M17.5 25.7433V31.5417H19.1667V26.5942C18.5896 26.3548 18.0323 26.0703 17.5 25.7433Z" fill="#E64600"/>
<path d="M16.3708 24.97C15.5569 24.3403 14.8264 23.6097 14.1967 22.7958C14.2628 23.3495 14.5131 23.8649 14.9074 24.2592C15.3017 24.6535 15.8171 24.9039 16.3708 24.97Z" fill="#E64600"/>
<path d="M20.8333 27.1308V31.5417H22.5V27.435C21.9379 27.3732 21.381 27.2716 20.8333 27.1308Z" fill="#E64600"/>
<path d="M20 4.16667C19.7789 4.16667 19.567 4.07887 19.4107 3.92259C19.2544 3.76631 19.1666 3.55435 19.1666 3.33334V1.66667C19.1666 1.44566 19.2544 1.23369 19.4107 1.07741C19.567 0.921133 19.7789 0.833336 20 0.833336C20.221 0.833336 20.4329 0.921133 20.5892 1.07741C20.7455 1.23369 20.8333 1.44566 20.8333 1.66667V3.33334C20.8333 3.55435 20.7455 3.76631 20.5892 3.92259C20.4329 4.07887 20.221 4.16667 20 4.16667Z" fill="#FAC100"/>
<path d="M20 4.16667C19.7789 4.16667 19.567 4.07887 19.4107 3.92259C19.2544 3.76631 19.1666 3.55435 19.1666 3.33334V1.66667C19.1666 1.44566 19.2544 1.23369 19.4107 1.07741C19.567 0.921133 19.7789 0.833336 20 0.833336C20.221 0.833336 20.4329 0.921133 20.5892 1.07741C20.7455 1.23369 20.8333 1.44566 20.8333 1.66667V3.33334C20.8333 3.55435 20.7455 3.76631 20.5892 3.92259C20.4329 4.07887 20.221 4.16667 20 4.16667Z" fill="#FAC100"/>
<path d="M35.8333 18.3333H34.1666C33.9456 18.3333 33.7337 18.2455 33.5774 18.0893C33.4211 17.933 33.3333 17.721 33.3333 17.5C33.3333 17.279 33.4211 17.067 33.5774 16.9107C33.7337 16.7545 33.9456 16.6667 34.1666 16.6667H35.8333C36.0543 16.6667 36.2663 16.7545 36.4226 16.9107C36.5788 17.067 36.6666 17.279 36.6666 17.5C36.6666 17.721 36.5788 17.933 36.4226 18.0893C36.2663 18.2455 36.0543 18.3333 35.8333 18.3333Z" fill="#FAC100"/>
<path d="M5.83331 18.3333H4.16665C3.94563 18.3333 3.73367 18.2455 3.57739 18.0893C3.42111 17.933 3.33331 17.721 3.33331 17.5C3.33331 17.279 3.42111 17.067 3.57739 16.9107C3.73367 16.7545 3.94563 16.6667 4.16665 16.6667H5.83331C6.05433 16.6667 6.26629 16.7545 6.42257 16.9107C6.57885 17.067 6.66665 17.279 6.66665 17.5C6.66665 17.721 6.57885 17.933 6.42257 18.0893C6.26629 18.2455 6.05433 18.3333 5.83331 18.3333Z" fill="#FAC100"/>
<path d="M9.98251 8.31584C9.76151 8.31579 9.54958 8.22796 9.39334 8.07167L8.21501 6.89334C8.06321 6.73617 7.97921 6.52567 7.98111 6.30717C7.98301 6.08867 8.07065 5.87966 8.22516 5.72516C8.37966 5.57065 8.58867 5.48301 8.80717 5.48111C9.02567 5.47921 9.23617 5.56321 9.39334 5.71501L10.5717 6.89334C10.6882 7.00988 10.7675 7.15835 10.7997 7.31998C10.8318 7.48161 10.8153 7.64913 10.7522 7.80138C10.6892 7.95363 10.5824 8.08377 10.4454 8.17534C10.3084 8.26691 10.1473 8.3158 9.98251 8.31584Z" fill="#FAC100"/>
<path d="M9.98251 8.31584C9.76151 8.31579 9.54958 8.22796 9.39334 8.07167L8.21501 6.89334C8.06321 6.73617 7.97921 6.52567 7.98111 6.30717C7.98301 6.08867 8.07065 5.87966 8.22516 5.72516C8.37966 5.57065 8.58867 5.48301 8.80717 5.48111C9.02567 5.47921 9.23617 5.56321 9.39334 5.71501L10.5717 6.89334C10.6882 7.00988 10.7675 7.15835 10.7997 7.31998C10.8318 7.48161 10.8153 7.64913 10.7522 7.80138C10.6892 7.95363 10.5824 8.08377 10.4454 8.17534C10.3084 8.26691 10.1473 8.3158 9.98251 8.31584Z" fill="#FAC100"/>
<path d="M31.1958 29.5292C30.9748 29.5291 30.7629 29.4413 30.6066 29.285L29.4283 28.1067C29.3509 28.0293 29.2894 27.9374 29.2475 27.8363C29.2056 27.7352 29.184 27.6268 29.184 27.5174C29.1839 27.4079 29.2054 27.2995 29.2473 27.1984C29.2891 27.0973 29.3505 27.0053 29.4279 26.9279C29.5052 26.8505 29.5971 26.7891 29.6982 26.7471C29.7993 26.7052 29.9077 26.6836 30.0172 26.6836C30.1266 26.6835 30.235 26.7051 30.3362 26.7469C30.4373 26.7888 30.5292 26.8501 30.6066 26.9275L31.785 28.1067C31.9015 28.2232 31.9808 28.3717 32.0129 28.5333C32.0451 28.6949 32.0286 28.8625 31.9655 29.0147C31.9025 29.167 31.7957 29.2971 31.6587 29.3887C31.5217 29.4802 31.3606 29.5291 31.1958 29.5292Z" fill="#FAC100"/>
<path d="M30.0175 8.31583C29.8527 8.3158 29.6916 8.26691 29.5546 8.17534C29.4176 8.08377 29.3108 7.95363 29.2477 7.80138C29.1847 7.64913 29.1682 7.4816 29.2003 7.31997C29.2325 7.15835 29.3118 7.00988 29.4283 6.89333L30.6066 5.715C30.6835 5.63541 30.7755 5.57192 30.8771 5.52825C30.9788 5.48458 31.0882 5.46159 31.1988 5.46063C31.3095 5.45966 31.4192 5.48075 31.5216 5.52265C31.624 5.56455 31.7171 5.62643 31.7953 5.70467C31.8736 5.78292 31.9354 5.87596 31.9773 5.97837C32.0192 6.08079 32.0403 6.19052 32.0394 6.30117C32.0384 6.41182 32.0154 6.52117 31.9717 6.62284C31.9281 6.72451 31.8646 6.81646 31.785 6.89333L30.6066 8.07167C30.4504 8.22796 30.2385 8.31579 30.0175 8.31583Z" fill="#FAC100"/>
<path d="M8.80416 29.5292C8.63937 29.5291 8.47829 29.4802 8.34128 29.3887C8.20427 29.2971 8.09749 29.167 8.03443 29.0147C7.97137 28.8625 7.95487 28.6949 7.98701 28.5333C8.01915 28.3717 8.09849 28.2232 8.215 28.1067L9.39333 26.9275C9.47076 26.8501 9.56266 26.7888 9.6638 26.7469C9.76494 26.7051 9.87334 26.6835 9.98279 26.6836C10.0922 26.6836 10.2006 26.7052 10.3017 26.7471C10.4028 26.7891 10.4947 26.8505 10.5721 26.9279C10.6495 27.0053 10.7108 27.0973 10.7527 27.1984C10.7945 27.2995 10.816 27.4079 10.816 27.5174C10.816 27.6268 10.7944 27.7352 10.7524 27.8363C10.7105 27.9374 10.6491 28.0293 10.5717 28.1067L9.39333 29.285C9.23709 29.4413 9.02516 29.5291 8.80416 29.5292Z" fill="#FAC100"/>
</svg>
