<svg width="40" height="36" viewBox="0 0 40 36" fill="none" xmlns="http://www.w3.org/2000/svg">
<path fill-rule="evenodd" clip-rule="evenodd" d="M20 35.1094H6.32812C6.01562 35.1094 5.70312 34.875 5.70312 34.5625V29.7188C5.46875 29.1719 4.76562 29.0938 4.14062 29.1719C3.82812 29.5625 3.20312 30.1094 2.1875 29.9531C0.703125 29.7969 0 28.7031 0 27.7656C0 26.75 0.703125 25.6562 2.1875 25.5C3.20312 25.4219 3.82812 25.8906 4.14062 26.2812C4.76562 26.3594 5.46875 26.2812 5.70312 25.7344V20.8906C5.70312 20.5781 6.01562 20.3438 6.32812 20.3438C6.5625 20.3438 6.71875 20.5 6.875 20.6562H20V20.8125H19.9219L26.7969 27.7656L20.2344 34.0156C20.4688 34.0938 20.625 34.3281 20.625 34.5625C20.625 34.875 20.3125 35.1094 20 35.1094Z" fill="#FFD300"/>
<path fill-rule="evenodd" clip-rule="evenodd" d="M33.6719 35.1094H20C19.6875 35.1094 19.375 34.875 19.375 34.5625V29.6406C19.375 29.5625 19.375 29.4844 19.4531 29.4844C19.8438 28.1562 21.4062 27.7656 22.5781 28.1562C22.8125 28.1562 22.8906 28.3125 22.9688 28.3906C22.9688 28.4688 23.2812 28.9375 23.9844 28.8594C24.8438 28.7031 25.1562 28.1562 25.1562 27.7656C25.1562 27.2969 24.8438 26.6719 23.9844 26.5938C23.2031 26.5938 22.9688 27.0625 22.9688 27.0625C22.8906 27.2188 22.7344 27.375 22.5781 27.375C21.3281 27.6875 19.7656 27.2969 19.375 26.0469C19.2969 25.9688 19.2969 25.8906 19.2969 25.8906V20.8906C19.2969 20.5781 19.6094 20.3438 19.9219 20.3438C20.1562 20.3438 20.3906 20.5 20.4688 20.7344H33.0469C33.125 20.5 33.3594 20.3438 33.5938 20.3438C33.9844 20.3438 34.2188 20.5781 34.2188 20.8906V34.5625C34.2188 34.875 33.9844 35.1094 33.6719 35.1094Z" fill="#FF4141"/>
<path fill-rule="evenodd" clip-rule="evenodd" d="M33.6719 21.3594H20C19.6094 21.3594 19.375 21.125 19.375 20.8125C19.375 20.6562 19.4531 20.5781 19.5312 20.5L13.125 14.0938L13.0469 14.0156L13.125 13.9375L19.4531 7.45312C19.4531 7.375 19.375 7.29688 19.375 7.21875C19.375 6.90625 19.6875 6.59375 20 6.59375H24.9219C25 6.59375 25.0781 6.59375 25.1562 6.67188C26.4062 7.0625 26.7969 8.54688 26.4844 9.79688C26.4844 9.95312 26.3281 10.1875 26.1719 10.1875C26.0938 10.2656 25.625 10.5 25.7031 11.2031C25.8594 12.0625 26.4062 12.375 26.875 12.375C27.2656 12.375 27.8906 12.0625 27.9688 11.2031C28.0469 10.5 27.5 10.1875 27.5 10.1875C27.3438 10.1875 27.2656 9.95312 27.1875 9.79688C26.875 8.54688 27.2656 7.0625 28.5938 6.67188C28.5938 6.67188 28.6719 6.59375 28.75 6.59375H33.6719C33.9844 6.59375 34.2188 6.90625 34.2188 7.21875V12.0625C34.4531 12.5312 35.2344 12.6875 35.8594 12.6094C36.1719 12.2188 36.7969 11.6719 37.8125 11.8281C39.2969 11.9844 40 13.0781 40 14.0156C40 15.0312 39.2969 16.125 37.8125 16.2812C36.7969 16.4375 36.1719 15.8906 35.8594 15.5C35.2344 15.4219 34.4531 15.5781 34.2188 16.0469V20.8125C34.2188 21.125 33.9844 21.3594 33.6719 21.3594Z" fill="#B1F24E"/>
<path fill-rule="evenodd" clip-rule="evenodd" d="M13.125 27.1406C12.1875 27.1406 11.0938 26.5156 10.9375 24.9531C10.8594 23.9375 11.3281 23.3125 11.7188 23C11.7969 22.375 11.6406 21.6719 11.1719 21.4375H6.32812C6.01562 21.4375 5.70312 21.2031 5.70312 20.8125V7.21875C5.70312 6.90625 6.01562 6.59375 6.32812 6.59375H11.1719C11.7188 6.35938 11.7969 5.57812 11.7188 5.03125C11.3281 4.71875 10.8594 4.01562 10.9375 3C11.0938 1.51562 12.1875 0.890625 13.125 0.890625C14.1406 0.890625 15.2344 1.51562 15.3906 3C15.4688 4.01562 15 4.71875 14.6094 5.03125C14.5312 5.57812 14.6094 6.35938 15.1562 6.59375H20C20.3125 6.59375 20.625 6.90625 20.625 7.21875V12.1406C20.625 12.2188 20.625 12.2188 20.5469 12.2969C20.1562 13.625 18.6719 13.9375 17.4219 13.625C17.2656 13.625 17.1094 13.4688 17.0312 13.3125C17.0312 13.3125 16.7188 12.8438 16.0156 12.8438C15.1562 13 14.8438 13.5469 14.8438 14.0156C14.8438 14.4062 15.1562 15.0312 16.0156 15.1094C16.7969 15.1875 17.0312 14.6406 17.0312 14.6406C17.1094 14.4844 17.2656 14.4062 17.4219 14.3281C18.6719 14.0156 20.1562 14.4062 20.5469 15.7344C20.5469 15.8125 20.625 15.8125 20.625 15.8906V20.8125C20.625 21.125 20.3125 21.3594 20 21.3594H15.1562C14.6094 21.5938 14.5312 22.375 14.6094 23C15 23.3125 15.5469 23.9375 15.3906 24.9531C15.2344 26.5156 14.1406 27.1406 13.125 27.1406Z" fill="#55ACEE"/>
</svg>
