<svg width="38" height="38" viewBox="0 0 38 38" fill="none" xmlns="http://www.w3.org/2000/svg">
<path d="M20.875 2.12478C20.875 3.16031 20.0355 3.99978 19 3.99978C17.9645 3.99978 17.125 3.16031 17.125 2.12478C17.125 1.08925 17.9645 0.249779 19 0.249779C20.0355 0.249779 20.875 1.08925 20.875 2.12478Z" fill="#427096"/>
<path d="M37.125 9.62479C37.125 10.6603 36.2855 11.4998 35.25 11.4998C34.2145 11.4998 33.375 10.6603 33.375 9.62479C33.375 8.58925 34.2145 7.74979 35.25 7.74979C36.2855 7.74979 37.125 8.58925 37.125 9.62479Z" fill="#549AD4"/>
<path d="M4.62501 9.62479C4.62501 10.6603 3.78555 11.4998 2.75001 11.4998C1.71448 11.4998 0.875011 10.6603 0.875011 9.62479C0.875012 8.58925 1.71448 7.74979 2.75001 7.74979C3.78555 7.74979 4.62501 8.58925 4.62501 9.62479Z" fill="#549AD4"/>
<path d="M4.79435 24.9373C2.89658 25.418 1.49997 27.1373 1.49997 29.1962V29.9284C1.49997 31.1452 2.47561 32.1248 3.68747 32.1248H8.0625C9.27436 32.1248 10.25 31.1452 10.25 29.9284V29.1962C10.25 27.1373 8.85339 25.418 6.95562 24.9373H4.79435Z" fill="#427096"/>
<path d="M8.97436 26.1067C8.375 29.6248 5.24999 31.3777 2.05299 31.3777C2.45321 31.8328 3.03254 32.1248 3.68749 32.1248H8.06251C9.27436 32.1248 10.25 31.1455 10.25 29.9287V29.1963C10.25 27.9854 9.75838 26.8998 8.97436 26.1067Z" fill="#365B7A"/>
<path d="M34.625 23.3748C34.625 24.7555 33.5057 25.8748 32.125 25.8748C30.7443 25.8748 29.625 24.7555 29.625 23.3748C29.625 21.9941 30.7443 20.8748 32.125 20.8748C33.5057 20.8748 34.625 21.9941 34.625 23.3748Z" fill="#FFD1B5"/>
<path d="M31.0443 24.9373C29.1466 25.418 27.75 27.1373 27.75 29.1962V29.9284C27.75 31.1452 28.7256 32.1248 29.9375 32.1248H34.3125C35.5244 32.1248 36.5 31.1452 36.5 29.9284V29.1962C36.5 27.1373 35.1034 25.418 33.2056 24.9373H31.0443Z" fill="#427096"/>
<path d="M8.37396 17.8463C8.34987 15.089 9.57042 17.0325 10.6259 14.4319C11.6815 11.8314 9.44775 12.3842 11.4222 10.3839C13.3966 8.38359 12.8798 10.6173 15.4725 9.52184C18.0652 8.42635 15.9994 7.22021 18.9993 7.22021C21.9992 7.22021 19.9334 8.42635 22.5261 9.52184C25.1188 10.6174 24.602 8.38359 26.5764 10.3839C28.5508 12.3842 26.3171 11.8314 27.3727 14.4319C28.4282 17.0325 29.6488 15.089 29.6246 17.8463C29.6487 20.6036 28.4282 18.6601 27.3727 21.2607C26.3375 23.8111 28.466 23.3286 26.6859 25.1959H11.3127C9.53262 23.3286 11.6611 23.8111 10.6259 21.2607C9.57042 18.6601 8.34987 20.6036 8.37396 17.8463Z" fill="#E4EFF8"/>
<path d="M25.2842 9.51859C24.7502 9.46733 24.4408 9.9852 23.4104 9.7969C23.598 9.93084 23.8144 10.1181 24.0769 10.3841C26.0513 12.3843 23.8173 11.8314 24.8728 14.4319C25.9283 17.0325 27.1491 15.0889 27.125 17.8462C27.1491 20.6035 25.9283 18.66 24.8728 21.2605C23.8376 23.811 25.9656 23.3287 24.1855 25.1961H26.6855C28.4656 23.3287 26.3376 23.811 27.3728 21.2605C28.4283 18.66 29.6491 20.6035 29.625 17.8462C29.6491 15.0889 28.4283 17.0325 27.3728 14.4319C26.3173 11.8314 28.5513 12.3843 26.5769 10.3841C25.9599 9.75897 25.5855 9.54753 25.2842 9.51859Z" fill="#C4DCF0"/>
<path d="M24.625 17.7496C24.625 20.5111 22.3864 22.7498 19.625 22.7498C16.8636 22.7498 14.625 20.5111 14.625 17.7496C14.625 14.9881 16.8636 12.7495 19.625 12.7495C22.3864 12.7495 24.625 14.9881 24.625 17.7496Z" fill="#C4DCF0"/>
<path d="M33.375 22.1248C33.375 23.5055 32.2558 24.6248 30.875 24.6248C30.5213 24.6237 30.1718 24.5475 29.8496 24.4013C30.2529 25.2967 31.143 25.8731 32.125 25.8747C33.5057 25.8747 34.625 24.7554 34.625 23.3747C34.6242 22.3915 34.0471 21.5001 33.1504 21.0969C33.2973 21.4198 33.3739 21.7701 33.375 22.1248Z" fill="#FFB98D"/>
<path d="M35.2244 26.1067C34.625 29.6248 31.5 31.3777 28.303 31.3777C28.7032 31.8328 29.2825 32.1248 29.9375 32.1248H34.3125C35.5244 32.1248 36.5 31.1455 36.5 29.9287V29.1963C36.5 27.9854 36.0084 26.8998 35.2244 26.1067Z" fill="#365B7A"/>
<path d="M17.125 2.12479C17.1256 2.95058 17.6664 3.67875 18.4568 3.91799C18.403 3.74191 18.3755 3.55888 18.3751 3.37478C18.3751 2.33924 19.2145 1.49978 20.2501 1.49978C20.4342 1.5002 20.6172 1.52774 20.7933 1.58151C20.554 0.791126 19.8258 0.250323 19 0.249756C17.9645 0.249792 17.125 1.08926 17.125 2.12479Z" fill="#365B7A"/>
<path d="M33.375 9.62479C33.3756 10.4506 33.9164 11.1787 34.7068 11.418C34.653 11.2419 34.6255 11.0589 34.625 10.8748C34.625 9.83924 35.4645 8.99978 36.5 8.99978C36.6842 9.0002 36.8672 9.02774 37.0433 9.08151C36.804 8.29113 36.0758 7.75032 35.25 7.74976C34.2145 7.74979 33.375 8.58926 33.375 9.62479Z" fill="#3588CB"/>
<path d="M0.875 9.62479C0.875613 10.4506 1.41641 11.1787 2.20679 11.418C2.15302 11.2419 2.12548 11.0589 2.12506 10.8748C2.12506 9.83924 2.96452 8.99978 4.00005 8.99978C4.18416 9.0002 4.36719 9.02774 4.54327 9.08151C4.30402 8.29113 3.57584 7.75032 2.75002 7.74976C1.71447 7.74979 0.875 8.58926 0.875 9.62479Z" fill="#3588CB"/>
<path d="M14.7974 3.37603L6.42814 7.23769C5.67136 7.58829 6.19733 8.72326 6.95411 8.37266L15.3233 4.511C15.9696 4.22659 15.7224 3.25649 15.0188 3.31604C14.9418 3.32222 14.8668 3.34255 14.7974 3.37603Z" fill="#549AD4"/>
<path d="M3.79362 13.1432C3.39788 13.1706 3.12748 13.555 3.23536 13.9367L4.33341 18.0983C4.53734 18.9183 5.76862 18.594 5.5422 17.7799L4.44415 13.6184C4.37191 13.3227 4.09724 13.1221 3.79362 13.1432Z" fill="#549AD4"/>
<path d="M34.124 13.1432C33.8513 13.1605 33.6214 13.353 33.5565 13.6184L32.4584 17.7799C32.232 18.594 33.4633 18.9183 33.6672 18.0983L34.7652 13.9367C34.8823 13.5218 34.5542 13.1158 34.124 13.1432Z" fill="#549AD4"/>
<path d="M22.6775 4.51097L31.0514 8.37263C31.8256 8.76925 32.378 7.56659 31.5727 7.23766L23.2035 3.376C23.1086 3.33072 23.0039 3.31009 22.8989 3.31601C22.2435 3.35114 22.0782 4.24345 22.6775 4.51097Z" fill="#549AD4"/>
<path d="M24.625 33.375L15.18 30.9476C14.1427 30.681 13.0912 31.2781 12.8152 32.3129C12.5393 33.3478 13.1497 34.405 14.1838 34.6835L25.3213 37.6824C26.9935 38.0079 27.75 37.1234 27.75 35.8751V29.6254C27.75 25.7475 25.2525 22.4743 21.7717 21.3201H16.2283C12.7475 22.4743 10.25 25.7475 10.25 29.6254V35.8751C10.25 37.1234 11.0065 38.0079 12.6787 37.6824L23.8162 34.6835C24.8503 34.405 25.4607 33.3478 25.1848 32.3129C24.9088 31.2781 23.8573 30.681 22.82 30.9476L13.375 33.375H24.625Z" fill="#549AD4"/>
<path d="M13.4617 29.694V33.3521L14.625 32.7482V30.9025C14.625 30.3859 14.2481 29.8737 13.4617 29.694Z" fill="#3588CB"/>
<path d="M13.7082 32.0389L13.4617 33.3521L22.8196 30.9477C23.1373 30.8659 23.453 30.8739 23.7498 30.9429C23.3314 30.2183 22.3247 29.8251 21.8445 29.9483L13.7082 32.0389Z" fill="#3588CB"/>
<path d="M19.8972 21.3203C23.378 22.4746 25.875 25.7469 25.875 29.6248V35.8752C25.875 36.6547 25.5797 37.292 24.9509 37.5818L25.3208 37.6819C26.993 38.0074 27.75 37.1236 27.75 35.8753V29.6248C27.75 25.747 25.253 22.4734 21.7722 21.3192L19.274 21.3198L19.8972 21.3203Z" fill="#3588CB"/>
<path d="M22.5657 33.433L11.4292 36.4323C10.9995 36.5159 10.6322 36.5173 10.3208 36.4559C10.5332 37.3781 11.2835 37.9544 12.6792 37.6827L23.8157 34.6834C24.8498 34.405 25.4612 33.3477 25.1853 32.3128C25.0084 31.6491 24.5103 31.1698 23.9036 30.9786C23.913 31.0077 23.9274 31.0332 23.9352 31.063C24.2111 32.0978 23.5998 33.1545 22.5657 33.433Z" fill="#3588CB"/>
<path d="M20.8736 27.1262C20.8748 27.4715 21.1557 27.7501 21.501 27.7487H23.3734C23.7187 27.7501 23.9996 27.4715 24.0008 27.1262C24.0022 26.7791 23.7204 26.4973 23.3734 26.4987H21.4845C21.1359 26.5152 20.8723 26.7899 20.8736 27.1262Z" fill="#E4EFF8"/>
<path d="M16.2278 21.3204C16.2041 21.3274 16.1827 21.3392 16.1595 21.3461C17.0897 22.2446 18.3318 22.7478 19.6251 22.7499C20.7375 22.7489 21.8179 22.3769 22.6951 21.6928C22.3952 21.5534 22.0897 21.4257 21.7723 21.3205L16.2278 21.3204Z" fill="#3588CB"/>
<path d="M24 17.7496C24 20.5111 21.7614 22.7498 19 22.7498C16.2386 22.7498 14 20.5111 14 17.7496C14 14.9881 16.2386 12.7495 19 12.7495C21.7614 12.7495 24 14.9881 24 17.7496Z" fill="#FFD1B5"/>
<path d="M17.4544 15.947C16.9017 16.4997 16.1686 16.6626 15.8169 16.3109C15.4652 15.9592 15.6281 15.2261 16.1808 14.6734C16.7334 14.1208 17.4666 13.9579 17.8182 14.3095C18.1699 14.6612 18.007 15.3943 17.4544 15.947Z" fill="#FFE5DD"/>
<path d="M18.7356 14.104C18.5171 14.2459 18.2668 14.2484 18.1765 14.1094C18.0861 13.9703 18.1899 13.7426 18.4084 13.6006C18.6268 13.4586 18.8771 13.4562 18.9675 13.5952C19.0578 13.7342 18.954 13.962 18.7356 14.104Z" fill="#FFE5DD"/>
<path d="M18.9988 7.21999C18.4108 7.21999 18.022 7.26795 17.75 7.35062C18.8639 7.6904 17.9428 8.64178 20.0266 9.52227C21.5973 10.186 22.0272 9.63424 22.5608 9.53644C22.549 9.53172 22.5395 9.52936 22.5265 9.52227C19.9339 8.42675 21.9986 7.21999 18.9988 7.21999Z" fill="#C4DCF0"/>
<path d="M8.37506 23.3748C8.37506 24.7555 7.25577 25.8748 5.87506 25.8748C4.49435 25.8748 3.37506 24.7555 3.37506 23.3748C3.37506 21.9941 4.49435 20.8748 5.87506 20.8748C7.25577 20.8748 8.37506 21.9941 8.37506 23.3748Z" fill="#FFD1B5"/>
<path d="M7.12504 22.1248C7.12505 23.5055 6.00576 24.6248 4.62505 24.6248C4.27129 24.6237 3.9218 24.5475 3.59966 24.4013C4.00292 25.2967 4.89304 25.8731 5.87506 25.8747C7.25576 25.8747 8.37504 24.7554 8.37505 23.3747C8.37418 22.3915 7.79712 21.5001 6.90042 21.0969C7.04734 21.4198 7.12391 21.7701 7.12504 22.1248Z" fill="#FFB98D"/>
<path d="M21.843 13.6372C22.4315 14.476 22.7481 15.4752 22.75 16.4998C22.7499 19.2612 20.5114 21.4998 17.75 21.4998C16.7347 21.4998 15.7435 21.1907 14.9082 20.6136C15.8422 21.9503 17.3693 22.7476 19 22.7498C21.7614 22.7498 23.9999 20.5112 24 17.7498C23.9998 16.1079 23.1936 14.5708 21.843 13.6372Z" fill="#FFB98D"/>
</svg>
