

<svg width="40" height="38" viewBox="0 0 40 38" fill="none" xmlns="http://www.w3.org/2000/svg">
<path fill-rule="evenodd" clip-rule="evenodd" d="M7.86093 19.6087C7.86093 19.2628 8.0088 18.9311 8.272 18.6865C8.53521 18.442 8.89219 18.3046 9.26442 18.3046H25.5252L19.4986 12.7075C19.2351 12.4626 19.087 12.1305 19.087 11.7842C19.087 11.4379 19.2351 11.1058 19.4986 10.861C19.7622 10.6161 20.1196 10.4785 20.4923 10.4785C20.865 10.4785 21.2224 10.6161 21.486 10.861L29.9069 18.6854C30.0376 18.8065 30.1413 18.9504 30.212 19.1088C30.2828 19.2673 30.3192 19.4371 30.3192 19.6087C30.3192 19.7802 30.2828 19.95 30.212 20.1085C30.1413 20.2669 30.0376 20.4108 29.9069 20.5319L21.486 28.3564C21.2224 28.6012 20.865 28.7388 20.4923 28.7388C20.1196 28.7388 19.7622 28.6012 19.4986 28.3564C19.2351 28.1115 19.087 27.7794 19.087 27.4331C19.087 27.0868 19.2351 26.7547 19.4986 26.5098L25.5252 20.9127H9.26442C8.89219 20.9127 8.53521 20.7753 8.272 20.5308C8.0088 20.2862 7.86093 19.9545 7.86093 19.6087Z" fill="white"/>
</svg>
