<svg width="40" height="41" viewBox="0 0 40 41" fill="none" xmlns="http://www.w3.org/2000/svg">
<rect y="0.5" width="40" height="40" rx="2" fill="#FF8585"/>
<path d="M20 18.25C19.4033 18.25 18.831 18.4871 18.409 18.909C17.9871 19.331 17.75 19.9033 17.75 20.5C17.75 21.0967 17.9871 21.669 18.409 22.091C18.831 22.5129 19.4033 22.75 20 22.75C20.5967 22.75 21.169 22.5129 21.591 22.091C22.0129 21.669 22.25 21.0967 22.25 20.5C22.25 19.9033 22.0129 19.331 21.591 18.909C21.169 18.4871 20.5967 18.25 20 18.25ZM20 16.75C20.9946 16.75 21.9484 17.1451 22.6517 17.8483C23.3549 18.5516 23.75 19.5054 23.75 20.5C23.75 21.4946 23.3549 22.4484 22.6517 23.1517C21.9484 23.8549 20.9946 24.25 20 24.25C19.0054 24.25 18.0516 23.8549 17.3483 23.1517C16.6451 22.4484 16.25 21.4946 16.25 20.5C16.25 19.5054 16.6451 18.5516 17.3483 17.8483C18.0516 17.1451 19.0054 16.75 20 16.75ZM24.875 16.5625C24.875 16.8111 24.7762 17.0496 24.6004 17.2254C24.4246 17.4012 24.1861 17.5 23.9375 17.5C23.6889 17.5 23.4504 17.4012 23.2746 17.2254C23.0988 17.0496 23 16.8111 23 16.5625C23 16.3139 23.0988 16.0754 23.2746 15.8996C23.4504 15.7238 23.6889 15.625 23.9375 15.625C24.1861 15.625 24.4246 15.7238 24.6004 15.8996C24.7762 16.0754 24.875 16.3139 24.875 16.5625ZM20 14.5C18.1445 14.5 17.8415 14.5053 16.9783 14.5435C16.3903 14.5713 15.9957 14.65 15.6297 14.7925C15.3043 14.9185 15.0695 15.0692 14.8197 15.3197C14.585 15.5465 14.4045 15.8234 14.2917 16.1297C14.1492 16.4972 14.0705 16.891 14.0435 17.4783C14.0045 18.3063 14 18.5957 14 20.5C14 22.3555 14.0053 22.6585 14.0435 23.5217C14.0713 24.109 14.15 24.5043 14.2917 24.8695C14.4193 25.1958 14.5693 25.4305 14.8183 25.6795C15.071 25.9315 15.3057 26.0822 15.6283 26.2067C15.9987 26.35 16.3933 26.4295 16.9783 26.4565C17.8063 26.4955 18.0957 26.5 20 26.5C21.8555 26.5 22.1585 26.4948 23.0217 26.4565C23.6082 26.4288 24.0035 26.35 24.3695 26.2083C24.6943 26.0815 24.9305 25.9307 25.1795 25.6818C25.4323 25.429 25.583 25.1943 25.7075 24.8717C25.85 24.502 25.9295 24.1067 25.9565 23.5217C25.9955 22.6937 26 22.4043 26 20.5C26 18.6445 25.9948 18.3415 25.9565 17.4783C25.9288 16.8918 25.85 16.4957 25.7075 16.1297C25.5945 15.8238 25.4143 15.547 25.1803 15.3197C24.9536 15.0849 24.6766 14.9044 24.3702 14.7917C24.0027 14.6492 23.6082 14.5705 23.0217 14.5435C22.1937 14.5045 21.9043 14.5 20 14.5ZM20 13C22.0378 13 22.292 13.0075 23.0915 13.045C23.8903 13.0825 24.434 13.2078 24.9125 13.3938C25.4075 13.5843 25.8245 13.8422 26.2415 14.2585C26.6229 14.6334 26.918 15.0869 27.1063 15.5875C27.2915 16.0652 27.4175 16.6097 27.455 17.4085C27.4903 18.208 27.5 18.4622 27.5 20.5C27.5 22.5378 27.4925 22.792 27.455 23.5915C27.4175 24.3903 27.2915 24.934 27.1063 25.4125C26.9185 25.9133 26.6233 26.367 26.2415 26.7415C25.8665 27.1227 25.413 27.4178 24.9125 27.6063C24.4347 27.7915 23.8903 27.9175 23.0915 27.955C22.292 27.9903 22.0378 28 20 28C17.9622 28 17.708 27.9925 16.9085 27.955C16.1097 27.9175 15.566 27.7915 15.0875 27.6063C14.5867 27.4184 14.1331 27.1232 13.7585 26.7415C13.3771 26.3666 13.0819 25.9131 12.8938 25.4125C12.7078 24.9347 12.5825 24.3903 12.545 23.5915C12.5097 22.792 12.5 22.5378 12.5 20.5C12.5 18.4622 12.5075 18.208 12.545 17.4085C12.5825 16.609 12.7078 16.066 12.8938 15.5875C13.0814 15.0866 13.3766 14.633 13.7585 14.2585C14.1333 13.8769 14.5868 13.5818 15.0875 13.3938C15.566 13.2078 16.109 13.0825 16.9085 13.045C17.708 13.0097 17.9622 13 20 13Z" fill="white"/>
</svg>
