<svg width="40" height="41" viewBox="0 0 40 41" fill="none" xmlns="http://www.w3.org/2000/svg">
<rect y="0.5" width="40" height="40" rx="2" fill="#FF8585"/>
<path d="M21.0274 13.071C19.2329 12.8241 17.4096 13.2349 15.8943 14.2275C14.379 15.22 13.274 16.7273 12.7833 18.471C12.2926 20.2148 12.4494 22.0771 13.2247 23.7143C14 25.3514 15.3415 26.6528 17.0014 27.378C16.9566 26.8018 16.9978 26.2222 17.1237 25.6582C17.2624 25.029 18.0957 21.561 18.0957 21.561C17.9298 21.1891 17.8469 20.7855 17.8527 20.3782C17.8527 19.2645 18.4955 18.4335 19.2949 18.4335C19.4386 18.4314 19.581 18.4603 19.7125 18.5181C19.8439 18.576 19.9614 18.6614 20.0569 18.7688C20.1524 18.8761 20.2237 19.0027 20.2659 19.14C20.3081 19.2773 20.3202 19.4221 20.3014 19.5645C20.3014 20.2395 19.8679 21.261 19.6414 22.2195C19.5967 22.3953 19.5938 22.5791 19.6332 22.7562C19.6725 22.9333 19.7528 23.0987 19.8678 23.239C19.9827 23.3793 20.129 23.4907 20.2949 23.5641C20.4607 23.6376 20.6415 23.671 20.8227 23.6617C22.2462 23.6617 23.2002 21.8385 23.2002 19.686C23.2002 18.036 22.1074 16.8 20.0929 16.8C19.611 16.7813 19.1302 16.8607 18.6799 17.0334C18.2296 17.2062 17.819 17.4686 17.4732 17.8049C17.1274 18.1412 16.8536 18.5442 16.6683 18.9895C16.483 19.4348 16.3902 19.9132 16.3954 20.3955C16.374 20.9305 16.5466 21.4552 16.8814 21.873C16.944 21.9197 16.9897 21.9855 17.0116 22.0604C17.0335 22.1354 17.0305 22.2154 17.0029 22.2885C16.9684 22.4265 16.8814 22.7557 16.8469 22.8765C16.8398 22.9174 16.8231 22.9561 16.7982 22.9894C16.7734 23.0228 16.741 23.0498 16.7038 23.0683C16.6666 23.0868 16.6255 23.0964 16.584 23.0961C16.5424 23.0959 16.5015 23.0859 16.4644 23.067C15.4264 22.6515 14.9374 21.5092 14.9374 20.205C14.9374 18.0697 16.7254 15.5137 20.3029 15.5137C23.15 15.5137 25.0429 17.5965 25.0429 19.824C25.0429 22.7557 23.4102 24.96 20.9974 24.96C20.6368 24.9715 20.2791 24.8919 19.9574 24.7286C19.6357 24.5652 19.3604 24.3234 19.1569 24.0255C19.1569 24.0255 18.7234 25.7625 18.6379 26.091C18.4634 26.6585 18.2059 27.1971 17.8737 27.6892C18.5659 27.8992 19.2852 28.0042 20.0082 28.0012C20.9934 28.002 21.969 27.8085 22.8793 27.4317C23.7896 27.0549 24.6166 26.5022 25.313 25.8053C26.0094 25.1084 26.5615 24.281 26.9376 23.3705C27.3138 22.46 27.5067 21.4842 27.5052 20.499C27.5043 18.6877 26.848 16.938 25.6577 15.5728C24.4673 14.2077 22.8232 13.3193 21.0289 13.0717L21.0274 13.071Z" fill="white"/>
</svg>
