<svg width="20" height="20" viewBox="0 0 20 20" fill="none" xmlns="http://www.w3.org/2000/svg">
<g clip-path="url(#clip0_1519_2406)">
<path d="M11.708 5.00033C12.522 5.15913 13.27 5.55721 13.8564 6.14361C14.4428 6.73 14.8409 7.47805 14.9997 8.29199M11.708 1.66699C13.3991 1.85486 14.976 2.61214 16.1799 3.8145C17.3838 5.01686 18.143 6.59283 18.333 8.28366M8.52219 11.5529C7.52088 10.5516 6.73022 9.41937 6.15022 8.21135C6.10033 8.10744 6.07539 8.05549 6.05622 7.98975C5.98812 7.75612 6.03704 7.46923 6.17871 7.27138C6.21858 7.2157 6.26621 7.16807 6.36147 7.07281C6.65281 6.78147 6.79848 6.6358 6.89372 6.48932C7.25288 5.93691 7.25288 5.22476 6.89372 4.67235C6.79848 4.52587 6.65281 4.3802 6.36147 4.08886L6.19908 3.92647C5.75621 3.4836 5.53478 3.26217 5.29696 3.14188C4.82399 2.90266 4.26544 2.90266 3.79247 3.14188C3.55465 3.26217 3.33322 3.4836 2.89035 3.92647L2.75899 4.05783C2.31763 4.49919 2.09696 4.71986 1.92842 5.01989C1.7414 5.35281 1.60693 5.86989 1.60807 6.25174C1.60909 6.59586 1.67585 6.83105 1.80935 7.30142C2.52683 9.82925 3.88056 12.2145 5.87054 14.2045C7.86052 16.1945 10.2458 17.5482 12.7737 18.2657C13.244 18.3992 13.4792 18.466 13.8233 18.467C14.2052 18.4681 14.7223 18.3337 15.0552 18.1467C15.3552 17.9781 15.5759 17.7574 16.0172 17.3161L16.1486 17.1847C16.5915 16.7419 16.8129 16.5204 16.9332 16.2826C17.1724 15.8096 17.1724 15.2511 16.9332 14.7781C16.8129 14.5403 16.5915 14.3189 16.1486 13.876L15.9862 13.7136C15.6949 13.4223 15.5492 13.2766 15.4027 13.1814C14.8503 12.8222 14.1382 12.8222 13.5858 13.1814C13.4393 13.2766 13.2936 13.4223 13.0023 13.7136C12.907 13.8089 12.8594 13.8565 12.8037 13.8964C12.6058 14.038 12.319 14.087 12.0853 14.0189C12.0196 13.9997 11.9676 13.9747 11.8637 13.9249C10.6557 13.3449 9.52351 12.5542 8.52219 11.5529Z" stroke="white" stroke-width="2" stroke-linecap="round" stroke-linejoin="round"/>
</g>
<defs>
<clipPath id="clip0_1519_2406">
<rect width="20" height="20" fill="white"/>
</clipPath>
</defs>
</svg>
