<svg width="40" height="41" viewBox="0 0 40 41" fill="none" xmlns="http://www.w3.org/2000/svg">
<rect y="0.5" width="40" height="40" rx="2" fill="#FF8585"/>
<g clip-path="url(#clip0_1519_2359)">
<path d="M26.0719 17.2617C25.2159 17.2617 24.426 16.9781 23.7918 16.4997C23.0643 15.9513 22.5417 15.1468 22.3571 14.2195C22.3114 13.9904 22.2868 13.754 22.2844 13.5117H19.839V20.1938L19.8361 23.8538C19.8361 24.8323 19.1989 25.662 18.3156 25.9538C18.0592 26.0385 17.7824 26.0786 17.4941 26.0628C17.1261 26.0426 16.7813 25.9315 16.4816 25.7522C15.8438 25.3708 15.4114 24.6788 15.3997 23.8872C15.3812 22.65 16.3814 21.6413 17.6177 21.6413C17.8618 21.6413 18.0962 21.6812 18.3156 21.7535V19.9271V19.2706C18.0841 19.2363 17.8486 19.2185 17.6104 19.2185C16.2572 19.2185 14.9916 19.781 14.0869 20.7943C13.4031 21.5602 12.9929 22.5372 12.9297 23.5617C12.8467 24.9076 13.3392 26.187 14.2943 27.131C14.4346 27.2695 14.582 27.3981 14.7361 27.5168C15.555 28.147 16.556 28.4886 17.6104 28.4886C17.8486 28.4886 18.0841 28.471 18.3156 28.4367C19.3006 28.2908 20.2093 27.8399 20.9265 27.131C21.8078 26.26 22.2947 25.1036 22.3 23.8729L22.2874 18.4072C22.7078 18.7315 23.1675 18.9999 23.6608 19.2082C24.4281 19.5319 25.2417 19.696 26.079 19.6957V17.92V17.2611C26.0796 17.2617 26.0725 17.2617 26.0719 17.2617Z" fill="white"/>
</g>
<defs>
<clipPath id="clip0_1519_2359">
<rect width="15" height="15" fill="white" transform="translate(12 13.5)"/>
</clipPath>
</defs>
</svg>
