<svg width="458" height="86" viewBox="0 0 458 86" fill="none" xmlns="http://www.w3.org/2000/svg">
<mask id="mask0_1584_2286" style="mask-type:luminance" maskUnits="userSpaceOnUse" x="0" y="0" width="83" height="86">
<path d="M0 0.869141H82.935V85.1299H0V0.869141Z" fill="white"/>
</mask>
<g mask="url(#mask0_1584_2286)">
<path d="M82.7291 49.4287C82.591 49.2223 82.321 48.9784 81.8125 48.9784C80.6448 48.9784 78.9559 50.2479 78.7676 50.3917C77.1164 51.6612 76.6455 52.7493 76.5325 53.0807C76.3567 53.2121 75.8733 53.5873 75.1764 54.2252C75.3773 53.7374 75.572 53.1871 75.6724 52.6993C75.8482 51.8113 75.8796 50.6544 75.4652 50.0728C75.3146 49.8664 75.1074 49.7351 74.8751 49.7038C74.8437 49.7038 74.8123 49.6976 74.7872 49.6976C74.6365 49.6976 74.4042 49.7538 74.1719 50.004C74.0338 49.7726 73.745 49.5412 73.136 49.5412C72.5835 49.5412 71.849 49.7351 71.1207 50.079C70.744 50.2541 70.3485 50.5043 69.9844 50.7607C70.4176 50.079 70.8319 49.3911 71.2337 48.7032C71.6732 48.6532 72.0625 48.4719 72.3701 48.1717C72.4266 48.1717 72.4768 48.1779 72.527 48.1779C72.9665 48.1779 73.4248 48.1279 73.8957 48.0279C75.0195 47.8778 76.3567 47.1336 76.7585 46.4332C76.9469 46.1143 76.9092 45.8641 76.8464 45.714C76.7523 45.4952 76.5765 45.3326 76.3379 45.245C75.6661 44.9949 74.5549 45.3326 73.7387 45.7265C73.5253 45.8329 73.293 45.9704 73.0419 46.1393C73.0167 45.9517 72.9728 45.7578 72.9163 45.5765C73.2239 44.9511 73.5064 44.3445 73.7638 43.7629C73.8643 43.7754 73.9836 43.7817 74.1343 43.7817C74.5549 43.7817 75.2267 43.7254 76.0617 43.444C77.1604 43.1688 78.4034 42.2871 78.7299 41.5429C78.8806 41.2052 78.8115 40.9613 78.7299 40.8175C78.6169 40.6111 78.372 40.3672 77.8384 40.3672C77.2608 40.3672 76.4446 40.6736 75.6473 41.1802C75.2392 41.4366 74.8249 41.7993 74.4544 42.1495C74.8625 41.1427 75.189 40.2359 75.4464 39.4417C75.8357 39.4417 76.6518 39.3729 77.7003 38.9101C78.7676 38.5349 79.9228 37.5406 80.1802 36.7714C80.2932 36.4212 80.2053 36.1836 80.1111 36.0522C79.9981 35.8772 79.7658 35.677 79.3263 35.677C78.7362 35.677 77.8949 36.0585 77.0725 36.6964C76.6769 37.0028 76.2751 37.4218 75.9361 37.822C76.1872 36.9152 76.3065 36.3212 76.3442 36.1023C76.589 35.8521 77.3487 34.9391 77.7379 32.9004C77.7882 32.6378 78.2025 30.3052 77.4994 29.3609C77.3236 29.1233 77.085 28.9795 76.8088 28.9482C76.7711 28.9419 76.7272 28.9419 76.6895 28.9419C75.3397 28.9419 75.1388 31.3933 75.1388 32.8504C75.1388 34.5076 75.641 35.6833 75.7917 36.0085C75.7603 36.1836 75.6661 36.6526 75.4778 37.3655C75.4401 36.9278 75.3773 36.4837 75.2706 36.096C74.9755 35.0016 74.3289 33.7197 73.4939 33.7197C73.406 33.7197 73.3181 33.7322 73.2302 33.7634C73.0732 33.8135 72.8598 33.951 72.7405 34.3012C72.4831 35.0642 72.8033 36.5588 73.4374 37.4968C73.9961 38.4974 74.6114 39.0415 74.9128 39.2666C74.6742 40.0045 74.3666 40.855 73.9961 41.793C74.0024 41.3303 73.9773 40.8425 73.9082 40.4172C73.7011 39.2478 73.1549 37.8783 72.2822 37.8783C72.2194 37.8783 72.1566 37.8908 72.0938 37.9033C71.9306 37.9408 71.7109 38.0597 71.5602 38.3911C71.2274 39.1353 71.4095 40.6486 71.9494 41.6367C72.414 42.6873 72.9728 43.2876 73.2553 43.5378C73.0544 43.988 72.841 44.4508 72.6087 44.9261C72.458 44.6947 72.2696 44.5008 72.0562 44.3382C71.9934 43.8317 71.8804 43.3689 71.7234 43C71.7674 42.9062 71.805 42.7999 71.8364 42.6936C72.119 41.7055 71.3028 40.2984 69.6391 39.7606C69.118 39.598 68.6408 39.623 68.2202 39.8419C67.9753 39.967 67.787 40.1421 67.6363 40.3234C67.5108 39.8232 67.2785 39.3291 66.8578 38.9664C65.6147 37.8783 63.9824 38.1722 63.1851 39.0665C62.5761 39.7606 62.5635 40.5361 62.7017 41.0864C61.9294 41.0176 61.1823 41.3303 60.6361 41.9369C60.0523 42.581 59.8011 43.4565 59.9644 44.282C60.228 45.5952 61.446 45.9517 62.3752 45.9642C62.0989 46.4707 62.0173 47.021 62.1115 47.5463C61.1886 49.4912 61.0254 50.2854 61.0693 50.6356C60.6989 51.0483 59.5939 52.3991 58.1939 55.2507C58.5015 53.925 58.7966 52.4679 58.8971 51.3423C58.9912 50.2854 59.0791 49.0284 59.167 47.809C59.2989 46.0392 59.4182 44.3695 59.4998 44.0256C59.5061 43.9818 59.5374 43.8505 59.4495 43.7316C59.393 43.6691 59.3051 43.6253 59.2235 43.6253C59.0477 43.6253 58.9473 43.6941 58.5832 44.432C58.332 44.9261 58.0621 45.5452 57.8172 46.183C57.3212 47.4838 56.6871 49.4912 56.4737 51.6612C56.097 55.5447 56.6055 58.0273 56.7374 58.5651C55.9714 60.4912 55.1741 62.8301 54.3893 65.6442C54.4207 65.394 54.427 65.1502 54.3956 64.9188C54.3893 64.875 54.383 64.8312 54.3705 64.7937C54.4144 63.3366 54.3893 62.1609 54.2951 61.298C54.1884 60.2661 54.044 59.0404 53.8996 57.8522C54.3454 57.5896 55.4754 56.8579 55.6889 56.0887C55.7517 55.8448 55.7266 55.6134 55.6073 55.4133C55.3185 54.9318 54.5714 54.838 53.5794 55.1382C53.5166 54.5691 53.479 54.1564 53.4853 54C53.4915 53.8187 53.4099 53.7311 53.3346 53.6936C53.3157 53.6811 53.2906 53.6686 53.2592 53.6623C53.818 53.3059 54.4709 52.7931 54.9167 52.1802C55.2432 51.7175 56.0593 50.3354 55.8835 49.4662C55.827 49.2098 55.6952 49.0097 55.488 48.8846C55.3624 48.8096 55.218 48.772 55.0611 48.772C54.1759 48.772 53.0583 50.0102 52.6 50.9045C52.0664 51.9363 51.8592 53.5623 51.8215 53.9062C51.6269 54.2189 50.6789 55.8136 50.0071 57.9335C50.0197 57.4583 50.0322 56.9767 50.0511 56.5015C50.4529 53.2496 51.47 49.979 52.5624 47.1961C53.1086 46.896 55.7015 45.4389 57.045 44.2194C59.4433 42.0369 60.4289 40.6236 59.9832 40.017C59.889 39.8857 59.7007 39.7294 59.3428 39.7294C58.5141 39.7294 57.0889 40.6111 55.871 41.8681C55.1804 42.5935 54.3516 43.6566 53.6548 44.6197C54.8979 41.8556 56.0091 39.9607 56.1472 39.7231C56.436 39.4229 59.5751 36.1711 61.1258 34.1699C62.551 32.3439 63.9385 29.4235 63.6685 28.254C63.5932 27.9351 63.4111 27.7913 63.273 27.7225C63.0658 27.6162 62.8335 27.5661 62.6012 27.5661C61.3958 27.5661 59.9958 28.9169 58.6585 31.3683C57.2585 33.9323 55.8145 38.9289 55.6638 39.4417C55.5382 39.6543 54.8288 40.8675 53.9247 42.7186C54.2072 41.3803 54.5086 39.8357 54.6091 39.054L54.653 38.7288C54.8162 37.4405 55.0109 35.9835 54.4835 35.3393C54.3265 35.1455 54.1005 35.0267 53.8431 35.0079C52.8512 34.9329 52.3928 36.5088 52.3677 40.1296C52.3615 41.9556 52.7758 44.5884 52.8512 45.0512C52.6 45.6202 52.3489 46.2206 52.1041 46.8459C52.1041 46.8459 52.0978 46.8459 52.0978 46.8522C52.0789 46.8834 52.0664 46.9147 52.0601 46.9522C51.4072 48.6157 50.7794 50.448 50.2834 52.3553C50.861 44.8698 52.1606 38.1347 53.1713 33.7447C53.6924 33.6134 55.2432 33.1944 56.3921 32.4564C57.5284 31.7373 58.6083 30.4365 58.7652 29.6236C58.8092 29.3734 58.7778 29.1733 58.6648 29.017C58.5706 28.8856 58.376 28.7293 57.9993 28.7293C57.2459 28.7293 56.1033 29.3484 55.3687 29.9675C54.8351 30.4178 54.1131 31.3496 53.5543 32.1187C54.0566 30.0551 54.4333 28.7668 54.5023 28.5292C54.7974 28.104 57.3212 24.4519 58.1814 22.3694C59.0101 20.3808 59.7886 18.192 59.3114 17.0789C59.1859 16.785 58.9787 16.5786 58.6962 16.4723C58.5329 16.4098 58.3571 16.3722 58.1876 16.3722C56.6495 16.3722 55.3876 18.8487 54.8162 21.3063C54.1633 24.1079 53.9812 27.9664 53.9687 28.3603C53.9059 28.573 53.5418 29.8112 53.0521 31.8186C52.9453 30.9118 52.7821 29.8487 52.5498 29.2296C52.1606 28.1978 51.2439 26.7344 50.4215 26.7344C50.321 26.7344 50.2332 26.7532 50.1453 26.797C49.9695 26.872 49.8376 27.0346 49.7623 27.2722C49.4923 28.0602 49.8 29.7236 50.4341 30.8993C51.087 32.125 52.2547 33.2694 52.6251 33.6134C51.765 37.3718 50.6852 42.8374 50.0322 49.0159C49.8062 46.8397 49.417 44.801 49.0026 43.075C49.3416 42.7061 50.4341 41.4741 50.9991 40.1921C51.539 38.9727 51.7148 37.2905 51.3946 36.5275C51.2942 36.2961 51.1498 36.1461 50.9677 36.0773C50.8986 36.0522 50.8233 36.0397 50.748 36.0397C49.9192 36.0397 49.0717 37.6219 48.7578 38.6913C48.5945 39.2541 48.5129 40.1671 48.469 41.0051C47.9981 39.3541 47.59 38.2285 47.4833 37.9346C48.199 34.8265 48.2367 31.1494 47.5524 30.1739C47.3891 29.9488 47.2133 29.88 47.0878 29.8675C46.8555 29.8362 46.6357 29.905 46.46 30.0613C46.2402 30.2552 46.1084 30.5741 46.0268 30.893C45.7254 30.3552 45.3487 29.9488 44.8967 29.9488C44.8653 29.9488 44.8339 29.9488 44.8088 29.9488C44.6456 29.9738 44.4195 30.0551 44.25 30.3427C44.0805 30.6304 44.0052 31.0744 44.0115 31.5997C43.7478 31.3558 43.415 31.1307 43.0697 31.0744C42.8123 31.0306 42.5737 31.0869 42.3666 31.2307C42.3038 31.2745 42.241 31.337 42.1908 31.4246C42.1468 31.3245 42.1029 31.2245 42.0527 31.1432C41.9145 30.9368 41.7513 30.8055 41.563 30.768C41.519 30.7617 41.4813 30.7555 41.4374 30.7555C40.5647 30.7555 39.9432 32.5127 39.7988 33.7009C39.7172 34.3825 39.8176 35.5207 39.9306 36.4525C39.1396 35.0267 38.5934 34.1261 38.4678 33.9135C38.3925 33.4695 37.8839 30.6742 36.17 28.3979C34.839 26.6344 33.169 25.4524 32.0013 25.4524C31.6622 25.4524 31.3734 25.5587 31.1788 25.7589C30.2873 26.6531 31.7501 29.1671 33.0686 30.6617C34.6318 32.4252 37.501 33.9636 37.9969 34.2262C38.1413 34.4576 38.6624 35.3206 39.4095 36.6651C38.7001 36.0648 37.8337 35.3769 37.231 35.0767C36.4588 34.689 35.4919 34.4326 34.8264 34.4326C34.1484 34.4326 33.8973 34.6952 33.8031 34.9141C33.7278 35.0955 33.7466 35.3018 33.847 35.5332C34.1861 36.2899 35.5484 37.2967 36.8166 37.7345C38.1099 38.1785 39.7109 38.2285 40.2634 38.2285C40.7531 39.1353 41.2867 40.1671 41.8518 41.299C41.1863 40.6611 40.3701 39.9482 39.7988 39.6168C38.901 39.104 37.5637 38.6725 36.848 38.8914C36.5718 38.9789 36.4462 39.1415 36.3897 39.2603C36.1637 39.7168 36.5718 40.2922 36.9924 40.7299C36.8857 40.7674 36.779 40.8112 36.6785 40.8675C36.5906 40.4485 36.3458 39.8357 35.6866 39.2291C35.3036 38.8726 34.6318 38.6913 33.8784 38.7413C32.9807 38.7976 32.1896 39.1665 31.7062 39.7606C31.4927 40.0108 31.3546 40.2672 31.2604 40.5111C30.7268 40.6862 30.3564 41.3678 30.1492 41.8681C30.1052 41.8743 30.0613 41.8806 30.0111 41.8868C29.6344 41.9306 29.3142 42.0119 29.0317 42.1182C28.9814 41.9181 28.9249 41.7242 28.8747 41.5304C29.1886 41.324 29.8353 40.8237 30.4568 39.8544C31.1474 38.9602 31.5618 37.4906 31.3483 36.7089C31.2542 36.3524 31.0533 36.2023 30.8963 36.1398C30.7958 36.1023 30.6954 36.0835 30.5887 36.0835C29.7725 36.0835 29.0693 37.2967 28.7178 38.3411C28.5734 38.7538 28.4792 39.2353 28.4164 39.6918C28.1904 38.71 28.0209 37.822 27.8953 37.0528C28.2343 36.8777 28.9249 36.4337 29.6344 35.5332C30.4003 34.7015 30.9528 33.2819 30.8147 32.4815C30.7519 32.1187 30.5635 31.9499 30.4192 31.8749C30.2999 31.8123 30.1743 31.7811 30.0425 31.7811C29.2514 31.7811 28.4917 32.8567 28.0397 33.8635C27.8765 34.2325 27.7446 34.664 27.6379 35.0892C27.5626 34.3575 27.5437 33.8823 27.5375 33.6946C27.7384 33.4007 28.4164 32.3189 28.6738 30.6804C28.8747 29.3859 28.9877 27.6912 28.3787 26.947C28.1841 26.7094 27.9267 26.5781 27.6316 26.5656H27.5877C27.3177 26.5656 27.0729 26.6719 26.8657 26.8845C26.0432 27.7287 26.0935 30.0613 26.0997 30.3302C26.1688 32.4002 26.7715 33.4195 26.9787 33.7072C26.985 33.926 27.0038 34.5264 27.1105 35.4582C26.8343 35.0142 26.5078 34.5389 26.1625 34.1762C25.541 33.5196 24.6244 32.8129 23.9024 32.8129C23.645 32.8129 23.4252 32.9004 23.262 33.0693C23.149 33.1944 23.0297 33.4132 23.0862 33.7759C23.2181 34.5764 24.2037 35.7396 25.202 36.2711C26.1688 36.8965 26.9661 37.0841 27.3428 37.1466C27.4747 37.9596 27.6567 38.9101 27.9016 39.967C27.594 39.5668 27.2361 39.1478 26.8782 38.8288C26.2441 38.2723 25.315 37.6719 24.6118 37.6719C24.2226 37.6719 24.0028 37.847 23.8835 37.9971C23.7831 38.1284 23.6826 38.3536 23.7768 38.7163C23.9777 39.498 25.0701 40.5673 26.1186 41.0051C27.1357 41.5366 27.9518 41.6492 28.3285 41.6742C28.3913 41.8993 28.4541 42.1307 28.5231 42.3684C28.0899 42.6373 27.82 42.9875 27.6505 43.3564C27.1357 43.05 26.2316 42.5935 25.5535 42.7436C25.3024 42.7936 25.1078 42.9249 24.9885 43.125C24.9006 43.2689 24.8253 43.5065 24.9571 43.8505C25.2522 44.6071 26.4576 45.5452 27.5437 45.8641C27.6505 45.9079 27.7635 45.9454 27.8765 45.9829C28.2029 46.4144 28.6424 46.6958 28.9124 46.8459C28.8119 47.1023 28.7366 47.3775 28.6989 47.6589C27.82 47.3275 27.167 47.4087 26.8845 47.884C26.8029 48.0279 26.7276 48.2655 26.872 48.6094C27.1608 49.3161 28.272 50.1791 29.3205 50.523C29.2514 50.5418 29.2012 50.5856 29.1635 50.6356C29.0819 50.7607 28.9501 50.9545 30.0299 52.6055C29.3958 52.6117 29.1447 52.9119 29.0442 53.1183C28.9752 53.2684 28.9249 53.5185 29.0945 53.8437C29.4711 54.5628 30.777 55.357 31.8945 55.5509C31.995 55.5822 32.1017 55.6009 32.2022 55.626C32.7421 56.3076 33.3385 57.0017 33.8345 57.4332C34.4058 57.9273 35.0462 58.365 35.6803 58.734C36.8794 61.1166 38.1162 63.6055 39.0768 65.8881C38.3485 64.9688 37.5135 64.0308 36.6283 63.1115C36.4148 62.63 34.4372 58.3025 31.6748 56.0199C30.9402 55.4071 30.1429 54.8693 29.3707 54.344C27.7321 53.2246 26.0307 52.0677 24.6997 50.1416C24.6055 50.0165 24.4988 49.9915 24.4235 49.9915C24.3042 49.9915 24.1975 50.0603 24.1409 50.1728C23.8898 50.7231 25.158 55.8761 27.8011 58.8966C30.5384 62.0296 35.5045 63.3304 36.239 63.5117C37.2624 64.5748 38.2104 65.6567 39.0014 66.701C38.4741 67.0262 38.1413 67.5015 38.0911 68.0768C38.0472 68.5521 38.2041 68.9961 38.5369 69.3713C38.9763 69.8591 39.7297 70.2093 40.6401 70.3719C40.7217 70.6971 40.797 71.0098 40.8535 71.3162C28.0837 65.6317 19.1812 52.8806 19.1686 38.0534C19.1498 21.0562 30.821 6.76048 46.6295 2.72067C48.1676 2.32669 47.8223 1.18229 46.0016 1.02595C44.7711 0.91964 43.5343 0.863358 42.2787 0.869611C18.9238 0.888372 0.00754624 19.7617 0.0263812 43.025C0.051494 66.2883 19.0054 85.1303 42.3603 85.1053C54.201 85.0928 64.899 80.2338 72.571 72.4168C73.8329 71.1286 73.3872 70.0092 71.9369 70.7221C68.9422 72.1917 65.7215 73.2673 62.3312 73.8801L62.6012 73.3674C62.8272 72.9296 63.0595 72.4794 63.2981 72.0291C63.4362 72.0541 63.6497 72.0791 63.9259 72.0791C64.4784 72.0791 65.056 71.9916 65.6461 71.8227C66.7574 71.5976 68.0444 70.7659 68.4023 70.0405C68.5655 69.709 68.509 69.4651 68.4337 69.315C68.3206 69.0899 68.0695 68.8273 67.4856 68.8273C66.9143 68.8273 66.1107 69.0899 65.3385 69.5402C64.9367 69.7716 64.5161 70.0967 64.1394 70.4219C64.5663 69.609 65.0058 68.7835 65.4641 67.933L65.4703 67.9205C65.6901 67.7767 65.9161 67.6016 66.1296 67.4014C66.3305 67.4327 66.5816 67.4515 66.8704 67.4515C67.222 67.4515 67.63 67.4202 68.0946 67.3389C69.2184 67.2201 70.5745 66.5134 71.0014 65.8193C71.1961 65.5066 71.1647 65.2565 71.1019 65.1064C71.0203 64.8812 70.8445 64.7187 70.6059 64.6186C69.9404 64.3497 68.8229 64.6561 68.0005 65.0376C67.7179 65.1627 67.4103 65.3378 67.0713 65.5629C67.0713 65.4441 67.0524 65.3315 67.0211 65.2189C67.4919 64.4498 67.9565 63.7243 68.4211 63.0364C68.6534 63.0927 69.0677 63.174 69.6328 63.174C69.9906 63.174 70.3611 63.1428 70.7378 63.074C71.8678 62.9802 73.2365 62.2985 73.6759 61.6169C73.8769 61.3042 73.8517 61.0541 73.7952 60.904C73.6885 60.6226 73.4123 60.2911 72.6526 60.2911C72.1064 60.2911 71.3907 60.4662 70.6875 60.7727C70.3171 60.9352 69.9279 61.1666 69.5637 61.4105C70.1476 60.6038 70.7189 59.8659 71.2714 59.1905C71.5916 59.3093 72.2382 59.4969 73.18 59.4969C73.2993 59.4969 73.4311 59.4969 73.5629 59.4844C74.7119 59.5219 76.1558 58.9841 76.6581 58.3525C76.8778 58.0711 76.8778 57.8272 76.8402 57.6709C76.7774 57.3895 76.5011 56.9204 75.4276 56.9204C74.9441 56.9204 74.354 57.0142 73.7764 57.1956C73.362 57.3207 72.9163 57.5208 72.5082 57.7334C73.1737 56.983 73.7952 56.3264 74.3477 55.7823C74.693 55.9449 75.4527 56.2451 76.6016 56.2888C76.7523 56.3076 76.9092 56.3201 77.0787 56.3201C78.19 56.3201 79.3766 55.9261 79.8286 55.4071C80.042 55.1632 80.0609 54.9318 80.0358 54.7817C79.9855 54.4503 79.6967 53.8875 78.303 53.8875C77.9012 53.8875 77.4617 53.9375 77.0222 54.025C76.633 54.1063 76.1998 54.2564 75.798 54.4128C76.3442 53.9312 76.7209 53.6373 76.8653 53.5247C77.2169 53.5122 78.5102 53.4247 79.9855 52.6743C81.1596 52.0864 82.6098 51.1797 82.8547 50.2479C82.9363 49.954 82.8861 49.6725 82.7291 49.4287ZM73.9208 37.2154C73.9145 37.2092 73.9145 37.2029 73.9082 37.1904C73.3244 36.3337 73.0858 35.0267 73.2741 34.4763C73.293 34.4201 73.3369 34.3138 73.4123 34.2887C73.4374 34.2825 73.4625 34.2762 73.4939 34.2762C73.8894 34.2762 74.4293 35.1392 74.7307 36.2399C74.9316 36.9715 74.9693 37.9721 74.9755 38.5849C74.6867 38.3223 74.2912 37.8783 73.9208 37.2154ZM72.458 41.4053C72.4517 41.3991 72.4517 41.3866 72.4454 41.3803C71.9432 40.4673 71.8302 39.1478 72.0687 38.6225C72.0938 38.5662 72.1503 38.4661 72.2194 38.4474C72.2445 38.4411 72.2634 38.4411 72.2822 38.4411C72.6777 38.4411 73.1549 39.3666 73.3558 40.5111C73.4813 41.2552 73.4311 42.2558 73.3809 42.8687C73.1172 42.5747 72.7656 42.0995 72.458 41.4053ZM57.0324 51.7112C57.2836 49.1285 58.1751 46.6833 58.7966 45.2888C58.7401 45.9704 58.6773 46.8397 58.6083 47.7715C58.5204 48.9847 58.4325 50.2416 58.3383 51.2922C58.1814 53.0745 57.5033 55.8073 57.0889 57.3519C56.932 56.2075 56.7813 54.2627 57.0324 51.7112ZM56.2791 42.2558C57.5096 40.9738 58.7778 40.2859 59.3428 40.2859C59.4119 40.2859 59.4998 40.2984 59.5312 40.3422C59.6567 40.5736 58.8343 41.8368 56.6683 43.8067C55.7768 44.6197 54.2575 45.5639 53.2467 46.1643C54.0126 45.0512 55.2997 43.2751 56.2791 42.2558ZM53.7992 35.5645C53.9059 35.5707 53.9812 35.6082 54.0503 35.6895C54.4207 36.1523 54.2324 37.5969 54.0942 38.6537L54.0503 38.9789C53.9373 39.917 53.4978 42.0369 53.1902 43.494C53.0583 42.4872 52.9265 41.1614 52.9328 40.1358C52.9579 35.702 53.6924 35.5645 53.7992 35.5645ZM59.1482 31.6372C60.3536 29.436 61.6406 28.1227 62.6012 28.1227C62.7519 28.1227 62.89 28.154 63.0281 28.2228C63.0658 28.2415 63.0972 28.2978 63.1223 28.3791C63.3295 29.2796 62.1241 31.9812 60.6864 33.826C59.5688 35.2643 57.6163 37.3655 56.5239 38.5162C57.0513 36.8027 58.1311 33.507 59.1482 31.6372ZM55.7329 30.3928C56.4737 29.7737 57.4719 29.2859 57.9993 29.2859C58.0495 29.2859 58.1688 29.2921 58.2127 29.3422C58.219 29.3609 58.2379 29.4109 58.2127 29.5173C58.0997 30.1176 57.1706 31.2995 56.0907 31.9874C55.2934 32.494 54.2575 32.8504 53.5794 33.0505C54.1256 32.2626 55.0925 30.9306 55.7329 30.3928ZM37.005 37.2029C35.7933 36.7902 34.6067 35.8584 34.3556 35.3018C34.3116 35.2018 34.3116 35.1455 34.3179 35.133C34.3493 35.0579 34.5188 34.9891 34.8264 34.9891C35.4166 34.9891 36.2767 35.2268 36.9799 35.577C37.727 35.9459 38.9763 37.0153 39.6983 37.6594C38.9826 37.6219 37.9028 37.5156 37.005 37.2029ZM29.2451 38.5224C29.603 37.4656 30.1931 36.6401 30.5887 36.6401C30.6201 36.6401 30.6514 36.6463 30.6828 36.6588C30.7519 36.6839 30.7958 36.7964 30.8084 36.8527C30.9591 37.4155 30.6452 38.6975 30.0048 39.523C30.0048 39.5292 29.9985 39.5355 29.9922 39.5417C29.5842 40.1859 29.1572 40.5986 28.8559 40.8487C28.8998 40.2359 29.0003 39.2416 29.2451 38.5224ZM28.5545 34.0949C29.0003 33.0943 29.6407 32.3376 30.0425 32.3376C30.0801 32.3376 30.1241 32.3501 30.1617 32.3689C30.2245 32.4064 30.2559 32.5127 30.2622 32.5753C30.3626 33.1443 29.9295 34.4013 29.2137 35.158C29.2137 35.1642 29.2075 35.1705 29.2012 35.1768C28.7303 35.7771 28.272 36.1523 27.9455 36.3712C28.046 35.7646 28.2406 34.7828 28.5545 34.0949ZM25.497 35.7959C25.4908 35.7959 25.4845 35.7896 25.4782 35.7833C24.5553 35.2956 23.7329 34.2575 23.6387 33.6821C23.6261 33.6196 23.6199 33.507 23.6701 33.457C23.7078 33.4195 23.7705 33.3695 23.9024 33.3695C24.3356 33.3695 25.0952 33.8572 25.7544 34.5576C26.2755 35.1142 26.7841 35.9772 27.0791 36.515C26.6962 36.415 26.1374 36.2148 25.497 35.7959ZM27.2675 27.2722C27.3679 27.1722 27.4684 27.1221 27.5877 27.1221H27.6065C27.7446 27.1284 27.8514 27.1847 27.9455 27.2972C28.3097 27.7412 28.3725 28.9732 28.1213 30.5929C27.9393 31.756 27.5186 32.6253 27.2612 33.0881C27.0352 32.644 26.7087 31.7623 26.6585 30.3115C26.6271 29.1858 26.8029 27.7537 27.2675 27.2722ZM26.3634 40.5048C26.3572 40.4985 26.3509 40.4985 26.3446 40.4923C25.3778 40.0921 24.4611 39.129 24.3167 38.5724C24.2979 38.5099 24.2791 38.3973 24.3293 38.3411C24.3607 38.291 24.436 38.2285 24.6118 38.2285C25.0513 38.2285 25.8172 38.6412 26.5078 39.2478C27.0729 39.7481 27.663 40.5611 28.002 41.0739C27.6191 41.0113 27.0415 40.855 26.3634 40.5048ZM70.9135 61.2854C71.5414 61.0165 72.188 60.8539 72.6526 60.8539C72.8912 60.8539 73.1925 60.8915 73.2679 61.0916C73.293 61.1604 73.2365 61.2667 73.2051 61.3167C72.8912 61.8045 71.7234 62.4361 70.6813 62.5237C70.675 62.5237 70.6624 62.5237 70.6561 62.5237C70.3046 62.5862 69.9593 62.6112 69.6328 62.6112C69.3503 62.6112 69.1117 62.5924 68.9234 62.5612C69.4068 62.1797 70.2167 61.5919 70.9135 61.2854ZM73.9396 57.7272C74.467 57.5646 74.9944 57.477 75.4276 57.477C75.6661 57.477 76.2249 57.5083 76.3002 57.8022C76.3128 57.8647 76.2626 57.946 76.2186 58.0086C75.8608 58.4526 74.6428 58.9529 73.5692 58.9278C73.5567 58.9278 73.5504 58.9278 73.5441 58.9278C72.7782 58.9716 72.1943 58.8716 71.8113 58.7715C72.3387 58.4463 73.2114 57.9523 73.9396 57.7272ZM68.1825 62.0859C67.9691 61.7607 67.6991 61.2354 67.5045 60.4975C67.5045 60.4912 67.4982 60.4787 67.4982 60.4725C67.1466 59.4907 67.2408 58.1712 67.561 57.6896C67.5924 57.6334 67.6677 57.5458 67.7368 57.5396H67.7619C68.1637 57.5396 68.5153 58.5526 68.5341 59.7533C68.5404 60.51 68.3332 61.4918 68.1825 62.0859ZM67.7619 56.983C67.7368 56.983 67.7179 56.983 67.6991 56.983C67.5296 56.9955 67.291 57.0768 67.0901 57.3832C66.6444 58.0586 66.5879 59.5845 66.9646 60.6476C67.2596 61.7545 67.7117 62.4298 67.9502 62.73C67.5359 63.3491 67.1152 63.9995 66.7009 64.6749C66.6004 64.5748 66.4937 64.4935 66.3744 64.4185C66.3807 64.2872 66.387 64.1558 66.3807 64.037C66.3556 63.1365 66.1296 61.9984 65.5896 61.5231C65.395 61.3542 65.169 61.2792 64.9367 61.298C64.83 61.3105 64.6856 61.3542 64.5474 61.4668C64.6228 61.0603 64.6291 60.6476 64.5286 60.2786C64.4219 59.8971 64.2021 59.6032 63.8945 59.4281C64.2273 58.9591 64.5726 58.4838 64.9241 58.0023C65.2192 57.5833 65.5206 57.1643 65.8282 56.7391C66.1233 56.8329 66.6569 56.958 67.3978 56.958C67.6238 56.958 67.8561 56.9455 68.0883 56.9267C68.7225 56.9142 69.4507 56.7266 70.0471 56.4452C70.0597 56.514 70.0723 56.5828 70.0848 56.6515C70.2543 57.7959 70.6373 58.5214 70.8382 58.8403C70.2229 59.597 69.5763 60.4287 68.9234 61.3417C69.0175 60.8227 69.0991 60.2473 69.0929 59.7471C69.074 58.3713 68.6534 56.983 67.7619 56.983ZM65.0811 67.5015C64.4219 67.8892 63.6497 67.9893 63.1286 68.0143C64.0389 67.0763 64.8614 66.5822 64.8802 66.576C65.012 66.4947 65.056 66.3258 64.9806 66.1945C64.899 66.0632 64.7295 66.0131 64.5977 66.0944C64.5286 66.132 63.725 66.6135 62.8084 67.5265C62.8963 67.0012 63.1286 66.2695 63.769 65.6442C64.334 65.0876 64.9995 64.7562 65.5457 64.7562C65.9098 64.7562 66.1923 64.9 66.387 65.1752C66.5062 65.3503 66.5439 65.5691 66.4874 65.8193C66.3618 66.3884 65.7717 67.1013 65.0811 67.5015ZM44.3316 72.5044C44.1496 71.6726 43.9612 70.8284 43.7603 69.9842C44.4133 69.6277 44.8213 69.1775 44.9971 68.9461C46.0707 69.1212 47.1317 69.4839 47.7658 70.2093C48.2053 71.7227 48.3811 73.0172 48.4188 73.7363C47.025 73.4487 45.6563 73.0859 44.3254 72.6482C44.3379 72.6044 44.3442 72.5544 44.3316 72.5044ZM42.9316 66.601C42.7998 66.0944 42.6679 65.5942 42.5424 65.1064C42.693 65.0814 42.8186 65.0501 42.9002 65.0251C43.5783 65.394 44.1998 65.6317 44.746 65.8443C45.4178 66.107 45.9514 66.3133 46.3218 66.6573C46.7927 67.514 47.1631 68.3833 47.4519 69.215C46.7613 68.7772 45.9012 68.5271 45.0536 68.3895C44.8527 68.0331 44.2312 67.1138 42.9316 66.601ZM39.8741 66.3446C39.5414 65.5316 39.171 64.6811 38.7754 63.8181C38.9324 63.9682 39.1019 64.1183 39.284 64.2621C40.232 65.0063 41.2051 65.1689 41.8455 65.1689C41.8894 65.1689 41.9334 65.1627 41.9773 65.1627C42.084 65.5691 42.1908 65.9819 42.2975 66.4009C42.2661 66.3946 42.2347 66.3821 42.1971 66.3759C41.7576 66.2758 41.3244 66.2258 40.9163 66.2258C40.5396 66.2258 40.188 66.2695 39.8741 66.3446ZM29.2263 48.0654C29.2326 47.6339 29.3456 47.1961 29.5339 46.8209C29.5339 46.8209 29.5339 46.8209 29.5339 46.8147C29.6595 46.577 29.8164 46.3581 29.9922 46.1893C30.5761 45.6515 31.3609 45.5952 31.7376 45.6015C31.7439 45.664 31.7564 45.7203 31.769 45.7641C31.9448 46.5833 32.491 46.9522 32.9493 47.0898C32.8363 47.3275 32.7484 47.5901 32.6919 47.8653C32.5726 48.4343 32.6102 48.9972 32.7735 49.4474C31.8443 49.9352 30.6263 50.2604 29.7034 49.3724C29.3958 49.0722 29.2263 48.6157 29.2263 48.0779C29.2263 48.0716 29.2263 48.0716 29.2263 48.0654ZM34.2802 43.2876C35.9126 42.9687 36.7225 43.6879 37.0238 44.0631C36.5718 44.4195 36.3332 44.9261 36.2265 45.2325C36.1386 45.22 36.0444 45.2137 35.9502 45.2137C35.5484 45.2137 35.109 45.3201 34.5628 45.5452C34.0228 45.7641 33.5771 46.1205 33.2443 46.5833C32.9932 46.5458 32.4721 46.3769 32.3152 45.6515C32.2524 45.3513 32.1959 44.7697 32.5349 44.2569C32.8488 43.7817 33.439 43.4565 34.2802 43.2876ZM37.3628 41.1927C38.675 40.855 39.8051 41.4491 40.2383 42.2058C40.5271 42.7248 40.4643 43.3252 40.3952 43.6566C39.5037 43.4065 38.405 43.5128 37.6328 43.7442C37.5951 43.7567 37.5512 43.7692 37.5135 43.7879C37.2812 43.4752 36.7601 42.9374 35.8372 42.7311C36.013 42.2808 36.4525 41.4303 37.3628 41.1927ZM48.1048 41.7993C47.477 41.0426 46.6106 40.0733 46.0016 39.6356C45.7128 39.4229 45.355 39.2166 44.9846 39.0415C45.1353 38.3098 45.1855 37.4468 45.0788 36.7589C45.625 37.2404 46.2528 37.7032 46.9622 38.1347C47.0878 38.4786 47.5775 39.8294 48.1048 41.7993ZM53.3346 57.846C53.479 59.0592 53.6297 60.3099 53.7427 61.3542C53.8054 61.9921 53.8368 62.8113 53.8306 63.7931C53.7678 63.7368 53.705 63.6806 53.6359 63.6368C53.3534 63.4492 53.0458 63.3554 52.713 63.3554C52.7068 63.3554 52.7068 63.3554 52.7005 63.3554C52.6377 62.9114 52.5812 62.4674 52.5373 62.0171C52.2924 59.4281 52.7005 56.8579 53.0395 55.3758C53.1148 56.0574 53.2216 56.9204 53.3346 57.846ZM61.5025 50.9983C61.8415 50.9858 62.6075 50.7357 64.4784 49.5412C65.1878 49.5162 65.891 49.1472 66.3995 48.4719C66.4372 48.4218 66.4749 48.3656 66.5125 48.3093C66.5188 49.0159 66.6883 49.8039 67.3224 50.2791C67.3789 50.3229 67.4417 50.3604 67.5108 50.398C67.8184 51.2797 68.2139 51.83 68.4337 52.0927C68.3018 52.2803 68.1762 52.4679 68.0507 52.6555C67.4982 53.4435 66.952 54.2064 66.4184 54.9568C66.5376 54.4753 66.6444 53.9562 66.6695 53.4935C66.6946 53.0432 66.6758 52.6055 66.613 52.2178C66.7197 52.0739 66.8076 51.9551 66.8767 51.8676C66.9583 51.7925 67.0085 51.73 67.0399 51.6674C67.1089 51.5361 67.065 51.4298 67.0336 51.3798C66.9834 51.2985 66.8892 51.2484 66.795 51.2484C66.6506 51.2484 66.5879 51.3235 66.4686 51.4861C66.456 51.4923 66.4497 51.4986 66.4372 51.5048C66.1672 50.7669 65.734 50.6418 65.4703 50.6418C65.4703 50.6418 65.4703 50.6418 65.4641 50.6418C65.2757 50.6418 65.0937 50.7231 64.9367 50.8795C64.5161 51.3047 64.3528 52.2052 64.334 52.9056C63.0093 53.7561 61.3016 54.8693 59.9518 55.9324C58.8092 56.8266 57.767 58.2712 56.9445 59.6282C59.1231 53.9 61.0568 51.4986 61.5025 50.9983ZM62.6765 47.5526C62.6765 47.5401 62.6703 47.5276 62.6703 47.5151C62.5698 47.0648 62.6452 46.5833 62.9151 46.1455C63.3546 45.4326 64.1143 44.9011 64.5161 44.6509C64.7421 45.1325 65.1188 45.5639 65.621 45.9016C65.9789 46.1455 66.3807 46.3206 66.8013 46.4207C66.6318 46.8584 66.2991 47.6714 65.9475 48.1404C65.4076 48.8658 64.3968 49.2973 63.5115 48.7095C63.0721 48.4156 62.7896 48.0028 62.6765 47.5526ZM67.6677 42.7373C68.5969 43.2063 68.9171 43.9067 69.0238 44.282C69.1494 44.7385 69.1117 45.195 68.9171 45.5077C68.779 45.7265 68.3144 45.9642 67.63 45.9642C67.4919 45.9642 67.3475 45.9579 67.2094 45.9329C66.7511 45.8704 66.3116 45.7015 65.9349 45.4451C65.3385 45.0386 64.9555 44.4883 64.8551 43.8942C64.786 43.4815 64.8739 43.0813 65.0874 42.7936C65.3259 42.4684 65.6838 42.3058 66.1484 42.3058C66.5879 42.3058 67.0964 42.4497 67.6677 42.7373ZM69.4005 50.5105C69.4256 50.5043 69.4507 50.498 69.4758 50.4855C69.4821 50.4855 69.4947 50.4793 69.5009 50.473C69.457 50.5418 69.4131 50.6106 69.3691 50.6794C69.3817 50.6231 69.3879 50.5668 69.4005 50.5105ZM68.6534 51.4548C68.5153 51.2547 68.352 50.9733 68.1951 50.6168C68.3144 50.6356 68.4337 50.6481 68.5592 50.6481C68.6408 50.6481 68.7287 50.6418 68.8103 50.6356C68.7601 50.942 68.7036 51.2234 68.6534 51.4548ZM70.3736 48.4406C70.3736 48.4406 70.3736 48.4406 70.3736 48.4468C70.3799 48.5719 70.3673 48.697 70.3359 48.8221C70.1664 49.5475 69.6077 49.8476 69.2875 49.9602C69.2184 49.9852 69.1431 50.0102 69.074 50.0227C69.074 50.0227 69.074 50.0227 69.0677 50.029C68.5529 50.1478 67.9879 50.079 67.6614 49.8351C66.8829 49.2536 67.0587 47.9403 67.1529 47.2337C67.1717 47.1273 67.178 47.0398 67.1906 46.9647C67.2596 46.7834 67.3224 46.6271 67.3601 46.5145C67.4543 46.5207 67.5422 46.5207 67.63 46.5207C68.2641 46.5207 68.8166 46.3519 69.1619 46.058C69.5449 46.477 70.3611 47.4713 70.3736 48.4406ZM71.284 54.9631C71.2212 54.7567 71.0705 54.5253 70.7189 54.3877C70.8759 53.8812 71.0831 53.6498 71.2023 53.6498C71.2023 53.6498 71.2023 53.6498 71.2086 53.6498C71.2588 53.6498 71.3342 53.6623 71.4284 53.7686C71.7109 54.0938 71.8427 54.9818 71.7423 55.9386C71.6669 56.6953 71.3467 57.6459 71.1333 58.2212C70.9575 57.871 70.7503 57.3207 70.6373 56.5577C70.6373 56.5515 70.6373 56.5452 70.631 56.539C70.6059 56.4202 70.5871 56.2888 70.5682 56.1513C70.8005 56.0012 70.9889 55.8386 71.1144 55.6697C71.3342 55.3696 71.3279 55.1194 71.284 54.9631ZM70.3108 54.8568C70.3171 54.8568 70.3171 54.8568 70.3171 54.8568C70.3234 54.8568 70.3234 54.8568 70.3297 54.8568C70.518 54.888 70.7001 54.9631 70.744 55.1194C70.7629 55.1882 70.7064 55.2883 70.6624 55.3383C70.3234 55.8011 69.1117 56.3514 68.0632 56.3701C68.057 56.3701 68.0507 56.3701 68.0444 56.3701C67.8247 56.3889 67.6112 56.4014 67.3978 56.4014C66.9457 56.4014 66.5753 56.3514 66.3053 56.2888C66.8202 55.9449 67.6677 55.4071 68.3834 55.1507C68.9547 54.9443 69.5386 54.8317 69.9906 54.8317C70.0848 54.8317 70.1978 54.838 70.3108 54.8568ZM64.8174 61.9921C64.8614 61.9358 64.9179 61.8608 64.9869 61.8545C65.0371 61.8483 65.1188 61.8545 65.2192 61.9421C65.5457 62.2297 65.7905 63.099 65.8219 64.0558C65.8219 64.1058 65.8219 64.1683 65.8219 64.2246C65.734 64.2121 65.6399 64.1996 65.5457 64.1996C65.2632 64.1996 64.9681 64.2621 64.673 64.381C64.4533 63.4554 64.5474 62.4048 64.8174 61.9921ZM62.62 66.2821C62.3626 66.0882 62.1178 66.0757 61.9357 66.107C61.785 66.1382 61.5716 66.232 61.4146 66.5134C61.5465 65.8193 61.6971 65.2002 61.8478 64.6561C62.2433 64.4748 63.3609 63.8932 64.0012 62.8676C64.0075 62.8613 64.0138 62.8551 64.0138 62.8488C63.9636 63.4179 64.0075 64.062 64.1582 64.6311C63.8882 64.7937 63.6245 65.0001 63.3797 65.244C63.0344 65.5816 62.7958 65.9319 62.62 66.2821ZM57.6665 68.9211C57.5284 68.846 57.3589 68.896 57.2836 69.0336C57.2082 69.165 57.2585 69.3338 57.3903 69.4088C57.4091 69.4213 58.2567 69.9029 59.054 70.916C58.5392 70.8409 57.767 70.6596 57.1517 70.2093C56.5113 69.734 55.9965 68.9711 55.9275 68.3895C55.8961 68.1331 55.9526 67.9205 56.097 67.7579C56.2853 67.5328 56.5365 67.4202 56.8441 67.4202C57.4217 67.4202 58.0935 67.8204 58.6459 68.4896C59.2173 69.1712 59.3805 69.9154 59.4119 70.4469C58.5769 69.4401 57.7293 68.9586 57.6665 68.9211ZM66.1107 52.8869C66.1233 53.0745 66.117 53.2684 66.1107 53.4622C66.0668 54.2189 65.7905 55.1819 65.6022 55.7635C65.4264 55.4446 65.2067 54.9506 65.0623 54.2752C65.4578 53.7624 65.8156 53.2809 66.1107 52.8869ZM64.7546 53.3059C64.7609 53.2996 64.7735 53.2934 64.7797 53.2871C64.8174 53.2621 64.8551 53.2371 64.8927 53.2121C65.0748 53.0933 65.2569 52.9807 65.4264 52.8744C64.1959 54.5066 62.1994 57.1268 60.8935 58.4088C59.7635 59.5157 58.1751 60.7914 56.9697 61.7169C56.819 61.7795 56.6746 61.8608 56.5427 61.9671C56.4548 62.0421 56.3858 62.1234 56.3167 62.211C56.2414 62.2673 56.1723 62.3235 56.1033 62.3798C56.8567 60.8164 58.4764 57.8022 60.2971 56.3701C61.6658 55.2945 63.4236 54.1564 64.7546 53.3059ZM64.9179 52.5304C64.9744 51.9676 65.1313 51.4736 65.3322 51.2735C65.3824 51.2234 65.4327 51.1984 65.4703 51.1984C65.7278 51.1984 65.8847 51.5861 65.9663 51.8488C65.6838 52.0364 65.3259 52.2678 64.9179 52.5304ZM56.7436 62.5924C56.9006 62.4736 57.0638 62.3486 57.2333 62.2172C57.3212 62.1922 57.4154 62.1735 57.5096 62.1735C58.1186 62.1735 58.8154 62.7113 59.2989 63.543C59.7509 64.3184 59.7823 65.0876 59.7195 65.6192C59.0854 64.4935 58.4388 63.8119 58.3823 63.7556C58.2755 63.6493 58.0997 63.643 57.9867 63.7494C57.8737 63.8557 57.8737 64.037 57.9804 64.1433C57.993 64.1558 58.6522 64.85 59.28 65.9944C58.7841 65.8381 58.0621 65.5316 57.541 64.9876C56.9822 64.4185 56.5992 63.5743 56.6306 62.9927C56.6432 62.8363 56.6809 62.705 56.7436 62.5924ZM60.8245 63.1302C60.8684 63.3992 60.9312 63.643 61.0003 63.8432C60.7554 64.2246 60.5168 64.5811 60.2971 64.9063C60.2657 64.5498 60.1841 64.1558 60.0209 63.7494C60.2908 63.5367 60.5608 63.3304 60.8245 63.1302ZM57.5724 65.7568C58.1123 66.1632 58.715 66.4071 59.1545 66.5447C58.8908 66.9012 58.6522 67.2201 58.4325 67.4952C57.9177 67.095 57.3589 66.8636 56.8441 66.8636C56.706 66.8636 56.5679 66.8824 56.4423 66.9137C56.6934 66.601 56.9571 66.3133 57.2271 66.0632C57.3401 65.9631 57.4531 65.8568 57.5724 65.7568ZM55.375 68.4708C55.4441 69.0086 55.7391 69.5402 56.1095 69.9779C55.1427 70.9097 54.1633 71.7915 53.4978 72.373C53.8808 71.3975 54.54 69.8716 55.375 68.4708ZM59.0791 68.1331C59.0038 68.0456 58.9285 67.958 58.8468 67.8767C59.098 67.564 59.3742 67.1951 59.6693 66.7823C60.0836 67.7329 60.4101 68.8835 60.4038 70.1593C60.3787 70.6471 60.3662 71.1598 60.3662 71.6914C60.3662 71.7852 60.3662 71.8728 60.3662 71.9603C60.2343 71.6789 60.0899 71.4225 59.9392 71.1786C60.0083 70.7659 60.115 69.3838 59.0791 68.1331ZM60.1213 66.4134C60.1527 66.3196 60.1967 66.1757 60.228 65.9944C60.5545 65.5316 60.8998 65.0188 61.2702 64.4498C61.2828 64.4685 61.2891 64.481 61.2953 64.4935C61.0442 65.3878 60.8056 66.4822 60.6298 67.7704C60.4855 67.2764 60.3097 66.8261 60.1213 66.4134ZM63.5304 62.5737C63.1411 63.1928 62.5196 63.643 62.0676 63.9057C62.4694 62.6425 62.8272 61.9608 62.8398 61.9421C62.9088 61.8045 62.8586 61.6356 62.7205 61.5669C62.5886 61.4918 62.4191 61.5418 62.3438 61.6794C62.3061 61.7482 61.942 62.4424 61.5402 63.6868C61.3644 63.1803 61.2137 62.4111 61.5025 61.5293C61.8353 60.4912 62.5008 59.7908 63.16 59.7908C63.3044 59.7908 63.455 59.8284 63.5994 59.9034C63.7878 60.0035 63.9196 60.1786 63.9887 60.4287C64.1456 60.9915 63.951 61.892 63.5304 62.5737ZM63.3358 59.2468C63.273 59.2405 63.2165 59.2343 63.16 59.2343C62.2433 59.2343 61.3832 60.066 60.9689 61.3605C60.8433 61.7482 60.7868 62.1172 60.7805 62.4611C60.4603 62.705 60.115 62.9677 59.7697 63.2366C59.28 62.4111 58.6083 61.842 57.9365 61.6732C59.0415 60.8039 60.3222 59.7471 61.2891 58.8028C62.2308 57.8835 63.5178 56.2826 64.6291 54.8443C64.8676 55.676 65.1941 56.2013 65.3573 56.4327C65.0623 56.8517 64.7609 57.2644 64.4658 57.6771C64.0829 58.2087 63.7062 58.734 63.3358 59.2468ZM55.6387 63.4117C55.7266 63.3491 55.871 63.2428 56.0719 63.099C56.0844 63.9245 56.5992 64.825 57.1329 65.3753C57.1392 65.3815 57.1454 65.3815 57.1454 65.3878C57.045 65.4753 56.9445 65.5629 56.8441 65.6504C55.6073 66.7948 54.5526 68.6459 53.8054 70.2343C54.3956 67.6578 55.0171 65.394 55.6387 63.4117ZM48.2995 70.0405C48.2995 70.0092 48.2869 69.9779 48.2744 69.9467C48.0986 69.3526 47.8851 68.7272 47.6214 68.0956C47.5147 66.9512 47.5586 65.9256 47.6716 65.0501C48.0295 64.9313 48.8143 64.5998 49.5049 63.7994C49.5174 63.8869 49.53 63.9745 49.5425 64.0683C49.5739 64.6874 49.6116 65.3002 49.6618 65.9068C48.8771 67.489 49.2789 68.8273 49.4421 69.2337C49.1533 69.8966 48.8833 70.6596 48.6699 71.5413C48.5757 71.0786 48.4564 70.572 48.2995 70.0405ZM50.2018 68.9586C51.156 67.0638 52.2296 66.2883 52.2547 66.2695C52.3803 66.182 52.4117 66.0069 52.3238 65.8818C52.2359 65.7568 52.0601 65.7255 51.9345 65.813C51.8592 65.8631 50.7856 66.626 49.8062 68.4771C49.6995 67.8892 49.6932 66.9512 50.2897 65.9131C50.9865 64.6999 51.9345 63.9119 52.713 63.9119C52.9328 63.9119 53.1337 63.9745 53.322 64.0996C53.6108 64.2934 53.7866 64.5998 53.8431 64.9938C53.9436 65.7818 53.5355 66.7823 52.7507 67.6766C51.8718 68.6709 50.8107 68.9086 50.2018 68.9586ZM53.6862 67.3702C53.6799 67.4265 53.6799 67.489 53.6736 67.5453C53.661 67.514 53.6485 67.4765 53.6422 67.439C53.6548 67.4139 53.6736 67.3952 53.6862 67.3702ZM52.2485 56.4827C52.1731 56.9017 52.1041 57.3895 52.0413 57.9273C51.5516 58.0148 51.0744 58.0398 50.7291 58.0461C51.0744 57.5896 51.6709 56.8704 52.261 56.4139C52.2547 56.4577 52.2485 56.4827 52.2485 56.4827ZM50.5785 58.6027C50.9175 58.6027 51.4323 58.5839 51.9848 58.4963C51.8969 59.5782 51.8592 60.8102 51.9848 62.0671C52.0287 62.5299 52.0852 62.9927 52.148 63.4429C51.4637 63.6555 50.7542 64.2309 50.1641 65.0751C50.1139 64.3872 50.0825 63.6993 50.0511 63.0052C50.1076 62.9114 50.1578 62.8113 50.2018 62.7113C50.7794 61.4731 50.8861 60.2536 50.4906 59.3656C50.4341 59.2343 50.365 59.1155 50.2897 59.0091C50.321 58.8716 50.3587 58.734 50.3964 58.6027C50.4466 58.6027 50.5094 58.6027 50.5785 58.6027ZM49.982 59.597C50.3022 60.3224 50.1955 61.398 49.6932 62.4736C49.1407 63.6618 48.2806 64.1934 47.7658 64.4185C48.0797 62.6862 48.6259 61.6669 48.6322 61.6544C48.7076 61.5168 48.6573 61.348 48.5255 61.2729C48.3874 61.1979 48.2178 61.2479 48.1425 61.3855C48.1048 61.448 47.5649 62.4424 47.2447 64.1433C46.9245 63.618 46.5478 62.6925 46.8366 61.4731C47.2071 59.9222 48.0483 58.834 48.8959 58.834C49.0089 58.834 49.1156 58.8528 49.2286 58.8841C49.5614 58.9841 49.8188 59.2343 49.982 59.597ZM46.2904 61.348C45.8384 63.2616 46.7927 64.5561 47.1192 64.925C47.0438 65.4753 46.9999 66.0819 46.9999 66.7386C46.7488 66.2508 46.4725 65.7693 46.1586 65.294C45.1039 63.7056 44.294 61.4293 43.7478 59.5407C44.0868 59.1717 44.9595 58.0523 44.8213 56.2513C44.8213 56.2451 44.8213 56.2388 44.8213 56.2326C44.9406 56.3013 45.0599 56.3701 45.1792 56.4264C46.1209 56.8767 47.5524 57.0518 48.0735 57.1018C48.1927 57.5208 48.2995 57.9398 48.4062 58.3525C47.4707 58.6464 46.6671 59.7533 46.2904 61.348ZM42.1782 61.3105C41.9648 61.0541 41.7387 60.8289 41.5065 60.6288C41.4625 59.8971 41.45 59.1467 41.4625 58.3963C42.0903 59.203 42.8688 59.5532 43.1953 59.6783C43.754 61.6044 44.5828 63.937 45.6877 65.6004C45.7003 65.6129 45.7066 65.6254 45.7128 65.6379C45.4743 65.5316 45.2169 65.4316 44.9469 65.3253C44.4321 65.1251 43.8608 64.9063 43.233 64.5748C43.2957 64.0495 43.3209 62.6675 42.1782 61.3105ZM33.2381 47.9778C33.4201 47.0836 33.9789 46.3832 34.7762 46.058C35.2534 45.8641 35.6238 45.7703 35.9502 45.7703C36.239 45.7703 36.4839 45.8454 36.6911 46.0017C36.9045 46.1643 37.1431 46.2894 37.3691 46.4082C37.8902 46.6833 38.2167 46.8709 38.3046 47.2837C38.3799 47.6214 38.4113 48.2155 37.796 48.4281C37.5637 48.5094 37.3377 48.5719 37.118 48.6282C36.5843 48.772 36.0884 48.9034 35.6112 49.2786C35.2408 49.5662 34.6946 49.9477 34.1861 49.9477C33.9412 49.9477 33.7278 49.8539 33.5394 49.6663C33.2255 49.3474 33.0999 48.6532 33.2381 47.9778ZM37.2624 49.166C37.3942 49.1347 37.5261 49.0972 37.6642 49.0534C37.8149 49.9727 37.9342 50.9608 37.9216 51.4048C37.5386 51.1296 36.7539 50.3792 36.057 49.6413C36.4148 49.3974 36.8104 49.2911 37.2624 49.166ZM38.1978 48.8596C38.4678 48.7158 38.6499 48.5094 38.7629 48.278C39.6607 48.2405 40.5522 47.8152 41.1674 47.1398C41.3244 47.2337 41.4813 47.3212 41.632 47.39C41.6948 47.4213 41.7576 47.4463 41.8204 47.4775C41.6634 47.8465 41.5127 48.2217 41.3621 48.6032C40.9916 48.647 40.8096 48.8221 40.728 48.9721C40.5898 49.2285 40.6463 49.5662 40.8912 49.9727C40.3952 51.705 40.4329 53.3309 40.571 54.4378C40.4203 55.1507 40.4768 56.0387 40.7405 56.9642C40.797 57.1581 40.8598 57.3332 40.9351 57.502C40.9037 58.1211 40.8912 58.734 40.9037 59.3468C39.9181 56.1075 39.0266 53.506 38.4113 51.805C38.5118 51.5111 38.5306 50.7857 38.1978 48.8596ZM42.0966 53.3809C42.1782 53.3684 42.2536 53.3622 42.3289 53.3622C42.624 53.3622 42.9065 53.4747 43.1576 53.6811C43.1639 53.6873 43.1639 53.6873 43.1702 53.6936C43.7478 54.1751 44.1747 55.1319 44.2626 56.2888C44.363 57.5583 43.8984 58.4276 43.5657 58.8841C43.1262 57.2769 42.9002 56.0762 42.8939 56.0512C42.8688 55.9011 42.7181 55.8011 42.5675 55.8261C42.4168 55.8573 42.3163 56.0012 42.3415 56.1513C42.3666 56.2638 42.5863 57.4207 43.0007 58.9716C42.4607 58.684 41.6383 58.0523 41.2804 56.8079C40.9414 55.6385 40.9728 54.5628 41.3558 53.925C41.5316 53.6311 41.7827 53.4497 42.0966 53.3809ZM43.1325 39.3979C43.1011 39.2916 43.1137 39.2416 43.1199 39.2228C43.1513 39.1728 43.2581 39.1478 43.3962 39.1478C43.9487 39.1478 44.9281 39.548 45.6752 40.0858C46.3532 40.5736 47.4142 41.8306 48.0169 42.5747C47.3263 42.4309 46.2716 42.1495 45.4303 41.6992C44.3065 41.0989 43.2895 39.9858 43.1325 39.3979ZM43.5971 41.0113C43.4025 41.349 43.2078 41.6617 43.0383 41.9056C43.0007 41.4491 42.9504 40.8362 42.9316 40.2296C43.1074 40.486 43.3334 40.7487 43.5971 41.0113ZM45.0097 48.2655C45.4492 49.3474 45.8635 50.4105 46.2528 51.4673C45.807 50.9921 45.2734 50.4417 44.7837 50.0165C44.8841 49.4599 44.9595 48.8596 45.0097 48.2655ZM45.581 43.8317C45.6815 43.419 45.8384 42.975 46.033 42.581C46.4348 42.7373 46.8429 42.8624 47.2071 42.9562C47.1819 43.6128 47.0438 44.3257 46.8241 44.8948C46.4913 45.7828 45.8761 46.6833 45.4492 47.2462C45.4178 46.2894 45.3927 44.6447 45.581 43.8317ZM45.1666 42.1933C45.2797 42.2495 45.3989 42.3121 45.5182 42.3621C45.3362 42.7373 45.1855 43.1501 45.0788 43.544C45.0536 42.9374 45.0097 42.3434 44.9344 42.0557C45.0097 42.1057 45.0913 42.1495 45.1666 42.1933ZM44.5325 51.1296C44.5765 50.9733 44.6142 50.817 44.6518 50.6544C45.2357 51.1922 45.8698 51.8676 46.2904 52.3303C45.7568 52.249 45.0097 52.0989 44.3003 51.855C44.3819 51.6174 44.4635 51.3735 44.5325 51.1296ZM43.9612 53.7186C44.5137 53.7186 45.468 54.1376 46.077 54.5441C46.8429 55.0569 47.4582 55.9636 47.7847 56.5077C47.1631 56.4264 46.1209 56.2576 45.4178 55.9199C45.1918 55.8136 44.9532 55.6635 44.7209 55.5009C44.5765 54.788 44.3065 54.1751 43.9612 53.7186ZM46.3846 54.0813C45.8949 53.7499 44.6393 53.0745 43.7792 53.1745C43.8984 52.9182 44.0115 52.6493 44.1119 52.3803C45.198 52.7556 46.3469 52.9119 46.7864 52.9682C47.0313 53.6873 47.2636 54.4003 47.4833 55.1069C47.1694 54.7317 46.799 54.3565 46.3846 54.0813ZM47.3703 48.5406C47.6716 47.2587 48.3874 46.2206 48.7013 46.2206C48.7076 46.2206 48.7201 46.2206 48.7264 46.2206C48.7452 46.2268 48.7892 46.2643 48.8331 46.3582C49.1031 46.9085 49.0654 48.4093 48.6134 49.6038C48.2744 50.4855 47.6591 51.386 47.2384 51.9488C47.2008 50.9921 47.1757 49.3474 47.3703 48.5406ZM48.8896 45.689C48.8331 45.6703 48.7641 45.6577 48.7013 45.6577C47.86 45.6577 47.0815 47.3024 46.8241 48.4093C46.6797 49.0284 46.6483 50.0478 46.6546 50.942C46.303 49.9915 45.9263 49.0284 45.5245 48.0529C45.8572 47.6526 46.8618 46.3832 47.3452 45.0949C47.5775 44.4883 47.7219 43.7817 47.7658 43.0938C48.0609 43.1563 48.312 43.2063 48.469 43.2314C48.651 44.0068 48.8331 44.851 48.9963 45.7328C48.9587 45.7203 48.9273 45.7015 48.8896 45.689ZM44.0931 36.1523C44.1307 36.1273 44.1872 36.096 44.2312 36.1085C44.4635 36.1711 44.746 37.3655 44.4635 38.8163C44.0805 38.6788 43.7101 38.5849 43.3962 38.5849C43.2204 38.5849 43.0823 38.6162 42.9693 38.6662C42.9756 38.6037 42.9881 38.5474 42.9944 38.4911C43.1765 37.4843 43.6787 36.415 44.0931 36.1523ZM44.0177 41.3991C44.1998 41.5491 44.3881 41.6992 44.5828 41.8306C44.5828 41.8306 44.5765 41.8306 44.5765 41.8368C44.5137 41.8556 44.407 41.9181 44.3819 42.087C44.3568 42.2308 44.0303 42.8749 43.685 43.5503C43.6662 43.5941 43.641 43.6441 43.6159 43.6879C43.4653 43.3564 43.3083 43.025 43.1576 42.7061C43.3271 42.4809 43.6662 41.9994 44.0177 41.3991ZM44.1872 43.8067C44.3065 43.5691 44.407 43.3689 44.4949 43.1938C44.5953 44.9761 44.6456 48.7095 43.9926 50.9733C43.7854 51.6987 43.5218 52.3929 43.2204 53.0495C42.9442 52.8869 42.6428 52.7993 42.3289 52.7993C42.2536 52.7993 42.1845 52.8056 42.1092 52.8181C42.5424 50.7857 43.0446 49.5225 43.0446 49.51C43.1074 49.3661 43.0321 49.2035 42.8939 49.1472C42.7495 49.091 42.5863 49.1598 42.5298 49.3036C42.5047 49.3599 41.9522 50.7544 41.4939 53.0245C41.3307 53.1183 41.18 53.2433 41.0481 53.3997C41.0105 52.3303 41.1046 51.0046 41.5818 49.635C42.3666 47.39 43.459 45.2325 44.1872 43.8067ZM42.0401 46.9647C41.9836 46.9397 41.9271 46.9147 41.8706 46.8897C41.7513 46.8334 41.6257 46.7646 41.5002 46.6958C41.8141 46.1956 41.9334 45.6577 41.858 45.1637C41.9145 45.195 41.971 45.2325 42.0275 45.2638C42.1908 45.3701 42.3854 45.5202 42.6114 45.7203C42.4231 46.1143 42.2284 46.5332 42.0401 46.9647ZM41.249 44.9949C41.4186 45.4639 41.3055 46.0267 40.9351 46.5395C40.4706 47.1899 39.6921 47.6339 38.8947 47.7089C38.9073 47.5276 38.8947 47.34 38.8571 47.1649C38.7064 46.477 38.1351 46.1768 37.6265 45.9141C37.4193 45.8078 37.2059 45.6953 37.0238 45.5577C36.9422 45.4952 36.8543 45.4451 36.7601 45.3951C36.8794 45.0637 37.1745 44.4571 37.796 44.2757C38.7315 44.0005 40.8096 43.8067 41.249 44.9949ZM31.5116 50.9608C31.6246 50.9608 31.7125 50.9545 31.7878 50.9483C31.8883 51.1609 31.9887 51.3735 32.0954 51.5861C32.108 51.6112 32.1205 51.6362 32.1331 51.6612C31.4613 51.3423 30.8586 51.0921 30.394 50.8982C30.2685 50.842 30.1492 50.7919 30.0425 50.7482C30.664 50.917 31.1725 50.9608 31.5116 50.9608ZM32.9493 52.0614C32.83 51.8238 32.717 51.5799 32.5977 51.3423C32.4972 51.1359 32.3968 50.9358 32.3026 50.7294C32.4658 50.5856 32.7233 50.3354 32.9995 49.9602C33.0121 49.954 33.0246 49.9414 33.0372 49.9352C33.0748 49.979 33.1062 50.0227 33.1376 50.0603C33.439 50.3542 33.7905 50.5105 34.1861 50.5105C34.2363 50.5105 34.2865 50.5043 34.3368 50.498C34.0542 51.0296 33.891 51.755 33.8282 52.3803C33.8219 52.4241 33.8219 52.4742 33.8219 52.5242C33.5269 52.3553 33.2318 52.2052 32.9493 52.0614ZM34.387 52.4366C34.4811 51.4798 34.7888 50.6356 35.1341 50.3729C35.2408 50.2917 35.3224 50.2917 35.3727 50.2979C35.4417 50.3104 35.5045 50.4042 35.5359 50.4605C35.8058 50.9733 35.787 52.299 35.3538 53.2433C35.3475 53.2496 35.3475 53.2558 35.3475 53.2684C35.3224 53.3184 35.3036 53.3747 35.2785 53.4247C34.9771 53.2183 34.6695 53.0245 34.3619 52.8431C34.3681 52.6993 34.3744 52.5554 34.387 52.4366ZM35.8686 53.4622C36.2704 52.5867 36.3772 51.3485 36.17 50.5606C37.1368 51.5486 37.6265 51.9113 37.8965 52.0176C38.5306 53.7937 39.4723 56.5327 40.5019 59.9534C40.1001 59.7596 39.7046 59.6533 39.3216 59.6345C39.1333 58.6714 38.4113 55.8824 36.2516 54.1439C36.0884 54.0125 35.9189 53.8875 35.7493 53.7624C35.7933 53.6623 35.831 53.5623 35.8686 53.4622ZM39.2149 60.1848C39.7172 60.1848 40.2696 60.3974 40.8033 60.7852H40.8096C41.136 61.0165 41.4562 61.3167 41.7513 61.6669C42.6114 62.6862 42.7181 63.7118 42.6993 64.2621C41.3934 63.4304 40.5459 62.336 40.5396 62.3235C40.4454 62.2047 40.2696 62.1797 40.1441 62.2735C40.0248 62.3673 39.9997 62.5424 40.0939 62.6612C40.1315 62.7113 40.9163 63.7368 42.1845 64.5936C42.084 64.5998 41.971 64.6061 41.8455 64.6061C41.0356 64.6061 40.2948 64.3434 39.6293 63.8244C38.6687 63.0677 38.0597 62.1735 38.0032 61.4418C37.9718 61.0978 38.0723 60.8039 38.2857 60.5663C38.5118 60.3161 38.8319 60.1848 39.2149 60.1848ZM48.9336 73.1735C49.1407 71.6977 49.5112 70.4907 49.9318 69.5277C49.9695 69.5277 50.0009 69.5277 50.0385 69.5277C50.252 71.1161 50.5219 72.667 50.8421 74.1366C50.2143 74.0553 49.5991 73.9552 48.9838 73.8426C48.9775 73.6613 48.9587 73.4361 48.9336 73.1735ZM51.4072 74.1178C51.0807 72.6419 50.8107 71.0723 50.5973 69.4714C51.313 69.3526 52.3175 69.0086 53.1713 68.0456C53.1902 68.0205 53.209 67.9955 53.2279 67.9705C53.3785 68.3895 53.5041 68.6709 53.5669 68.8085C53.2341 70.178 52.9077 71.6414 52.5938 73.2048C52.5875 73.211 52.5938 73.211 52.5875 73.2173C52.5184 73.5612 52.4494 73.9177 52.3803 74.2804C52.3803 74.2866 52.3803 74.2991 52.374 74.3117C52.0538 74.2804 51.7336 74.2491 51.4135 74.2116C51.4135 74.1803 51.4135 74.1491 51.4072 74.1178ZM53.1148 73.4424C53.4664 73.1422 54.9669 71.854 56.436 70.4407C55.8521 71.9165 55.5445 73.236 55.5194 74.4617C54.6467 74.4617 53.7866 74.4242 52.9328 74.3617C52.9956 74.049 53.0521 73.7426 53.1148 73.4424ZM56.9257 70.7283C57.88 71.3725 59.0603 71.4975 59.4809 71.5226C59.8765 72.1479 60.2092 72.9171 60.3662 73.8364C60.3787 73.8989 60.4101 73.9489 60.4478 73.9865C60.4541 74.0427 60.4541 74.099 60.4603 74.1553C60.4603 74.1616 60.4603 74.1616 60.4603 74.1678C59.0226 74.3492 57.5598 74.4492 56.0782 74.4617C56.1033 73.3298 56.3858 72.1041 56.9257 70.7283ZM61.1698 67.9893C61.1949 68.4145 61.2765 68.8648 61.4021 69.2775C61.2514 69.5214 61.1133 69.7716 60.9752 70.0405C61.0191 69.315 61.0882 68.6271 61.1698 67.9893ZM61.8792 66.8261C61.9043 66.7698 61.9671 66.6698 62.0362 66.6573C62.1492 66.6323 62.2747 66.6948 62.4003 66.8324C62.2057 67.439 62.1994 67.9518 62.2057 68.1831C62.0801 68.3395 61.9483 68.5021 61.8227 68.6709C61.6658 67.933 61.6971 67.1826 61.8792 66.8261ZM62.62 68.5709C62.6954 68.5771 62.7833 68.5771 62.89 68.5771C62.9339 68.5771 62.9905 68.5771 63.047 68.5771C63.0532 68.6397 63.0721 68.7022 63.0783 68.7647C63.1725 69.5214 63.0783 70.5157 62.9967 71.1286C62.7456 70.8222 62.4129 70.3344 62.1429 69.6215C62.1366 69.6152 62.1366 69.609 62.1303 69.6027C62.0927 69.5214 62.0613 69.4401 62.0236 69.3588C62.2182 69.0774 62.4191 68.8148 62.62 68.5709ZM63.6308 68.6959C63.6245 68.6459 63.612 68.5896 63.6057 68.5333C63.9196 68.4958 64.2712 68.4333 64.6291 68.3145C64.2963 68.9336 63.9699 69.5402 63.6559 70.1405C63.6873 69.659 63.6873 69.1462 63.6308 68.6959ZM71.849 53.3997C71.6795 53.2058 71.466 53.0995 71.2275 53.0933C70.7754 53.0745 70.3924 53.506 70.1664 54.2752C70.1099 54.2752 70.0534 54.2752 69.9906 54.2752C69.4696 54.2752 68.8355 54.4003 68.1951 54.6254C67.7682 54.7755 67.3036 55.0131 66.8892 55.257C67.4229 54.5128 67.9565 53.7561 68.509 52.9744C68.6408 52.7806 68.7727 52.5867 68.9045 52.3929C69.118 52.4429 69.4821 52.5054 69.9718 52.5054C70.3799 52.5054 70.8005 52.4616 71.2337 52.3741C72.0122 52.2865 72.8912 51.9238 73.5002 51.4736C73.3809 52.0301 73.3369 52.6305 73.406 53.1433C73.4625 54.3002 73.7764 55.0569 73.9459 55.3883C73.3558 55.9824 72.6903 56.6828 71.9683 57.502C72.119 57.0142 72.2508 56.4764 72.301 55.9949C72.3889 55.0944 72.3199 53.9437 71.849 53.3997ZM74.7998 50.2604C74.85 50.2666 74.9316 50.2854 75.0069 50.398C75.2581 50.7482 75.3083 51.6487 75.1199 52.5867C74.9755 53.3309 74.5675 54.2502 74.2975 54.8005C74.1594 54.4378 74.0024 53.8687 73.9647 53.1058C73.9647 53.0995 73.9585 53.0933 73.9585 53.0807C73.8266 52.0989 74.1656 50.8607 74.5549 50.4105C74.6428 50.3167 74.7244 50.2604 74.7998 50.2604ZM71.3593 50.5793C72.006 50.2791 72.6714 50.104 73.136 50.104C73.3558 50.104 73.632 50.1416 73.7073 50.3292C73.7325 50.398 73.6822 50.498 73.6508 50.5543C73.3495 51.0483 72.2006 51.7112 71.1584 51.8238C71.1521 51.8238 71.1458 51.8238 71.1396 51.83C70.7378 51.9051 70.3485 51.9426 69.9718 51.9426C69.7521 51.9426 69.5574 51.9301 69.4005 51.9113C69.8776 51.5174 70.6687 50.9045 71.3593 50.5793ZM73.9836 46.2268C74.85 45.8078 75.7352 45.614 76.137 45.7641C76.2688 45.8141 76.3065 45.8829 76.3316 45.9329C76.3567 46.0017 76.3065 46.1018 76.2751 46.158C75.9863 46.6583 74.8437 47.34 73.8078 47.4713C73.8015 47.4775 73.7952 47.4775 73.789 47.4775C73.4437 47.5526 73.1172 47.5901 72.797 47.6089C72.9226 47.365 73.0042 47.0961 73.0419 46.8147C73.3934 46.5645 73.7073 46.3644 73.9836 46.2268ZM75.9487 41.6492C76.6455 41.2052 77.3738 40.93 77.8384 40.93C78.1523 40.93 78.2214 41.0489 78.2402 41.0926C78.2779 41.1552 78.2402 41.2615 78.2151 41.324C77.9828 41.8493 76.9281 42.656 75.9173 42.9062C75.9047 42.9062 75.8984 42.9124 75.8922 42.9124C75.1576 43.1626 74.5675 43.2189 74.1845 43.2251C74.5988 42.7686 75.3083 42.0557 75.9487 41.6492ZM77.4178 37.1341C78.1209 36.5901 78.868 36.2336 79.3263 36.2336C79.5398 36.2336 79.6151 36.3086 79.6528 36.3649C79.6967 36.4275 79.6654 36.5338 79.6465 36.5963C79.4644 37.1466 78.4913 38.0471 77.5057 38.3911C77.4931 38.3911 77.4868 38.3911 77.4805 38.3973C76.7837 38.71 76.2061 38.8226 75.8105 38.8664C76.181 38.3786 76.8213 37.6031 77.4178 37.1341ZM75.9675 30.4365C76.0931 30.0113 76.3128 29.4985 76.6895 29.4985C76.7083 29.4985 76.7272 29.4985 76.746 29.5048C76.8716 29.5173 76.9657 29.5735 77.0473 29.6924C77.4492 30.2239 77.3989 31.6747 77.1855 32.7941C76.9155 34.2262 76.4509 35.0454 76.1621 35.4457C75.98 34.9579 75.7038 34.0323 75.7038 32.8504C75.7038 31.8686 75.7917 31.0306 75.9675 30.4365ZM72.1943 47.5276C71.9055 47.9528 71.4535 48.1779 70.9198 48.1654C70.7691 47.0273 69.8651 45.9829 69.4947 45.6015C69.683 45.1762 69.7081 44.6572 69.5574 44.1319C69.5574 44.1131 69.5449 44.1006 69.5449 44.0818C69.7897 44.1006 70.1162 44.1444 70.4615 44.2257C70.4741 44.2319 70.4803 44.2319 70.4929 44.2382C71.1458 44.4008 71.849 44.7072 72.1817 45.3013C72.6024 46.0455 72.6087 46.921 72.1943 47.5276ZM71.4284 43.9693C71.3342 43.9255 71.2337 43.888 71.1333 43.8505C71.2023 43.7817 71.2714 43.7066 71.3467 43.6191C71.3781 43.7316 71.4032 43.8442 71.4284 43.9693ZM69.4633 40.2922C70.9261 40.7612 71.4786 41.9181 71.2965 42.5372C71.127 43.1501 70.6813 43.5253 70.4929 43.6629C69.9844 43.5503 69.5323 43.5128 69.2938 43.5065C68.9924 42.9812 68.5278 42.5435 67.9188 42.2433C67.8561 42.2058 67.7933 42.1808 67.7305 42.1495C67.7556 41.9369 67.7807 41.5992 67.7619 41.1989C67.8561 40.9426 68.3081 39.9232 69.4633 40.2922ZM63.6057 39.4354C64.2273 38.7413 65.5017 38.5224 66.4874 39.3854C67.2408 40.042 67.2345 41.3303 67.1843 41.9369C66.3116 41.6492 65.5582 41.7055 65.0246 42.087C64.7483 41.8243 64.177 41.3928 63.3295 41.1864C63.2102 40.9113 62.9779 40.1483 63.6057 39.4354ZM60.5168 44.1757C60.385 43.519 60.5859 42.8249 61.0505 42.3058C61.4837 41.8306 62.0738 41.5804 62.6703 41.643C63.6748 41.7305 64.3403 42.2183 64.6228 42.4809C64.3277 42.8812 64.2147 43.4315 64.3026 43.988C64.3089 44.0256 64.3214 44.0693 64.334 44.1069C64.0012 44.3007 63.3169 44.751 62.777 45.3888C62.3564 45.4326 60.7805 45.5014 60.5168 44.1757ZM62.3815 48.303C62.5698 48.6407 62.8461 48.9409 63.2039 49.1723C63.342 49.2661 63.4927 49.3411 63.6371 49.4036C62.8147 49.8977 61.9671 50.3417 61.6218 50.4292C61.6595 50.0728 61.9922 49.1785 62.3815 48.303ZM55.1239 55.6947C55.149 55.7385 55.1804 55.8136 55.149 55.9386C55.036 56.3326 54.4458 56.8454 53.8243 57.2456C53.7552 56.6953 53.6924 56.17 53.6422 55.701C54.4521 55.4383 55.0046 55.4946 55.1239 55.6947ZM52.4117 55.6385C52.305 55.701 52.1982 55.7698 52.1041 55.8323C51.7148 56.095 51.3318 56.4702 50.9991 56.8454C51.5453 55.4696 52.1292 54.4753 52.2861 54.2126C52.3991 54.1626 52.6251 54.0438 52.9077 53.8812C52.7256 54.2377 52.5373 55.0256 52.4117 55.6385ZM53.096 51.1609C53.5732 50.2354 54.5463 49.3286 55.0611 49.3286C55.1113 49.3286 55.1615 49.3411 55.1992 49.3599C55.2432 49.3911 55.3059 49.4412 55.331 49.5787C55.4503 50.1416 54.879 51.2672 54.4584 51.855C53.9247 52.5992 53.0018 53.1933 52.4431 53.506C52.5373 52.8869 52.7382 51.8488 53.096 51.1609ZM55.3624 21.4314C55.9651 18.8236 57.158 16.9351 58.1876 16.9351C58.2881 16.9351 58.3948 16.9538 58.4953 16.9913C58.6334 17.0476 58.7338 17.1414 58.7966 17.2978C59.2486 18.3484 58.0997 21.1124 57.6665 22.1568C57.0387 23.6764 55.4378 26.1403 54.5777 27.4161C54.6718 26.0278 54.8916 23.445 55.3624 21.4314ZM50.9238 30.6367C50.3273 29.5173 50.095 28.0289 50.2897 27.4536C50.3273 27.3473 50.365 27.3097 50.3776 27.3035C50.3901 27.2972 50.4027 27.291 50.4215 27.291C50.7794 27.291 51.5892 28.2791 52.0224 29.4297C52.3175 30.2052 52.4996 31.8373 52.5875 32.7941C52.0978 32.2876 51.3695 31.4746 50.9238 30.6367ZM49.6493 53.3747C49.5425 55.0131 49.4672 56.6828 49.4421 58.3713C49.4295 58.365 49.4107 58.3588 49.3982 58.3525C49.2538 58.3087 49.1094 58.2837 48.965 58.2775C48.8394 57.7897 48.7076 57.2957 48.5694 56.7954C48.5632 56.7766 48.5569 56.7641 48.5506 56.7453C48.1865 55.4509 47.7721 54.1251 47.3075 52.7681C47.634 52.3741 48.6448 51.0984 49.1345 49.7976C49.2663 49.4599 49.3668 49.091 49.4358 48.7095C49.6053 50.2166 49.6932 51.7863 49.6493 53.3684V53.3747ZM49.2977 38.8476C49.643 37.6532 50.3964 36.5963 50.748 36.5963C50.7542 36.5963 50.7668 36.5963 50.7731 36.6026C50.7919 36.6088 50.8359 36.6463 50.8798 36.7464C51.1184 37.303 50.9991 38.8038 50.4843 39.967C50.1013 40.8362 49.4421 41.7055 48.9838 42.2433C49.0026 41.2865 49.0654 39.6418 49.2977 38.8476ZM46.8304 30.4803C46.8869 30.4303 46.9434 30.4115 47.0187 30.4178C47.1003 30.4428 47.4519 30.9368 47.477 32.8504C47.4896 33.8135 47.4142 34.8953 47.2698 35.9522C47.1694 35.0642 47.0187 34.0323 46.8366 33.2069C46.7739 32.9255 46.6483 32.4127 46.46 31.8811C46.4662 31.4934 46.5604 30.7179 46.8304 30.4803ZM44.7334 30.6241C44.8025 30.5116 44.8527 30.5053 44.8716 30.5053C44.8778 30.5053 44.8841 30.5053 44.8967 30.5053C45.2608 30.5053 45.8949 31.5809 46.2904 33.3257C46.5478 34.4889 46.7362 36.1273 46.8304 37.1154C46.3783 36.54 45.7254 35.5957 45.2231 34.37C44.5325 32.6816 44.4321 31.1369 44.7334 30.6241ZM42.693 31.6873C42.7809 31.6247 42.8688 31.606 42.9756 31.6247C43.3962 31.6935 43.9047 32.2563 44.1056 32.5315C44.2124 33.1693 44.4133 33.876 44.7021 34.5827C45.0348 35.3894 45.424 36.0773 45.7882 36.6276C43.6913 34.9266 42.6554 33.0005 42.6114 32.0375C42.6051 31.8248 42.6491 31.7185 42.693 31.6873ZM42.2473 34.8265C42.3666 34.3888 42.4294 33.901 42.4482 33.4257C42.7495 34.0886 43.2392 34.8453 43.9173 35.6145C43.8796 35.6333 43.8357 35.652 43.7917 35.6833C43.1639 36.0835 42.6303 37.378 42.4419 38.3911C42.3163 39.079 42.354 40.2421 42.4231 41.1927C41.8266 39.9983 41.2679 38.9164 40.7593 37.9721C41.0481 37.5343 41.902 36.1648 42.2473 34.8265ZM40.3575 33.7697C40.5208 32.4377 41.136 31.3183 41.45 31.3183C41.4688 31.3183 41.519 31.3496 41.5755 31.4434C41.902 31.9562 42.0275 33.457 41.7074 34.689C41.4688 35.602 40.9603 36.565 40.5961 37.1716C40.458 36.2274 40.2571 34.5952 40.3575 33.7697ZM33.4892 30.2927C32.0829 28.7043 31.116 26.6093 31.5743 26.1466C31.6685 26.0528 31.8129 26.009 32.0013 26.009C32.8049 26.009 34.3116 26.8595 35.718 28.7293C37.005 30.4365 37.5889 32.5065 37.8086 33.4883C36.8292 32.9442 34.7072 31.6685 33.4892 30.2927ZM43.2957 44.3257C43.1576 44.6009 43.0132 44.8886 42.8625 45.2012C42.6616 45.0324 42.4859 44.8948 42.3289 44.7948C42.084 44.6384 41.8078 44.4883 41.5253 44.357C41.3621 44.1506 41.1612 43.988 40.9226 43.863C40.9854 43.6128 41.0544 43.1938 40.9916 42.7373C41.7199 42.8749 42.354 42.9249 42.6491 42.9437C42.8625 43.394 43.076 43.8505 43.2957 44.3257ZM36.892 39.5042C36.9108 39.4667 36.9673 39.4417 37.0113 39.4292C37.4821 39.2791 38.631 39.5918 39.5163 40.0983C40.2445 40.5173 41.4311 41.6555 42.1092 42.3371C41.7513 42.2996 41.2993 42.237 40.8221 42.137C40.797 42.0682 40.7593 41.9994 40.7217 41.9306C40.232 41.0739 39.0454 40.3797 37.6391 40.5736C36.9673 39.9732 36.8543 39.5793 36.892 39.5042ZM32.1394 40.1108C32.5286 39.6418 33.1753 39.3416 33.9098 39.2979C34.4937 39.2603 35.0399 39.3917 35.3036 39.6356C36.0444 40.3234 36.1574 40.9863 36.17 41.2302C35.6489 41.7117 35.3789 42.3246 35.2659 42.656C34.9395 42.6435 34.5816 42.6623 34.1735 42.7436C33.8094 42.8124 33.4892 42.9124 33.2004 43.0375C32.9869 42.7561 32.5286 42.2746 31.7501 42.0244C31.656 41.7242 31.4802 40.905 32.1394 40.1108ZM31.1411 41.8806C31.0219 41.8681 30.9026 41.8556 30.7707 41.8493C30.8775 41.6367 30.9842 41.4553 31.0972 41.3178C31.0846 41.5304 31.1098 41.7242 31.1411 41.8806ZM25.4782 43.6503C25.4594 43.5878 25.4217 43.4815 25.4656 43.419C25.4908 43.3752 25.541 43.3127 25.6728 43.2876C26.0495 43.2063 26.759 43.4565 27.481 43.913C27.4119 44.2695 27.4119 44.6259 27.4433 44.9136C27.4558 45.0386 27.481 45.1575 27.5123 45.27C26.5769 44.9323 25.6728 44.1506 25.4782 43.6503ZM28.002 44.8573C27.8576 43.444 28.5608 42.631 30.0801 42.4372C31.6183 42.2433 32.4031 42.9437 32.7044 43.3127C32.447 43.494 32.2273 43.7004 32.064 43.9505C31.8255 44.3195 31.7313 44.701 31.7125 45.0449C31.2353 45.0386 30.3187 45.1199 29.6155 45.7828C29.446 45.9392 29.2954 46.133 29.1635 46.3456C28.7931 46.1393 28.0774 45.6452 28.002 44.8573ZM27.3868 48.3968C27.3617 48.3405 27.3303 48.228 27.3679 48.1654C27.5061 47.9341 28.0209 47.9716 28.6738 48.2467C28.7052 48.8658 28.9312 49.4036 29.3142 49.7726C29.4146 49.8727 29.5214 49.954 29.6281 50.029C28.6236 49.7538 27.6065 48.9284 27.3868 48.3968ZM29.5904 53.5873C29.5653 53.531 29.5214 53.4247 29.5528 53.3559C29.6344 53.1683 29.9671 53.1183 30.4317 53.2058C30.551 53.3809 30.6766 53.5623 30.8147 53.7624C30.9779 53.9938 31.2855 54.4253 31.6622 54.9256C30.7393 54.6692 29.8353 54.0438 29.5904 53.5873ZM32.5914 55.2195V55.2132C31.4927 53.8249 30.3438 52.124 29.8792 51.2797C29.9671 51.3235 30.0676 51.361 30.1743 51.411C31.4864 51.9614 33.9224 52.9869 35.8937 54.5754C37.4947 55.8636 38.2543 57.7834 38.5871 58.9716C36.1323 56.1513 33.9036 54.319 33.8784 54.3002C33.7592 54.2001 33.5834 54.2189 33.4892 54.3377C33.3887 54.4565 33.4076 54.6316 33.5269 54.7254C33.552 54.7505 35.7556 56.5702 38.1853 59.3656C37.1494 58.9341 35.4919 58.1336 34.2049 57.008C33.7592 56.6265 33.1816 55.9636 32.5914 55.2195ZM38.1413 59.9534C38.0472 60.0222 37.953 60.0973 37.8777 60.1911C37.6454 60.435 37.5072 60.7289 37.457 61.0541C37.1557 60.4412 36.8543 59.8221 36.5467 59.2155C37.1557 59.5282 37.7144 59.7783 38.1413 59.9534ZM28.2218 58.5276C26.1939 56.2138 25.1015 52.7431 24.7688 51.1672C26.0558 52.7618 27.5751 53.7999 29.0568 54.8067C29.8478 55.3445 30.6012 55.8573 31.3169 56.4452C33.0686 57.896 34.5314 60.2724 35.3664 61.8295C31.5869 58.1086 27.4872 54.9318 27.4307 54.8818C27.3052 54.788 27.1294 54.813 27.0352 54.9318C26.941 55.0569 26.9599 55.232 27.0854 55.3258C27.1482 55.3696 31.5806 58.8153 35.4543 62.7113C33.7529 62.1797 30.2748 60.8727 28.2218 58.5276ZM38.9512 68.9961C38.7252 68.7397 38.6185 68.4458 38.6499 68.1269C38.7001 67.5828 39.1333 67.1576 39.8051 66.9449H39.8113C39.8113 66.9387 39.8176 66.9387 39.8176 66.9387C40.1378 66.8386 40.5082 66.7823 40.9163 66.7823C41.2867 66.7823 41.676 66.8261 42.0778 66.9199C43.2706 67.1888 43.9675 67.8455 44.3191 68.2957C42.8186 68.1519 41.5002 68.3145 41.3934 68.327C41.2428 68.3457 41.136 68.4833 41.1549 68.6397C41.1737 68.7897 41.3118 68.9023 41.4688 68.8835C41.4939 68.8773 42.8374 68.7147 44.3379 68.8585C44.1182 69.0837 43.7854 69.3588 43.3334 69.5777C43.3209 69.5777 43.3146 69.5839 43.302 69.5902C42.8939 69.7778 42.3854 69.9154 41.7764 69.9154H41.6948C41.4311 69.9091 41.1737 69.8841 40.9226 69.8528C40.9163 69.8528 40.9037 69.8466 40.8975 69.8466C40.0374 69.7215 39.3342 69.4213 38.9512 68.9961ZM41.4248 71.5601C41.4437 71.5163 41.4562 71.46 41.4437 71.4037C41.3872 71.0973 41.3181 70.7721 41.2365 70.4469C41.3872 70.4594 41.5316 70.4657 41.6885 70.472H41.7764C42.3415 70.472 42.8249 70.3719 43.2392 70.2218C43.415 70.966 43.5845 71.7164 43.7478 72.4543C42.963 72.1854 42.1845 71.8853 41.4248 71.5601ZM62.0989 73.111L61.7348 73.8176C61.7097 73.8676 61.6971 73.9302 61.7097 73.9865C61.4774 74.024 61.2451 74.0615 61.0128 74.0928C60.95 73.2673 60.9249 72.4856 60.9249 71.7352C61.107 71.0786 61.3644 70.4782 61.6658 69.9404C62.0613 70.9035 62.5384 71.485 62.8084 71.7539C62.5698 72.2104 62.3375 72.667 62.0989 73.111ZM65.621 70.0217C66.2991 69.6277 67.0148 69.3838 67.4856 69.3838C67.7242 69.3838 67.8749 69.4464 67.9377 69.5652C67.9691 69.634 67.9251 69.7403 67.9 69.7966C67.6426 70.3156 66.5502 71.0723 65.5268 71.2787C65.5206 71.2787 65.5143 71.2787 65.5017 71.2787C64.9555 71.4413 64.4282 71.5163 63.9259 71.5163C63.8757 71.5163 63.8317 71.5163 63.7815 71.5163C64.221 71.0848 64.9618 70.4032 65.621 70.0217ZM68.2327 65.5441C69.1054 65.1439 69.9969 64.9751 70.3987 65.1376C70.5243 65.1877 70.562 65.2565 70.5808 65.3065C70.6059 65.3753 70.5557 65.4753 70.5243 65.5316C70.2229 66.0194 69.0615 66.676 68.0256 66.7823C68.013 66.7823 68.0067 66.7823 68.0005 66.7886C67.4291 66.8949 66.952 66.9074 66.5816 66.8886C66.7009 66.7261 66.8013 66.551 66.8829 66.3759C67.3978 65.9944 67.8498 65.713 68.2327 65.5441ZM77.1415 54.5754C77.537 54.4878 77.9389 54.444 78.303 54.444C78.9936 54.444 79.4456 54.6066 79.4833 54.863C79.4896 54.9256 79.4456 54.9943 79.4017 55.0381C79.1003 55.3883 78.0958 55.7635 77.0787 55.7635C76.9281 55.7635 76.7899 55.751 76.6581 55.7385C76.6518 55.7323 76.6393 55.7323 76.633 55.7323C75.867 55.7073 75.2957 55.5509 74.9253 55.4196C75.4778 55.1444 76.3944 54.7254 77.1415 54.5754ZM82.3148 50.104C82.1641 50.6606 81.2035 51.4361 79.7344 52.1802C78.6734 52.7118 77.7254 52.8869 77.198 52.9432C77.4303 52.5054 77.9514 51.7237 79.1129 50.8357C79.9228 50.2104 81.1156 49.5412 81.8125 49.5412C82.095 49.5412 82.2017 49.6475 82.2582 49.7351C82.3336 49.8476 82.3524 49.9665 82.3148 50.104Z" fill="white"/>
</g>
<path d="M101.654 28.5099V14.9521H114.261V28.5099H121.97V38.0904H114.261V49.672C114.261 53.0427 115.215 54.7249 117.124 54.7249C117.588 54.7249 118.084 54.6374 118.605 54.4498C119.139 54.2496 119.547 54.062 119.836 53.8744L120.263 53.5993L123.402 63.7551C120.69 65.2684 117.601 66.0314 114.135 66.0314C111.756 66.0314 109.703 65.6124 107.982 64.7807C106.275 63.9489 104.975 62.8421 104.09 61.4538C103.217 60.053 102.589 58.5896 102.207 57.0512C101.836 55.5004 101.654 53.8494 101.654 52.0984V38.0904H96.3552V28.5099H101.654Z" fill="white"/>
<path d="M131.751 8.19735C133.22 6.73402 134.978 5.99609 137.025 5.99609C139.065 5.99609 140.823 6.73402 142.298 8.19735C143.767 9.66695 144.508 11.4179 144.508 13.4504C144.508 15.489 143.767 17.24 142.298 18.7034C140.823 20.173 139.065 20.9046 137.025 20.9046C134.978 20.9046 133.22 20.173 131.751 18.7034C130.276 17.24 129.541 15.489 129.541 13.4504C129.541 11.4179 130.276 9.66695 131.751 8.19735ZM130.52 28.509V64.9548H143.152V28.509H130.52Z" fill="white"/>
<path d="M154.913 64.9531V28.5073H167.545V32.3344H167.696C170.973 29.0701 174.464 27.4316 178.168 27.4316C179.976 27.4316 181.765 27.6755 183.542 28.1571C185.331 28.6261 187.045 29.3577 188.69 30.3583C190.329 31.3589 191.66 32.7722 192.683 34.5857C193.7 36.4055 194.215 38.5255 194.215 40.9394V64.9531H181.608V44.3413C181.608 42.459 180.993 40.808 179.775 39.3885C178.57 37.9564 176.988 37.2373 175.029 37.2373C173.133 37.2373 171.413 37.9752 169.856 39.4385C168.311 40.9081 167.545 42.5403 167.545 44.3413V64.9531H154.913Z" fill="white"/>
<path d="M232.661 28.5088H247.227L218.473 83.4152H203.932L216.539 59.2764L199.211 28.5088H213.777L223.972 47.1945L232.661 28.5088Z" fill="white"/>
<path d="M277.397 28.5099V14.9521H290.004V28.5099H297.714V38.0904H290.004V49.672C290.004 53.0427 290.958 54.7249 292.867 54.7249C293.331 54.7249 293.827 54.6374 294.348 54.4498C294.882 54.2496 295.29 54.062 295.579 53.8744L296.006 53.5993L299.145 63.7551C296.433 65.2684 293.344 66.0314 289.878 66.0314C287.499 66.0314 285.446 65.6124 283.726 64.7807C282.018 63.9489 280.718 62.8421 279.833 61.4538C278.961 60.053 278.333 58.5896 277.95 57.0512C277.579 55.5004 277.397 53.8494 277.397 52.0984V38.0904H272.099V28.5099H277.397Z" fill="white"/>
<path d="M306.264 64.9531V28.5073H318.896V33.7603H319.046C319.128 33.5789 319.279 33.3475 319.498 33.0599C319.712 32.7785 320.176 32.2844 320.88 31.584C321.595 30.8711 322.361 30.227 323.165 29.6579C323.981 29.0763 325.029 28.5573 326.304 28.107C327.591 27.6568 328.903 27.4316 330.247 27.4316C331.615 27.4316 332.965 27.6255 334.29 28.007C335.627 28.3947 336.606 28.7762 337.228 29.1576L338.233 29.7079L332.959 40.364C331.383 39.0508 329.192 38.3879 326.379 38.3879C324.854 38.3879 323.548 38.7256 322.462 39.3885C321.369 40.0389 320.603 40.8393 320.151 41.7899C319.699 42.7404 319.373 43.5534 319.172 44.2162C318.984 44.8666 318.896 45.3857 318.896 45.7671V64.9531H306.264Z" fill="white"/>
<path d="M345.867 8.19735C347.336 6.73402 349.094 5.99609 351.14 5.99609C353.181 5.99609 354.939 6.73402 356.414 8.19735C357.883 9.66695 358.624 11.4179 358.624 13.4504C358.624 15.489 357.883 17.24 356.414 18.7034C354.939 20.173 353.181 20.9046 351.14 20.9046C349.094 20.9046 347.336 20.173 345.867 18.7034C344.391 17.24 343.657 15.489 343.657 13.4504C343.657 11.4179 344.391 9.66695 345.867 8.19735ZM344.636 28.509V64.9548H357.268V28.509H344.636Z" fill="white"/>
<path d="M406.674 33.0628C410.101 36.8024 411.822 41.3676 411.822 46.7707C411.822 52.1737 410.101 56.7389 406.674 60.4535C403.258 64.1744 398.914 66.0317 393.64 66.0317C388.799 66.0317 384.807 64.2994 381.661 60.8287H381.51V64.9561H369.029V3.87109H381.661V31.9872C384.807 28.9542 388.799 27.4346 393.64 27.4346C398.914 27.4346 403.258 29.3107 406.674 33.0628ZM396.051 52.9242C397.62 51.3233 398.411 49.2721 398.411 46.7707C398.411 44.2567 397.589 42.193 395.95 40.5921C394.324 38.9787 392.296 38.1657 389.873 38.1657C387.494 38.1657 385.485 38.9787 383.846 40.5921C382.201 42.193 381.385 44.2567 381.385 46.7707C381.385 49.2408 382.176 51.2857 383.771 52.8992C385.359 54.5001 387.393 55.3005 389.873 55.3005C392.435 55.3005 394.494 54.5126 396.051 52.9242Z" fill="white"/>
<path d="M457.613 48.4687H431.094C431.094 51.0201 431.923 52.915 433.58 54.1469C435.25 55.3851 437.058 55.998 439.004 55.998C441.045 55.998 442.658 55.7353 443.851 55.1975C445.038 54.6472 446.394 53.5654 447.919 51.9457L457.06 56.4983C453.243 62.8519 446.915 66.0287 438.075 66.0287C432.563 66.0287 427.835 64.1464 423.886 60.3755C419.931 56.6108 417.96 52.0707 417.96 46.7677C417.96 41.4647 419.931 36.9246 423.886 33.1349C427.835 29.3327 432.563 27.4316 438.075 27.4316C443.883 27.4316 448.604 29.1076 452.239 32.4595C455.868 35.7989 457.688 40.5642 457.688 46.7677C457.688 47.6182 457.663 48.1873 457.613 48.4687ZM431.445 41.5147H445.358C445.069 39.6136 444.316 38.1565 443.098 37.1372C441.892 36.1241 440.335 35.6113 438.427 35.6113C436.33 35.6113 434.666 36.1616 433.429 37.2623C432.205 38.3504 431.546 39.7637 431.445 41.5147Z" fill="white"/>
</svg>
