<svg width="40" height="41" viewBox="0 0 40 41" fill="none" xmlns="http://www.w3.org/2000/svg">
<rect y="0.5" width="40" height="40" rx="2" fill="#FF8585"/>
<path d="M27.1572 16.3735C27.5 17.71 27.5 20.5 27.5 20.5C27.5 20.5 27.5 23.29 27.1572 24.6265C26.9667 25.3653 26.4095 25.9465 25.7037 26.143C24.422 26.5 20 26.5 20 26.5C20 26.5 15.5803 26.5 14.2962 26.143C13.5875 25.9435 13.031 25.363 12.8428 24.6265C12.5 23.29 12.5 20.5 12.5 20.5C12.5 20.5 12.5 17.71 12.8428 16.3735C13.0333 15.6348 13.5905 15.0535 14.2962 14.857C15.5803 14.5 20 14.5 20 14.5C20 14.5 24.422 14.5 25.7037 14.857C26.4125 15.0565 26.969 15.637 27.1572 16.3735ZM18.5 23.125L23 20.5L18.5 17.875V23.125Z" fill="white"/>
</svg>
