<svg width="16" height="16" viewBox="0 0 16 16" fill="none" xmlns="http://www.w3.org/2000/svg">
<path fill-rule="evenodd" clip-rule="evenodd" d="M7.99999 2.66671C6.71133 2.66671 5.66666 3.71138 5.66666 5.00004C5.66666 6.2887 6.71133 7.33337 7.99999 7.33337C9.28866 7.33337 10.3333 6.2887 10.3333 5.00004C10.3333 3.71138 9.28866 2.66671 7.99999 2.66671ZM4.33333 5.00004C4.33333 2.975 5.97495 1.33337 7.99999 1.33337C10.025 1.33337 11.6667 2.975 11.6667 5.00004C11.6667 7.02508 10.025 8.66671 7.99999 8.66671C5.97495 8.66671 4.33333 7.02508 4.33333 5.00004ZM6.21751 9.66668C6.25555 9.66669 6.29415 9.6667 6.33333 9.6667H9.66666C9.70584 9.6667 9.74444 9.66669 9.78248 9.66668C10.6007 9.66637 11.1593 9.66617 11.6343 9.81024C12.6996 10.1334 13.5333 10.9671 13.8565 12.0324C14.0005 12.5074 14.0003 13.066 14 13.8842C14 13.9223 14 13.9609 14 14C14 14.3682 13.7015 14.6667 13.3333 14.6667C12.9651 14.6667 12.6667 14.3682 12.6667 14C12.6667 13.0212 12.6594 12.6795 12.5805 12.4195C12.3866 11.7803 11.8864 11.2801 11.2472 11.0862C10.9872 11.0073 10.6455 11 9.66666 11H6.33333C5.35445 11 5.0128 11.0073 4.75276 11.0862C4.11356 11.2801 3.61335 11.7803 3.41945 12.4195C3.34056 12.6795 3.33333 13.0212 3.33333 14C3.33333 14.3682 3.03485 14.6667 2.66666 14.6667C2.29847 14.6667 1.99999 14.3682 1.99999 14C1.99999 13.9609 1.99998 13.9223 1.99997 13.8842C1.99966 13.066 1.99946 12.5074 2.14353 12.0324C2.46669 10.9671 3.30037 10.1334 4.36571 9.81024C4.84065 9.66617 5.39932 9.66637 6.21751 9.66668Z" fill="#FF6666"/>
</svg>
