<svg width="28" height="30" viewBox="0 0 28 30" fill="none" xmlns="http://www.w3.org/2000/svg">
<path d="M27.5606 17.1417C27.5146 17.0729 27.4246 16.9917 27.2552 16.9917C26.8662 16.9917 26.3036 17.4146 26.2408 17.4625C25.6908 17.8854 25.5339 18.2479 25.4962 18.3583C25.4377 18.4021 25.2766 18.5271 25.0445 18.7396C25.1114 18.5771 25.1762 18.3937 25.2097 18.2312C25.2683 17.9354 25.2787 17.55 25.1407 17.3562C25.0905 17.2875 25.0215 17.2437 24.9441 17.2333C24.9336 17.2333 24.9232 17.2312 24.9148 17.2312C24.8646 17.2312 24.7872 17.25 24.7098 17.3333C24.6638 17.2562 24.5676 17.1792 24.3647 17.1792C24.1807 17.1792 23.936 17.2437 23.6933 17.3583C23.5678 17.4167 23.4361 17.5 23.3148 17.5854C23.4591 17.3583 23.5971 17.1292 23.731 16.9C23.8774 16.8833 24.0071 16.8229 24.1096 16.7229C24.1284 16.7229 24.1451 16.725 24.1618 16.725C24.3083 16.725 24.4609 16.7083 24.6178 16.675C24.9922 16.625 25.4377 16.3771 25.5715 16.1437C25.6343 16.0375 25.6217 15.9542 25.6008 15.9042C25.5694 15.8312 25.5109 15.7771 25.4314 15.7479C25.2076 15.6646 24.8374 15.7771 24.5655 15.9083C24.4944 15.9437 24.417 15.9896 24.3333 16.0458C24.325 15.9833 24.3103 15.9187 24.2915 15.8583C24.394 15.65 24.4881 15.4479 24.5739 15.2542C24.6073 15.2583 24.6471 15.2604 24.6973 15.2604C24.8374 15.2604 25.0612 15.2417 25.3394 15.1479C25.7054 15.0562 26.1195 14.7625 26.2283 14.5146C26.2785 14.4021 26.2555 14.3208 26.2283 14.2729C26.1906 14.2042 26.1091 14.1229 25.9313 14.1229C25.7389 14.1229 25.467 14.225 25.2013 14.3937C25.0654 14.4792 24.9273 14.6 24.8039 14.7167C24.9399 14.3812 25.0487 14.0792 25.1344 13.8146C25.2641 13.8146 25.536 13.7917 25.8853 13.6375C26.2408 13.5125 26.6257 13.1812 26.7114 12.925C26.7491 12.8083 26.7198 12.7292 26.6884 12.6854C26.6508 12.6271 26.5734 12.5604 26.427 12.5604C26.2304 12.5604 25.9501 12.6875 25.6761 12.9C25.5443 13.0021 25.4105 13.1417 25.2975 13.275C25.3812 12.9729 25.4209 12.775 25.4335 12.7021C25.5151 12.6187 25.7681 12.3146 25.8978 11.6354C25.9146 11.5479 26.0526 10.7708 25.8183 10.4562C25.7598 10.3771 25.6803 10.3292 25.5883 10.3187C25.5757 10.3167 25.5611 10.3167 25.5485 10.3167C25.0989 10.3167 25.0319 11.1333 25.0319 11.6187C25.0319 12.1708 25.1992 12.5625 25.2494 12.6708C25.239 12.7292 25.2076 12.8854 25.1449 13.1229C25.1323 12.9771 25.1114 12.8292 25.0758 12.7C24.9775 12.3354 24.7621 11.9083 24.4839 11.9083C24.4547 11.9083 24.4254 11.9125 24.3961 11.9229C24.3438 11.9396 24.2727 11.9854 24.233 12.1021C24.1472 12.3562 24.2539 12.8542 24.4651 13.1667C24.6513 13.5 24.8562 13.6812 24.9566 13.7562C24.8771 14.0021 24.7747 14.2854 24.6513 14.5979C24.6534 14.4437 24.645 14.2812 24.622 14.1396C24.553 13.75 24.371 13.2937 24.0803 13.2937C24.0594 13.2937 24.0384 13.2979 24.0175 13.3021C23.9631 13.3146 23.8899 13.3542 23.8397 13.4646C23.7289 13.7125 23.7896 14.2167 23.9694 14.5458C24.1242 14.8958 24.3103 15.0958 24.4045 15.1792C24.3375 15.3292 24.2664 15.4833 24.189 15.6417C24.1388 15.5646 24.0761 15.5 24.005 15.4458C23.9841 15.2771 23.9464 15.1229 23.8941 15C23.9088 14.9687 23.9213 14.9333 23.9318 14.8979C24.0259 14.5687 23.754 14.1 23.1997 13.9208C23.0261 13.8667 22.8672 13.875 22.7271 13.9479C22.6455 13.9896 22.5827 14.0479 22.5325 14.1083C22.4907 13.9417 22.4133 13.7771 22.2732 13.6562C21.8591 13.2937 21.3153 13.3917 21.0496 13.6896C20.8468 13.9208 20.8426 14.1792 20.8886 14.3625C20.6313 14.3396 20.3824 14.4437 20.2005 14.6458C20.006 14.8604 19.9223 15.1521 19.9767 15.4271C20.0645 15.8646 20.4703 15.9833 20.7798 15.9875C20.6878 16.1562 20.6606 16.3396 20.692 16.5146C20.3845 17.1625 20.3302 17.4271 20.3448 17.5437C20.2214 17.6812 19.8533 18.1312 19.3869 19.0812C19.4894 18.6396 19.5877 18.1542 19.6211 17.7792C19.6525 17.4271 19.6818 17.0083 19.7111 16.6021C19.755 16.0125 19.7947 15.4562 19.8219 15.3417C19.824 15.3271 19.8345 15.2833 19.8052 15.2437C19.7864 15.2229 19.7571 15.2083 19.7299 15.2083C19.6713 15.2083 19.6379 15.2312 19.5165 15.4771C19.4329 15.6417 19.3429 15.8479 19.2614 16.0604C19.0961 16.4937 18.8849 17.1625 18.8138 17.8854C18.6883 19.1792 18.8577 20.0062 18.9016 20.1854C18.6465 20.8271 18.3808 21.6062 18.1194 22.5437C18.1299 22.4604 18.1319 22.3792 18.1215 22.3021C18.1194 22.2875 18.1173 22.2729 18.1131 22.2604C18.1278 21.775 18.1194 21.3833 18.088 21.0958C18.0525 20.7521 18.0044 20.3437 17.9563 19.9479C18.1048 19.8604 18.4812 19.6167 18.5523 19.3604C18.5733 19.2792 18.5649 19.2021 18.5252 19.1354C18.4289 18.975 18.1801 18.9437 17.8496 19.0437C17.8287 18.8542 17.8161 18.7167 17.8182 18.6646C17.8203 18.6042 17.7931 18.575 17.768 18.5625C17.7617 18.5583 17.7534 18.5542 17.7429 18.5521C17.9291 18.4333 18.1466 18.2625 18.2951 18.0583C18.4038 17.9042 18.6757 17.4437 18.6172 17.1542C18.5984 17.0687 18.5544 17.0021 18.4854 16.9604C18.4436 16.9354 18.3955 16.9229 18.3432 16.9229C18.0483 16.9229 17.676 17.3354 17.5233 17.6333C17.3455 17.9771 17.2765 18.5187 17.264 18.6333C17.1991 18.7375 16.8833 19.2687 16.6595 19.975C16.6637 19.8167 16.6679 19.6562 16.6741 19.4979C16.808 18.4146 17.1468 17.325 17.5108 16.3979C17.6927 16.2979 18.5565 15.8125 19.0041 15.4062C19.8031 14.6792 20.1315 14.2083 19.983 14.0062C19.9516 13.9625 19.8888 13.9104 19.7696 13.9104C19.4935 13.9104 19.0188 14.2042 18.613 14.6229C18.3829 14.8646 18.1068 15.2187 17.8747 15.5396C18.2888 14.6187 18.659 13.9875 18.705 13.9083C18.8012 13.8083 19.847 12.725 20.3636 12.0583C20.8384 11.45 21.3006 10.4771 21.2107 10.0875C21.1856 9.98124 21.1249 9.93332 21.0789 9.91041C21.0099 9.87499 20.9325 9.85832 20.8551 9.85832C20.4536 9.85832 19.9871 10.3083 19.5416 11.125C19.0752 11.9792 18.5942 13.6437 18.544 13.8146C18.5021 13.8854 18.2658 14.2896 17.9646 14.9062C18.0587 14.4604 18.1591 13.9458 18.1926 13.6854L18.2072 13.5771C18.2616 13.1479 18.3265 12.6625 18.1508 12.4479C18.0985 12.3833 18.0232 12.3437 17.9374 12.3375C17.607 12.3125 17.4543 12.8375 17.4459 14.0437C17.4438 14.6521 17.5819 15.5292 17.607 15.6833C17.5233 15.8729 17.4396 16.0729 17.3581 16.2812C17.3581 16.2812 17.356 16.2812 17.356 16.2833C17.3497 16.2937 17.3455 16.3042 17.3434 16.3167C17.1259 16.8708 16.9168 17.4812 16.7515 18.1167C16.944 15.6229 17.3769 13.3792 17.7136 11.9167C17.8872 11.8729 18.4038 11.7333 18.7866 11.4875C19.1652 11.2479 19.5249 10.8146 19.5772 10.5437C19.5918 10.4604 19.5814 10.3937 19.5437 10.3417C19.5124 10.2979 19.4475 10.2458 19.322 10.2458C19.071 10.2458 18.6904 10.4521 18.4457 10.6583C18.2679 10.8083 18.0274 11.1187 17.8412 11.375C18.0085 10.6875 18.134 10.2583 18.157 10.1792C18.2553 10.0375 19.0961 8.82082 19.3827 8.12707C19.6588 7.46457 19.9181 6.73541 19.7592 6.36457C19.7173 6.26666 19.6483 6.19791 19.5542 6.16249C19.4998 6.14166 19.4412 6.12916 19.3848 6.12916C18.8724 6.12916 18.452 6.95416 18.2616 7.77291C18.0441 8.70624 17.9834 9.99166 17.9793 10.1229C17.9583 10.1937 17.837 10.6062 17.6739 11.275C17.6383 10.9729 17.584 10.6187 17.5066 10.4125C17.3769 10.0687 17.0715 9.58124 16.7975 9.58124C16.7641 9.58124 16.7348 9.58749 16.7055 9.60207C16.647 9.62707 16.603 9.68124 16.5779 9.76041C16.488 10.0229 16.5905 10.5771 16.8017 10.9687C17.0193 11.3771 17.4083 11.7583 17.5317 11.8729C17.2451 13.125 16.8854 14.9458 16.6679 17.0042C16.5926 16.2792 16.4629 15.6 16.3249 15.025C16.4378 14.9021 16.8017 14.4917 16.99 14.0646C17.1698 13.6583 17.2284 13.0979 17.1217 12.8437C17.0883 12.7667 17.0402 12.7167 16.9795 12.6937C16.9565 12.6854 16.9314 12.6812 16.9063 12.6812C16.6302 12.6812 16.3479 13.2083 16.2433 13.5646C16.1889 13.7521 16.1617 14.0562 16.1471 14.3354C15.9902 13.7854 15.8543 13.4104 15.8187 13.3125C16.0571 12.2771 16.0697 11.0521 15.8417 10.7271C15.7873 10.6521 15.7288 10.6292 15.6869 10.625C15.6096 10.6146 15.5364 10.6375 15.4778 10.6896C15.4046 10.7542 15.3607 10.8604 15.3335 10.9667C15.2331 10.7875 15.1076 10.6521 14.957 10.6521C14.9465 10.6521 14.9361 10.6521 14.9277 10.6521C14.8733 10.6604 14.798 10.6875 14.7416 10.7833C14.6851 10.8792 14.66 11.0271 14.6621 11.2021C14.5742 11.1208 14.4634 11.0458 14.3484 11.0271C14.2626 11.0125 14.1831 11.0312 14.1141 11.0792C14.0932 11.0937 14.0723 11.1146 14.0555 11.1437C14.0409 11.1104 14.0263 11.0771 14.0095 11.05C13.9635 10.9812 13.9091 10.9375 13.8464 10.925C13.8318 10.9229 13.8192 10.9208 13.8046 10.9208C13.5138 10.9208 13.3068 11.5062 13.2587 11.9021C13.2315 12.1292 13.2649 12.5083 13.3026 12.8187C13.0391 12.3437 12.8571 12.0437 12.8153 11.9729C12.7902 11.825 12.6208 10.8937 12.0498 10.1354C11.6064 9.54791 11.05 9.15416 10.661 9.15416C10.548 9.15416 10.4518 9.18957 10.387 9.25624C10.09 9.55416 10.5773 10.3917 11.0165 10.8896C11.5373 11.4771 12.4932 11.9896 12.6584 12.0771C12.7065 12.1542 12.8801 12.4417 13.129 12.8896C12.8927 12.6896 12.604 12.4604 12.4032 12.3604C12.146 12.2312 11.8239 12.1458 11.6022 12.1458C11.3763 12.1458 11.2926 12.2333 11.2613 12.3062C11.2362 12.3667 11.2424 12.4354 11.2759 12.5125C11.3888 12.7646 11.8427 13.1 12.2652 13.2458C12.696 13.3937 13.2294 13.4104 13.4134 13.4104C13.5766 13.7125 13.7544 14.0562 13.9426 14.4333C13.7209 14.2208 13.449 13.9833 13.2587 13.8729C12.9596 13.7021 12.5141 13.5583 12.2756 13.6312C12.1836 13.6604 12.1418 13.7146 12.123 13.7542C12.0477 13.9062 12.1836 14.0979 12.3238 14.2437C12.2882 14.2562 12.2526 14.2708 12.2192 14.2896C12.1899 14.15 12.1083 13.9458 11.8887 13.7437C11.7611 13.625 11.5373 13.5646 11.2864 13.5812C10.9873 13.6 10.7237 13.7229 10.5627 13.9208C10.4916 14.0042 10.4456 14.0896 10.4142 14.1708C10.2364 14.2292 10.113 14.4562 10.044 14.6229C10.0293 14.625 10.0147 14.6271 9.99797 14.6292C9.87247 14.6437 9.76581 14.6708 9.67169 14.7062C9.65495 14.6396 9.63613 14.575 9.6194 14.5104C9.72398 14.4417 9.9394 14.275 10.1465 13.9521C10.3765 13.6542 10.5146 13.1646 10.4435 12.9042C10.4121 12.7854 10.3452 12.7354 10.2929 12.7146C10.2594 12.7021 10.2259 12.6958 10.1904 12.6958C9.91849 12.6958 9.68424 13.1 9.56711 13.4479C9.51901 13.5854 9.48763 13.7458 9.46672 13.8979C9.39142 13.5708 9.33495 13.275 9.29312 13.0187C9.40606 12.9604 9.63613 12.8125 9.87247 12.5125C10.1276 12.2354 10.3117 11.7625 10.2657 11.4958C10.2448 11.375 10.182 11.3187 10.1339 11.2937C10.0942 11.2729 10.0523 11.2625 10.0084 11.2625C9.74489 11.2625 9.49182 11.6208 9.34122 11.9562C9.28685 12.0792 9.24292 12.2229 9.20737 12.3646C9.18227 12.1208 9.17599 11.9625 9.1739 11.9C9.24083 11.8021 9.46672 11.4417 9.55247 10.8958C9.6194 10.4646 9.65705 9.89999 9.45417 9.65207C9.38933 9.57291 9.30358 9.52916 9.20528 9.52499H9.19063C9.1007 9.52499 9.01913 9.56041 8.95011 9.63124C8.67612 9.91249 8.69285 10.6896 8.69494 10.7792C8.71795 11.4687 8.91873 11.8083 8.98776 11.9042C8.98985 11.9771 8.99612 12.1771 9.03168 12.4875C8.93965 12.3396 8.83089 12.1812 8.71586 12.0604C8.50879 11.8417 8.20343 11.6062 7.9629 11.6062C7.87715 11.6062 7.80395 11.6354 7.74957 11.6917C7.71192 11.7333 7.67218 11.8062 7.691 11.9271C7.73493 12.1937 8.0633 12.5812 8.39585 12.7583C8.71795 12.9667 8.98357 13.0292 9.10906 13.05C9.15299 13.3208 9.21364 13.6375 9.29521 13.9896C9.19273 13.8562 9.07351 13.7167 8.95429 13.6104C8.74305 13.425 8.4335 13.225 8.19925 13.225C8.06957 13.225 7.99637 13.2833 7.95663 13.3333C7.92316 13.3771 7.8897 13.4521 7.92107 13.5729C7.988 13.8333 8.35193 14.1896 8.70121 14.3354C9.04004 14.5125 9.31194 14.55 9.43744 14.5583C9.45835 14.6333 9.47927 14.7104 9.50227 14.7896C9.35796 14.8792 9.26802 14.9958 9.21155 15.1187C9.04004 15.0167 8.73886 14.8646 8.51298 14.9146C8.42931 14.9312 8.36448 14.975 8.32474 15.0417C8.29546 15.0896 8.27036 15.1687 8.31428 15.2833C8.41258 15.5354 8.81416 15.8479 9.17599 15.9542C9.21155 15.9687 9.2492 15.9812 9.28685 15.9937C9.39561 16.1375 9.54201 16.2312 9.63195 16.2812C9.59848 16.3667 9.57339 16.4583 9.56084 16.5521C9.26802 16.4417 9.0505 16.4687 8.95638 16.6271C8.92919 16.675 8.90409 16.7542 8.9522 16.8687C9.04841 17.1042 9.41861 17.3917 9.7679 17.5062C9.74489 17.5125 9.72816 17.5271 9.71561 17.5437C9.68842 17.5854 9.6445 17.65 10.0042 18.2C9.793 18.2021 9.70934 18.3021 9.67587 18.3708C9.65286 18.4208 9.63613 18.5042 9.6926 18.6125C9.8181 18.8521 10.2531 19.1167 10.6254 19.1812C10.6589 19.1917 10.6944 19.1979 10.7279 19.2062C10.9078 19.4333 11.1065 19.6646 11.2717 19.8083C11.462 19.9729 11.6754 20.1187 11.8866 20.2417C12.2861 21.0354 12.6981 21.8646 13.0181 22.625C12.7755 22.3187 12.4974 22.0062 12.2024 21.7C12.1313 21.5396 11.4725 20.0979 10.5522 19.3375C10.3075 19.1333 10.0419 18.9542 9.78463 18.7792C9.23874 18.4062 8.67193 18.0208 8.22853 17.3792C8.19715 17.3375 8.1616 17.3292 8.1365 17.3292C8.09676 17.3292 8.0612 17.3521 8.04238 17.3896C7.95872 17.5729 8.38121 19.2896 9.26175 20.2958C10.1737 21.3396 11.8281 21.7729 12.0728 21.8333C12.4137 22.1875 12.7295 22.5479 12.993 22.8958C12.8174 23.0042 12.7065 23.1625 12.6898 23.3542C12.6751 23.5125 12.7274 23.6604 12.8383 23.7854C12.9847 23.9479 13.2357 24.0646 13.5389 24.1187C13.5661 24.2271 13.5912 24.3312 13.61 24.4333C9.35587 22.5396 6.39007 18.2917 6.38588 13.3521C6.37961 7.68957 10.2678 2.92707 15.5343 1.58124C16.0467 1.44999 15.9317 1.06874 15.3251 1.01666C14.9152 0.98124 14.5031 0.96249 14.0848 0.964573C6.30432 0.970823 0.002519 7.25832 0.00879374 15.0083C0.0171599 22.7583 6.33151 29.0354 14.112 29.0271C18.0567 29.0229 21.6206 27.4042 24.1765 24.8C24.5969 24.3708 24.4484 23.9979 23.9652 24.2354C22.9676 24.725 21.8946 25.0833 20.7652 25.2875L20.8551 25.1167C20.9304 24.9708 21.0078 24.8208 21.0873 24.6708C21.1333 24.6792 21.2044 24.6875 21.2964 24.6875C21.4805 24.6875 21.6729 24.6583 21.8695 24.6021C22.2397 24.5271 22.6685 24.25 22.7877 24.0083C22.8421 23.8979 22.8233 23.8167 22.7982 23.7667C22.7605 23.6917 22.6769 23.6042 22.4823 23.6042C22.292 23.6042 22.0243 23.6917 21.767 23.8417C21.6332 23.9187 21.493 24.0271 21.3676 24.1354C21.5098 23.8646 21.6562 23.5896 21.8089 23.3062L21.811 23.3021C21.8842 23.2542 21.9595 23.1958 22.0306 23.1292C22.0975 23.1396 22.1812 23.1458 22.2774 23.1458C22.3945 23.1458 22.5304 23.1354 22.6852 23.1083C23.0596 23.0687 23.5114 22.8333 23.6536 22.6021C23.7184 22.4979 23.708 22.4146 23.6871 22.3646C23.6599 22.2896 23.6013 22.2354 23.5218 22.2021C23.3001 22.1125 22.9278 22.2146 22.6538 22.3417C22.5597 22.3833 22.4572 22.4417 22.3443 22.5167C22.3443 22.4771 22.338 22.4396 22.3276 22.4021C22.4844 22.1458 22.6392 21.9042 22.794 21.675C22.8714 21.6937 23.0094 21.7208 23.1976 21.7208C23.3169 21.7208 23.4403 21.7104 23.5658 21.6875C23.9422 21.6562 24.3982 21.4292 24.5446 21.2021C24.6115 21.0979 24.6032 21.0146 24.5843 20.9646C24.5488 20.8708 24.4568 20.7604 24.2037 20.7604C24.0217 20.7604 23.7833 20.8187 23.549 20.9208C23.4256 20.975 23.2959 21.0521 23.1746 21.1333C23.3692 20.8646 23.5595 20.6187 23.7435 20.3937C23.8502 20.4333 24.0656 20.4958 24.3794 20.4958C24.4191 20.4958 24.463 20.4958 24.5069 20.4917C24.8897 20.5042 25.3708 20.325 25.5381 20.1146C25.6113 20.0208 25.6113 19.9396 25.5987 19.8875C25.5778 19.7937 25.4858 19.6375 25.1281 19.6375C24.9671 19.6375 24.7705 19.6687 24.5781 19.7292C24.44 19.7708 24.2915 19.8375 24.1556 19.9083C24.3773 19.6583 24.5843 19.4396 24.7684 19.2583C24.8834 19.3125 25.1365 19.4125 25.5193 19.4271C25.5694 19.4333 25.6217 19.4375 25.6782 19.4375C26.0484 19.4375 26.4437 19.3062 26.5943 19.1333C26.6654 19.0521 26.6717 18.975 26.6633 18.925C26.6466 18.8146 26.5504 18.6271 26.0861 18.6271C25.9522 18.6271 25.8058 18.6437 25.6594 18.6729C25.5297 18.7 25.3854 18.75 25.2515 18.8021C25.4335 18.6417 25.559 18.5437 25.6071 18.5062C25.7242 18.5021 26.1551 18.4729 26.6466 18.2229C27.0377 18.0271 27.5208 17.725 27.6024 17.4146C27.6296 17.3167 27.6129 17.2229 27.5606 17.1417ZM24.6262 13.0729C24.6241 13.0708 24.6241 13.0687 24.622 13.0646C24.4275 12.7792 24.348 12.3437 24.4107 12.1604C24.417 12.1417 24.4317 12.1062 24.4568 12.0979C24.4651 12.0958 24.4735 12.0937 24.4839 12.0937C24.6157 12.0937 24.7956 12.3812 24.896 12.7479C24.9629 12.9917 24.9755 13.325 24.9775 13.5292C24.8813 13.4417 24.7496 13.2937 24.6262 13.0729ZM24.1388 14.4687C24.1367 14.4667 24.1367 14.4625 24.1347 14.4604C23.9673 14.1562 23.9297 13.7167 24.0092 13.5417C24.0175 13.5229 24.0364 13.4896 24.0594 13.4833C24.0677 13.4812 24.074 13.4812 24.0803 13.4812C24.212 13.4812 24.371 13.7896 24.4379 14.1708C24.4798 14.4187 24.463 14.7521 24.4463 14.9562C24.3584 14.8583 24.2413 14.7 24.1388 14.4687ZM18.9999 17.9021C19.0836 17.0417 19.3806 16.2271 19.5877 15.7625C19.5688 15.9896 19.5479 16.2792 19.5249 16.5896C19.4956 16.9937 19.4663 17.4125 19.435 17.7625C19.3827 18.3562 19.1568 19.2667 19.0188 19.7812C18.9665 19.4 18.9163 18.7521 18.9999 17.9021ZM18.749 14.7521C19.1589 14.325 19.5814 14.0958 19.7696 14.0958C19.7926 14.0958 19.8219 14.1 19.8324 14.1146C19.8742 14.1917 19.6002 14.6125 18.8786 15.2687C18.5816 15.5396 18.0755 15.8542 17.7387 16.0542C17.9939 15.6833 18.4227 15.0917 18.749 14.7521ZM17.9228 12.5229C17.9583 12.525 17.9834 12.5375 18.0065 12.5646C18.1299 12.7187 18.0671 13.2 18.0211 13.5521L18.0065 13.6604C17.9688 13.9729 17.8224 14.6792 17.7199 15.1646C17.676 14.8292 17.6321 14.3875 17.6342 14.0458C17.6425 12.5687 17.8872 12.5229 17.9228 12.5229ZM19.7048 11.2146C20.1064 10.4812 20.5351 10.0437 20.8551 10.0437C20.9053 10.0437 20.9513 10.0542 20.9974 10.0771C21.0099 10.0833 21.0204 10.1021 21.0287 10.1292C21.0977 10.4292 20.6962 11.3292 20.2172 11.9437C19.8449 12.4229 19.1944 13.1229 18.8305 13.5062C19.0062 12.9354 19.366 11.8375 19.7048 11.2146ZM18.567 10.8C18.8138 10.5937 19.1463 10.4312 19.322 10.4312C19.3388 10.4312 19.3785 10.4333 19.3931 10.45C19.3952 10.4562 19.4015 10.4729 19.3931 10.5083C19.3555 10.7083 19.0459 11.1021 18.6862 11.3312C18.4206 11.5 18.0755 11.6187 17.8496 11.6854C18.0316 11.4229 18.3536 10.9792 18.567 10.8ZM12.3279 13.0687C11.9243 12.9312 11.529 12.6208 11.4453 12.4354C11.4307 12.4021 11.4307 12.3833 11.4328 12.3792C11.4432 12.3542 11.4997 12.3312 11.6022 12.3312C11.7988 12.3312 12.0853 12.4104 12.3196 12.5271C12.5685 12.65 12.9847 13.0062 13.2252 13.2208C12.9868 13.2083 12.627 13.1729 12.3279 13.0687ZM9.7428 13.5083C9.86202 13.1562 10.0586 12.8812 10.1904 12.8812C10.2008 12.8812 10.2113 12.8833 10.2218 12.8875C10.2448 12.8958 10.2594 12.9333 10.2636 12.9521C10.3138 13.1396 10.2092 13.5667 9.99588 13.8417C9.99588 13.8437 9.99378 13.8458 9.99169 13.8479C9.85574 14.0625 9.71352 14.2 9.61312 14.2833C9.62777 14.0792 9.66123 13.7479 9.7428 13.5083ZM9.51273 12.0333C9.66123 11.7 9.87457 11.4479 10.0084 11.4479C10.021 11.4479 10.0356 11.4521 10.0482 11.4583C10.0691 11.4708 10.0795 11.5062 10.0816 11.5271C10.1151 11.7167 9.97078 12.1354 9.73234 12.3875C9.73234 12.3896 9.73025 12.3917 9.72816 12.3937C9.57129 12.5937 9.41861 12.7187 9.30985 12.7917C9.34332 12.5896 9.40815 12.2625 9.51273 12.0333ZM8.49415 12.6C8.49206 12.6 8.48997 12.5979 8.48788 12.5958C8.18042 12.4333 7.90643 12.0875 7.87506 11.8958C7.87087 11.875 7.86878 11.8375 7.88552 11.8208C7.89806 11.8083 7.91898 11.7917 7.9629 11.7917C8.10722 11.7917 8.3603 11.9542 8.57991 12.1875C8.7535 12.3729 8.92292 12.6604 9.02122 12.8396C8.89364 12.8062 8.70749 12.7396 8.49415 12.6ZM9.08397 9.76041C9.11743 9.72707 9.1509 9.71041 9.19063 9.71041H9.19691C9.24292 9.71249 9.27848 9.73124 9.30985 9.76874C9.43116 9.91666 9.45208 10.3271 9.36841 10.8667C9.30776 11.2542 9.16763 11.5437 9.08187 11.6979C9.00658 11.55 8.89782 11.2562 8.88109 10.7729C8.87063 10.3979 8.92919 9.92082 9.08397 9.76041ZM8.78279 14.1687C8.78069 14.1667 8.7786 14.1667 8.77651 14.1646C8.45441 14.0312 8.14905 13.7104 8.10094 13.525C8.09467 13.5042 8.0884 13.4667 8.10513 13.4479C8.11558 13.4312 8.14068 13.4104 8.19925 13.4104C8.34565 13.4104 8.60082 13.5479 8.83089 13.75C9.01913 13.9167 9.21573 14.1875 9.32868 14.3583C9.20109 14.3375 9.00867 14.2854 8.78279 14.1687ZM23.6243 21.0917C23.8335 21.0021 24.0489 20.9479 24.2037 20.9479C24.2832 20.9479 24.3835 20.9604 24.4086 21.0271C24.417 21.05 24.3982 21.0854 24.3877 21.1021C24.2832 21.2646 23.8941 21.475 23.5469 21.5042C23.5448 21.5042 23.5407 21.5042 23.5386 21.5042C23.4214 21.525 23.3064 21.5333 23.1976 21.5333C23.1035 21.5333 23.024 21.5271 22.9613 21.5167C23.1224 21.3896 23.3922 21.1937 23.6243 21.0917ZM24.6324 19.9062C24.8081 19.8521 24.9838 19.8229 25.1281 19.8229C25.2076 19.8229 25.3938 19.8333 25.4189 19.9312C25.423 19.9521 25.4063 19.9792 25.3917 20C25.2724 20.1479 24.8667 20.3146 24.509 20.3062C24.5049 20.3062 24.5028 20.3062 24.5007 20.3062C24.2455 20.3208 24.051 20.2875 23.9234 20.2542C24.0991 20.1458 24.3898 19.9812 24.6324 19.9062ZM22.7145 21.3583C22.6434 21.25 22.5535 21.075 22.4886 20.8292C22.4886 20.8271 22.4865 20.8229 22.4865 20.8208C22.3694 20.4937 22.4008 20.0542 22.5074 19.8937C22.5179 19.875 22.543 19.8458 22.566 19.8437H22.5744C22.7082 19.8437 22.8254 20.1812 22.8316 20.5812C22.8337 20.8333 22.7647 21.1604 22.7145 21.3583ZM22.5744 19.6583C22.566 19.6583 22.5597 19.6583 22.5535 19.6583C22.497 19.6625 22.4175 19.6896 22.3506 19.7917C22.2021 20.0167 22.1833 20.525 22.3087 20.8792C22.407 21.2479 22.5576 21.4729 22.6371 21.5729C22.4991 21.7792 22.3589 21.9958 22.2209 22.2208C22.1874 22.1875 22.1519 22.1604 22.1121 22.1354C22.1142 22.0917 22.1163 22.0479 22.1142 22.0083C22.1059 21.7083 22.0306 21.3292 21.8507 21.1708C21.7859 21.1146 21.7106 21.0896 21.6332 21.0958C21.5976 21.1 21.5495 21.1146 21.5035 21.1521C21.5286 21.0167 21.5307 20.8792 21.4972 20.7562C21.4617 20.6292 21.3885 20.5312 21.286 20.4729C21.3968 20.3167 21.5119 20.1583 21.629 19.9979C21.7273 19.8583 21.8277 19.7187 21.9302 19.5771C22.0285 19.6083 22.2063 19.65 22.4531 19.65C22.5284 19.65 22.6057 19.6458 22.6831 19.6396C22.8944 19.6354 23.137 19.5729 23.3357 19.4792C23.3399 19.5021 23.3441 19.525 23.3482 19.5479C23.4047 19.9292 23.5323 20.1708 23.5992 20.2771C23.3942 20.5292 23.1788 20.8062 22.9613 21.1104C22.9927 20.9375 23.0199 20.7458 23.0178 20.5792C23.0115 20.1208 22.8714 19.6583 22.5744 19.6583ZM21.6813 23.1625C21.4617 23.2917 21.2044 23.325 21.0308 23.3333C21.3341 23.0208 21.6081 22.8562 21.6144 22.8542C21.6583 22.8271 21.6729 22.7708 21.6478 22.7271C21.6206 22.6833 21.5642 22.6667 21.5202 22.6937C21.4972 22.7062 21.2295 22.8667 20.9241 23.1708C20.9534 22.9958 21.0308 22.7521 21.2442 22.5437C21.4324 22.3583 21.6541 22.2479 21.8361 22.2479C21.9574 22.2479 22.0515 22.2958 22.1163 22.3875C22.1561 22.4458 22.1686 22.5187 22.1498 22.6021C22.108 22.7917 21.9114 23.0292 21.6813 23.1625ZM14.7688 24.8292C14.7081 24.5521 14.6454 24.2708 14.5784 23.9896C14.7959 23.8708 14.9319 23.7208 14.9905 23.6437C15.3481 23.7021 15.7016 23.8229 15.9128 24.0646C16.0592 24.5687 16.1178 25 16.1303 25.2396C15.666 25.1437 15.2101 25.0229 14.7667 24.8771C14.7709 24.8625 14.7729 24.8458 14.7688 24.8292ZM14.3023 22.8625C14.2584 22.6937 14.2145 22.5271 14.1727 22.3646C14.2229 22.3562 14.2647 22.3458 14.2919 22.3375C14.5178 22.4604 14.7248 22.5396 14.9068 22.6104C15.1306 22.6979 15.3084 22.7667 15.4318 22.8812C15.5886 23.1667 15.712 23.4562 15.8083 23.7333C15.5782 23.5875 15.2916 23.5042 15.0093 23.4583C14.9424 23.3396 14.7353 23.0333 14.3023 22.8625ZM13.2838 22.7771C13.1729 22.5062 13.0495 22.2229 12.9178 21.9354C12.97 21.9854 13.0265 22.0354 13.0872 22.0833C13.403 22.3312 13.7272 22.3854 13.9405 22.3854C13.9552 22.3854 13.9698 22.3833 13.9844 22.3833C14.02 22.5187 14.0555 22.6562 14.0911 22.7958C14.0806 22.7937 14.0702 22.7896 14.0576 22.7875C13.9112 22.7542 13.7669 22.7375 13.631 22.7375C13.5055 22.7375 13.3883 22.7521 13.2838 22.7771ZM9.73653 16.6875C9.73862 16.5437 9.77626 16.3979 9.83901 16.2729C9.83901 16.2729 9.83901 16.2729 9.83901 16.2708C9.88084 16.1917 9.93313 16.1187 9.99169 16.0625C10.1862 15.8833 10.4476 15.8646 10.5731 15.8667C10.5752 15.8875 10.5794 15.9062 10.5836 15.9208C10.6422 16.1937 10.8241 16.3167 10.9768 16.3625C10.9392 16.4417 10.9099 16.5292 10.8911 16.6208C10.8513 16.8104 10.8639 16.9979 10.9182 17.1479C10.6087 17.3104 10.2029 17.4187 9.89548 17.1229C9.793 17.0229 9.73653 16.8708 9.73653 16.6917C9.73653 16.6896 9.73653 16.6896 9.73653 16.6875ZM11.4202 15.0958C11.964 14.9896 12.2338 15.2292 12.3342 15.3542C12.1836 15.4729 12.1041 15.6417 12.0686 15.7437C12.0393 15.7396 12.0079 15.7375 11.9766 15.7375C11.8427 15.7375 11.6963 15.7729 11.5143 15.8479C11.3345 15.9208 11.186 16.0396 11.0751 16.1937C10.9914 16.1812 10.8178 16.125 10.7656 15.8833C10.7446 15.7833 10.7258 15.5896 10.8388 15.4187C10.9433 15.2604 11.1399 15.1521 11.4202 15.0958ZM12.4472 14.3979C12.8843 14.2854 13.2608 14.4833 13.4051 14.7354C13.5013 14.9083 13.4804 15.1083 13.4574 15.2187C13.1604 15.1354 12.7943 15.1708 12.5371 15.2479C12.5245 15.2521 12.5099 15.2562 12.4974 15.2625C12.42 15.1583 12.2464 14.9792 11.9389 14.9104C11.9975 14.7604 12.1439 14.4771 12.4472 14.3979ZM16.0258 14.6C15.8166 14.3479 15.528 14.025 15.3251 13.8792C15.2289 13.8083 15.1097 13.7396 14.9863 13.6812C15.0365 13.4375 15.0532 13.15 15.0177 12.9208C15.1996 13.0812 15.4088 13.2354 15.6451 13.3792C15.6869 13.4937 15.8501 13.9437 16.0258 14.6ZM17.768 19.9458C17.8161 20.35 17.8663 20.7667 17.904 21.1146C17.9249 21.3271 17.9353 21.6 17.9333 21.9271C17.9123 21.9083 17.8914 21.8896 17.8684 21.875C17.7743 21.8125 17.6718 21.7812 17.561 21.7812C17.5589 21.7812 17.5589 21.7812 17.5568 21.7812C17.5359 21.6333 17.517 21.4854 17.5024 21.3354C17.4208 20.4729 17.5568 19.6167 17.6697 19.1229C17.6948 19.35 17.7304 19.6375 17.768 19.9458ZM20.4891 17.6646C20.6021 17.6604 20.8572 17.5771 21.4805 17.1792C21.7168 17.1708 21.9511 17.0479 22.1205 16.8229C22.1331 16.8062 22.1456 16.7875 22.1582 16.7687C22.1602 17.0042 22.2167 17.2667 22.428 17.425C22.4468 17.4396 22.4677 17.4521 22.4907 17.4646C22.5932 17.7583 22.725 17.9417 22.7982 18.0292C22.7542 18.0917 22.7124 18.1542 22.6706 18.2167C22.4865 18.4792 22.3046 18.7333 22.1268 18.9833C22.1665 18.8229 22.2021 18.65 22.2104 18.4958C22.2188 18.3458 22.2125 18.2 22.1916 18.0708C22.2272 18.0229 22.2565 17.9833 22.2795 17.9542C22.3067 17.9292 22.3234 17.9083 22.3338 17.8875C22.3568 17.8437 22.3422 17.8083 22.3318 17.7917C22.315 17.7646 22.2836 17.7479 22.2523 17.7479C22.2042 17.7479 22.1833 17.7729 22.1435 17.8271C22.1393 17.8292 22.1372 17.8312 22.1331 17.8333C22.0431 17.5875 21.8988 17.5458 21.811 17.5458C21.811 17.5458 21.811 17.5458 21.8089 17.5458C21.7461 17.5458 21.6855 17.5729 21.6332 17.625C21.493 17.7667 21.4387 18.0667 21.4324 18.3C20.9911 18.5833 20.4222 18.9542 19.9725 19.3083C19.5918 19.6062 19.2446 20.0875 18.9707 20.5396C19.6964 18.6312 20.3406 17.8312 20.4891 17.6646ZM20.8802 16.5167C20.8802 16.5125 20.8781 16.5083 20.8781 16.5042C20.8447 16.3542 20.8698 16.1937 20.9597 16.0479C21.1061 15.8104 21.3592 15.6333 21.493 15.55C21.5683 15.7104 21.6938 15.8542 21.8612 15.9667C21.9804 16.0479 22.1142 16.1062 22.2544 16.1396C22.1979 16.2854 22.087 16.5562 21.9699 16.7125C21.79 16.9542 21.4533 17.0979 21.1584 16.9021C21.012 16.8042 20.9179 16.6667 20.8802 16.5167ZM22.543 14.9125C22.8525 15.0687 22.9592 15.3021 22.9948 15.4271C23.0366 15.5792 23.024 15.7312 22.9592 15.8354C22.9132 15.9083 22.7584 15.9875 22.5304 15.9875C22.4844 15.9875 22.4363 15.9854 22.3903 15.9771C22.2376 15.9562 22.0912 15.9 21.9657 15.8146C21.767 15.6792 21.6395 15.4958 21.606 15.2979C21.583 15.1604 21.6123 15.0271 21.6834 14.9312C21.7629 14.8229 21.8821 14.7687 22.0368 14.7687C22.1833 14.7687 22.3527 14.8167 22.543 14.9125ZM23.1203 17.5021C23.1286 17.5 23.137 17.4979 23.1454 17.4937C23.1474 17.4937 23.1516 17.4917 23.1537 17.4896C23.1391 17.5125 23.1244 17.5354 23.1098 17.5583C23.114 17.5396 23.1161 17.5208 23.1203 17.5021ZM22.8714 17.8167C22.8254 17.75 22.771 17.6562 22.7187 17.5375C22.7584 17.5437 22.7982 17.5479 22.84 17.5479C22.8672 17.5479 22.8965 17.5458 22.9237 17.5437C22.9069 17.6458 22.8881 17.7396 22.8714 17.8167ZM23.4444 16.8125C23.4444 16.8125 23.4444 16.8125 23.4444 16.8146C23.4465 16.8562 23.4424 16.8979 23.4319 16.9396C23.3754 17.1812 23.1893 17.2812 23.0826 17.3187C23.0596 17.3271 23.0345 17.3354 23.0115 17.3396C23.0115 17.3396 23.0115 17.3396 23.0094 17.3417C22.8379 17.3812 22.6497 17.3583 22.5409 17.2771C22.2816 17.0833 22.3401 16.6458 22.3715 16.4104C22.3778 16.375 22.3799 16.3458 22.384 16.3208C22.407 16.2604 22.428 16.2083 22.4405 16.1708C22.4719 16.1729 22.5012 16.1729 22.5304 16.1729C22.7417 16.1729 22.9257 16.1167 23.0408 16.0187C23.1684 16.1583 23.4403 16.4896 23.4444 16.8125ZM23.7477 18.9854C23.7268 18.9167 23.6766 18.8396 23.5595 18.7937C23.6118 18.625 23.6808 18.5479 23.7205 18.5479C23.7205 18.5479 23.7205 18.5479 23.7226 18.5479C23.7394 18.5479 23.7645 18.5521 23.7958 18.5875C23.8899 18.6958 23.9339 18.9917 23.9004 19.3104C23.8753 19.5625 23.7686 19.8792 23.6975 20.0708C23.639 19.9542 23.5699 19.7708 23.5323 19.5167C23.5323 19.5146 23.5323 19.5125 23.5302 19.5104C23.5218 19.4708 23.5156 19.4271 23.5093 19.3812C23.5867 19.3312 23.6494 19.2771 23.6912 19.2208C23.7645 19.1208 23.7624 19.0375 23.7477 18.9854ZM23.4235 18.95C23.4256 18.95 23.4256 18.95 23.4256 18.95C23.4277 18.95 23.4277 18.95 23.4298 18.95C23.4926 18.9604 23.5532 18.9854 23.5678 19.0375C23.5741 19.0604 23.5553 19.0937 23.5407 19.1104C23.4277 19.2646 23.024 19.4479 22.6748 19.4542C22.6727 19.4542 22.6706 19.4542 22.6685 19.4542C22.5953 19.4604 22.5242 19.4646 22.4531 19.4646C22.3025 19.4646 22.1791 19.4479 22.0891 19.4271C22.2606 19.3125 22.543 19.1333 22.7814 19.0479C22.9718 18.9792 23.1663 18.9417 23.3169 18.9417C23.3482 18.9417 23.3859 18.9437 23.4235 18.95ZM21.5934 21.3271C21.6081 21.3083 21.6269 21.2833 21.6499 21.2812C21.6666 21.2792 21.6938 21.2812 21.7273 21.3104C21.8361 21.4062 21.9176 21.6958 21.9281 22.0146C21.9281 22.0312 21.9281 22.0521 21.9281 22.0708C21.8988 22.0667 21.8674 22.0625 21.8361 22.0625C21.7419 22.0625 21.6436 22.0833 21.5453 22.1229C21.4721 21.8146 21.5035 21.4646 21.5934 21.3271ZM20.8614 22.7562C20.7756 22.6917 20.6941 22.6875 20.6334 22.6979C20.5832 22.7083 20.5121 22.7396 20.4598 22.8333C20.5037 22.6021 20.5539 22.3958 20.6041 22.2146C20.7359 22.1542 21.1082 21.9604 21.3215 21.6187C21.3236 21.6167 21.3257 21.6146 21.3257 21.6125C21.309 21.8021 21.3236 22.0167 21.3738 22.2062C21.2839 22.2604 21.196 22.3292 21.1145 22.4104C20.9994 22.5229 20.92 22.6396 20.8614 22.7562ZM19.2112 23.6354C19.1652 23.6104 19.1087 23.6271 19.0836 23.6729C19.0585 23.7167 19.0752 23.7729 19.1192 23.7979C19.1254 23.8021 19.4078 23.9625 19.6734 24.3C19.5019 24.275 19.2446 24.2146 19.0397 24.0646C18.8263 23.9062 18.6548 23.6521 18.6318 23.4583C18.6214 23.3729 18.6402 23.3021 18.6883 23.2479C18.751 23.1729 18.8347 23.1354 18.9372 23.1354C19.1296 23.1354 19.3534 23.2687 19.5375 23.4917C19.7278 23.7187 19.7822 23.9667 19.7926 24.1437C19.5145 23.8083 19.2321 23.6479 19.2112 23.6354ZM22.0243 18.2937C22.0285 18.3562 22.0264 18.4208 22.0243 18.4854C22.0097 18.7375 21.9176 19.0583 21.8549 19.2521C21.7963 19.1458 21.7231 18.9812 21.675 18.7562C21.8068 18.5854 21.926 18.425 22.0243 18.2937ZM21.5725 18.4333C21.5746 18.4312 21.5788 18.4292 21.5809 18.4271C21.5934 18.4187 21.606 18.4104 21.6185 18.4021C21.6792 18.3625 21.7398 18.325 21.7963 18.2896C21.3864 18.8333 20.7213 19.7062 20.2862 20.1333C19.9098 20.5021 19.3806 20.9271 18.979 21.2354C18.9288 21.2562 18.8807 21.2833 18.8368 21.3187C18.8075 21.3437 18.7845 21.3708 18.7615 21.4C18.7364 21.4187 18.7134 21.4375 18.6904 21.4562C18.9414 20.9354 19.481 19.9312 20.0875 19.4542C20.5435 19.0958 21.1291 18.7167 21.5725 18.4333ZM21.6269 18.175C21.6457 17.9875 21.698 17.8229 21.7649 17.7562C21.7817 17.7396 21.7984 17.7312 21.811 17.7312C21.8967 17.7312 21.949 17.8604 21.9762 17.9479C21.8821 18.0104 21.7629 18.0875 21.6269 18.175ZM18.9037 21.5271C18.956 21.4875 19.0104 21.4458 19.0669 21.4021C19.0961 21.3937 19.1275 21.3875 19.1589 21.3875C19.3618 21.3875 19.5939 21.5667 19.755 21.8437C19.9056 22.1021 19.916 22.3583 19.8951 22.5354C19.6839 22.1604 19.4684 21.9333 19.4496 21.9146C19.4141 21.8792 19.3555 21.8771 19.3178 21.9125C19.2802 21.9479 19.2802 22.0083 19.3158 22.0437C19.3199 22.0479 19.5396 22.2792 19.7487 22.6604C19.5835 22.6083 19.3429 22.5062 19.1693 22.325C18.9832 22.1354 18.8556 21.8542 18.8661 21.6604C18.8703 21.6083 18.8828 21.5646 18.9037 21.5271ZM20.2632 21.7062C20.2779 21.7958 20.2988 21.8771 20.3218 21.9437C20.2402 22.0708 20.1607 22.1896 20.0875 22.2979C20.0771 22.1792 20.0499 22.0479 19.9955 21.9125C20.0854 21.8417 20.1754 21.7729 20.2632 21.7062ZM19.1798 22.5812C19.3597 22.7167 19.5605 22.7979 19.7069 22.8437C19.619 22.9625 19.5396 23.0687 19.4663 23.1604C19.2948 23.0271 19.1087 22.95 18.9372 22.95C18.8912 22.95 18.8452 22.9562 18.8033 22.9667C18.887 22.8625 18.9748 22.7667 19.0648 22.6833C19.1024 22.65 19.1401 22.6146 19.1798 22.5812ZM18.4478 23.4854C18.4708 23.6646 18.5691 23.8417 18.6925 23.9875C18.3704 24.2979 18.0441 24.5917 17.8224 24.7854C17.95 24.4604 18.1696 23.9521 18.4478 23.4854ZM19.6818 23.3729C19.6567 23.3437 19.6316 23.3146 19.6044 23.2875C19.688 23.1833 19.7801 23.0604 19.8784 22.9229C20.0164 23.2396 20.1252 23.6229 20.1231 24.0479C20.1147 24.2104 20.1105 24.3812 20.1105 24.5583C20.1105 24.5896 20.1105 24.6187 20.1105 24.6479C20.0666 24.5542 20.0185 24.4687 19.9683 24.3875C19.9913 24.25 20.0269 23.7896 19.6818 23.3729ZM20.029 22.8C20.0394 22.7687 20.0541 22.7208 20.0645 22.6604C20.1733 22.5062 20.2883 22.3354 20.4117 22.1458C20.4159 22.1521 20.418 22.1562 20.4201 22.1604C20.3364 22.4583 20.2569 22.8229 20.1984 23.2521C20.1503 23.0875 20.0917 22.9375 20.029 22.8ZM21.1647 21.5208C21.035 21.7271 20.8279 21.8771 20.6773 21.9646C20.8112 21.5437 20.9304 21.3167 20.9346 21.3104C20.9576 21.2646 20.9409 21.2083 20.8949 21.1854C20.8509 21.1604 20.7945 21.1771 20.7694 21.2229C20.7568 21.2458 20.6355 21.4771 20.5017 21.8917C20.4431 21.7229 20.3929 21.4667 20.4891 21.1729C20.6 20.8271 20.8217 20.5937 21.0413 20.5937C21.0894 20.5937 21.1396 20.6062 21.1877 20.6312C21.2504 20.6646 21.2943 20.7229 21.3174 20.8062C21.3696 20.9937 21.3048 21.2937 21.1647 21.5208ZM21.0998 20.4125C21.0789 20.4104 21.0601 20.4083 21.0413 20.4083C20.7359 20.4083 20.4494 20.6854 20.3113 21.1167C20.2695 21.2458 20.2507 21.3687 20.2486 21.4833C20.1419 21.5646 20.0269 21.6521 19.9118 21.7417C19.7487 21.4667 19.5249 21.2771 19.3011 21.2208C19.6692 20.9312 20.0959 20.5792 20.418 20.2646C20.7317 19.9583 21.1605 19.425 21.5307 18.9458C21.6102 19.2229 21.7189 19.3979 21.7733 19.475C21.675 19.6146 21.5746 19.7521 21.4763 19.8896C21.3487 20.0667 21.2232 20.2417 21.0998 20.4125ZM18.5356 21.8C18.5649 21.7792 18.613 21.7437 18.6799 21.6958C18.6841 21.9708 18.8556 22.2708 19.0334 22.4542C19.0355 22.4562 19.0376 22.4562 19.0376 22.4583C19.0041 22.4875 18.9707 22.5167 18.9372 22.5458C18.5252 22.9271 18.1738 23.5437 17.9249 24.0729C18.1215 23.2146 18.3286 22.4604 18.5356 21.8ZM16.0906 24.0083C16.0906 23.9979 16.0864 23.9875 16.0822 23.9771C16.0237 23.7792 15.9526 23.5708 15.8647 23.3604C15.8292 22.9792 15.8438 22.6375 15.8815 22.3458C16.0007 22.3062 16.2621 22.1958 16.4922 21.9292C16.4964 21.9583 16.5006 21.9875 16.5047 22.0187C16.5152 22.225 16.5277 22.4292 16.5445 22.6312C16.283 23.1583 16.4169 23.6042 16.4713 23.7396C16.3751 23.9604 16.2851 24.2146 16.214 24.5083C16.1826 24.3542 16.1429 24.1854 16.0906 24.0083ZM16.7243 23.6479C17.0423 23.0167 17.3999 22.7583 17.4083 22.7521C17.4501 22.7229 17.4606 22.6646 17.4313 22.6229C17.402 22.5812 17.3434 22.5708 17.3016 22.6C17.2765 22.6167 16.9189 22.8708 16.5926 23.4875C16.557 23.2917 16.5549 22.9792 16.7536 22.6333C16.9858 22.2292 17.3016 21.9667 17.561 21.9667C17.6342 21.9667 17.7011 21.9875 17.7638 22.0292C17.86 22.0937 17.9186 22.1958 17.9374 22.3271C17.9709 22.5896 17.8349 22.9229 17.5735 23.2208C17.2807 23.5521 16.9272 23.6312 16.7243 23.6479ZM17.8851 23.1187C17.8831 23.1375 17.8831 23.1583 17.881 23.1771C17.8768 23.1667 17.8726 23.1542 17.8705 23.1417C17.8747 23.1333 17.881 23.1271 17.8851 23.1187ZM17.4062 19.4917C17.3811 19.6312 17.3581 19.7937 17.3372 19.9729C17.174 20.0021 17.0151 20.0104 16.9 20.0125C17.0151 19.8604 17.2138 19.6208 17.4104 19.4687C17.4083 19.4833 17.4062 19.4917 17.4062 19.4917ZM16.8498 20.1979C16.9628 20.1979 17.1343 20.1917 17.3183 20.1625C17.2891 20.5229 17.2765 20.9333 17.3183 21.3521C17.333 21.5062 17.3518 21.6604 17.3727 21.8104C17.1447 21.8812 16.9084 22.0729 16.7118 22.3542C16.6951 22.125 16.6846 21.8958 16.6741 21.6646C16.693 21.6333 16.7097 21.6 16.7243 21.5667C16.9168 21.1542 16.9523 20.7479 16.8206 20.4521C16.8017 20.4083 16.7787 20.3687 16.7536 20.3333C16.7641 20.2875 16.7766 20.2417 16.7892 20.1979C16.8059 20.1979 16.8268 20.1979 16.8498 20.1979ZM16.6511 20.5292C16.7578 20.7708 16.7223 21.1292 16.5549 21.4875C16.3709 21.8833 16.0843 22.0604 15.9128 22.1354C16.0174 21.5583 16.1994 21.2187 16.2015 21.2146C16.2266 21.1687 16.2098 21.1125 16.1659 21.0875C16.1199 21.0625 16.0634 21.0792 16.0383 21.125C16.0258 21.1458 15.8459 21.4771 15.7392 22.0437C15.6326 21.8687 15.5071 21.5604 15.6033 21.1542C15.7267 20.6375 16.0069 20.275 16.2893 20.275C16.327 20.275 16.3625 20.2812 16.4002 20.2917C16.511 20.325 16.5968 20.4083 16.6511 20.5292ZM15.4213 21.1125C15.2707 21.75 15.5886 22.1812 15.6974 22.3042C15.6723 22.4875 15.6577 22.6896 15.6577 22.9083C15.574 22.7458 15.482 22.5854 15.3774 22.4271C15.026 21.8979 14.7562 21.1396 14.5742 20.5104C14.6872 20.3875 14.9779 20.0146 14.9319 19.4146C14.9319 19.4125 14.9319 19.4104 14.9319 19.4083C14.9716 19.4312 15.0114 19.4542 15.0511 19.4729C15.3648 19.6229 15.8417 19.6812 16.0153 19.6979C16.0551 19.8375 16.0906 19.9771 16.1262 20.1146C15.8145 20.2125 15.5468 20.5812 15.4213 21.1125ZM14.0514 21.1C13.9803 21.0146 13.905 20.9396 13.8276 20.8729C13.8129 20.6292 13.8087 20.3792 13.8129 20.1292C14.0221 20.3979 14.2814 20.5146 14.3902 20.5562C14.5763 21.1979 14.8524 21.975 15.2205 22.5292C15.2247 22.5333 15.2268 22.5375 15.2289 22.5417C15.1494 22.5062 15.0637 22.4729 14.9737 22.4375C14.8022 22.3708 14.6119 22.2979 14.4027 22.1875C14.4237 22.0125 14.432 21.5521 14.0514 21.1ZM11.073 16.6583C11.1337 16.3604 11.3198 16.1271 11.5854 16.0187C11.7444 15.9542 11.8678 15.9229 11.9766 15.9229C12.0728 15.9229 12.1543 15.9479 12.2234 16C12.2945 16.0542 12.374 16.0958 12.4492 16.1354C12.6228 16.2271 12.7316 16.2896 12.7609 16.4271C12.786 16.5396 12.7964 16.7375 12.5915 16.8083C12.5141 16.8354 12.4388 16.8562 12.3656 16.875C12.1878 16.9229 12.0226 16.9667 11.8636 17.0917C11.7402 17.1875 11.5583 17.3146 11.3888 17.3146C11.3073 17.3146 11.2362 17.2833 11.1734 17.2208C11.0688 17.1146 11.027 16.8833 11.073 16.6583ZM12.4137 17.0542C12.4576 17.0437 12.5015 17.0312 12.5475 17.0167C12.5977 17.3229 12.6375 17.6521 12.6333 17.8C12.5057 17.7083 12.2443 17.4583 12.0121 17.2125C12.1313 17.1312 12.2631 17.0958 12.4137 17.0542ZM12.7253 16.9521C12.8153 16.9042 12.8759 16.8354 12.9136 16.7583C13.2127 16.7458 13.5097 16.6042 13.7146 16.3792C13.7669 16.4104 13.8192 16.4396 13.8694 16.4625C13.8903 16.4729 13.9112 16.4812 13.9321 16.4917C13.8799 16.6146 13.8297 16.7396 13.7795 16.8667C13.6561 16.8812 13.5954 16.9396 13.5682 16.9896C13.5222 17.075 13.541 17.1875 13.6226 17.3229C13.4574 17.9 13.4699 18.4417 13.5159 18.8104C13.4657 19.0479 13.4846 19.3437 13.5724 19.6521C13.5912 19.7167 13.6121 19.775 13.6372 19.8312C13.6268 20.0375 13.6226 20.2417 13.6268 20.4458C13.2984 19.3667 13.0014 18.5 12.7964 17.9333C12.8299 17.8354 12.8362 17.5937 12.7253 16.9521ZM14.0242 18.4583C14.0514 18.4542 14.0765 18.4521 14.1016 18.4521C14.1999 18.4521 14.294 18.4896 14.3776 18.5583C14.3797 18.5604 14.3797 18.5604 14.3818 18.5625C14.5742 18.7229 14.7165 19.0417 14.7458 19.4271C14.7792 19.85 14.6244 20.1396 14.5136 20.2917C14.3672 19.7562 14.2919 19.3562 14.2898 19.3479C14.2814 19.2979 14.2312 19.2646 14.181 19.2729C14.1308 19.2833 14.0974 19.3312 14.1057 19.3812C14.1141 19.4187 14.1873 19.8042 14.3254 20.3208C14.1455 20.225 13.8715 20.0146 13.7523 19.6C13.6393 19.2104 13.6498 18.8521 13.7774 18.6396C13.8359 18.5417 13.9196 18.4812 14.0242 18.4583ZM14.3693 13.8C14.3588 13.7646 14.363 13.7479 14.3651 13.7417C14.3756 13.725 14.4111 13.7167 14.4571 13.7167C14.6412 13.7167 14.9675 13.85 15.2163 14.0292C15.4422 14.1917 15.7957 14.6104 15.9965 14.8583C15.7664 14.8104 15.415 14.7167 15.1348 14.5667C14.7604 14.3667 14.4216 13.9958 14.3693 13.8ZM14.524 14.3375C14.4592 14.45 14.3944 14.5542 14.3379 14.6354C14.3254 14.4833 14.3086 14.2792 14.3023 14.0771C14.3609 14.1625 14.4362 14.25 14.524 14.3375ZM14.9946 16.7542C15.1411 17.1146 15.2791 17.4687 15.4088 17.8208C15.2603 17.6625 15.0825 17.4792 14.9193 17.3375C14.9528 17.1521 14.9779 16.9521 14.9946 16.7542ZM15.185 15.2771C15.2184 15.1396 15.2707 14.9917 15.3356 14.8604C15.4694 14.9125 15.6054 14.9542 15.7267 14.9854C15.7183 15.2042 15.6723 15.4417 15.5991 15.6312C15.4882 15.9271 15.2833 16.2271 15.1411 16.4146C15.1306 16.0958 15.1222 15.5479 15.185 15.2771ZM15.0469 14.7312C15.0846 14.75 15.1243 14.7708 15.1641 14.7875C15.1034 14.9125 15.0532 15.05 15.0177 15.1812C15.0093 14.9792 14.9946 14.7812 14.9695 14.6854C14.9946 14.7021 15.0218 14.7167 15.0469 14.7312ZM14.8357 17.7083C14.8503 17.6562 14.8629 17.6042 14.8754 17.55C15.0699 17.7292 15.2812 17.9542 15.4213 18.1083C15.2435 18.0812 14.9946 18.0312 14.7583 17.95C14.7855 17.8708 14.8127 17.7896 14.8357 17.7083ZM14.6454 18.5708C14.8294 18.5708 15.1473 18.7104 15.3502 18.8458C15.6054 19.0167 15.8103 19.3187 15.9191 19.5C15.712 19.4729 15.3648 19.4167 15.1306 19.3042C15.0553 19.2687 14.9758 19.2187 14.8984 19.1646C14.8503 18.9271 14.7604 18.7229 14.6454 18.5708ZM15.4527 18.6917C15.2896 18.5812 14.8712 18.3562 14.5847 18.3896C14.6244 18.3042 14.6621 18.2146 14.6956 18.125C15.0574 18.25 15.4401 18.3021 15.5865 18.3208C15.6681 18.5604 15.7455 18.7979 15.8187 19.0333C15.7141 18.9083 15.5907 18.7833 15.4527 18.6917ZM15.7811 16.8458C15.8815 16.4187 16.1199 16.0729 16.2245 16.0729C16.2266 16.0729 16.2307 16.0729 16.2328 16.0729C16.2391 16.075 16.2537 16.0875 16.2684 16.1187C16.3583 16.3021 16.3458 16.8021 16.1952 17.2C16.0822 17.4937 15.8773 17.7937 15.7371 17.9812C15.7246 17.6625 15.7162 17.1146 15.7811 16.8458ZM16.2872 15.8958C16.2684 15.8896 16.2454 15.8854 16.2245 15.8854C15.9442 15.8854 15.6849 16.4333 15.5991 16.8021C15.551 17.0083 15.5405 17.3479 15.5426 17.6458C15.4255 17.3292 15.3 17.0083 15.1662 16.6833C15.277 16.55 15.6116 16.1271 15.7727 15.6979C15.8501 15.4958 15.8982 15.2604 15.9128 15.0312C16.0111 15.0521 16.0948 15.0687 16.1471 15.0771C16.2077 15.3354 16.2684 15.6167 16.3228 15.9104C16.3102 15.9062 16.2998 15.9 16.2872 15.8958ZM14.6893 12.7187C14.7018 12.7104 14.7207 12.7 14.7353 12.7042C14.8127 12.725 14.9068 13.1229 14.8127 13.6062C14.6851 13.5604 14.5617 13.5292 14.4571 13.5292C14.3986 13.5292 14.3525 13.5396 14.3149 13.5562C14.317 13.5354 14.3212 13.5167 14.3233 13.4979C14.3839 13.1625 14.5512 12.8062 14.6893 12.7187ZM14.6642 14.4667C14.7248 14.5167 14.7876 14.5667 14.8524 14.6104C14.8524 14.6104 14.8503 14.6104 14.8503 14.6125C14.8294 14.6187 14.7939 14.6396 14.7855 14.6958C14.7771 14.7437 14.6684 14.9583 14.5533 15.1833C14.5471 15.1979 14.5387 15.2146 14.5303 15.2292C14.4801 15.1187 14.4278 15.0083 14.3776 14.9021C14.4341 14.8271 14.5471 14.6667 14.6642 14.4667ZM14.7207 15.2687C14.7604 15.1896 14.7939 15.1229 14.8231 15.0646C14.8566 15.6583 14.8733 16.9021 14.6558 17.6562C14.5868 17.8979 14.499 18.1292 14.3986 18.3479C14.3065 18.2937 14.2061 18.2646 14.1016 18.2646C14.0765 18.2646 14.0535 18.2667 14.0284 18.2708C14.1727 17.5937 14.34 17.1729 14.34 17.1687C14.3609 17.1208 14.3358 17.0667 14.2898 17.0479C14.2417 17.0292 14.1873 17.0521 14.1685 17.1C14.1601 17.1187 13.9761 17.5833 13.8234 18.3396C13.769 18.3708 13.7188 18.4125 13.6749 18.4646C13.6623 18.1083 13.6937 17.6667 13.8527 17.2104C14.1141 16.4625 14.478 15.7437 14.7207 15.2687ZM14.0053 16.3208C13.9865 16.3125 13.9677 16.3042 13.9489 16.2958C13.9091 16.2771 13.8673 16.2542 13.8255 16.2312C13.9301 16.0646 13.9698 15.8854 13.9447 15.7208C13.9635 15.7312 13.9823 15.7437 14.0012 15.7542C14.0555 15.7896 14.1204 15.8396 14.1957 15.9062C14.1329 16.0375 14.0681 16.1771 14.0053 16.3208ZM13.7418 15.6646C13.7983 15.8208 13.7606 16.0083 13.6372 16.1792C13.4825 16.3958 13.2231 16.5437 12.9575 16.5687C12.9617 16.5083 12.9575 16.4458 12.9449 16.3875C12.8947 16.1583 12.7044 16.0583 12.535 15.9708C12.466 15.9354 12.3949 15.8979 12.3342 15.8521C12.307 15.8312 12.2777 15.8146 12.2464 15.7979C12.2861 15.6875 12.3844 15.4854 12.5915 15.425C12.9031 15.3333 13.5954 15.2687 13.7418 15.6646ZM10.4978 17.6521C10.5355 17.6521 10.5648 17.65 10.5899 17.6479C10.6233 17.7187 10.6568 17.7896 10.6924 17.8604C10.6965 17.8687 10.7007 17.8771 10.7049 17.8854C10.4811 17.7792 10.2803 17.6958 10.1256 17.6312C10.0837 17.6125 10.044 17.5958 10.0084 17.5812C10.2155 17.6375 10.3849 17.6521 10.4978 17.6521ZM10.9768 18.0187C10.9371 17.9396 10.8994 17.8583 10.8597 17.7792C10.8262 17.7104 10.7928 17.6437 10.7614 17.575C10.8158 17.5271 10.9015 17.4437 10.9935 17.3187C10.9977 17.3167 11.0019 17.3125 11.0061 17.3104C11.0186 17.325 11.0291 17.3396 11.0396 17.3521C11.1399 17.45 11.2571 17.5021 11.3888 17.5021C11.4056 17.5021 11.4223 17.5 11.439 17.4979C11.3449 17.675 11.2905 17.9167 11.2696 18.125C11.2675 18.1396 11.2675 18.1562 11.2675 18.1729C11.1692 18.1167 11.0709 18.0667 10.9768 18.0187ZM11.4558 18.1437C11.4871 17.825 11.5896 17.5437 11.7047 17.4562C11.7402 17.4292 11.7674 17.4292 11.7841 17.4312C11.8071 17.4354 11.8281 17.4667 11.8385 17.4854C11.9285 17.6562 11.9222 18.0979 11.7779 18.4125C11.7758 18.4146 11.7758 18.4167 11.7758 18.4208C11.7674 18.4375 11.7611 18.4562 11.7528 18.4729C11.6524 18.4042 11.5499 18.3396 11.4474 18.2792C11.4495 18.2312 11.4516 18.1833 11.4558 18.1437ZM11.9494 18.4854C12.0832 18.1937 12.1188 17.7812 12.0498 17.5187C12.3719 17.8479 12.535 17.9687 12.6249 18.0042C12.8362 18.5958 13.1499 19.5083 13.4929 20.6479C13.3591 20.5833 13.2273 20.5479 13.0997 20.5417C13.037 20.2208 12.7964 19.2917 12.077 18.7125C12.0226 18.6687 11.9661 18.6271 11.9096 18.5854C11.9243 18.5521 11.9368 18.5187 11.9494 18.4854ZM13.0642 20.725C13.2315 20.725 13.4155 20.7958 13.5933 20.925H13.5954C13.7042 21.0021 13.8108 21.1021 13.9091 21.2187C14.1957 21.5583 14.2312 21.9 14.225 22.0833C13.7899 21.8062 13.5076 21.4417 13.5055 21.4375C13.4741 21.3979 13.4155 21.3896 13.3737 21.4208C13.334 21.4521 13.3256 21.5104 13.357 21.55C13.3695 21.5667 13.631 21.9083 14.0535 22.1937C14.02 22.1958 13.9823 22.1979 13.9405 22.1979C13.6707 22.1979 13.4239 22.1104 13.2022 21.9375C12.8822 21.6854 12.6793 21.3875 12.6605 21.1437C12.65 21.0292 12.6835 20.9312 12.7546 20.8521C12.8299 20.7687 12.9366 20.725 13.0642 20.725ZM16.3019 25.0521C16.3709 24.5604 16.4943 24.1583 16.6344 23.8375C16.647 23.8375 16.6574 23.8375 16.67 23.8375C16.7411 24.3667 16.831 24.8833 16.9377 25.3729C16.7285 25.3458 16.5236 25.3125 16.3186 25.275C16.3165 25.2146 16.3102 25.1396 16.3019 25.0521ZM17.1259 25.3667C17.0172 24.875 16.9272 24.3521 16.8561 23.8187C17.0945 23.7792 17.4292 23.6646 17.7136 23.3437C17.7199 23.3354 17.7262 23.3271 17.7325 23.3187C17.7827 23.4583 17.8245 23.5521 17.8454 23.5979C17.7346 24.0542 17.6258 24.5417 17.5212 25.0625C17.5191 25.0646 17.5212 25.0646 17.5191 25.0667C17.4961 25.1812 17.4731 25.3 17.4501 25.4208C17.4501 25.4229 17.4501 25.4271 17.448 25.4312C17.3413 25.4208 17.2347 25.4104 17.128 25.3979C17.128 25.3875 17.128 25.3771 17.1259 25.3667ZM17.6948 25.1417C17.8119 25.0417 18.3118 24.6125 18.8012 24.1417C18.6067 24.6333 18.5042 25.0729 18.4959 25.4812C18.2052 25.4812 17.9186 25.4687 17.6342 25.4479C17.6551 25.3437 17.6739 25.2417 17.6948 25.1417ZM18.9644 24.2375C19.2823 24.4521 19.6755 24.4937 19.8156 24.5021C19.9474 24.7104 20.0583 24.9667 20.1105 25.2729C20.1147 25.2937 20.1252 25.3104 20.1377 25.3229C20.1398 25.3417 20.1398 25.3604 20.1419 25.3792C20.1419 25.3812 20.1419 25.3812 20.1419 25.3833C19.663 25.4437 19.1756 25.4771 18.682 25.4812C18.6904 25.1042 18.7845 24.6958 18.9644 24.2375ZM20.3783 23.325C20.3866 23.4667 20.4138 23.6167 20.4556 23.7542C20.4054 23.8354 20.3594 23.9187 20.3134 24.0083C20.3281 23.7667 20.3511 23.5375 20.3783 23.325ZM20.6146 22.9375C20.623 22.9187 20.6439 22.8854 20.6669 22.8812C20.7045 22.8729 20.7464 22.8937 20.7882 22.9396C20.7234 23.1417 20.7213 23.3125 20.7234 23.3896C20.6815 23.4417 20.6376 23.4958 20.5958 23.5521C20.5435 23.3062 20.5539 23.0562 20.6146 22.9375ZM20.8614 23.5187C20.8865 23.5208 20.9158 23.5208 20.9513 23.5208C20.966 23.5208 20.9848 23.5208 21.0036 23.5208C21.0057 23.5417 21.012 23.5625 21.0141 23.5833C21.0455 23.8354 21.0141 24.1667 20.9869 24.3708C20.9032 24.2687 20.7924 24.1062 20.7024 23.8687C20.7004 23.8667 20.7004 23.8646 20.6983 23.8625C20.6857 23.8354 20.6753 23.8083 20.6627 23.7812C20.7275 23.6875 20.7945 23.6 20.8614 23.5187ZM21.1981 23.5604C21.196 23.5437 21.1919 23.525 21.1898 23.5062C21.2943 23.4937 21.4115 23.4729 21.5307 23.4333C21.4198 23.6396 21.3111 23.8417 21.2065 24.0417C21.217 23.8812 21.217 23.7104 21.1981 23.5604ZM23.936 18.4646C23.8795 18.4 23.8084 18.3646 23.7289 18.3625C23.5783 18.3562 23.4507 18.5 23.3754 18.7562C23.3566 18.7562 23.3378 18.7562 23.3169 18.7562C23.1433 18.7562 22.932 18.7979 22.7187 18.8729C22.5765 18.9229 22.4217 19.0021 22.2836 19.0833C22.4614 18.8354 22.6392 18.5833 22.8233 18.3229C22.8672 18.2583 22.9111 18.1937 22.955 18.1292C23.0261 18.1458 23.1474 18.1667 23.3106 18.1667C23.4465 18.1667 23.5867 18.1521 23.731 18.1229C23.9903 18.0937 24.2832 17.9729 24.486 17.8229C24.4463 18.0083 24.4317 18.2083 24.4547 18.3792C24.4735 18.7646 24.5781 19.0167 24.6345 19.1271C24.4379 19.325 24.2162 19.5583 23.9757 19.8312C24.0259 19.6687 24.0698 19.4896 24.0865 19.3292C24.1158 19.0292 24.0928 18.6458 23.936 18.4646ZM24.919 17.4187C24.9357 17.4208 24.9629 17.4271 24.988 17.4646C25.0717 17.5812 25.0884 17.8812 25.0256 18.1937C24.9775 18.4417 24.8416 18.7479 24.7517 18.9312C24.7056 18.8104 24.6534 18.6208 24.6408 18.3667C24.6408 18.3646 24.6387 18.3625 24.6387 18.3583C24.5948 18.0312 24.7077 17.6187 24.8374 17.4687C24.8667 17.4375 24.8939 17.4187 24.919 17.4187ZM23.7728 17.525C23.9882 17.425 24.2099 17.3667 24.3647 17.3667C24.4379 17.3667 24.53 17.3792 24.5551 17.4417C24.5634 17.4646 24.5467 17.4979 24.5362 17.5167C24.4358 17.6812 24.0531 17.9021 23.7059 17.9396C23.7038 17.9396 23.7017 17.9396 23.6996 17.9417C23.5658 17.9667 23.4361 17.9792 23.3106 17.9792C23.2374 17.9792 23.1725 17.975 23.1203 17.9687C23.2792 17.8375 23.5427 17.6333 23.7728 17.525ZM24.6471 16.075C24.9357 15.9354 25.2306 15.8708 25.3645 15.9208C25.4084 15.9375 25.4209 15.9604 25.4293 15.9771C25.4377 16 25.4209 16.0333 25.4105 16.0521C25.3143 16.2187 24.9336 16.4458 24.5885 16.4896C24.5864 16.4917 24.5843 16.4917 24.5822 16.4917C24.4672 16.5167 24.3584 16.5292 24.2518 16.5354C24.2936 16.4542 24.3208 16.3646 24.3333 16.2708C24.4505 16.1875 24.5551 16.1208 24.6471 16.075ZM25.3017 14.55C25.5339 14.4021 25.7765 14.3104 25.9313 14.3104C26.0359 14.3104 26.0589 14.35 26.0651 14.3646C26.0777 14.3854 26.0651 14.4208 26.0568 14.4417C25.9794 14.6167 25.628 14.8854 25.2913 14.9687C25.2871 14.9687 25.285 14.9708 25.2829 14.9708C25.0382 15.0542 24.8416 15.0729 24.714 15.075C24.8521 14.9229 25.0884 14.6854 25.3017 14.55ZM25.7911 13.0458C26.0254 12.8646 26.2743 12.7458 26.427 12.7458C26.4981 12.7458 26.5232 12.7708 26.5357 12.7896C26.5504 12.8104 26.5399 12.8458 26.5336 12.8667C26.473 13.05 26.1488 13.35 25.8204 13.4646C25.8162 13.4646 25.8142 13.4646 25.8121 13.4667C25.5799 13.5708 25.3875 13.6083 25.2557 13.6229C25.3791 13.4604 25.5925 13.2021 25.7911 13.0458ZM25.308 10.8146C25.3498 10.6729 25.423 10.5021 25.5485 10.5021C25.5548 10.5021 25.5611 10.5021 25.5674 10.5042C25.6092 10.5083 25.6406 10.5271 25.6677 10.5667C25.8016 10.7437 25.7849 11.2271 25.7138 11.6C25.6238 12.0771 25.4691 12.35 25.3728 12.4833C25.3122 12.3208 25.2202 12.0125 25.2202 11.6187C25.2202 11.2917 25.2494 11.0125 25.308 10.8146ZM24.051 16.5083C23.9548 16.65 23.8042 16.725 23.6264 16.7208C23.5762 16.3417 23.275 15.9937 23.1516 15.8667C23.2144 15.725 23.2227 15.5521 23.1725 15.3771C23.1725 15.3708 23.1684 15.3667 23.1684 15.3604C23.2499 15.3667 23.3587 15.3812 23.4737 15.4083C23.4779 15.4104 23.48 15.4104 23.4842 15.4125C23.7017 15.4667 23.936 15.5687 24.0468 15.7667C24.1869 16.0146 24.189 16.3062 24.051 16.5083ZM23.7958 15.3229C23.7645 15.3083 23.731 15.2958 23.6975 15.2833C23.7205 15.2604 23.7435 15.2354 23.7686 15.2062C23.7791 15.2437 23.7875 15.2812 23.7958 15.3229ZM23.1412 14.0979C23.6285 14.2542 23.8126 14.6396 23.7519 14.8458C23.6954 15.05 23.5469 15.175 23.4842 15.2208C23.3148 15.1833 23.1642 15.1708 23.0847 15.1687C22.9843 14.9937 22.8295 14.8479 22.6267 14.7479C22.6057 14.7354 22.5848 14.7271 22.5639 14.7167C22.5723 14.6458 22.5806 14.5333 22.5744 14.4C22.6057 14.3146 22.7563 13.975 23.1412 14.0979ZM21.1898 13.8125C21.3968 13.5812 21.8214 13.5083 22.1498 13.7958C22.4008 14.0146 22.3987 14.4437 22.3819 14.6458C22.0912 14.55 21.8402 14.5687 21.6625 14.6958C21.5704 14.6083 21.3801 14.4646 21.0977 14.3958C21.058 14.3042 20.9806 14.05 21.1898 13.8125ZM20.1607 15.3917C20.1168 15.1729 20.1837 14.9417 20.3385 14.7687C20.4828 14.6104 20.6794 14.5271 20.8781 14.5479C21.2128 14.5771 21.4345 14.7396 21.5286 14.8271C21.4303 14.9604 21.3927 15.1437 21.4219 15.3292C21.424 15.3417 21.4282 15.3562 21.4324 15.3687C21.3215 15.4333 21.0936 15.5833 20.9137 15.7958C20.7736 15.8104 20.2486 15.8333 20.1607 15.3917ZM20.7819 16.7667C20.8447 16.8792 20.9367 16.9792 21.0559 17.0562C21.1019 17.0875 21.1521 17.1125 21.2002 17.1333C20.9262 17.2979 20.6439 17.4458 20.5288 17.475C20.5414 17.3562 20.6522 17.0583 20.7819 16.7667ZM18.3641 19.2292C18.3725 19.2437 18.3829 19.2687 18.3725 19.3104C18.3348 19.4417 18.1382 19.6125 17.9312 19.7458C17.9082 19.5625 17.8872 19.3875 17.8705 19.2312C18.1403 19.1437 18.3244 19.1625 18.3641 19.2292ZM17.4606 19.2104C17.425 19.2312 17.3895 19.2542 17.3581 19.275C17.2284 19.3625 17.1008 19.4875 16.99 19.6125C17.1719 19.1542 17.3664 18.8229 17.4187 18.7354C17.4564 18.7187 17.5317 18.6792 17.6258 18.625C17.5651 18.7437 17.5024 19.0062 17.4606 19.2104ZM17.6885 17.7187C17.8475 17.4104 18.1717 17.1083 18.3432 17.1083C18.3599 17.1083 18.3767 17.1125 18.3892 17.1187C18.4038 17.1292 18.4248 17.1458 18.4331 17.1917C18.4729 17.3792 18.2825 17.7542 18.1424 17.95C17.9646 18.1979 17.6572 18.3958 17.471 18.5C17.5024 18.2937 17.5693 17.9479 17.6885 17.7187ZM18.4436 7.81457C18.6444 6.94582 19.0418 6.31666 19.3848 6.31666C19.4182 6.31666 19.4538 6.32291 19.4873 6.33541C19.5333 6.35416 19.5667 6.38541 19.5877 6.43749C19.7382 6.78749 19.3555 7.70832 19.2112 8.05624C19.002 8.56249 18.4687 9.38332 18.1821 9.80832C18.2135 9.34582 18.2867 8.48541 18.4436 7.81457ZM16.9649 10.8812C16.7662 10.5083 16.6888 10.0125 16.7536 9.82082C16.7662 9.78541 16.7787 9.77291 16.7829 9.77082C16.7871 9.76874 16.7913 9.76666 16.7975 9.76666C16.9168 9.76666 17.1866 10.0958 17.3309 10.4792C17.4292 10.7375 17.4898 11.2812 17.5191 11.6C17.356 11.4312 17.1134 11.1604 16.9649 10.8812ZM16.5403 18.4562C16.5047 19.0021 16.4796 19.5583 16.4713 20.1208C16.4671 20.1187 16.4608 20.1167 16.4566 20.1146C16.4085 20.1 16.3604 20.0917 16.3123 20.0896C16.2705 19.9271 16.2266 19.7625 16.1805 19.5958C16.1785 19.5896 16.1764 19.5854 16.1743 19.5792C16.053 19.1479 15.9149 18.7062 15.7601 18.2542C15.8689 18.1229 16.2056 17.6979 16.3688 17.2646C16.4127 17.1521 16.4462 17.0292 16.4692 16.9021C16.5257 17.4042 16.5549 17.9271 16.5403 18.4542V18.4562ZM16.4232 13.6167C16.5382 13.2187 16.7892 12.8667 16.9063 12.8667C16.9084 12.8667 16.9126 12.8667 16.9147 12.8687C16.9209 12.8708 16.9356 12.8833 16.9502 12.9167C17.0297 13.1021 16.99 13.6021 16.8185 13.9896C16.6909 14.2792 16.4713 14.5687 16.3186 14.7479C16.3249 14.4292 16.3458 13.8812 16.4232 13.6167ZM15.6012 10.8292C15.62 10.8125 15.6388 10.8062 15.6639 10.8083C15.6911 10.8167 15.8083 10.9812 15.8166 11.6187C15.8208 11.9396 15.7957 12.3 15.7476 12.6521C15.7141 12.3562 15.6639 12.0125 15.6033 11.7375C15.5824 11.6437 15.5405 11.4729 15.4778 11.2958C15.4799 11.1667 15.5113 10.9083 15.6012 10.8292ZM14.9026 10.8771C14.9256 10.8396 14.9424 10.8375 14.9486 10.8375C14.9507 10.8375 14.9528 10.8375 14.957 10.8375C15.0783 10.8375 15.2896 11.1958 15.4213 11.7771C15.5071 12.1646 15.5698 12.7104 15.6012 13.0396C15.4506 12.8479 15.2331 12.5333 15.0658 12.125C14.8357 11.5625 14.8022 11.0479 14.9026 10.8771ZM14.2229 11.2312C14.2522 11.2104 14.2814 11.2042 14.317 11.2104C14.4571 11.2333 14.6265 11.4208 14.6935 11.5125C14.729 11.725 14.7959 11.9604 14.8922 12.1958C15.003 12.4646 15.1327 12.6937 15.254 12.8771C14.5554 12.3104 14.2103 11.6687 14.1957 11.3479C14.1936 11.2771 14.2082 11.2417 14.2229 11.2312ZM14.0744 12.2771C14.1141 12.1312 14.135 11.9687 14.1413 11.8104C14.2417 12.0312 14.4048 12.2833 14.6307 12.5396C14.6182 12.5458 14.6035 12.5521 14.5889 12.5625C14.3797 12.6958 14.202 13.1271 14.1392 13.4646C14.0974 13.6937 14.1099 14.0812 14.1329 14.3979C13.9342 14 13.7481 13.6396 13.5787 13.325C13.6749 13.1792 13.9593 12.7229 14.0744 12.2771ZM13.4448 11.925C13.4992 11.4812 13.7042 11.1083 13.8087 11.1083C13.815 11.1083 13.8318 11.1187 13.8506 11.15C13.9593 11.3208 14.0012 11.8208 13.8945 12.2312C13.815 12.5354 13.6456 12.8562 13.5243 13.0583C13.4783 12.7437 13.4114 12.2 13.4448 11.925ZM11.1567 10.7667C10.6882 10.2375 10.3661 9.53957 10.5188 9.38541C10.5501 9.35416 10.5982 9.33957 10.661 9.33957C10.9287 9.33957 11.4307 9.62291 11.8992 10.2458C12.3279 10.8146 12.5225 11.5042 12.5957 11.8312C12.2694 11.65 11.5624 11.225 11.1567 10.7667ZM14.4237 15.4417C14.3776 15.5333 14.3295 15.6292 14.2793 15.7333C14.2124 15.6771 14.1538 15.6312 14.1016 15.5979C14.02 15.5458 13.928 15.4958 13.8338 15.4521C13.7795 15.3833 13.7125 15.3292 13.6331 15.2875C13.654 15.2042 13.677 15.0646 13.6561 14.9125C13.8987 14.9583 14.1099 14.975 14.2082 14.9812C14.2793 15.1312 14.3505 15.2833 14.4237 15.4417ZM12.2903 13.8354C12.2966 13.8229 12.3154 13.8146 12.33 13.8104C12.4869 13.7604 12.8696 13.8646 13.1646 14.0333C13.4072 14.1729 13.8025 14.5521 14.0284 14.7792C13.9091 14.7667 13.7585 14.7458 13.5996 14.7125C13.5912 14.6896 13.5787 14.6667 13.5661 14.6437C13.403 14.3583 13.0077 14.1271 12.5392 14.1917C12.3154 13.9917 12.2777 13.8604 12.2903 13.8354ZM10.707 14.0375C10.8367 13.8812 11.0521 13.7812 11.2968 13.7667C11.4913 13.7542 11.6733 13.7979 11.7611 13.8792C12.0079 14.1083 12.0456 14.3292 12.0498 14.4104C11.8762 14.5708 11.7862 14.775 11.7486 14.8854C11.6398 14.8812 11.5206 14.8875 11.3847 14.9146C11.2633 14.9375 11.1567 14.9708 11.0605 15.0125C10.9894 14.9187 10.8367 14.7583 10.5773 14.675C10.5459 14.575 10.4874 14.3021 10.707 14.0375ZM10.3744 14.6271C10.3347 14.6229 10.295 14.6187 10.251 14.6167C10.2866 14.5458 10.3222 14.4854 10.3598 14.4396C10.3556 14.5104 10.364 14.575 10.3744 14.6271ZM8.48788 15.2167C8.4816 15.1958 8.46905 15.1604 8.4837 15.1396C8.49206 15.125 8.50879 15.1042 8.55272 15.0958C8.67821 15.0687 8.91455 15.1521 9.15508 15.3042C9.13207 15.4229 9.13207 15.5417 9.14253 15.6375C9.14671 15.6792 9.15508 15.7187 9.16554 15.7562C8.8539 15.6437 8.55272 15.3833 8.48788 15.2167ZM9.32868 15.6187C9.28057 15.1479 9.51482 14.8771 10.021 14.8125C10.5334 14.7479 10.7948 14.9812 10.8952 15.1042C10.8095 15.1646 10.7363 15.2333 10.6819 15.3167C10.6024 15.4396 10.571 15.5667 10.5648 15.6812C10.4058 15.6792 10.1005 15.7062 9.8662 15.9271C9.80973 15.9792 9.75953 16.0437 9.71561 16.1146C9.59221 16.0458 9.35377 15.8812 9.32868 15.6187ZM9.1237 16.7979C9.11534 16.7792 9.10488 16.7417 9.11743 16.7208C9.16344 16.6437 9.33495 16.6562 9.55247 16.7479C9.56293 16.9542 9.63822 17.1333 9.76581 17.2562C9.79927 17.2896 9.83483 17.3167 9.87038 17.3417C9.53574 17.25 9.19691 16.975 9.1237 16.7979ZM9.85783 18.5271C9.84947 18.5083 9.83483 18.4729 9.84529 18.45C9.87247 18.3875 9.98333 18.3708 10.1381 18.4C10.1778 18.4583 10.2197 18.5187 10.2657 18.5854C10.3201 18.6625 10.4225 18.8062 10.548 18.9729C10.2406 18.8875 9.9394 18.6792 9.85783 18.5271ZM10.8576 19.0708V19.0687C10.4916 18.6062 10.1088 18.0396 9.95405 17.7583C9.98333 17.7729 10.0168 17.7854 10.0523 17.8021C10.4895 17.9854 11.301 18.3271 11.9577 18.8562C12.4911 19.2854 12.7442 19.925 12.855 20.3208C12.0372 19.3812 11.2947 18.7708 11.2864 18.7646C11.2466 18.7312 11.1881 18.7375 11.1567 18.7771C11.1232 18.8167 11.1295 18.875 11.1692 18.9062C11.1776 18.9146 11.9117 19.5208 12.7211 20.4521C12.376 20.3083 11.8239 20.0417 11.3951 19.6667C11.2466 19.5396 11.0542 19.3187 10.8576 19.0708ZM12.7065 20.6479C12.6751 20.6708 12.6438 20.6958 12.6187 20.7271C12.5413 20.8083 12.4953 20.9062 12.4785 21.0146C12.3781 20.8104 12.2777 20.6042 12.1753 20.4021C12.3781 20.5062 12.5643 20.5896 12.7065 20.6479ZM9.40188 20.1729C8.72631 19.4021 8.36239 18.2458 8.25153 17.7208C8.6803 18.2521 9.18645 18.5979 9.68005 18.9333C9.94359 19.1125 10.1946 19.2833 10.433 19.4792C11.0165 19.9625 11.5039 20.7542 11.782 21.2729C10.5229 20.0333 9.15717 18.975 9.13835 18.9583C9.09652 18.9271 9.03795 18.9354 9.00658 18.975C8.97521 19.0167 8.98148 19.075 9.02331 19.1062C9.04423 19.1208 10.5209 20.2687 11.8113 21.5667C11.2445 21.3896 10.0858 20.9542 9.40188 20.1729ZM12.9763 23.6604C12.901 23.575 12.8655 23.4771 12.8759 23.3708C12.8927 23.1896 13.037 23.0479 13.2608 22.9771H13.2629C13.2629 22.975 13.2649 22.975 13.2649 22.975C13.3716 22.9417 13.495 22.9229 13.631 22.9229C13.7544 22.9229 13.884 22.9375 14.0179 22.9687C14.4153 23.0583 14.6475 23.2771 14.7646 23.4271C14.2647 23.3792 13.8255 23.4333 13.7899 23.4375C13.7397 23.4437 13.7042 23.4896 13.7104 23.5417C13.7167 23.5917 13.7627 23.6292 13.815 23.6229C13.8234 23.6208 14.271 23.5667 14.7709 23.6146C14.6976 23.6896 14.5868 23.7812 14.4362 23.8542C14.432 23.8542 14.4299 23.8562 14.4257 23.8583C14.2898 23.9208 14.1204 23.9667 13.9175 23.9667H13.8903C13.8025 23.9646 13.7167 23.9562 13.6331 23.9458C13.631 23.9458 13.6268 23.9437 13.6247 23.9437C13.3381 23.9021 13.1039 23.8021 12.9763 23.6604ZM13.8004 24.5146C13.8067 24.5 13.8108 24.4812 13.8067 24.4625C13.7878 24.3604 13.7648 24.2521 13.7376 24.1437C13.7878 24.1479 13.8359 24.15 13.8882 24.1521H13.9175C14.1057 24.1521 14.2668 24.1187 14.4048 24.0687C14.4634 24.3167 14.5199 24.5667 14.5742 24.8125C14.3128 24.7229 14.0535 24.6229 13.8004 24.5146ZM20.6878 25.0312L20.5665 25.2667C20.5581 25.2833 20.5539 25.3042 20.5581 25.3229C20.4807 25.3354 20.4034 25.3479 20.326 25.3583C20.3051 25.0833 20.2967 24.8229 20.2967 24.5729C20.3573 24.3542 20.4431 24.1542 20.5435 23.975C20.6753 24.2958 20.8342 24.4896 20.9241 24.5792C20.8447 24.7312 20.7673 24.8833 20.6878 25.0312ZM21.8612 24.0021C22.087 23.8708 22.3255 23.7896 22.4823 23.7896C22.5618 23.7896 22.612 23.8104 22.6329 23.85C22.6434 23.8729 22.6287 23.9083 22.6204 23.9271C22.5346 24.1 22.1707 24.3521 21.8298 24.4208C21.8277 24.4208 21.8256 24.4208 21.8214 24.4208C21.6395 24.475 21.4638 24.5 21.2964 24.5C21.2797 24.5 21.2651 24.5 21.2483 24.5C21.3947 24.3562 21.6415 24.1292 21.8612 24.0021ZM22.7312 22.5104C23.022 22.3771 23.319 22.3208 23.4528 22.375C23.4946 22.3917 23.5072 22.4146 23.5135 22.4312C23.5218 22.4542 23.5051 22.4875 23.4946 22.5062C23.3943 22.6687 23.0073 22.8875 22.6622 22.9229C22.658 22.9229 22.6559 22.9229 22.6538 22.925C22.4635 22.9604 22.3046 22.9646 22.1812 22.9583C22.2209 22.9042 22.2544 22.8458 22.2816 22.7875C22.4531 22.6604 22.6036 22.5667 22.7312 22.5104ZM25.6991 18.8562C25.8309 18.8271 25.9647 18.8125 26.0861 18.8125C26.3161 18.8125 26.4667 18.8667 26.4793 18.9521C26.4814 18.9729 26.4667 18.9958 26.4521 19.0104C26.3517 19.1271 26.017 19.2521 25.6782 19.2521C25.628 19.2521 25.582 19.2479 25.5381 19.2437C25.536 19.2417 25.5318 19.2417 25.5297 19.2417C25.2745 19.2333 25.0842 19.1812 24.9608 19.1375C25.1449 19.0458 25.4502 18.9062 25.6991 18.8562ZM27.4225 17.3667C27.3724 17.5521 27.0523 17.8104 26.5629 18.0583C26.2095 18.2354 25.8936 18.2937 25.7179 18.3125C25.7953 18.1667 25.9689 17.9062 26.3559 17.6104C26.6257 17.4021 27.0231 17.1792 27.2552 17.1792C27.3493 17.1792 27.3849 17.2146 27.4037 17.2437C27.4288 17.2812 27.4351 17.3208 27.4225 17.3667Z" fill="#CB3E3E"/>
</svg>
