<svg width="16" height="16" viewBox="0 0 16 16" fill="none" xmlns="http://www.w3.org/2000/svg">
<path d="M6.47145 9.52876C6.2111 9.26841 5.78899 9.26841 5.52864 9.52876C5.26829 9.78911 5.26829 10.2112 5.52864 10.4716L6.86197 11.8049C7.12232 12.0653 7.54443 12.0653 7.80478 11.8049L10.4714 9.13823C10.7318 8.87788 10.7318 8.45577 10.4714 8.19543C10.2111 7.93508 9.78899 7.93508 9.52864 8.19543L7.33337 10.3907L6.47145 9.52876Z" fill="#FF6666"/>
<path fill-rule="evenodd" clip-rule="evenodd" d="M5.33337 2.00016C5.33337 1.63197 5.0349 1.3335 4.66671 1.3335C4.29852 1.3335 4.00004 1.63197 4.00004 2.00016V2.73351C2.47855 3.04236 1.33337 4.38752 1.33337 6.00016V11.3335C1.33337 13.1744 2.82576 14.6668 4.66671 14.6668H11.3334C13.1743 14.6668 14.6667 13.1744 14.6667 11.3335V6.00016C14.6667 4.38752 13.5215 3.04236 12 2.73351V2.00016C12 1.63197 11.7016 1.3335 11.3334 1.3335C10.9652 1.3335 10.6667 1.63197 10.6667 2.00016V2.66683H5.33337V2.00016ZM13.2196 5.3335C12.945 4.5567 12.2042 4.00016 11.3334 4.00016H4.66671C3.83828 4.00016 3.12749 4.50384 2.82388 5.22167C2.80834 5.2584 2.79387 5.29569 2.78051 5.3335H13.2196ZM2.66671 6.66683H13.3334V11.3335C13.3334 12.4381 12.4379 13.3335 11.3334 13.3335H4.66671C3.56214 13.3335 2.66671 12.4381 2.66671 11.3335V6.66683Z" fill="#FF6666"/>
</svg>
