<svg width="184" height="197" viewBox="0 0 184 197" fill="none" xmlns="http://www.w3.org/2000/svg">
<path d="M174.826 131.238C165.249 110.695 148.283 92.7258 126.739 80.3418C118.54 75.6549 112.756 73.257 105.674 71.7408L100.204 70.5111L96.2716 65.8029C89.1279 57.0815 81.8303 51.7728 70.1422 46.5226C56.6582 40.5503 39.925 35.9061 30.4138 35.5414C21.7579 35.1298 13.7977 37.3142 14.4759 39.8454C14.8758 41.3381 16.4089 41.5782 20.4403 40.9264C30.9204 39.1762 46.5315 42.1241 64.0491 49.1973C76.1002 54.0578 84.842 59.7736 91.0664 66.8078C93.8841 70.0979 93.8745 70.3112 90.347 70.601C82.2069 71.3667 75.2882 77.9367 73.6255 86.432C71.1798 99.2306 78.6498 117.392 90.1902 126.824C100.008 134.811 109.507 131.393 111.792 118.993C113.754 108.374 110.593 90.5992 104.573 78.5944C103.96 77.3058 103.814 76.5084 104.246 76.3783C105.729 75.9322 116.926 80.3482 123.366 83.9512C151.625 99.7156 174.341 128.93 176.485 152.13C177.195 160.262 177.309 160.438 179.278 159.565C180.709 158.924 180.913 158.442 180.814 154.334C180.676 148.835 177.756 137.44 174.826 131.238ZM107.656 107.543C108.465 117.539 106.287 124.857 102.209 126.084C93.2509 128.779 77.8911 108.082 77.753 93.1152C77.6436 86.9765 79.4518 82.0142 82.9382 78.5808C84.6813 76.8641 90.2243 75.1264 94.1651 75.1331C97.0922 75.0941 97.488 75.3256 98.7667 77.606C99.4581 78.9409 100.439 80.6094 100.816 81.2675C103.462 85.6613 107.017 99.1792 107.656 107.543Z" fill="url(#paint0_linear_304_9629)"/>
<path d="M24.7648 21.5485C23.6294 20.9509 21.2634 22.4437 16.2283 27.062C2.2021 39.7423 0.971325 43.0273 8.84366 46.9713C10.9631 48.0867 14.975 49.7999 17.7569 50.8159C20.482 51.8518 24.8346 53.6447 27.4272 54.8597C32.5934 57.2302 35.2052 57.1113 34.4297 54.6621C33.8812 52.9297 27.1064 49.4639 16.206 45.3202C11.9291 43.7663 8.40925 42.2125 8.33359 41.9736C7.93638 40.7191 21.4708 26.8839 23.9691 26.0083C25.7861 25.3715 26.3355 22.3253 24.7648 21.5485Z" fill="#EA4335"/>
<defs>
<linearGradient id="paint0_linear_304_9629" x1="35.2362" y1="117.324" x2="162.818" y2="83.1387" gradientUnits="userSpaceOnUse">
<stop stop-color="#EA4335"/>
<stop offset="1" stop-color="#FAD2CF"/>
</linearGradient>
</defs>
</svg>
