<svg width="41" height="36" viewBox="0 0 41 36" fill="none" xmlns="http://www.w3.org/2000/svg">
<path d="M29.2802 17.7449C29.2156 17.8214 29.1511 17.8978 29.0846 17.9766C29.0483 18.0196 29.012 18.0626 28.9746 18.1069C28.8534 18.2458 28.7241 18.3679 28.5839 18.4883C28.5315 18.5337 28.4791 18.5792 28.4251 18.626C28.3418 18.6975 28.3418 18.6975 28.2569 18.7704C27.7792 19.186 27.3083 19.6072 26.8457 20.0388C26.7895 20.0912 26.7333 20.1436 26.6755 20.1976C26.5052 20.3566 26.3352 20.5158 26.1651 20.675C25.9426 20.883 25.7199 21.0909 25.497 21.2985C25.4418 21.3498 25.3867 21.4011 25.33 21.454C24.8264 21.9214 24.3155 22.3808 23.8019 22.8377C23.681 22.9457 23.5608 23.0546 23.4416 23.1644C23.3182 23.2752 23.1909 23.3819 23.0605 23.4848C22.9968 23.5382 22.9331 23.5916 22.8674 23.6466C22.8093 23.6925 22.7511 23.7385 22.6912 23.7859C22.4948 24.1413 22.6004 24.4911 22.6624 24.8811C22.6764 24.976 22.6905 25.0709 22.7049 25.1687C22.7543 25.4987 22.8078 25.828 22.8613 26.1574C22.8811 26.2806 22.901 26.4038 22.9208 26.5271C22.9623 26.785 23.0039 27.0429 23.0457 27.3008C23.0982 27.6245 23.1504 27.9482 23.2025 28.272C23.2533 28.5882 23.3043 28.9044 23.3554 29.2205C23.3653 29.2823 23.3753 29.344 23.3856 29.4076C23.4881 30.0423 23.592 30.6767 23.7009 31.3104C23.7179 31.4092 23.7348 31.508 23.7522 31.6098C23.7837 31.7924 23.8155 31.9748 23.8477 32.1572C23.8614 32.2367 23.8751 32.3163 23.8892 32.3982C23.9013 32.4669 23.9134 32.5356 23.9259 32.6064C23.9463 32.78 23.9463 32.78 23.9057 33.0101C23.3925 32.8113 22.9182 32.5765 22.4381 32.3103C22.363 32.2691 22.2879 32.2278 22.2105 32.1854C22.049 32.0966 21.8875 32.0077 21.7262 31.9187C21.4718 31.7784 21.2171 31.6387 20.9623 31.4991C20.2612 31.115 19.5604 30.7303 18.86 30.345C18.456 30.1228 18.0515 29.9015 17.6466 29.6808C17.4946 29.5978 17.3428 29.5144 17.1912 29.4307C16.9805 29.3144 16.7693 29.1992 16.5579 29.0842C16.4651 29.0324 16.465 29.0325 16.3704 28.9797C15.9524 28.7512 15.9524 28.7512 15.4843 28.7547C15.2886 28.8263 15.2886 28.8263 15.0948 28.9315C15.0204 28.9695 14.9461 29.0075 14.8694 29.0467C14.7902 29.0881 14.711 29.1295 14.6293 29.1722C14.4602 29.2587 14.2911 29.3451 14.1219 29.4314C14.0367 29.475 13.9516 29.5186 13.8639 29.5635C13.4988 29.7487 13.13 29.9263 12.7603 30.1027C12.6915 30.1356 12.6226 30.1686 12.5517 30.2025C12.2754 30.3346 11.9988 30.4665 11.7223 30.5983C10.899 30.9911 10.0793 31.3897 9.2645 31.7988C7.4438 32.7132 7.4438 32.7132 7.32101 32.6915C7.62829 30.8561 7.99655 29.0332 8.3644 27.2092C8.44511 26.8087 8.52553 26.4081 8.60597 26.0076C8.76262 25.2278 8.91958 24.4481 9.07675 23.6684C8.99017 23.6169 8.99017 23.6169 8.90184 23.5644C8.72345 23.4537 8.59632 23.3474 8.45169 23.1984C8.40402 23.1498 8.35636 23.1013 8.30725 23.0512C8.25649 22.9988 8.20573 22.9464 8.15344 22.8924C8.04234 22.7792 7.93115 22.666 7.81987 22.553C7.76229 22.4944 7.7047 22.4359 7.64537 22.3756C7.35956 22.0875 7.06828 21.805 6.77696 21.5223C6.33346 21.0913 5.89444 20.6567 5.46006 20.217C4.98405 19.7353 4.49731 19.2658 4.00558 18.7994C3.4879 18.3069 2.98786 17.7991 2.49227 17.2855C2.59808 17.146 2.59808 17.146 2.90948 17.0956C3.04462 17.0799 3.17985 17.0648 3.31514 17.0502C3.4606 17.0334 3.60606 17.0165 3.7515 16.9996C3.82376 16.9913 3.89602 16.983 3.97046 16.9744C4.24443 16.9416 4.51666 16.9013 4.78946 16.8607C5.27327 16.7913 5.75689 16.7416 6.24395 16.6973C6.96984 16.6312 7.68815 16.535 8.40872 16.4299C9.0406 16.3391 9.67274 16.2693 10.3091 16.2132C10.4394 16.2016 10.5695 16.1891 10.6996 16.1755C10.89 16.1583 10.89 16.1583 11.0897 16.1555C11.383 16.1409 11.5684 16.1271 11.7739 15.9129C11.8942 15.7274 11.9937 15.5407 12.0895 15.3419C12.1191 15.2846 12.1487 15.2274 12.1793 15.1683C12.268 14.9941 12.3524 14.8184 12.4363 14.6419C12.7147 14.0678 13.0115 13.5068 13.3237 12.9498C13.6992 12.2787 14.048 11.5987 14.3852 10.9084C14.6087 10.4517 14.8461 10.0026 15.0859 9.554C15.1803 9.37718 15.2743 9.20014 15.3682 9.02308C15.5446 8.69062 15.7212 8.35828 15.8978 8.02598C16.1553 8.16292 16.1792 8.22607 16.2966 8.4792C16.3458 8.58355 16.3458 8.58355 16.3959 8.69001C16.4307 8.76542 16.4654 8.84083 16.5012 8.91853C16.5759 9.07741 16.6507 9.23624 16.7256 9.39503C16.7634 9.47539 16.8012 9.55575 16.8401 9.63854C17.0032 9.9814 17.1741 10.3204 17.3455 10.6594C17.6111 11.1869 17.8662 11.718 18.1142 12.2534C18.3913 12.8515 18.678 13.444 18.9758 14.0327C19.0047 14.09 19.0336 14.1472 19.0634 14.2062C19.0955 14.2653 19.1276 14.3243 19.1606 14.3852C19.2552 14.5876 19.3183 14.7677 19.38 14.9796C19.5398 15.4652 19.7144 15.9497 20.1886 16.2151C20.8012 16.4398 21.4495 16.5162 22.0929 16.607C22.3002 16.6411 22.5075 16.6758 22.7146 16.711C23.2023 16.793 23.6907 16.8683 24.1798 16.9411C24.7371 17.0244 25.2931 17.1152 25.8491 17.2067C26.9915 17.3944 28.1353 17.5728 29.2802 17.7449Z" fill="#FFDC3F"/>
<path d="M29.288 17.7008C29.2246 17.777 29.1613 17.8531 29.096 17.9315C29.0604 17.9743 29.0247 18.0171 28.988 18.0613C28.8691 18.1995 28.7423 18.3212 28.6047 18.4411C28.5533 18.4864 28.502 18.5317 28.449 18.5784C28.3674 18.6496 28.3674 18.6496 28.2841 18.7223C27.8156 19.1364 27.3538 19.5561 26.9001 19.9861C26.845 20.0383 26.7899 20.0905 26.7331 20.1443C26.5661 20.3027 26.3993 20.4613 26.2325 20.6199C26.0143 20.8272 25.7958 21.0342 25.5772 21.2411C25.5231 21.2922 25.4691 21.3433 25.4134 21.396C24.9195 21.8617 24.4184 22.3194 23.9147 22.7747C23.7961 22.8823 23.6783 22.9908 23.5613 23.1002C23.4403 23.2106 23.3155 23.3169 23.1876 23.4195C23.1252 23.4727 23.0627 23.5259 22.9983 23.5807C22.9413 23.6266 22.8843 23.6724 22.8256 23.7196C22.6324 24.0732 22.7347 24.4204 22.7943 24.8076C22.8078 24.9019 22.8213 24.9961 22.8351 25.0932C22.8826 25.4208 22.9339 25.7478 22.9854 26.0748C23.0045 26.1972 23.0235 26.3195 23.0426 26.4419C23.0825 26.698 23.1225 26.954 23.1627 27.2101C23.2131 27.5315 23.2633 27.8529 23.3134 28.1744C23.3623 28.4883 23.4113 28.8023 23.4603 29.1162C23.4699 29.1775 23.4795 29.2388 23.4894 29.3019C23.588 29.9321 23.6878 30.562 23.7927 31.1912C23.809 31.2893 23.8253 31.3874 23.8421 31.4885C23.8723 31.6697 23.9029 31.8509 23.9339 32.032C23.9471 32.1109 23.9603 32.1899 23.9739 32.2712C23.9855 32.3394 23.9972 32.4076 24.0092 32.4779C24.0287 32.6503 24.0287 32.6503 23.9883 32.879C23.7631 32.7923 23.5431 32.7015 23.3225 32.6042C23.25 32.5731 23.1776 32.5419 23.1029 32.5098C23.0315 32.475 22.9601 32.4402 22.8865 32.4044C22.8193 32.373 22.7521 32.3415 22.6829 32.3092C22.481 32.0992 22.5188 31.9531 22.5114 31.6748C22.4782 31.1322 22.3753 30.5935 22.2903 30.0567C22.2692 29.9217 22.2482 29.7867 22.2271 29.6517C22.1718 29.2969 22.116 28.9422 22.0602 28.5876C22.0041 28.2313 21.9484 27.8749 21.8927 27.5186C21.82 27.0531 21.7471 26.5876 21.6738 26.1222C21.6454 25.9412 21.6174 25.7601 21.5894 25.579C21.5495 25.3219 21.5074 25.0652 21.4642 24.8085C21.4427 24.6765 21.4212 24.5446 21.3997 24.4126C21.389 24.3514 21.3783 24.2902 21.3673 24.2271C21.3192 23.9265 21.2951 23.736 21.4433 23.4686C21.576 23.3285 21.576 23.3285 21.7405 23.1818C21.8015 23.1268 21.8625 23.0718 21.9254 23.0151C21.9914 22.9565 22.0574 22.8978 22.1253 22.8374C22.2643 22.7121 22.4032 22.5868 22.5421 22.4614C22.6471 22.3667 22.6471 22.3667 22.7542 22.2701C23.0499 22.0014 23.3403 21.7274 23.6299 21.4524C24.1446 20.9644 24.6629 20.4805 25.1842 19.9995C25.5461 19.6651 25.9047 19.3274 26.262 18.9883C26.3104 18.9424 26.3588 18.8966 26.4086 18.8493C26.5269 18.7371 26.6451 18.6249 26.7634 18.5127C26.6714 18.4992 26.5795 18.4858 26.4847 18.4719C25.6153 18.344 24.7471 18.2095 23.8796 18.0686C23.4337 17.9964 22.9876 17.9265 22.5405 17.8618C22.1084 17.7993 21.6776 17.7307 21.2471 17.6579C21.0833 17.6313 20.9191 17.6068 20.7547 17.5846C19.5051 17.4137 19.5051 17.4137 19.1611 17.0508C18.9328 16.72 18.7849 16.3668 18.6535 15.9896C18.5464 15.6947 18.408 15.4145 18.2723 15.1316C18.2201 15.0176 18.168 14.9035 18.1163 14.7893C17.7224 13.9253 17.3066 13.0712 16.8866 12.2193C16.58 11.5974 16.2874 10.9701 16.0012 10.3389C15.9721 10.2746 15.943 10.2104 15.913 10.1442C15.8875 10.0878 15.8621 10.0314 15.8358 9.97328C15.7597 9.80464 15.7597 9.80464 15.6584 9.62992C15.5823 9.46375 15.5823 9.46375 15.6275 9.23592C15.7824 8.8327 16.0097 8.45823 16.2229 8.08339C16.4744 8.21871 16.4976 8.28137 16.6118 8.5325C16.6596 8.63602 16.6596 8.63602 16.7084 8.74163C16.7422 8.81644 16.776 8.89125 16.8108 8.96833C16.8834 9.12595 16.9562 9.28352 17.029 9.44104C17.0657 9.52076 17.1025 9.60048 17.1403 9.68262C17.2989 10.0227 17.4652 10.359 17.6319 10.6953C17.8903 11.2185 18.1384 11.7454 18.3796 12.2766C18.649 12.8699 18.9278 13.4577 19.2175 14.0416C19.2457 14.0984 19.2738 14.1552 19.3028 14.2137C19.334 14.2723 19.3652 14.3309 19.3974 14.3913C19.4894 14.592 19.5506 14.7708 19.6104 14.9811C19.7653 15.463 19.9349 15.9439 20.3981 16.2061C20.9967 16.4277 21.6307 16.5018 22.2599 16.5902C22.4626 16.6235 22.6653 16.6574 22.8678 16.6919C23.3447 16.7719 23.8223 16.8453 24.3005 16.9163C24.8455 16.9976 25.3892 17.0863 25.9329 17.1756C27.05 17.3589 28.1684 17.533 29.288 17.7008Z" fill="#FFEF78"/>
<path d="M35.1876 7.50568C35.0611 7.62928 35.0611 7.62928 34.9026 7.75222C34.8445 7.79742 34.7863 7.84263 34.7264 7.8892C34.4392 8.10446 34.1483 8.31371 33.8545 8.51981C33.7888 8.56612 33.7232 8.61243 33.6556 8.66014C33.441 8.81146 33.2261 8.96245 33.0113 9.11342C32.8613 9.21901 32.7113 9.3246 32.5614 9.43022C32.2483 9.65059 31.9352 9.87081 31.622 10.0909C31.2199 10.3735 30.8181 10.6565 30.4163 10.9396C30.1073 11.1573 29.7982 11.3747 29.489 11.5921C29.3407 11.6965 29.1924 11.8009 29.0442 11.9053C28.8379 12.0507 28.6313 12.1958 28.4247 12.3408C28.3632 12.3842 28.3017 12.4276 28.2384 12.4723C28.1823 12.5116 28.1262 12.5509 28.0685 12.5913C28.0197 12.6256 27.9709 12.6599 27.9207 12.6953C27.7356 12.8129 27.6313 12.824 27.4103 12.8148C27.1718 12.743 27.1718 12.743 26.981 12.541C26.8576 12.2915 26.8576 12.2915 26.8384 12.0653C27.0754 11.5121 27.791 11.154 28.2721 10.8165C28.3706 10.7471 28.3706 10.7471 28.471 10.6762C28.6857 10.5249 28.9005 10.3739 29.1154 10.2229C29.2653 10.1173 29.4153 10.0117 29.5653 9.90611C29.8783 9.68573 30.1914 9.46552 30.5046 9.24542C30.9067 8.96283 31.3086 8.67984 31.7103 8.39673C32.0193 8.17905 32.3284 7.96158 32.6376 7.74418C32.7859 7.63985 32.9342 7.53546 33.0824 7.43099C33.2888 7.28562 33.4953 7.14053 33.7019 6.99553C33.7634 6.95212 33.8249 6.90872 33.8882 6.864C33.9443 6.82472 34.0004 6.78545 34.0581 6.74499C34.1069 6.7107 34.1557 6.6764 34.2059 6.64107C34.4122 6.50999 34.5085 6.51341 34.7585 6.53395C35.0312 6.60686 35.0312 6.60686 35.1962 6.75976C35.3213 7.06158 35.3017 7.19806 35.1876 7.50568Z" fill="#FFDC43"/>
<path d="M36.2157 1.87866C36.1045 2.16477 36.0534 2.22373 35.8232 2.4032C35.7652 2.44844 35.7073 2.49368 35.6476 2.54029C35.3612 2.75583 35.0712 2.96513 34.7782 3.17135C34.7127 3.21769 34.6473 3.26404 34.5798 3.31178C34.3658 3.46321 34.1516 3.6143 33.9373 3.76538C33.7877 3.87103 33.6382 3.9767 33.4886 4.08239C33.1765 4.30292 32.8642 4.52329 32.5518 4.74354C32.1508 5.02632 31.7501 5.3095 31.3495 5.59281C31.0413 5.81064 30.7331 6.02826 30.4247 6.24582C30.2768 6.35021 30.129 6.45468 29.9811 6.55922C29.7754 6.70469 29.5694 6.84988 29.3634 6.99498C29.3021 7.03842 29.2407 7.08185 29.1776 7.12661C29.1216 7.1659 29.0657 7.2052 29.0081 7.24569C28.9595 7.28001 28.9108 7.31433 28.8607 7.34969C28.6762 7.46739 28.5722 7.47854 28.3518 7.46947C28.1142 7.3978 28.1142 7.3978 27.924 7.19592C27.8012 6.94653 27.8012 6.94653 27.7822 6.72043C28.0188 6.16709 28.7323 5.80866 29.2121 5.47094C29.3103 5.40142 29.3103 5.40142 29.4105 5.33051C29.6245 5.17908 29.8387 5.02799 30.053 4.87691C30.2026 4.77126 30.3521 4.66558 30.5017 4.5599C30.8138 4.33937 31.1261 4.119 31.4385 3.89875C31.8395 3.61597 32.2402 3.33279 32.6408 3.04948C32.949 2.83165 33.2572 2.61403 33.5656 2.39647C33.7135 2.29207 33.8613 2.18761 34.0092 2.08307C34.2149 1.9376 34.4209 1.79241 34.6269 1.64731C34.6882 1.60387 34.7496 1.56044 34.8127 1.51568C34.8687 1.47639 34.9246 1.43709 34.9822 1.3966C35.0308 1.36228 35.0795 1.32796 35.1296 1.2926C35.3156 1.17399 35.4156 1.16357 35.6376 1.17762C36.0312 1.28796 36.1949 1.46372 36.2157 1.87866Z" fill="#FFDC43"/>
<path d="M40.5345 8.45366C40.1338 8.83299 39.6619 9.14357 39.2109 9.45933C39.1463 9.50484 39.0817 9.55036 39.0151 9.59725C38.8038 9.74596 38.5923 9.89435 38.3808 10.0427C38.233 10.1466 38.0853 10.2504 37.9375 10.3543C37.6291 10.571 37.3205 10.7877 37.0119 11.0041C36.616 11.2819 36.2204 11.56 35.8249 11.8382C35.5204 12.0524 35.2158 12.2663 34.9111 12.4801C34.7651 12.5826 34.6192 12.6852 34.4732 12.7879C34.2699 12.9309 34.0664 13.0736 33.8628 13.2162C33.8025 13.2587 33.7422 13.3012 33.68 13.345C33.6245 13.3838 33.5691 13.4226 33.512 13.4625C33.4639 13.4962 33.4159 13.5299 33.3664 13.5647C33.1529 13.7012 33.005 13.7637 32.7506 13.7578C32.5177 13.6821 32.5177 13.6821 32.3267 13.4803C32.2033 13.2311 32.2033 13.2311 32.184 13.0052C32.4209 12.4527 33.1366 12.0953 33.6178 11.7584C33.7163 11.689 33.7163 11.689 33.8167 11.6183C34.0314 11.4672 34.2462 11.3165 34.4611 11.1657C34.6111 11.0603 34.7611 10.9549 34.9111 10.8495C35.2241 10.6295 35.5373 10.4096 35.8506 10.1899C36.2527 9.90776 36.6546 9.62524 37.0564 9.3426C37.3654 9.12528 37.6746 8.90817 37.9838 8.69113C38.1321 8.58697 38.2804 8.48275 38.4286 8.37846C38.635 8.23333 38.8416 8.08849 39.0482 7.94372C39.1097 7.90039 39.1712 7.85705 39.2345 7.81241C39.2906 7.7732 39.3467 7.73399 39.4045 7.6936C39.4532 7.65936 39.502 7.62512 39.5523 7.58985C39.7571 7.45992 39.8574 7.46237 40.1058 7.47823C40.3778 7.55592 40.3778 7.55592 40.5353 7.75182C40.6342 8.0487 40.6533 8.16169 40.5345 8.45366Z" fill="#FFDC43"/>
<path d="M24.0726 4.31959C23.948 4.60727 23.8183 4.67919 23.5065 4.81512C23.227 4.81063 22.9662 4.75499 22.693 4.69473C22.6204 4.68022 22.5478 4.66572 22.473 4.65078C22.2947 4.61492 22.1168 4.57684 21.9391 4.53832C21.9261 4.62844 21.9132 4.71855 21.8998 4.8114C21.8812 4.93033 21.8626 5.04925 21.8438 5.16816C21.8355 5.22747 21.8271 5.28679 21.8186 5.3479C21.7624 5.69365 21.7075 5.9217 21.3984 6.15487C21.1488 6.21534 20.9792 6.17381 20.7257 6.11051C20.4897 5.93635 20.441 5.87242 20.3897 5.60456C20.401 5.50174 20.4168 5.39943 20.4356 5.29776C20.446 5.23988 20.4565 5.18201 20.4674 5.12237C20.4787 5.06234 20.49 5.0023 20.5016 4.94045C20.5128 4.87952 20.5239 4.81859 20.5354 4.75582C20.5629 4.60555 20.591 4.45538 20.6191 4.30523C20.4649 4.28187 20.4649 4.28187 20.3075 4.25804C20.1716 4.23615 20.0358 4.2142 19.9001 4.1922C19.8324 4.18212 19.7647 4.17204 19.6949 4.16165C19.3 4.09623 19.0387 4.03724 18.7599 3.7536C18.6799 3.53036 18.7192 3.38256 18.7794 3.16156C18.9662 2.96112 19.0365 2.92105 19.3381 2.88804C19.4553 2.90277 19.5722 2.92135 19.6884 2.94262C19.7545 2.95455 19.8207 2.96647 19.8889 2.97875C19.9575 2.9915 20.0262 3.00424 20.0969 3.01738C20.1665 3.03001 20.2362 3.04265 20.3079 3.05567C20.4797 3.08688 20.6514 3.11853 20.8231 3.15027C20.835 3.05461 20.847 2.95894 20.8593 2.86038C20.8776 2.73441 20.896 2.60846 20.9144 2.48252C20.922 2.41952 20.9295 2.35652 20.9373 2.29161C20.9881 1.96204 21.0158 1.81891 21.2969 1.59082C21.5415 1.49067 21.5415 1.49067 21.797 1.48926C22.1291 1.61244 22.2167 1.73034 22.3852 2.01185C22.393 2.2585 22.3418 2.48629 22.2859 2.72472C22.2728 2.78818 22.2597 2.85163 22.2462 2.91701C22.2137 3.07285 22.1786 3.22817 22.143 3.38336C22.2521 3.39831 22.3613 3.41326 22.4737 3.42866C22.6174 3.45056 22.7612 3.47256 22.905 3.49465C22.9768 3.50422 23.0486 3.51379 23.1227 3.52364C23.499 3.58361 23.6627 3.61463 23.9344 3.87328C24.0592 4.09393 24.0592 4.09393 24.0726 4.31959Z" fill="#FFDC41"/>
<path d="M33.2858 26.273C33.1537 26.6036 33.0216 26.6887 32.7052 26.8511C32.4246 26.8528 32.164 26.7958 31.8911 26.7339C31.8186 26.7191 31.746 26.7044 31.6712 26.6892C31.493 26.6528 31.3153 26.6138 31.1378 26.5743C31.1225 26.6772 31.1073 26.7801 31.0917 26.8861C31.0701 27.022 31.0484 27.1578 31.0267 27.2937C31.0168 27.3614 31.007 27.4292 30.9969 27.4989C30.9321 27.894 30.8713 28.1549 30.5552 28.428C30.303 28.5029 30.1337 28.4598 29.8806 28.3939C29.6479 28.2014 29.6005 28.1298 29.5556 27.8261C29.5695 27.7088 29.5878 27.5919 29.6091 27.4757C29.6211 27.4095 29.6331 27.3434 29.6454 27.2752C29.6582 27.2066 29.671 27.138 29.6843 27.0673C29.6969 26.9976 29.7096 26.928 29.7227 26.8562C29.754 26.6845 29.7859 26.5128 29.8178 26.3412C29.6634 26.3183 29.6634 26.3183 29.5059 26.2951C29.3701 26.2735 29.2342 26.2518 29.0984 26.2301C29.0306 26.2202 28.9629 26.2104 28.8931 26.2003C28.4981 26.1355 28.2371 26.0747 27.9641 25.7586C27.8891 25.5064 27.9322 25.3372 27.9981 25.0841C28.1906 24.8513 28.2622 24.8039 28.5659 24.759C28.6833 24.7729 28.8002 24.7912 28.9164 24.8126C28.9825 24.8245 29.0487 24.8365 29.1168 24.8488C29.1855 24.8616 29.2541 24.8745 29.3248 24.8877C29.3944 24.9004 29.4641 24.913 29.5358 24.9261C29.7076 24.9574 29.8792 24.9893 30.0509 25.0212C30.0652 24.912 30.0796 24.8028 30.0944 24.6903C30.1158 24.5464 30.1373 24.4026 30.159 24.2587C30.1681 24.1868 30.1772 24.1149 30.1866 24.0408C30.2457 23.6643 30.277 23.5007 30.5649 23.2341C30.813 23.1141 30.813 23.1141 31.0696 23.1063C31.4002 23.2384 31.4853 23.3705 31.6476 23.6869C31.6494 23.9675 31.5924 24.2281 31.5305 24.5009C31.5157 24.5735 31.501 24.6461 31.4858 24.7208C31.4494 24.899 31.4104 25.0767 31.3708 25.2543C31.4801 25.2687 31.5893 25.283 31.7018 25.2978C31.8457 25.3192 31.9895 25.3407 32.1333 25.3624C32.2053 25.3715 32.2772 25.3806 32.3513 25.3901C32.7277 25.4491 32.8914 25.4804 33.1579 25.7683C33.2779 26.0164 33.2779 26.0164 33.2858 26.273Z" fill="#FFDC41"/>
<path d="M23.5048 11.4362C23.3823 11.746 23.2492 11.842 22.9576 11.9903C22.7165 11.9986 22.7165 11.9986 22.4929 11.9083C22.2697 11.6691 22.1776 11.5332 22.1686 11.2002C22.2911 10.8904 22.4242 10.7943 22.7158 10.646C22.9569 10.6377 22.9569 10.6377 23.1805 10.7281C23.4037 10.9673 23.4958 11.1031 23.5048 11.4362Z" fill="#FFDD48"/>
<path d="M27.6685 30.7731C27.5459 31.0829 27.4129 31.179 27.1213 31.3273C26.8802 31.3355 26.8802 31.3355 26.6565 31.2452C26.4333 31.006 26.3412 30.8702 26.3322 30.5371C26.4547 30.2273 26.5878 30.1312 26.8794 29.9829C27.1205 29.9747 27.1205 29.9747 27.3442 30.065C27.5674 30.3042 27.6595 30.44 27.6685 30.7731Z" fill="#FFDD48"/>
<path d="M34.587 18.9047C34.4645 19.2146 34.3314 19.3106 34.0398 19.4589C33.7987 19.4672 33.7987 19.4672 33.575 19.3769C33.3518 19.1377 33.2597 19.0018 33.2507 18.6688C33.3733 18.359 33.5063 18.2629 33.7979 18.1146C34.039 18.1063 34.039 18.1063 34.2627 18.1967C34.4859 18.4359 34.578 18.5717 34.587 18.9047Z" fill="#FFDD48"/>
</svg>
