<svg width="166" height="166" viewBox="0 0 166 166" fill="none" xmlns="http://www.w3.org/2000/svg">
<path opacity="0.25" d="M85.1373 0H80.8627C36.2034 0 0 36.2034 0 80.8627V85.1373C0 129.797 36.2034 166 80.8627 166H85.1373C129.797 166 166 129.797 166 85.1373V80.8627C166 36.2034 129.797 0 85.1373 0Z" fill="#B746E6"/>
<path opacity="0.25" d="M84.9055 10H81.0945C41.2778 10 9 42.2778 9 82.0945V85.9055C9 125.722 41.2778 158 81.0945 158H84.9055C124.722 158 157 125.722 157 85.9055V82.0945C157 42.2778 124.722 10 84.9055 10Z" fill="#B746E6"/>
<path d="M84.135 20H80.865C46.6979 20 19 47.6979 19 81.865V85.135C19 119.302 46.6979 147 80.865 147H84.135C118.302 147 146 119.302 146 85.135V81.865C146 47.6979 118.302 20 84.135 20Z" fill="white"/>
<g clip-path="url(#clip0_304_10112)">
<path d="M89.097 85.5221C89.302 85.5736 89.302 85.5736 89.5112 85.6262C89.964 85.7403 90.4162 85.8564 90.8685 85.9725C91.1898 86.0539 91.511 86.1352 91.8323 86.2164C92.6032 86.4115 93.3738 86.6079 94.1441 86.8049C95.0313 87.0316 95.9189 87.2569 96.8065 87.482C98.8034 87.9887 100.8 88.4981 102.796 89.0083C103.366 89.1542 103.937 89.3 104.508 89.4457C106.348 89.9154 108.187 90.386 110.025 90.8592C110.115 90.8823 110.205 90.9053 110.297 90.9291C110.721 91.0383 111.146 91.1482 111.57 91.2587C112.321 91.4545 113.073 91.6456 113.829 91.8244C113.967 91.858 114.105 91.8916 114.248 91.9262C114.501 91.9875 114.755 92.0469 115.009 92.1036C115.789 92.2951 116.325 92.5848 116.869 93.1836C117.043 93.5312 117.032 93.8095 117.041 94.1977C117.048 94.3992 117.048 94.3992 117.056 94.6046C116.985 95.1256 116.85 95.4399 116.477 95.8008C115.968 96.1576 115.43 96.4609 114.89 96.7659C114.653 96.9021 114.417 97.039 114.181 97.1759C114.018 97.2705 113.855 97.3648 113.691 97.459C112.791 97.9794 111.906 98.5247 111.021 99.0723C110.871 99.1649 110.722 99.2574 110.572 99.35C110.228 99.5625 109.884 99.7752 109.541 99.9883C110.069 100.694 110.6 101.398 111.136 102.098C111.246 102.242 111.246 102.242 111.357 102.389C111.711 102.852 112.068 103.313 112.435 103.765C113.881 105.552 114.571 107.07 114.383 109.41C114.075 110.997 113.297 112.327 112.027 113.336C110.421 114.312 108.861 114.646 106.988 114.297C105.989 114.022 105.242 113.584 104.437 112.943C104.304 112.839 104.17 112.736 104.032 112.628C103.452 112.176 102.875 111.719 102.3 111.26C101.98 111.005 101.659 110.751 101.338 110.498C101.236 110.416 101.134 110.334 101.029 110.25C100.933 110.175 100.838 110.1 100.739 110.022C100.654 109.954 100.569 109.887 100.482 109.817C100.24 109.637 100.24 109.637 99.8574 109.672C99.6226 109.982 99.6226 109.982 99.4015 110.392C99.3362 110.505 99.3362 110.505 99.2696 110.621C99.1754 110.785 99.082 110.95 98.9891 111.115C98.7434 111.55 98.4924 111.982 98.2421 112.415C98.1914 112.503 98.1407 112.591 98.0884 112.681C97.5895 113.546 97.0768 114.4 96.5532 115.25C96.4738 115.381 96.3944 115.513 96.3126 115.648C96.2375 115.77 96.1624 115.891 96.085 116.015C96.0203 116.121 95.9557 116.226 95.8891 116.335C95.5498 116.757 95.1949 116.974 94.6598 117.052C93.416 117.042 93.416 117.042 92.9219 116.607C92.5211 116.158 92.3153 115.801 92.1685 115.219C92.1305 115.072 92.0926 114.925 92.0535 114.773C92.0138 114.612 91.9741 114.451 91.9333 114.286C91.8893 114.113 91.8452 113.94 91.8009 113.767C91.6801 113.293 91.5614 112.818 91.443 112.344C91.3159 111.836 91.1868 111.328 91.058 110.821C90.8354 109.943 90.614 109.065 90.3934 108.187C90.0364 106.765 89.6766 105.344 89.3166 103.924C88.9479 102.469 88.5795 101.013 88.2127 99.5579C87.6861 97.4684 87.1587 95.3792 86.6183 93.2933C86.5462 93.0149 86.4743 92.7364 86.4025 92.458C86.3796 92.3691 86.3566 92.2802 86.333 92.1886C86.2879 92.0138 86.2428 91.8389 86.1978 91.664C86.0508 91.0946 85.9019 90.5258 85.7526 89.957C85.6781 89.6684 85.6037 89.3798 85.5293 89.0912C85.4956 88.9645 85.4618 88.8379 85.427 88.7075C85.1987 87.8117 84.9933 86.9334 85.4138 86.0763C86.5057 84.8407 87.644 85.1443 89.097 85.5221Z" fill="#6C4C8B"/>
<path d="M89.097 85.5219C89.302 85.5735 89.302 85.5735 89.5112 85.626C89.964 85.7401 90.4162 85.8563 90.8685 85.9724C91.1898 86.0538 91.511 86.1351 91.8324 86.2163C92.6032 86.4114 93.3738 86.6077 94.1441 86.8047C95.0313 87.0315 95.9189 87.2567 96.8065 87.4819C98.8034 87.9885 100.8 88.4979 102.796 89.0082C103.366 89.1541 103.937 89.2998 104.508 89.4456C106.348 89.9153 108.187 90.3859 110.025 90.8591C110.115 90.8821 110.205 90.9052 110.297 90.9289C110.721 91.0382 111.146 91.148 111.57 91.2586C112.321 91.4544 113.073 91.6455 113.829 91.8242C113.967 91.8579 114.105 91.8914 114.248 91.9261C114.501 91.9874 114.755 92.0467 115.009 92.1035C115.789 92.2949 116.325 92.5847 116.869 93.1834C117.043 93.5311 117.032 93.8094 117.041 94.1976C117.048 94.399 117.048 94.399 117.056 94.6045C116.985 95.1254 116.85 95.4398 116.477 95.8006C115.968 96.1575 115.43 96.4607 114.89 96.7657C114.653 96.9019 114.417 97.0388 114.181 97.1758C114.018 97.2703 113.855 97.3647 113.691 97.4588C112.791 97.9793 111.906 98.5246 111.021 99.0721C110.871 99.1647 110.722 99.2573 110.572 99.3499C110.228 99.5624 109.884 99.7751 109.541 99.9881C110.069 100.694 110.6 101.398 111.136 102.098C111.246 102.242 111.246 102.242 111.357 102.389C111.711 102.852 112.068 103.312 112.435 103.765C113.881 105.551 114.571 107.07 114.383 109.41C114.178 110.464 113.81 111.485 113.074 112.289C112.902 112.38 112.727 112.468 112.551 112.551C104.916 104.916 97.2822 97.282 85.7246 85.7245C86.7714 84.8656 87.8711 85.2032 89.097 85.5219Z" fill="#523272"/>
<path d="M67.4043 70.8068C67.9937 71.086 68.3184 71.3877 68.5821 71.9845C68.7941 72.7719 68.6676 73.3592 68.3204 74.0783C68.0183 74.4743 67.67 74.8084 67.3077 75.1492C67.2085 75.2461 67.1092 75.343 67.007 75.4428C66.6914 75.7505 66.3734 76.0555 66.0549 76.3601C65.7379 76.6645 65.4216 76.9694 65.1069 77.2761C64.9118 77.4661 64.7154 77.6549 64.5175 77.842C63.2202 79.1024 62.4367 80.6363 62.3698 82.4546C62.3487 84.3757 62.8919 86.0207 64.2146 87.4505C65.6229 88.7756 67.2571 89.3322 69.1639 89.3218C72.1262 89.2118 73.9055 87.1238 75.8322 85.1305C76.1059 84.8482 76.3811 84.5675 76.6565 84.2868C76.78 84.1574 76.78 84.1574 76.9061 84.0254C77.4741 83.4479 78.009 83.0223 78.8469 82.9486C79.5132 83.0357 79.9711 83.1736 80.4903 83.631C80.8961 84.1991 80.9315 84.7134 80.9478 85.3894C80.7747 86.2835 79.9704 86.9391 79.3524 87.5563C79.2546 87.6547 79.1568 87.753 79.056 87.8544C78.8493 88.0618 78.6423 88.2689 78.435 88.4756C78.1211 88.7892 77.8089 89.1044 77.4969 89.4197C77.2949 89.622 77.0928 89.8242 76.8906 90.0262C76.7988 90.1192 76.7071 90.2122 76.6125 90.308C74.3896 92.5108 71.685 93.4864 68.5943 93.4864C66.0812 93.4517 63.8107 92.6243 61.9082 90.9591C61.8204 90.8898 61.7325 90.8205 61.6419 90.749C59.8954 89.3323 58.5039 86.788 58.2442 84.547C58.0223 81.4556 58.4225 78.5036 60.4795 76.0606C60.5624 75.9678 60.6452 75.875 60.7305 75.7794C60.8201 75.6759 60.9097 75.5723 61.0019 75.4656C61.8086 74.5589 62.6643 73.6983 63.519 72.8371C63.6549 72.7002 63.7906 72.563 63.9261 72.4257C64.1194 72.23 64.3136 72.0354 64.5081 71.8409C64.6216 71.7268 64.7351 71.6128 64.852 71.4953C65.6635 70.7625 66.3369 70.6766 67.4043 70.8068Z" fill="#BFB3FF"/>
<path d="M89.266 60.2887C89.4388 60.4347 89.6107 60.5818 89.7813 60.7303C89.8964 60.8176 89.8964 60.8176 90.0139 60.9067C91.7804 62.2806 93.0592 64.7743 93.4086 66.962C93.6323 68.8543 93.5326 70.7011 92.9219 72.5077C92.8826 72.629 92.8433 72.7503 92.8028 72.8752C91.972 75.1807 90.0335 76.8601 88.3418 78.5515C88.0848 78.8088 87.8288 79.0672 87.5728 79.3257C87.4082 79.4907 87.2435 79.6556 87.0788 79.8205C87.003 79.8972 86.9272 79.9739 86.8491 80.053C86.2817 80.6172 85.8994 80.9191 85.0949 80.9318C84.4484 80.9146 83.979 80.8078 83.5001 80.3592C83.0905 79.8455 82.9306 79.3297 82.9357 78.6744C83.1989 77.1624 85.232 75.7455 86.3045 74.7082C87.9295 73.1338 89.2191 71.5598 89.3195 69.1954C89.3455 67.2529 88.715 65.5909 87.3849 64.1572C85.9871 62.8588 84.3282 62.3477 82.4542 62.3699C79.553 62.4786 77.8607 64.4794 75.9889 66.44C75.6996 66.742 75.4079 67.0414 75.1159 67.3408C74.9858 67.4794 74.9858 67.4794 74.853 67.6209C74.2654 68.2206 73.7295 68.5459 72.9004 68.7128C72.3236 68.7119 71.8492 68.5198 71.3465 68.2466C70.8863 67.7188 70.6851 67.159 70.6692 66.4575C70.8656 65.0189 72.4852 63.8693 73.4741 62.8805C73.6774 62.6769 73.8797 62.4722 74.082 62.2674C78.1629 58.1628 84.3013 56.4936 89.266 60.2887Z" fill="#9999FF"/>
<path d="M82.3141 68.6067C82.7615 68.9999 83.2023 69.4319 83.2694 70.0441C83.2726 70.1554 83.2758 70.2668 83.2791 70.3815C83.2865 70.5465 83.2865 70.5465 83.294 70.7148C83.1473 71.6462 82.2795 72.3261 81.6426 72.9597C81.5349 73.0679 81.4272 73.1761 81.3162 73.2875C80.9611 73.6438 80.605 73.9991 80.2489 74.3543C80.0015 74.6019 79.7541 74.8495 79.5068 75.0972C78.9889 75.6155 78.4705 76.1333 77.9518 76.6508C77.3525 77.2487 76.7541 77.8475 76.1562 78.4469C75.642 78.9622 75.1273 79.4771 74.6122 79.9915C74.3049 80.2984 73.9978 80.6056 73.6911 80.9131C73.3493 81.2555 73.0067 81.597 72.6639 81.9384C72.5626 82.0402 72.4613 82.1421 72.357 82.247C72.2634 82.3398 72.1699 82.4326 72.0735 82.5282C71.9926 82.609 71.9117 82.6898 71.8284 82.773C71.2754 83.249 70.7926 83.2955 70.0828 83.2798C69.6026 83.2183 69.3341 83.0317 68.9746 82.715C68.872 82.6286 68.7695 82.5422 68.6638 82.4533C68.3283 81.834 68.3308 81.178 68.4511 80.4904C68.8697 79.7593 69.4405 79.2023 70.0347 78.6112C70.1412 78.5043 70.2476 78.3974 70.3573 78.2872C70.7082 77.9352 71.06 77.5842 71.4118 77.2332C71.6563 76.9885 71.9008 76.7438 72.1452 76.4991C72.6569 75.9869 73.1691 75.4753 73.6817 74.964C74.2739 74.3732 74.8651 73.7815 75.4559 73.1893C76.0251 72.6187 76.5951 72.0489 77.1655 71.4793C77.4077 71.2372 77.6498 70.9949 77.8917 70.7524C78.2294 70.4141 78.5679 70.0766 78.9066 69.7393C79.0067 69.6387 79.1068 69.5381 79.2099 69.4344C79.3023 69.3427 79.3948 69.251 79.49 69.1565C79.5699 69.0767 79.6498 68.9969 79.7321 68.9147C80.4536 68.2945 81.4487 68.2569 82.3141 68.6067Z" fill="#9998FF"/>
<path d="M58.7676 56.1506C59.5437 56.5341 60.0975 57.0304 60.7039 57.6422C60.7975 57.7355 60.8911 57.8287 60.9876 57.9248C61.1843 58.1212 61.3804 58.3181 61.5761 58.5154C61.875 58.8164 62.1759 59.1152 62.4771 59.4139C62.6686 59.6057 62.86 59.7975 63.0512 59.9895C63.1407 60.0783 63.2303 60.167 63.3226 60.2585C63.952 60.8972 64.4503 61.4932 64.4518 62.4319C64.4304 63.0509 64.2951 63.4026 63.8711 63.8713C63.3065 64.3822 62.8572 64.4548 62.1255 64.4643C61.1628 64.272 60.5063 63.5744 59.841 62.9032C59.7006 62.7633 59.7006 62.7633 59.5573 62.6206C59.3607 62.4242 59.1645 62.2273 58.9688 62.03C58.6699 61.729 58.369 61.4301 58.0678 61.1315C57.8763 60.9397 57.685 60.7479 57.4937 60.5559C57.4042 60.4671 57.3146 60.3783 57.2224 60.2869C56.593 59.6482 56.0946 59.0522 56.0931 58.1135C56.1145 57.4945 56.2498 57.1427 56.6738 56.6741C57.3029 56.1049 57.9484 55.987 58.7676 56.1506Z" fill="#6C4D8C"/>
<path d="M69.6289 49.9998C70.2396 50.2891 70.5028 50.5865 70.8066 51.1776C70.9538 51.6061 71.0714 52.0414 71.1884 52.479C71.2227 52.6054 71.257 52.7317 71.2924 52.8619C71.3645 53.1291 71.436 53.3963 71.5071 53.6638C71.6153 54.0692 71.7265 54.4738 71.8379 54.8784C71.9078 55.1391 71.9776 55.3998 72.0472 55.6605C72.0803 55.7798 72.1134 55.8992 72.1475 56.0221C72.4011 56.9943 72.6113 58.0368 72.1479 58.9637C71.6195 59.5508 71.2418 59.7943 70.4385 59.847C69.7242 59.8339 69.2859 59.6029 68.7807 59.0956C68.3531 58.5666 68.2115 57.9762 68.0437 57.3269C68.0098 57.2011 67.9759 57.0752 67.9409 56.9455C67.8699 56.6798 67.7999 56.4139 67.7308 56.1477C67.6259 55.7445 67.5167 55.3427 67.4071 54.9408C66.5739 51.8254 66.5739 51.8254 67.1016 50.7114C67.8503 49.9222 68.5849 49.8725 69.6289 49.9998Z" fill="#533272"/>
<path d="M55.3321 67.5086C55.7338 67.617 56.1365 67.7206 56.5396 67.8239C56.7979 67.8926 57.0561 67.9616 57.3143 68.0309C57.4334 68.0612 57.5526 68.0915 57.6754 68.1227C58.5572 68.3682 59.2558 68.7458 59.7408 69.5471C59.883 70.2108 59.8898 70.7311 59.659 71.3627C59.3513 71.8296 59.0051 72.1273 58.5058 72.3769C57.5114 72.4596 56.6204 72.3145 55.6653 72.0518C55.5385 72.0182 55.4116 71.9846 55.281 71.9499C55.0154 71.8791 54.7501 71.8073 54.485 71.7347C54.0805 71.6243 53.6752 71.5174 53.2697 71.4108C53.0104 71.3411 52.7511 71.2713 52.4919 71.2012C52.3717 71.1696 52.2514 71.1379 52.1276 71.1053C51.3259 70.8829 50.677 70.6494 50.1508 69.9719C49.8775 69.3503 49.9189 68.723 50 68.0585C50.9978 65.952 53.6091 67.0408 55.3321 67.5086Z" fill="#6C4C8C"/>
<path d="M82.3141 68.6066C82.7615 68.9998 83.2023 69.4317 83.2695 70.044C83.2727 70.1553 83.2759 70.2667 83.2792 70.3814C83.2865 70.5463 83.2865 70.5463 83.294 70.7146C83.1376 71.7076 82.1679 72.434 81.4901 73.1039C81.3717 73.2218 81.2534 73.3398 81.1315 73.4614C80.8187 73.7729 80.5054 74.0839 80.1918 74.3946C79.8711 74.7125 79.5512 75.0313 79.2312 75.3499C78.6047 75.9736 77.9774 76.5965 77.3496 77.2188C76.8567 76.8021 76.3695 76.3863 75.9148 75.9276C75.8291 75.8415 75.7435 75.7555 75.6553 75.6669C75.5694 75.5798 75.4834 75.4928 75.3949 75.4031C75.3054 75.313 75.2159 75.2229 75.1237 75.1301C74.9057 74.9106 74.6881 74.6908 74.4707 74.4707C74.6607 74.0349 74.8995 73.7471 75.2343 73.4115C75.3374 73.3076 75.4405 73.2037 75.5467 73.0966C75.6582 72.9857 75.7697 72.8747 75.8846 72.7603C75.9992 72.6455 76.1137 72.5307 76.2318 72.4124C76.5361 72.1078 76.8411 71.8039 77.1463 71.5001C77.3331 71.3139 77.5193 71.1272 77.7053 70.9403C78.0628 70.5812 78.4212 70.223 78.7799 69.8651C78.8908 69.7536 79.0018 69.6421 79.1161 69.5272C79.2201 69.4241 79.324 69.321 79.431 69.2148C79.5221 69.124 79.6131 69.0332 79.7069 68.9396C80.4378 68.3021 81.4268 68.2479 82.3141 68.6066Z" fill="#7F65FF"/>
<path d="M58.0887 56.1011C58.1948 56.0974 58.301 56.0937 58.4103 56.0898C59.3778 56.2532 60.0417 56.9736 60.7039 57.6418C60.8443 57.7816 60.8443 57.7816 60.9876 57.9243C61.1843 58.1207 61.3804 58.3176 61.5761 58.515C61.875 58.8159 62.1759 59.1148 62.4771 59.4135C62.6686 59.6052 62.86 59.7971 63.0512 59.989C63.1407 60.0778 63.2303 60.1666 63.3226 60.258C63.8674 60.811 64.3247 61.322 64.4467 62.117C64.4358 63.2579 64.4358 63.2579 64.002 63.74C63.6094 63.74 63.6094 63.74 63.4191 63.5599C63.3511 63.4753 63.283 63.3906 63.2129 63.3035C62.62 62.5966 61.9695 61.9529 61.3158 61.3027C61.185 61.1722 61.0543 61.0417 60.9236 60.9112C60.5829 60.571 60.2419 60.2312 59.9007 59.8915C59.5513 59.5434 59.2023 59.195 58.8532 58.8466C58.1707 58.1655 57.4878 57.4848 56.8047 56.8045C56.9355 56.4119 56.9355 56.4119 57.1661 56.2596C57.4903 56.1385 57.7431 56.1065 58.0887 56.1011Z" fill="#523272"/>
</g>
<defs>
<clipPath id="clip0_304_10112">
<rect width="67" height="67" fill="white" transform="translate(50 50)"/>
</clipPath>
</defs>
</svg>
