<svg width="166" height="166" viewBox="0 0 166 166" fill="none" xmlns="http://www.w3.org/2000/svg">
<path opacity="0.25" d="M85.1373 0H80.8627C36.2034 0 0 36.2034 0 80.8627V85.1373C0 129.797 36.2034 166 80.8627 166H85.1373C129.797 166 166 129.797 166 85.1373V80.8627C166 36.2034 129.797 0 85.1373 0Z" fill="#B746E6"/>
<path opacity="0.25" d="M84.9055 10H81.0945C41.2778 10 9 42.2778 9 82.0945V85.9055C9 125.722 41.2778 158 81.0945 158H84.9055C124.722 158 157 125.722 157 85.9055V82.0945C157 42.2778 124.722 10 84.9055 10Z" fill="#B746E6"/>
<path d="M84.135 20H80.865C46.6979 20 19 47.6979 19 81.865V85.135C19 119.302 46.6979 147 80.865 147H84.135C118.302 147 146 119.302 146 85.135V81.865C146 47.6979 118.302 20 84.135 20Z" fill="white"/>
</svg>
