<svg width="166" height="166" viewBox="0 0 166 166" fill="none" xmlns="http://www.w3.org/2000/svg">
<path opacity="0.25" d="M85.1373 0H80.8627C36.2034 0 0 36.2034 0 80.8627V85.1373C0 129.797 36.2034 166 80.8627 166H85.1373C129.797 166 166 129.797 166 85.1373V80.8627C166 36.2034 129.797 0 85.1373 0Z" fill="#01E675"/>
<path opacity="0.25" d="M84.8798 10H81.1202C41.8416 10 10 42.0597 10 81.6074V85.3926C10 124.94 41.8416 157 81.1202 157H84.8798C124.158 157 156 124.94 156 85.3926V81.6074C156 42.0597 124.158 10 84.8798 10Z" fill="#01E675"/>
<path d="M84.135 20H80.865C46.6979 20 19 47.6979 19 81.865V85.135C19 119.302 46.6979 147 80.865 147H84.135C118.302 147 146 119.302 146 85.135V81.865C146 47.6979 118.302 20 84.135 20Z" fill="white"/>
<g clip-path="url(#clip0_756_13232)">
<path fill-rule="evenodd" clip-rule="evenodd" d="M82.993 59L83.007 59.0004C96.2377 59.0004 107 69.7657 107 83.0002C107 96.2343 96.2377 107 83.007 107C78.1264 107 73.5986 105.547 69.8044 103.036L60.5796 105.984L63.57 97.067C60.6927 93.116 59 88.2484 59 82.9998C59 69.7653 69.7623 59 82.993 59ZM76.2928 71.1908C75.8275 70.0763 75.4748 70.0341 74.7698 70.0054C74.5297 69.9915 74.2622 69.9775 73.9656 69.9775C73.0484 69.9775 72.0895 70.2455 71.511 70.838C70.806 71.5576 69.0569 73.2364 69.0569 76.6792C69.0569 80.122 71.5676 83.4517 71.9059 83.9176C72.2586 84.3827 76.8008 91.5503 83.8533 94.4715C89.3684 96.7572 91.0049 96.5453 92.2601 96.2773C94.0937 95.8823 96.393 94.5272 96.9714 92.8911C97.5499 91.2541 97.5498 89.8572 97.3802 89.5609C97.2111 89.2647 96.7453 89.0958 96.0403 88.7426C95.3353 88.3898 91.9074 86.6967 91.2585 86.4709C90.6235 86.2312 90.0173 86.316 89.538 86.9933C88.8608 87.9386 88.198 88.8983 87.6618 89.4765C87.2386 89.9281 86.5471 89.9846 85.9691 89.7445C85.1932 89.4203 83.0213 88.6578 80.341 86.2734C78.2673 84.4253 76.8569 82.1258 76.4481 81.4345C76.0389 80.7293 76.4059 80.3195 76.7299 79.9388C77.0827 79.5012 77.421 79.191 77.7737 78.7817C78.1264 78.3727 78.3239 78.1609 78.5496 77.6811C78.7896 77.2156 78.6201 76.7357 78.4509 76.3829C78.2817 76.0301 76.8713 72.5873 76.2928 71.1908Z" fill="#01E675"/>
</g>
<g clip-path="url(#clip1_756_13232)">
<path d="M110.602 93.2557C110.716 93.2933 110.829 93.3307 110.942 93.3681C111.242 93.4674 111.541 93.5685 111.841 93.67C112.154 93.7756 112.467 93.8796 112.78 93.9838C113.434 94.2015 114.086 94.4214 114.739 94.6421C114.941 94.7106 115.144 94.779 115.347 94.8474C115.798 95.0001 116.25 95.1532 116.701 95.3076C117.914 95.7222 119.134 96.1187 120.354 96.5177C121.742 96.9721 123.131 97.4273 124.513 97.9007C125.366 98.1925 126.222 98.476 127.078 98.7568C127.135 98.7752 127.191 98.7936 127.248 98.8125C127.817 98.9988 128.386 99.1848 128.955 99.3703C129.512 99.5522 130.069 99.7349 130.626 99.9194C130.785 99.9722 130.944 100.025 131.104 100.077C131.287 100.137 131.47 100.199 131.652 100.261C131.701 100.277 131.749 100.293 131.8 100.309C132.196 100.448 132.524 100.677 132.762 101.015C132.791 101.08 132.791 101.08 132.821 101.145C132.841 101.189 132.861 101.232 132.882 101.277C133.077 101.755 133.071 102.27 132.885 102.752C132.583 103.386 132.148 103.627 131.495 103.864C131.264 103.94 131.032 104.013 130.799 104.085C130.711 104.112 130.623 104.14 130.535 104.167C130.3 104.241 130.063 104.314 129.827 104.387C129.63 104.448 129.432 104.51 129.234 104.571C128.576 104.777 127.917 104.98 127.258 105.184C127.21 105.198 127.163 105.213 127.114 105.228C126.225 105.502 125.336 105.776 124.446 106.047C124.3 106.092 124.154 106.137 124.008 106.183C123.637 106.299 123.268 106.403 122.889 106.489C122.063 106.656 122.063 106.656 121.446 107.163C121.296 107.46 121.223 107.768 121.152 108.089C121.124 108.195 121.094 108.301 121.064 108.407C121.007 108.611 120.954 108.815 120.903 109.02C120.665 109.981 120.665 109.981 120.392 110.28C120.2 110.371 120.085 110.37 119.875 110.363C119.863 110.408 119.85 110.453 119.837 110.5C119.733 110.875 119.623 111.248 119.503 111.619C119.456 111.766 119.456 111.766 119.465 111.957C119.514 112.002 119.514 112.002 119.563 112.048C119.705 112.192 119.714 112.292 119.738 112.488C119.708 112.642 119.708 112.642 119.653 112.803C119.633 112.863 119.613 112.924 119.592 112.986C119.569 113.051 119.546 113.116 119.523 113.184C119.499 113.252 119.476 113.32 119.452 113.391C119.377 113.611 119.302 113.83 119.226 114.049C119.177 114.192 119.128 114.336 119.079 114.479C118.982 114.763 118.885 115.046 118.787 115.329C118.693 115.601 118.601 115.873 118.511 116.146C118.489 116.21 118.468 116.273 118.446 116.339C118.407 116.457 118.368 116.576 118.33 116.695C118.161 117.199 117.935 117.548 117.461 117.828C116.915 118.079 116.319 118.089 115.752 117.896C115.077 117.593 114.868 117.121 114.611 116.473C114.498 116.172 114.391 115.869 114.285 115.566C114.255 115.479 114.224 115.393 114.194 115.307C114.13 115.125 114.066 114.942 114.002 114.76C113.849 114.326 113.696 113.892 113.544 113.459C113.493 113.314 113.442 113.17 113.391 113.025C113.128 112.281 112.863 111.537 112.595 110.795C112.152 109.566 111.716 108.334 111.281 107.102C110.859 105.909 110.436 104.716 110.006 103.526C109.565 102.301 109.132 101.074 108.699 99.8475C108.258 98.5991 107.814 97.3517 107.362 96.1072C107.334 96.0321 107.334 96.0321 107.307 95.9554C107.274 95.8643 107.24 95.7732 107.207 95.6821C107.011 95.1425 106.9 94.5982 107.13 94.0482C107.387 93.5631 107.734 93.1781 108.257 92.9611C109.066 92.7109 109.841 92.9949 110.602 93.2557Z" fill="#FBE137"/>
<path d="M110.602 93.2557C110.716 93.2933 110.829 93.3307 110.942 93.3681C111.242 93.4674 111.541 93.5685 111.841 93.67C112.154 93.7756 112.467 93.8796 112.78 93.9838C113.434 94.2015 114.086 94.4214 114.739 94.6421C114.941 94.7106 115.144 94.779 115.347 94.8474C115.798 95.0001 116.25 95.1532 116.701 95.3076C117.914 95.7222 119.134 96.1187 120.354 96.5177C121.742 96.9721 123.131 97.4273 124.513 97.9007C125.366 98.1925 126.222 98.476 127.078 98.7568C127.135 98.7752 127.191 98.7936 127.248 98.8125C127.817 98.9988 128.386 99.1848 128.955 99.3703C129.512 99.5522 130.069 99.7349 130.626 99.9194C130.785 99.9722 130.944 100.025 131.104 100.077C131.287 100.137 131.47 100.199 131.652 100.261C131.701 100.277 131.749 100.293 131.8 100.309C132.196 100.448 132.524 100.677 132.762 101.015C132.791 101.08 132.791 101.08 132.821 101.145C132.841 101.189 132.861 101.232 132.882 101.277C133.077 101.755 133.071 102.27 132.885 102.752C132.583 103.386 132.148 103.627 131.495 103.864C131.264 103.94 131.032 104.013 130.799 104.085C130.711 104.112 130.623 104.14 130.535 104.167C130.3 104.241 130.063 104.314 129.827 104.387C129.63 104.448 129.432 104.51 129.234 104.571C128.576 104.777 127.917 104.98 127.258 105.184C127.21 105.198 127.163 105.213 127.114 105.228C126.225 105.502 125.336 105.776 124.446 106.047C124.3 106.092 124.154 106.137 124.008 106.183C123.637 106.299 123.268 106.403 122.889 106.489C122.063 106.656 122.063 106.656 121.446 107.163C121.296 107.46 121.223 107.768 121.152 108.089C121.124 108.195 121.094 108.301 121.064 108.407C121.007 108.611 120.954 108.815 120.903 109.02C120.665 109.981 120.665 109.981 120.392 110.28C120.19 110.376 120.096 110.412 119.875 110.363C119.683 110.226 119.683 110.226 119.533 110.031C119.479 109.598 119.631 109.246 119.785 108.844C119.96 108.374 120.128 107.906 120.268 107.425C120.475 106.731 120.475 106.731 120.554 106.491C120.572 106.437 120.589 106.382 120.607 106.326C120.808 105.992 121.186 105.874 121.551 105.771C121.649 105.743 121.746 105.715 121.843 105.686C121.899 105.67 121.954 105.654 122.011 105.638C122.395 105.524 122.776 105.403 123.157 105.283C123.244 105.256 123.332 105.228 123.419 105.201C123.735 105.102 124.05 105.003 124.366 104.904C124.591 104.833 124.817 104.763 125.042 104.692C125.21 104.639 125.377 104.587 125.545 104.534C126.003 104.391 126.462 104.251 126.922 104.114C127.237 104.02 127.551 103.924 127.865 103.826C127.929 103.807 127.994 103.787 128.06 103.766C128.515 103.625 128.968 103.479 129.421 103.332C129.641 103.261 129.863 103.194 130.086 103.129C130.237 103.084 130.388 103.038 130.539 102.992C130.588 102.978 130.637 102.963 130.687 102.948C130.846 102.901 131.005 102.851 131.163 102.801C131.213 102.787 131.263 102.772 131.315 102.757C131.57 102.674 131.687 102.615 131.836 102.395C131.928 102.133 131.954 101.925 131.856 101.662C131.514 101.143 130.326 100.972 129.74 100.793C129.57 100.74 129.401 100.688 129.231 100.635C129.126 100.602 129.021 100.57 128.917 100.538C128.63 100.45 128.348 100.354 128.068 100.25C127.738 100.128 127.403 100.02 127.07 99.9085C126.985 99.8801 126.9 99.8517 126.813 99.8224C125.99 99.5474 125.165 99.2805 124.339 99.0153C123.869 98.8643 123.402 98.71 122.938 98.5437C122.531 98.4014 122.119 98.2721 121.708 98.1405C120.698 97.8167 120.698 97.8167 120.295 97.6664C119.924 97.5319 119.549 97.4102 119.174 97.2855C119.128 97.2699 119.081 97.2543 119.033 97.2382C118.134 96.9381 117.233 96.6454 116.33 96.3557C116.28 96.3396 116.231 96.3236 116.179 96.3071C116.045 96.2639 115.911 96.2208 115.777 96.1777C115.569 96.1098 115.363 96.0376 115.157 95.9641C114.719 95.8087 114.278 95.6639 113.837 95.5196C113.688 95.4707 113.538 95.4218 113.389 95.3728C113.072 95.2687 112.754 95.1648 112.437 95.0609C112.069 94.9404 111.701 94.82 111.333 94.6994C111.188 94.6517 111.043 94.6042 110.898 94.5567C110.806 94.5267 110.715 94.4967 110.623 94.4667C110.579 94.4524 110.535 94.438 110.49 94.4233C110.271 94.3513 110.053 94.2767 109.836 94.197C109.753 94.1665 109.669 94.1361 109.583 94.1047C109.51 94.0771 109.436 94.0495 109.361 94.0211C109.082 93.9442 108.796 93.8944 108.53 94.029C108.276 94.2486 108.276 94.2486 108.172 94.5486C108.165 94.9399 108.238 95.2541 108.374 95.6206C108.404 95.7049 108.404 95.7049 108.434 95.7908C108.5 95.9753 108.567 96.1593 108.634 96.3433C108.681 96.4749 108.728 96.6065 108.775 96.7381C108.896 97.0765 109.019 97.4145 109.141 97.7524C109.246 98.0425 109.35 98.333 109.454 98.6235C109.575 98.9606 109.696 99.2978 109.818 99.6348C110.213 100.73 110.6 101.828 110.988 102.926C111.407 104.111 111.827 105.296 112.253 106.479C112.663 107.615 113.066 108.753 113.468 109.892C114.02 111.453 114.572 113.014 115.136 114.572C115.238 114.853 115.339 115.136 115.438 115.418C115.506 115.614 115.576 115.809 115.645 116.004C115.668 116.07 115.69 116.136 115.714 116.204C115.833 116.534 115.923 116.758 116.252 116.938C116.443 116.988 116.606 116.979 116.799 116.938C117.343 116.606 117.469 115.796 117.635 115.23C117.814 114.634 118.015 114.045 118.222 113.457C118.283 113.286 118.342 113.115 118.402 112.943C118.44 112.834 118.479 112.725 118.517 112.615C118.535 112.564 118.553 112.513 118.571 112.461C118.697 112.105 118.697 112.105 118.85 111.957C118.99 111.937 118.99 111.937 119.153 111.936C119.206 111.935 119.26 111.934 119.315 111.933C119.465 111.957 119.465 111.957 119.583 112.037C119.694 112.189 119.714 112.304 119.738 112.488C119.708 112.642 119.708 112.642 119.653 112.803C119.633 112.863 119.613 112.924 119.592 112.986C119.569 113.051 119.546 113.116 119.523 113.184C119.499 113.252 119.476 113.32 119.452 113.391C119.377 113.611 119.302 113.83 119.226 114.049C119.177 114.192 119.128 114.336 119.079 114.479C118.982 114.763 118.885 115.046 118.787 115.329C118.693 115.601 118.601 115.873 118.511 116.146C118.489 116.21 118.468 116.273 118.446 116.339C118.407 116.457 118.368 116.576 118.33 116.695C118.161 117.199 117.935 117.548 117.461 117.828C116.915 118.079 116.319 118.089 115.752 117.896C115.077 117.593 114.868 117.121 114.611 116.473C114.498 116.172 114.391 115.869 114.285 115.566C114.255 115.479 114.224 115.393 114.194 115.307C114.13 115.125 114.066 114.942 114.002 114.76C113.849 114.326 113.696 113.892 113.544 113.459C113.493 113.314 113.442 113.17 113.391 113.025C113.128 112.281 112.863 111.537 112.595 110.795C112.152 109.566 111.716 108.334 111.281 107.102C110.859 105.909 110.436 104.716 110.006 103.526C109.565 102.301 109.132 101.074 108.699 99.8475C108.258 98.5991 107.814 97.3517 107.362 96.1072C107.334 96.0321 107.334 96.0321 107.307 95.9554C107.274 95.8643 107.24 95.7732 107.207 95.6821C107.011 95.1425 106.9 94.5982 107.13 94.0482C107.387 93.5631 107.734 93.1781 108.257 92.9611C109.066 92.7109 109.841 92.9949 110.602 93.2557Z" fill="#080806"/>
<path d="M120.49 106.711C120.354 107.386 120.131 108.04 119.898 108.689C119.879 108.742 119.861 108.795 119.841 108.849C119.805 108.951 119.768 109.053 119.73 109.154C119.623 109.455 119.569 109.709 119.602 110.031C119.649 110.072 119.697 110.113 119.747 110.156C119.81 110.226 119.81 110.226 119.875 110.297C119.849 110.515 119.806 110.686 119.738 110.895C119.71 110.986 119.681 111.078 119.652 111.17C119.569 111.433 119.483 111.695 119.396 111.957C119.27 111.955 119.27 111.955 119.14 111.953C118.987 111.965 118.987 111.965 118.85 112.023C118.763 112.139 118.763 112.139 118.709 112.287C118.686 112.341 118.664 112.395 118.641 112.451C118.539 112.719 118.441 112.988 118.35 113.259C118.33 113.318 118.309 113.377 118.288 113.438C118.246 113.562 118.204 113.686 118.162 113.81C118.098 113.998 118.034 114.185 117.97 114.372C117.773 114.947 117.579 115.523 117.402 116.104C117.299 116.413 117.175 116.691 116.953 116.937C116.717 117.039 116.501 117.052 116.252 117.004C115.838 116.772 115.703 116.444 115.568 116.008C115.568 115.964 115.568 115.92 115.568 115.875C115.613 115.875 115.659 115.875 115.705 115.875C115.717 115.83 115.729 115.785 115.742 115.739C115.86 115.309 115.993 114.886 116.14 114.464C116.162 114.4 116.184 114.336 116.207 114.271C116.279 114.062 116.352 113.854 116.424 113.646C116.475 113.499 116.526 113.352 116.577 113.206C116.683 112.899 116.79 112.592 116.896 112.286C117.032 111.896 117.167 111.506 117.302 111.116C117.407 110.813 117.512 110.51 117.617 110.208C117.667 110.064 117.717 109.92 117.767 109.777C117.902 109.389 118.037 109.001 118.173 108.613C118.233 108.441 118.292 108.269 118.35 108.097C118.385 107.994 118.421 107.891 118.457 107.787C118.472 107.741 118.487 107.695 118.503 107.647C118.591 107.397 118.662 107.247 118.909 107.126C119.025 107.095 119.142 107.068 119.26 107.043C119.353 107.015 119.445 106.986 119.538 106.956C120.301 106.711 120.301 106.711 120.49 106.711Z" fill="#F1D834"/>
</g>
<defs>
<clipPath id="clip0_756_13232">
<rect width="48" height="48" fill="white" transform="translate(59 59)"/>
</clipPath>
<clipPath id="clip1_756_13232">
<rect width="35" height="34" fill="white" transform="translate(98 84)"/>
</clipPath>
</defs>
</svg>
