<svg width="166" height="166" viewBox="0 0 166 166" fill="none" xmlns="http://www.w3.org/2000/svg">
<path opacity="0.25" d="M85.1373 0H80.8627C36.2034 0 0 36.2034 0 80.8627V85.1373C0 129.797 36.2034 166 80.8627 166H85.1373C129.797 166 166 129.797 166 85.1373V80.8627C166 36.2034 129.797 0 85.1373 0Z" fill="#87F0CF"/>
<path opacity="0.25" d="M84.8798 10H81.1202C41.8416 10 10 42.0597 10 81.6074V85.3926C10 124.94 41.8416 157 81.1202 157H84.8798C124.158 157 156 124.94 156 85.3926V81.6074C156 42.0597 124.158 10 84.8798 10Z" fill="#4BBE98"/>
<path d="M84.135 20H80.865C46.6979 20 19 47.6979 19 81.865V85.135C19 119.302 46.6979 147 80.865 147H84.135C118.302 147 146 119.302 146 85.135V81.865C146 47.6979 118.302 20 84.135 20Z" fill="white"/>
<path d="M56.2069 53.9372C56.3013 53.9365 56.3956 53.9357 56.4928 53.935C56.8093 53.9332 57.1257 53.9349 57.4421 53.9366C57.6712 53.936 57.9002 53.9352 58.1292 53.9342C58.7589 53.9322 59.3885 53.9332 60.0182 53.9347C60.6971 53.9359 61.3761 53.9341 62.055 53.9327C63.3852 53.9305 64.7153 53.931 66.0455 53.9325C67.1263 53.9336 68.2072 53.9337 69.288 53.9332C69.4418 53.9331 69.5955 53.933 69.7538 53.933C70.0661 53.9328 70.3783 53.9326 70.6906 53.9325C73.5364 53.9311 76.3822 53.9325 79.228 53.9351C81.8262 53.9375 84.4243 53.9373 87.0225 53.9349C89.9412 53.9322 92.8599 53.9312 95.7786 53.9327C96.0897 53.9329 96.4008 53.933 96.7119 53.9332C96.865 53.9333 97.0181 53.9333 97.1758 53.9334C98.2556 53.9339 99.3354 53.9331 100.415 53.932C101.731 53.9306 103.046 53.9309 104.362 53.9336C105.033 53.9349 105.705 53.9354 106.376 53.9338C106.991 53.9323 107.605 53.9331 108.219 53.9358C108.442 53.9363 108.665 53.936 108.887 53.9348C109.189 53.9333 109.491 53.9349 109.793 53.9372C109.88 53.936 109.967 53.9348 110.056 53.9336C110.678 53.9432 111.028 54.1012 111.5 54.5001C111.969 55.0547 112.072 55.4995 112.063 56.2071C112.064 56.3014 112.064 56.3957 112.065 56.4929C112.067 56.8094 112.065 57.1258 112.063 57.4422C112.064 57.6713 112.065 57.9003 112.066 58.1294C112.068 58.759 112.067 59.3886 112.065 60.0183C112.064 60.6972 112.066 61.3762 112.067 62.0551C112.07 63.3853 112.069 64.7154 112.068 66.0456C112.067 67.1264 112.066 68.2073 112.067 69.2882C112.067 69.4419 112.067 69.5956 112.067 69.754C112.067 70.0662 112.067 70.3785 112.068 70.6907C112.069 73.5365 112.068 76.3823 112.065 79.2281C112.063 81.8263 112.063 84.4244 112.065 87.0226C112.068 89.9413 112.069 92.86 112.067 95.7787C112.067 96.0898 112.067 96.4009 112.067 96.712C112.067 96.9417 112.067 96.9417 112.067 97.1759C112.066 98.2557 112.067 99.3355 112.068 100.415C112.07 101.731 112.069 103.046 112.066 104.362C112.065 105.034 112.065 105.705 112.066 106.376C112.068 106.991 112.067 107.605 112.064 108.22C112.064 108.442 112.064 108.665 112.065 108.887C112.067 109.189 112.065 109.491 112.063 109.793C112.064 109.88 112.065 109.967 112.066 110.056C112.057 110.678 111.899 111.028 111.5 111.5C110.945 111.969 110.501 112.073 109.793 112.063C109.699 112.064 109.604 112.064 109.507 112.065C109.191 112.067 108.874 112.065 108.558 112.064C108.329 112.064 108.1 112.065 107.871 112.066C107.241 112.068 106.611 112.067 105.982 112.065C105.303 112.064 104.624 112.066 103.945 112.067C102.615 112.07 101.285 112.069 99.9545 112.068C98.8736 112.067 97.7928 112.066 96.7119 112.067C96.5582 112.067 96.4045 112.067 96.2461 112.067C95.9339 112.067 95.6216 112.068 95.3094 112.068C92.4636 112.069 89.6178 112.068 86.772 112.065C84.1738 112.063 81.5757 112.063 78.9775 112.065C76.0588 112.068 73.1401 112.069 70.2214 112.067C69.9103 112.067 69.5992 112.067 69.288 112.067C69.135 112.067 68.9819 112.067 68.8242 112.067C67.7444 112.066 66.6645 112.067 65.5847 112.068C64.2692 112.07 62.9536 112.069 61.6381 112.067C60.9666 112.065 60.2951 112.065 59.6236 112.066C59.0093 112.068 58.395 112.067 57.7806 112.064C57.558 112.064 57.3355 112.064 57.1129 112.065C56.8109 112.067 56.509 112.065 56.2069 112.063C56.0767 112.065 56.0767 112.065 55.9437 112.067C55.3223 112.057 54.9718 111.899 54.5 111.5C54.0311 110.946 53.9275 110.501 53.9371 109.793C53.936 109.652 53.936 109.652 53.9349 109.507C53.933 109.191 53.9348 108.874 53.9365 108.558C53.9359 108.329 53.9351 108.1 53.9341 107.871C53.932 107.241 53.9331 106.612 53.9346 105.982C53.9358 105.303 53.934 104.624 53.9326 103.945C53.9304 102.615 53.9309 101.285 53.9323 99.9546C53.9335 98.8737 53.9336 97.7929 53.9331 96.712C53.933 96.5583 53.9329 96.4046 53.9329 96.2462C53.9327 95.934 53.9325 95.6217 53.9324 95.3095C53.931 92.4637 53.9324 89.6179 53.935 86.7721C53.9374 84.1739 53.9372 81.5758 53.9348 78.9776C53.9321 76.0589 53.9311 73.1402 53.9326 70.2215C53.9328 69.9104 53.9329 69.5993 53.9331 69.2882C53.9332 69.0585 53.9332 69.0585 53.9333 68.8243C53.9338 67.7445 53.933 66.6647 53.9318 65.5848C53.9304 64.2693 53.9308 62.9537 53.9335 61.6382C53.9348 60.9667 53.9353 60.2952 53.9337 59.6237C53.9322 59.0094 53.933 58.3951 53.9356 57.7807C53.9362 57.5581 53.9359 57.3356 53.9347 57.113C53.9332 56.811 53.9347 56.5091 53.9371 56.2071C53.9359 56.1202 53.9347 56.0333 53.9335 55.9439C53.9431 55.3224 54.1011 54.9719 54.5 54.5001C55.0545 54.0312 55.4994 53.9276 56.2069 53.9372Z" fill="#DEDEDE"/>
<path d="M59 72C74.84 72 90.68 72 107 72C107 73.98 107 75.96 107 78C101.493 78.0619 101.493 78.0619 95.875 78.125C96.6587 78.7025 97.4425 79.28 98.25 79.875C98.598 80.1317 98.598 80.1317 98.9531 80.3936C99.0457 80.4618 99.1383 80.5301 99.2337 80.6005C99.4208 80.7385 99.6078 80.8765 99.7948 81.0145C100.454 81.5003 101.116 81.9809 101.783 82.4556C101.854 82.5115 101.926 82.5674 102 82.625C102 82.6663 102 82.7075 102 82.75C101.511 82.8037 101.021 82.8571 100.532 82.9102C100.284 82.9372 100.036 82.9644 99.7881 82.9917C99.6318 83.0086 99.4755 83.0255 99.3145 83.043C99.0984 83.0665 99.0984 83.0665 98.8781 83.0906C98.5 83.125 98.5 83.125 98 83.125C98.0379 83.2291 98.0757 83.3331 98.1147 83.4403C98.255 83.8266 98.3947 84.2131 98.5341 84.5998C98.5945 84.767 98.6551 84.9342 98.7159 85.1013C98.8034 85.3416 98.89 85.5822 98.9766 85.8228C99.0551 86.0398 99.0551 86.0398 99.1353 86.2611C99.25 86.625 99.25 86.625 99.25 87C101.807 87 104.365 87 107 87C107 88.98 107 90.96 107 93C91.16 93 75.32 93 59 93C59 91.02 59 89.04 59 87C70.88 87 82.76 87 95 87C94.7525 86.2987 94.505 85.5975 94.25 84.875C94.25 84.7925 94.25 84.71 94.25 84.625C93.3741 85.0216 92.6419 85.5487 91.875 86.125C91.0357 86.75 91.0357 86.75 90.75 86.75C90.9509 85.454 91.2864 84.1913 91.6094 82.9219C91.7187 82.4906 91.8277 82.0593 91.9365 81.6279C91.963 81.5232 91.9895 81.4184 92.0168 81.3105C92.2189 80.5085 92.4105 79.7044 92.5938 78.8979C92.7368 78.2763 92.7368 78.2763 92.875 78C81.6963 78 70.5175 78 59 78C59 76.02 59 74.04 59 72Z" fill="#31C192"/>
<path d="M59 102C74.84 102 90.68 102 107 102C107 103.98 107 105.96 107 108C91.16 108 75.32 108 59 108C59 106.02 59 104.04 59 102Z" fill="#31C292"/>
<path d="M59 87C70.9213 87 82.8425 87 95.125 87C95.7025 88.5675 96.28 90.135 96.875 91.75C97.3727 91.75 97.6467 91.6732 98.1074 91.5039C98.2468 91.4531 98.3862 91.4024 98.5298 91.3501C98.7471 91.2696 98.7471 91.2696 98.9688 91.1875C99.1155 91.1338 99.2623 91.0802 99.4136 91.0249C99.776 90.8923 100.138 90.759 100.5 90.625C100.284 89.7904 100.043 88.9816 99.7266 88.1797C99.375 87.2812 99.375 87.2812 99.375 87C101.891 87 104.408 87 107 87C107 88.98 107 90.96 107 93C91.16 93 75.32 93 59 93C59 91.02 59 89.04 59 87Z" fill="#31C192"/>
<path d="M69 57C83.19 57 97.38 57 112 57C112 57.66 112 58.32 112 59C97.81 59 83.62 59 69 59C69 58.34 69 57.68 69 57Z" fill="#858585"/>
<path d="M93.25 76.375C93.5805 76.5332 93.8811 76.7046 94.1802 76.916C94.3032 77.0028 94.3032 77.0028 94.4286 77.0912C94.5166 77.1539 94.6046 77.2166 94.6953 77.2812C94.7885 77.3473 94.8816 77.4134 94.9776 77.4815C95.9754 78.192 96.9605 78.9197 97.9447 79.6489C98.4625 80.0324 98.9813 80.4146 99.5 80.7969C99.5988 80.8698 99.6976 80.9427 99.7994 81.0179C100.457 81.5026 101.117 81.982 101.783 82.4556C101.854 82.5115 101.926 82.5674 102 82.625C102 82.6663 102 82.7075 102 82.75C101.511 82.8037 101.021 82.8571 100.532 82.9102C100.284 82.9372 100.036 82.9644 99.7881 82.9917C99.6318 83.0086 99.4755 83.0255 99.3145 83.043C99.1704 83.0587 99.0264 83.0744 98.8781 83.0906C98.5 83.125 98.5 83.125 98 83.125C98.2331 83.7758 98.4663 84.4266 98.6996 85.0774C98.7786 85.2976 98.8575 85.5178 98.9363 85.738C99.0129 85.952 99.0896 86.1659 99.1663 86.3798C99.2434 86.5947 99.3203 86.8096 99.3971 87.0245C99.5955 87.5779 99.798 88.1292 100.008 88.6784C100.049 88.7872 100.09 88.8959 100.133 89.0079C100.211 89.2154 100.291 89.4224 100.372 89.6291C100.639 90.3332 100.639 90.3332 100.5 90.75C100.165 90.9073 100.165 90.9073 99.7222 91.0601C99.6447 91.0873 99.5671 91.1145 99.4873 91.1425C99.2394 91.2292 98.9908 91.3138 98.7422 91.3984C98.5741 91.4568 98.406 91.5153 98.238 91.574C97.8259 91.7175 97.4131 91.8592 97 92C96.7288 91.7288 96.6611 91.5588 96.5325 91.2021C96.4912 91.0886 96.4499 90.975 96.4073 90.858C96.3633 90.7347 96.3193 90.6114 96.2739 90.4844C96.228 90.3573 96.1821 90.2302 96.1348 90.0993C96.0375 89.8295 95.9405 89.5597 95.8438 89.2897C95.6971 88.8799 95.5492 88.4704 95.4011 88.061C95.3066 87.7985 95.2121 87.536 95.1177 87.2734C95.0739 87.1522 95.0302 87.0309 94.9851 86.9059C94.7157 86.1521 94.4719 85.3942 94.25 84.625C93.3741 85.0216 92.6419 85.5487 91.875 86.125C91.0357 86.75 91.0357 86.75 90.75 86.75C90.9325 85.5767 91.2253 84.4335 91.5175 83.284C91.6593 82.726 91.7995 82.1677 91.9399 81.6094C91.9673 81.5009 91.9946 81.3925 92.0227 81.2808C92.2282 80.4644 92.43 79.6471 92.625 78.8281C92.6479 78.7328 92.6707 78.6375 92.6942 78.5394C92.8348 77.9449 92.9552 77.3483 93.0669 76.7477C93.125 76.5 93.125 76.5 93.25 76.375Z" fill="#348DBF"/>
<path d="M72 63C79.26 63 86.52 63 94 63C94 63.66 94 64.32 94 65C86.74 65 79.48 65 72 65C72 64.34 72 63.68 72 63Z" fill="#858585"/>
<path d="M59 97C63.62 97 68.24 97 73 97C73 97.66 73 98.32 73 99C68.38 99 63.76 99 59 99C59 98.34 59 97.68 59 97Z" fill="#858585"/>
<path d="M59 82C63.62 82 68.24 82 73 82C73 82.66 73 83.32 73 84C68.38 84 63.76 84 59 84C59 83.34 59 82.68 59 82Z" fill="#858585"/>
<path d="M59 67C61.97 67 64.94 67 68 67C68 67.66 68 68.32 68 69C65.03 69 62.06 69 59 69C59 68.34 59 67.68 59 67Z" fill="#858585"/>
<path d="M65 57C65.66 57 66.32 57 67 57C67 57.66 67 58.32 67 59C66.34 59 65.68 59 65 59C65 58.34 65 57.68 65 57Z" fill="#858585"/>
<path d="M61 57C61.66 57 62.32 57 63 57C63 57.66 63 58.32 63 59C62.34 59 61.68 59 61 59C61 58.34 61 57.68 61 57Z" fill="#858585"/>
<path d="M57 57C57.66 57 58.32 57 59 57C59 57.66 59 58.32 59 59C58.34 59 57.68 59 57 59C57 58.34 57 57.68 57 57Z" fill="#858585"/>
</svg>
