<svg width="193" height="235" viewBox="0 0 193 235" fill="none" xmlns="http://www.w3.org/2000/svg">
<g clip-path="url(#clip0_304_10131)">
<path d="M168.529 190.635C169.291 191.984 170.653 192.936 172.085 193.462C173.393 193.921 174.811 193.861 176.177 193.888C179.374 194.003 182.663 193.344 185.221 191.32C182.596 190.11 179.695 189.71 176.828 189.927C174.991 189.959 173.159 189.767 171.332 190.026C170.564 190.122 169.791 190.234 169.034 190.404C168.844 190.497 168.33 190.408 168.529 190.635Z" fill="#E5CFF9"/>
<path d="M147.839 189.646C149.427 190.438 151.196 190.776 152.897 191.239C154.607 191.632 156.31 192.109 158.06 192.274C160.013 192.394 162 192.082 163.815 191.351C162.174 190.001 160.255 188.984 158.212 188.398C156.623 188.015 155.014 187.717 153.433 187.296C150.496 186.5 147.346 185.335 144.365 186.581C145.308 187.809 146.495 188.881 147.843 189.649L147.839 189.646Z" fill="#E5CFF9"/>
<path d="M120.419 179.012C121.123 180.241 122.442 181.591 123.773 182.433C125.267 183.286 126.967 183.695 128.576 184.273C130.056 184.734 131.499 185.351 133.028 185.622C134.865 185.963 136.76 185.895 138.576 185.469C137.168 184.191 135.569 183.096 133.844 182.296C132.171 181.574 130.403 181.1 128.69 180.496C126.392 179.716 124.083 178.719 121.606 178.87C121.256 178.895 120.904 178.884 120.556 178.88C120.485 178.884 120.412 178.938 120.42 179.016L120.419 179.012Z" fill="#E5CFF9"/>
<path d="M99.2073 168.728C99.5333 169.244 99.8886 169.741 100.32 170.177C101.027 170.914 101.806 171.587 102.644 172.175C103.492 172.665 104.399 173.053 105.255 173.527C106.698 174.241 108.106 175.05 109.63 175.586C111.292 176.141 113.055 176.423 114.806 176.434C113.635 174.861 112.152 173.543 110.509 172.484C109.394 171.788 108.163 171.296 106.998 170.693C104.32 169.42 103.511 168.712 100.434 168.382C100.398 168.376 100.38 168.376 100.369 168.374C100.354 168.372 100.343 168.37 100.329 168.369C100.292 168.364 100.234 168.359 100.176 168.35C100.22 168.357 100.289 168.365 100.278 168.363C100.271 168.364 100.26 168.362 100.252 168.359C100.256 168.359 100.259 168.358 100.263 168.358C100.263 168.358 100.263 168.358 100.256 168.359C100.094 168.33 99.6484 168.269 99.1536 168.284C98.6911 168.23 99.1184 168.498 99.2108 168.727L99.2073 168.728Z" fill="#E5CFF9"/>
<path d="M100.326 168.37C100.377 168.376 100.38 168.376 100.26 168.362C100.267 168.361 100.274 168.363 100.274 168.363C100.292 168.364 100.308 168.369 100.326 168.37Z" fill="#E5CFF9"/>
<path d="M78.894 155.631C79.9575 157.131 81.4851 158.183 82.9391 159.268C84.4073 160.516 88.1439 163.121 92.2994 162.982C91.3362 161.599 90.2695 160.265 88.9854 159.168C87.9807 158.261 86.7845 157.621 85.7001 156.823C85.1182 156.457 83.9499 155.206 82.0829 154.668C80.8149 154.329 79.5063 154.261 78.2006 154.282C77.6744 154.116 78.779 155.441 78.897 155.627L78.894 155.631Z" fill="#E5CFF9"/>
<path d="M59.6677 140.762C61.0134 143.354 62.9554 144.544 64.3205 145.632C66.8339 147.608 69.7746 149.153 73.014 149.358C72.0293 147.789 70.8795 146.309 69.5142 145.057C67.9974 143.748 66.957 143.191 66.2631 142.584C64.948 141.589 63.8289 140.356 62.4507 139.438C61.3967 138.722 59.8236 138.236 58.8892 138.182C58.711 138.163 58.6449 138.152 58.4656 138.125C58.5312 138.366 58.6242 138.599 58.7241 138.831C59.0276 139.48 59.3181 140.138 59.6683 140.765L59.6677 140.762Z" fill="#E5CFF9"/>
<path d="M47.9829 128.032C48.7916 128.897 49.525 129.831 50.4049 130.624C51.842 131.902 53.5107 132.918 55.3331 133.538C54.9563 131.642 54.2162 129.803 53.143 128.193C52.4461 127.171 51.5649 126.299 50.7511 125.378C49.9765 124.618 49.3127 123.742 48.468 123.061C47.1272 122.038 45.5686 121.18 43.9048 120.848C44.2184 123.893 45.8839 125.96 47.9829 128.032Z" fill="#E5CFF9"/>
<path d="M28.97 99.9684C29.0044 100.891 28.9834 101.827 29.1766 102.736C29.6752 104.609 30.8961 106.157 32.0319 107.685C34.1545 110.703 36.3054 112.81 39.9699 113.782C39.5499 112.047 38.8092 110.39 37.8685 108.875C37.0104 107.548 35.9141 106.393 34.9885 105.116C35.2898 105.518 35.3613 105.611 35.0183 105.147C34.1876 104.092 33.5622 102.837 32.4869 102.006C30.7849 100.726 32.2386 101.786 30.4285 100.454C30.0458 100.198 29.6247 99.9933 29.1852 99.8565C29.0288 99.816 28.9304 99.7343 28.97 99.9684Z" fill="#E5CFF9"/>
<path d="M20.5239 78.2832C20.5056 78.2572 20.4832 78.2283 20.4649 78.2024C20.5513 78.322 20.6235 78.4187 20.5239 78.2832Z" fill="#E5CFF9"/>
<path d="M20.3213 78.0128C20.3665 78.0741 20.4158 78.1384 20.4646 78.1991C20.4107 78.1284 20.3563 78.0541 20.3213 78.0128Z" fill="#E5CFF9"/>
<path d="M17.2476 75.8112C17.0517 77.214 16.9439 78.6786 17.3796 80.049C18.1044 82.1384 19.5802 83.8545 20.5856 85.8148C21.4104 87.2043 22.135 88.663 23.1444 89.9274C24.167 91.2543 25.4321 92.3898 26.7845 93.3722C26.9433 91.2618 26.5509 89.1249 25.7062 87.1865C25.0986 85.8604 24.2856 84.6412 23.6083 83.3509C22.594 81.6356 21.5556 79.6696 20.3722 78.0878C20.3722 78.0878 20.3722 78.0878 20.3728 78.0913C20.3728 78.0913 20.3717 78.0843 20.3676 78.0814C20.3453 78.0525 20.3225 78.0202 20.3002 77.9914C20.3048 77.9978 20.3134 78.0073 20.322 78.0167C20.2276 77.8914 20.1516 77.7919 20.1475 77.789C19.9543 77.5319 19.8033 77.34 20.1578 77.8089C19.5095 76.8941 18.7258 76.0753 17.772 75.4762C17.1971 75.1093 17.3621 75.2524 17.2476 75.8112Z" fill="#E5CFF9"/>
<path d="M9.07746 52.5928C9.07746 52.5928 9.0737 52.6148 9.07182 52.6259C9.07182 52.6259 9.07236 52.6294 9.07289 52.6329C9.07451 52.6434 9.07397 52.6399 9.07289 52.6329C8.90975 53.6902 8.91619 55.363 9.1535 56.6527C9.64935 58.6483 10.1423 59.3432 10.4446 60.3111C10.9784 61.6916 11.3374 63.1454 11.9991 64.4739C12.8607 66.1266 14.0932 67.5861 15.5392 68.7584C16.0377 65.9722 15.6822 63.0734 14.663 60.4414C13.7479 57.9976 13.7724 57.8541 12.8557 55.9124C11.8419 54.5268 11.8271 54.0811 9.96598 52.7897C9.69211 52.6131 9.41879 52.44 9.12288 52.3062C9.10353 52.4131 9.08768 52.5195 9.07585 52.6288C9.07719 52.6143 9.08149 52.5957 9.08149 52.5957L9.07746 52.5928Z" fill="#E5CFF9"/>
<path d="M1.51202 24.5067C0.694446 26.2164 0.564091 28.1396 0.831497 29.9982C1.12874 31.0493 1.49774 32.0787 1.77805 33.136C2.18521 34.6004 2.57598 36.0744 3.15649 37.4799C3.99851 39.4009 5.34606 41.0972 6.95968 42.4302C7.59182 38.5339 6.99411 36.7834 5.83228 33.0119C5.42001 31.5376 5.03058 30.049 4.45491 28.6284C4.50087 28.7181 4.69464 29.2583 4.60783 28.9956C4.32161 27.8532 3.70025 26.8339 2.98643 25.9112C2.65935 25.4811 2.30996 25.0688 1.94526 24.6732C1.76734 24.5392 1.60609 24.0944 1.51901 24.5056L1.51202 24.5067Z" fill="#E5CFF9"/>
</g>
<g clip-path="url(#clip1_304_10131)">
<path d="M187.216 189.733C184.264 187.552 180.527 185.098 178.56 183.659C176.823 182.418 175.071 181.196 173.32 179.976C172.621 179.55 172.027 178.917 171.243 178.659C169.149 178.222 168.547 180.9 170.127 181.599C170.144 181.61 170.162 181.618 170.179 181.629C171.165 182.311 172.143 183.005 173.128 183.685C176.29 185.906 180.329 188.762 184.389 191.56C184.362 191.609 184.334 191.658 184.306 191.707C183.732 192.692 183.064 193.622 182.398 194.55C180.523 197.217 176.687 201.732 173.854 205.336C172.694 206.827 172.359 207.306 171.811 208.095C171.651 208.383 171.446 208.655 171.291 208.945C171.149 209.153 171.065 209.399 171.072 209.652C171.07 210.299 171.668 210.861 172.327 210.839C172.659 210.813 172.975 210.706 173.203 210.457C173.2 210.462 173.186 210.471 173.166 210.486C173.274 210.392 173.375 210.29 173.483 210.194C174.055 209.683 174.573 209.122 175.085 208.556C177.151 206.223 179.124 203.812 181.098 201.401C182.755 199.393 184.329 197.321 185.83 195.198C186.804 193.649 188.819 191.479 187.214 189.736L187.216 189.733Z" fill="#D9ADF4"/>
</g>
<defs>
<clipPath id="clip0_304_10131">
<rect width="194.395" height="157.782" fill="white" transform="translate(29.4938 216.726) rotate(-98.7267)"/>
</clipPath>
<clipPath id="clip1_304_10131">
<rect width="18.3062" height="32.2538" fill="white" transform="translate(169.195 178.65) rotate(-1.41599)"/>
</clipPath>
</defs>
</svg>
