<svg width="203" height="159" viewBox="0 0 203 159" fill="none" xmlns="http://www.w3.org/2000/svg">
<g clip-path="url(#clip0_304_10213)">
<path d="M181.162 31.9444C182.497 31.5868 183.625 30.6175 184.4 29.4906C185.089 28.4571 185.355 27.211 185.684 26.0288C186.5 23.2753 186.668 20.2669 185.494 17.5867C183.861 19.5956 182.865 22.0275 182.411 24.5692C182.026 26.1733 181.449 27.7227 181.264 29.3696C181.175 30.0595 181.098 30.7569 181.075 31.4535C181.113 31.6394 180.92 32.0664 181.162 31.9444Z" fill="#F6CBC7"/>
<path d="M175.67 49.7099C176.71 48.5081 177.398 47.0468 178.179 45.6717C178.902 44.2746 179.696 42.9007 180.231 41.4173C180.772 39.7462 180.947 37.9482 180.724 36.205C179.19 37.3273 177.881 38.7663 176.917 40.41C176.23 41.7054 175.612 43.0367 174.895 44.3163C173.549 46.6898 171.837 49.1662 172.245 52.039C173.516 51.4962 174.708 50.7058 175.674 49.7071L175.67 49.7099Z" fill="#F6CBC7"/>
<path d="M160.343 71.1506C161.562 70.8162 163.023 69.9736 164.048 69.0066C165.12 67.9006 165.854 66.5143 166.713 65.2461C167.443 64.0636 168.299 62.9483 168.876 61.6798C169.583 60.1597 169.948 58.4961 169.988 56.8214C168.568 57.7576 167.264 58.9003 166.187 60.2195C165.189 61.5117 164.383 62.9418 163.477 64.2946C162.289 66.1162 160.91 67.8992 160.485 70.0865C160.429 70.3966 160.341 70.7004 160.259 71.0016C160.247 71.0641 160.277 71.1407 160.346 71.1509L160.343 71.1506Z" fill="#F6CBC7"/>
<path d="M146.707 87.2721C147.226 87.1052 147.735 86.9086 148.208 86.6316C149.003 86.1834 149.759 85.6578 150.454 85.0622C151.067 84.4358 151.605 83.7346 152.207 83.0974C153.147 82.0035 154.161 80.9618 154.966 79.7583C155.818 78.4383 156.456 76.9686 156.857 75.4492C155.237 76.1126 153.767 77.1042 152.484 78.2938C151.633 79.1064 150.932 80.0653 150.15 80.9425C148.451 82.9829 147.658 83.5271 146.683 86.1271C146.671 86.1577 146.666 86.1732 146.662 86.1823C146.658 86.1947 146.653 86.2038 146.649 86.2161C146.636 86.2467 146.619 86.296 146.598 86.3449C146.614 86.3083 146.636 86.2499 146.632 86.2591C146.631 86.2654 146.627 86.2745 146.623 86.2805C146.624 86.2774 146.624 86.2742 146.624 86.271C146.624 86.271 146.624 86.271 146.624 86.2774C146.562 86.4115 146.41 86.7852 146.312 87.2188C146.162 87.6087 146.489 87.2976 146.708 87.269L146.707 87.2721Z" fill="#F6CBC7"/>
<path d="M146.649 86.2184C146.666 86.1749 146.666 86.1717 146.627 86.2744C146.628 86.268 146.631 86.2619 146.631 86.2619C146.636 86.2463 146.644 86.2341 146.649 86.2184Z" fill="#F6CBC7"/>
<path d="M130.845 101.978C132.379 101.391 133.63 100.301 134.892 99.2814C136.299 98.2864 139.386 95.6257 140.197 91.9812C138.787 92.5066 137.396 93.1329 136.161 94.0019C135.153 94.6707 134.332 95.5662 133.4 96.329C132.953 96.7523 131.611 97.4858 130.729 98.9878C130.151 100.014 129.799 101.136 129.525 102.276C129.263 102.696 130.655 102.035 130.842 101.974L130.845 101.978Z" fill="#F6CBC7"/>
<path d="M113.696 115.339C116.236 114.754 117.699 113.334 118.944 112.392C121.214 110.653 123.207 108.445 124.11 105.675C122.535 106.177 120.999 106.842 119.612 107.747C118.142 108.77 117.428 109.549 116.748 110.016C115.594 110.934 114.278 111.629 113.177 112.62C112.322 113.375 111.55 114.633 111.294 115.433C111.238 115.584 111.213 115.639 111.15 115.789C111.373 115.786 111.595 115.758 111.818 115.723C112.446 115.606 113.079 115.502 113.699 115.339L113.696 115.339Z" fill="#F6CBC7"/>
<path d="M100.085 122.625C101.013 122.117 101.984 121.69 102.866 121.104C104.292 120.143 105.543 118.922 106.487 117.477C104.766 117.377 103.011 117.605 101.381 118.175C100.342 118.55 99.3917 119.12 98.4135 119.619C97.5843 120.121 96.6785 120.501 95.9017 121.081C94.7173 122.016 93.6275 123.178 92.9676 124.549C95.6673 124.964 97.8253 123.982 100.085 122.625Z" fill="#F6CBC7"/>
<path d="M71.5907 132.822C72.3955 133.001 73.1982 133.23 74.0268 133.267C75.7562 133.257 77.3659 132.544 78.9401 131.902C82.0221 130.737 84.3237 129.343 85.9839 126.376C84.3918 126.35 82.795 126.62 81.2759 127.096C79.9377 127.542 78.6952 128.235 77.3848 128.751C77.7993 128.58 77.8956 128.539 77.4185 128.732C76.3211 129.217 75.097 129.477 74.1381 130.224C72.6514 131.415 73.8925 130.391 72.3371 131.664C72.0297 131.939 71.759 132.259 71.5424 132.61C71.4723 132.737 71.3797 132.804 71.5907 132.822Z" fill="#F6CBC7"/>
<path d="M50.9718 135.272C50.9452 135.282 50.9151 135.295 50.8884 135.305C51.0117 135.257 51.1118 135.216 50.9718 135.272Z" fill="#F6CBC7"/>
<path d="M50.6924 135.387C50.7558 135.361 50.8227 135.332 50.8864 135.303C50.8129 135.335 50.7361 135.366 50.6924 135.387Z" fill="#F6CBC7"/>
<path d="M48.1033 137.562C49.2707 138.049 50.5112 138.474 51.7922 138.404C53.7589 138.245 55.5715 137.35 57.4897 136.918C58.8744 136.514 60.2963 136.214 61.6144 135.621C62.9894 135.032 64.2535 134.188 65.4049 133.234C63.6181 132.619 61.685 132.478 59.8218 132.775C58.5406 133.004 57.3055 133.436 56.0395 133.734C54.331 134.229 52.4006 134.688 50.7695 135.36C50.7695 135.36 50.7695 135.36 50.7726 135.36C50.7726 135.36 50.7664 135.359 50.7629 135.362C50.733 135.375 50.7 135.388 50.6701 135.4C50.6767 135.398 50.6867 135.393 50.6968 135.387C50.5675 135.441 50.4646 135.485 50.4611 135.488C50.1958 135.598 49.9963 135.686 50.4806 135.483C49.5454 135.84 48.6627 136.337 47.9316 137.031C47.4859 137.448 47.6464 137.337 48.1033 137.562Z" fill="#F6CBC7"/>
<path d="M26.2226 139.426C26.2226 139.426 26.2408 139.435 26.2499 139.439C26.2499 139.439 26.2531 139.439 26.2562 139.439C26.2656 139.44 26.2625 139.44 26.2562 139.439C27.1326 139.82 28.5786 140.192 29.7454 140.276C31.5797 140.296 32.2903 140.024 33.1939 139.98C34.5055 139.827 35.8414 139.843 37.1369 139.567C38.7571 139.191 40.2936 138.449 41.63 137.456C39.3359 136.394 36.7531 136.049 34.2518 136.341C31.9365 136.585 31.8181 136.532 29.9359 136.891C28.5123 137.459 28.124 137.372 26.5918 138.698C26.3779 138.897 26.1672 139.095 25.9853 139.322C26.0733 139.363 26.1616 139.401 26.2534 139.436C26.2411 139.431 26.226 139.423 26.226 139.423L26.2226 139.426Z" fill="#F6CBC7"/>
<path d="M0.274647 139.666C1.56775 140.763 3.19925 141.31 4.86408 141.497C5.83836 141.476 6.80993 141.387 7.78576 141.382C9.1415 141.358 10.5019 141.351 11.8457 141.164C13.6932 140.865 15.46 140.076 16.9727 138.974C13.7499 137.545 12.1043 137.67 8.58727 137.829C7.22177 137.855 5.84907 137.857 4.49337 138.037C4.58114 138.018 5.091 137.971 4.84473 137.987C3.79408 137.978 2.77464 138.289 1.81791 138.701C1.37323 138.888 0.938874 139.099 0.515507 139.327C0.359937 139.451 -0.0602792 139.491 0.275287 139.66L0.274647 139.666Z" fill="#F6CBC7"/>
</g>
<g clip-path="url(#clip1_304_10213)">
<path d="M184.571 15.4936C182.026 17.5681 179.069 20.2633 177.386 21.6493C175.925 22.8798 174.477 24.1264 173.031 25.3736C172.507 25.8852 171.827 26.259 171.428 26.8827C170.582 28.6042 172.759 29.7318 173.717 28.5166C173.73 28.5037 173.741 28.4903 173.754 28.4774C174.565 27.7743 175.383 27.0811 176.191 26.3775C178.818 24.1302 182.189 21.2629 185.515 18.3638C185.551 18.399 185.587 18.4341 185.623 18.4693C186.345 19.191 186.999 19.982 187.651 20.7699C189.533 23.0018 192.572 27.3564 195.05 30.6323C196.077 31.9778 196.416 32.3774 196.974 33.0313C197.186 33.236 197.375 33.4751 197.592 33.6752C197.739 33.8459 197.933 33.9742 198.153 34.0257C198.711 34.173 199.33 33.7796 199.459 33.2018C199.512 32.9074 199.49 32.6089 199.325 32.3542C199.329 32.3579 199.334 32.3723 199.342 32.3929C199.286 32.2782 199.22 32.1669 199.161 32.0517C198.848 31.4394 198.48 30.8622 198.106 30.2889C196.554 27.9666 194.915 25.7064 193.275 23.4463C191.913 21.5525 190.477 19.7163 188.979 17.9322C187.86 16.7359 186.438 14.4946 184.573 15.4967L184.571 15.4936Z" fill="#F6CBC7"/>
</g>
<defs>
<clipPath id="clip0_304_10213">
<rect width="173.436" height="141.718" fill="white" transform="matrix(-0.994768 -0.102163 0.100787 -0.994908 172.529 158.716)"/>
</clipPath>
<clipPath id="clip1_304_10213">
<rect width="16.4378" height="28.7846" fill="white" transform="matrix(0.225769 -0.974181 0.973492 0.228721 170.961 28.6611)"/>
</clipPath>
</defs>
</svg>
