<svg width="197" height="231" viewBox="0 0 197 231" fill="none" xmlns="http://www.w3.org/2000/svg">
<g clip-path="url(#clip0_304_10149)">
<path d="M172.415 177.32C173.248 178.512 174.606 179.278 175.992 179.64C177.255 179.95 178.573 179.766 179.853 179.668C182.849 179.487 185.862 178.575 188.069 176.454C185.508 175.56 182.761 175.448 180.103 175.91C178.39 176.105 176.661 176.091 174.978 176.498C174.269 176.657 173.557 176.831 172.865 177.058C172.696 177.163 172.208 177.126 172.415 177.32Z" fill="#8BE3D5"/>
<path d="M152.998 178.264C154.553 178.86 156.236 179.016 157.867 179.295C159.499 179.508 161.134 179.8 162.783 179.796C164.618 179.732 166.446 179.261 168.076 178.415C166.421 177.302 164.536 176.525 162.575 176.162C161.056 175.947 159.526 175.814 158.012 175.564C155.196 175.085 152.148 174.281 149.476 175.714C150.468 176.776 151.674 177.67 153.003 178.266L152.998 178.264Z" fill="#8BE3D5"/>
<path d="M126.425 170.806C127.193 171.89 128.547 173.032 129.867 173.698C131.339 174.36 132.964 174.589 134.519 174.983C135.943 175.281 137.347 175.727 138.799 175.842C140.546 175.995 142.311 175.76 143.968 175.198C142.537 174.131 140.945 173.253 139.262 172.661C137.633 172.138 135.939 171.855 134.285 171.445C132.068 170.924 129.821 170.201 127.521 170.565C127.196 170.62 126.866 170.642 126.541 170.67C126.475 170.68 126.411 170.737 126.426 170.809L126.425 170.806Z" fill="#8BE3D5"/>
<path d="M105.682 163.113C106.033 163.565 106.41 163.998 106.852 164.366C107.579 164.991 108.368 165.549 109.203 166.023C110.039 166.404 110.922 166.684 111.764 167.05C113.177 167.587 114.565 168.215 116.037 168.579C117.64 168.947 119.312 169.051 120.948 168.903C119.712 167.54 118.209 166.443 116.578 165.601C115.473 165.052 114.279 164.703 113.136 164.246C110.521 163.297 109.701 162.71 106.797 162.679C106.763 162.677 106.746 162.678 106.735 162.677C106.721 162.677 106.711 162.676 106.697 162.677C106.663 162.675 106.608 162.675 106.552 162.672C106.594 162.675 106.66 162.676 106.649 162.675C106.643 162.677 106.632 162.676 106.625 162.674C106.628 162.674 106.631 162.673 106.635 162.672C106.635 162.672 106.635 162.672 106.628 162.674C106.474 162.661 106.053 162.645 105.592 162.703C105.155 162.694 105.578 162.906 105.685 163.112L105.682 163.113Z" fill="#8BE3D5"/>
<path d="M106.694 162.677C106.743 162.679 106.746 162.678 106.632 162.676C106.639 162.674 106.646 162.676 106.646 162.676C106.663 162.675 106.677 162.678 106.694 162.677Z" fill="#8BE3D5"/>
<path d="M85.5248 152.712C86.6536 154.017 88.1756 154.862 89.6317 155.744C91.1158 156.777 94.8414 158.874 98.7106 158.369C97.686 157.164 96.5692 156.014 95.2706 155.105C94.2504 154.349 93.0751 153.858 91.9901 153.211C91.4136 152.922 90.2093 151.859 88.4167 151.525C87.2016 151.322 85.9731 151.377 84.7554 151.515C84.2488 151.407 85.4002 152.545 85.5272 152.708L85.5248 152.712Z" fill="#8BE3D5"/>
<path d="M66.2229 140.557C67.7139 142.858 69.6354 143.793 71.0087 144.686C73.5349 146.306 76.4214 147.483 79.4659 147.383C78.4044 146.006 77.1968 144.728 75.8084 143.681C74.2734 142.595 73.2513 142.169 72.5483 141.665C71.2301 140.854 70.0734 139.803 68.7032 139.07C67.6539 138.496 66.1406 138.184 65.2628 138.218C65.0946 138.216 65.0318 138.211 64.862 138.203C64.945 138.422 65.0529 138.631 65.1672 138.839C65.5092 139.418 65.84 140.006 66.2237 140.56L66.2229 140.557Z" fill="#8BE3D5"/>
<path d="M54.159 129.721C54.9925 130.456 55.7619 131.262 56.6554 131.924C58.1131 132.988 59.7636 133.786 61.522 134.201C60.9989 132.464 60.1415 130.812 58.9938 129.406C58.2506 128.514 57.3487 127.779 56.5053 126.992C55.7132 126.352 55.014 125.593 54.1635 125.034C52.8187 124.199 51.2854 123.539 49.7011 123.378C50.2689 126.194 52.0112 127.975 54.159 129.721Z" fill="#8BE3D5"/>
<path d="M33.8657 105.222C33.9811 106.082 34.0459 106.957 34.3085 107.789C34.9433 109.494 36.2234 110.829 37.4223 112.154C39.6775 114.782 41.8769 116.556 45.3877 117.133C44.8388 115.55 43.9973 114.069 42.9819 112.739C42.0605 111.577 40.9323 110.597 39.9524 109.488C40.2701 109.836 40.3452 109.916 39.9831 109.514C39.1118 108.604 38.4143 107.488 37.3348 106.808C35.6294 105.766 37.083 106.625 35.272 105.545C34.8913 105.339 34.4795 105.187 34.0567 105.098C33.9069 105.075 33.8076 105.007 33.8657 105.222Z" fill="#8BE3D5"/>
<path d="M24.0187 85.7276C23.9993 85.705 23.9758 85.6801 23.9563 85.6575C24.0479 85.7614 24.124 85.8452 24.0187 85.7276Z" fill="#8BE3D5"/>
<path d="M23.8051 85.4934C23.8529 85.5466 23.9048 85.6021 23.9558 85.6545C23.8991 85.5933 23.8416 85.5288 23.8051 85.4934Z" fill="#8BE3D5"/>
<path d="M20.7352 83.7141C20.6788 85.0422 20.7103 86.42 21.2409 87.6608C22.1066 89.5471 23.64 91.017 24.7561 92.7575C25.652 93.981 26.4605 95.2782 27.5176 96.3682C28.5926 97.5154 29.8768 98.4619 31.2288 99.2575C31.1867 97.2718 30.6273 95.3111 29.6633 93.5766C28.976 92.3928 28.1065 91.3272 27.3574 90.183C26.2551 88.6723 25.1076 86.9295 23.8595 85.5587C23.8595 85.5587 23.8594 85.5587 23.8603 85.5619C23.8603 85.5619 23.8586 85.5555 23.8546 85.5531C23.8312 85.5282 23.8069 85.5 23.7835 85.4751C23.7883 85.4807 23.7972 85.4888 23.8061 85.4968C23.7067 85.3883 23.6266 85.3022 23.6226 85.2998C23.4189 85.0771 23.2605 84.9116 23.6339 85.3176C22.9458 84.5215 22.1399 83.8274 21.1948 83.3539C20.6247 83.063 20.7917 83.1818 20.7352 83.7141Z" fill="#8BE3D5"/>
<path d="M11.0077 62.7625C11.0077 62.7625 11.0061 62.7835 11.0054 62.794C11.0054 62.794 11.0062 62.7972 11.007 62.8004C11.0095 62.8101 11.0086 62.8068 11.007 62.8004C10.95 63.8028 11.107 65.3648 11.4451 66.5482C12.0884 68.3675 12.6116 68.9722 12.9814 69.849C13.6045 71.0904 14.0711 72.416 14.8091 73.5973C15.7632 75.0633 17.0462 76.3155 18.5027 77.2801C18.717 74.6324 18.1232 71.9567 16.9337 69.59C15.8583 67.3898 15.8682 67.2535 14.8366 65.5225C13.7646 64.3197 13.7105 63.9046 11.8554 62.8663C11.5837 62.726 11.3127 62.589 11.0242 62.4907C11.0158 62.5924 11.0106 62.6932 11.0094 62.7964C11.0094 62.7827 11.0117 62.7649 11.0117 62.7649L11.0077 62.7625Z" fill="#8BE3D5"/>
<path d="M1.40574 37.2095C0.796337 38.8804 0.848147 40.6887 1.26568 42.4007C1.63821 43.3557 2.07581 44.284 2.43308 45.2464C2.94559 46.5775 3.44366 47.9192 4.11278 49.1797C5.0727 50.8981 6.48458 52.3611 8.11221 53.4606C8.35106 49.7639 7.63472 48.1827 6.20904 44.7645C5.69087 43.4245 5.19274 42.0691 4.52678 40.7941C4.5778 40.8737 4.80756 41.3608 4.70277 41.1233C4.33229 40.082 3.65986 39.1859 2.90979 38.3884C2.56544 38.0162 2.20186 37.6626 1.82547 37.3259C1.64718 37.2168 1.4564 36.8159 1.41218 37.2079L1.40574 37.2095Z" fill="#8BE3D5"/>
</g>
<g clip-path="url(#clip1_304_10149)">
<path d="M189.789 174.791C186.835 173.02 183.123 171.065 181.155 169.899C179.42 168.897 177.674 167.913 175.928 166.931C175.237 166.596 174.625 166.059 173.868 165.888C171.874 165.669 171.553 168.225 173.091 168.736C173.109 168.744 173.126 168.75 173.143 168.759C174.126 169.307 175.101 169.867 176.084 170.413C179.237 172.203 183.268 174.506 187.314 176.753C187.292 176.801 187.271 176.85 187.249 176.898C186.802 177.87 186.261 178.799 185.723 179.726C184.213 182.386 181.036 186.95 178.716 190.573C177.766 192.07 177.497 192.548 177.056 193.334C176.932 193.618 176.766 193.89 176.647 194.175C176.533 194.382 176.477 194.62 176.506 194.855C176.563 195.46 177.173 195.931 177.786 195.851C178.094 195.797 178.379 195.668 178.57 195.415C178.568 195.42 178.555 195.43 178.538 195.445C178.63 195.348 178.716 195.244 178.807 195.144C179.295 194.615 179.729 194.045 180.156 193.47C181.875 191.103 183.501 188.673 185.127 186.243C186.494 184.218 187.778 182.141 188.988 180.021C189.758 178.487 191.444 176.278 189.787 174.794L189.789 174.791Z" fill="#8BE3D5"/>
</g>
<defs>
<clipPath id="clip0_304_10149">
<rect width="182.435" height="148.075" fill="white" transform="translate(44.8928 214.241) rotate(-104.245)"/>
</clipPath>
<clipPath id="clip1_304_10149">
<rect width="17.18" height="30.2695" fill="white" transform="translate(171.954 166.065) rotate(-6.93471)"/>
</clipPath>
</defs>
</svg>
