<svg width="84" height="84" viewBox="0 0 84 84" fill="none" xmlns="http://www.w3.org/2000/svg">
<path d="M40.5614 0.385692C40.7823 0.510461 40.7823 0.510461 41.0076 0.637751C41.7064 1.12673 41.7064 1.12673 42.3429 0.910248C42.5924 0.761873 42.5924 0.761873 42.847 0.610502C44.2735 -0.0726146 45.9991 -0.0753092 47.522 0.309052C48.8427 0.894314 49.8805 2.02864 50.5178 3.31162C50.7177 3.95389 50.7383 4.47652 50.7221 5.14757C50.7182 5.36029 50.7143 5.57302 50.7102 5.79219C50.7052 5.95265 50.7001 6.11311 50.6949 6.27843C50.8219 6.3366 50.9489 6.39477 51.0798 6.4547C53.9915 8.00727 56.132 11.2933 57.102 14.3792C57.4119 15.4625 57.6708 16.4815 57.6708 17.6143C57.8759 17.6042 58.0811 17.594 58.2924 17.5836C60.5109 17.5193 60.5109 17.5193 61.513 17.9685C62.5288 18.9844 62.9578 19.6495 63.0117 21.1022C62.9578 22.555 62.5288 23.2201 61.513 24.2359C60.2691 24.7936 59.0134 24.6564 57.6708 24.5902C57.6809 24.867 57.691 25.1438 57.7014 25.429C57.7859 28.7441 57.3555 31.4584 55.7088 34.4001C57.2773 33.0884 58.7098 31.6452 60.1505 30.1977C60.407 29.9407 60.6636 29.6839 60.9202 29.4271C61.5901 28.7563 62.2593 28.0849 62.9285 27.4134C63.6135 26.7261 64.2992 26.0395 64.9848 25.3528C66.326 24.0092 67.6665 22.6649 69.0066 21.3202C68.8543 21.2963 68.702 21.2725 68.5451 21.2479C68.3467 21.2133 68.1483 21.1787 67.9439 21.1431C67.648 21.0938 67.648 21.0938 67.3461 21.0435C66.8267 20.8842 66.8267 20.8842 66.3907 20.2302C66.3324 19.5616 66.3324 19.5616 66.3273 18.729C66.3259 18.5772 66.3244 18.4254 66.3229 18.2691C66.3188 17.7672 66.3179 17.2654 66.3174 16.7636C66.316 16.4147 66.3146 16.0658 66.313 15.7169C66.3104 14.9856 66.3096 14.2542 66.3099 13.5228C66.3099 12.5857 66.304 11.6487 66.2965 10.7116C66.2916 9.99104 66.2907 9.2705 66.291 8.54991C66.2905 8.20442 66.2885 7.85893 66.2852 7.51345C66.2809 7.03016 66.2821 6.54719 66.2848 6.06389C66.2841 5.78896 66.2835 5.51404 66.2829 5.23078C66.3907 4.53445 66.3907 4.53445 66.7379 4.00992C67.4495 3.53873 67.9376 3.55178 68.7886 3.54963C68.9405 3.5481 69.0923 3.54658 69.2487 3.545C69.7494 3.54117 70.2499 3.5437 70.7506 3.54665C71.0992 3.54606 71.4478 3.54522 71.7963 3.54412C72.5264 3.54284 73.2564 3.5447 73.9865 3.54878C74.922 3.55375 75.8572 3.55089 76.7926 3.54566C77.5122 3.54251 78.2318 3.54352 78.9515 3.54578C79.2964 3.54636 79.6412 3.54564 79.9861 3.54361C80.4684 3.5414 80.9503 3.54478 81.4325 3.54963C81.8439 3.55067 81.8439 3.55067 82.2636 3.55173C82.9585 3.66246 82.9585 3.66246 83.4826 4.01057C83.9533 4.71942 83.9425 5.20494 83.9467 6.05351C83.9486 6.20463 83.9505 6.35574 83.9524 6.51144C83.9574 7.01007 83.9559 7.50843 83.9539 8.00708C83.9551 8.3546 83.9564 8.70213 83.958 9.04965C83.9603 9.77792 83.9593 10.5061 83.9561 11.2344C83.9524 12.1659 83.9575 13.0971 83.9651 14.0286C83.9699 14.7464 83.9696 15.4641 83.9678 16.1819C83.9676 16.5252 83.9691 16.8685 83.9723 17.2118C83.9762 17.693 83.973 18.1736 83.968 18.6548C83.9678 18.9281 83.9676 19.2014 83.9674 19.483C83.8209 20.2821 83.5769 20.5875 83.0282 21.1662C82.6813 21.6148 82.5436 22.0359 82.3644 22.573C81.8343 23.9832 80.8837 24.8738 79.8187 25.9095C79.6089 26.1183 79.3994 26.3273 79.1901 26.5366C78.7419 26.9836 78.2917 27.4285 77.8398 27.8718C77.1248 28.5733 76.4144 29.2792 75.7045 29.9858C74.5814 31.1027 73.4552 32.2163 72.3276 33.3286C70.3073 35.3219 68.2922 37.3206 66.2784 39.3205C65.5721 40.0216 64.8645 40.7213 64.1557 41.4198C63.7152 41.8543 63.2754 42.2898 62.8359 42.7254C62.5354 43.0226 62.2338 43.3187 61.9322 43.6147C61.6631 43.8819 61.6631 43.8819 61.3886 44.1545C61.2328 44.3082 61.077 44.4619 60.9164 44.6202C59.6267 46.0666 59.6014 47.5268 59.588 49.3694C59.5858 49.5546 59.5837 49.7397 59.5815 49.9305C59.5746 50.5391 59.5692 51.1477 59.5638 51.7564C59.5593 52.1797 59.5547 52.6031 59.5501 53.0264C59.5381 54.1381 59.5273 55.2498 59.5167 56.3615C59.5058 57.4969 59.4936 58.6324 59.4816 59.7678C59.4582 61.9937 59.4361 64.2197 59.4148 66.4456C59.5593 66.4437 59.7039 66.4418 59.8529 66.4398C61.3594 66.4205 62.8658 66.4073 64.3724 66.3977C64.9344 66.3934 65.4965 66.3874 66.0585 66.3799C66.8669 66.3693 67.6753 66.3643 68.4838 66.3605C68.7345 66.356 68.9853 66.3515 69.2436 66.3468C70.6182 66.3465 71.4542 66.3866 72.4946 67.3176C73.4051 68.2281 73.4186 68.9978 73.4211 70.2333C73.4031 70.7099 73.3851 71.1865 73.3666 71.6776C74.5176 71.6776 75.6686 71.6776 76.8545 71.6776C76.8366 71.201 76.8186 70.7244 76.8 70.2333C76.8025 68.9978 76.8161 68.2281 77.7265 67.3176C78.8335 66.4086 79.6496 66.3097 81.0237 66.3366C81.1977 66.3333 81.3716 66.3299 81.5508 66.3264C81.7192 66.3275 81.8875 66.3287 82.0609 66.3298C82.2124 66.3308 82.3639 66.3318 82.52 66.3328C83.1715 66.5005 83.4144 66.7928 83.8305 67.3176C83.9412 68.0125 83.9412 68.0125 83.9433 68.8436C83.9456 69.0713 83.9456 69.0713 83.9479 69.3037C83.9517 69.8044 83.9492 70.3048 83.9463 70.8056C83.9468 71.1542 83.9477 71.5027 83.9488 71.8513C83.9501 72.5814 83.9482 73.3114 83.9441 74.0415C83.9392 74.9769 83.942 75.9121 83.9472 76.8476C83.9504 77.5672 83.9494 78.2868 83.9471 79.0064C83.9465 79.3513 83.9473 79.6962 83.9493 80.0411C83.9515 80.5233 83.9481 81.0052 83.9433 81.4874C83.9426 81.7617 83.9419 82.036 83.9412 82.3186C83.8107 83.1375 83.6189 83.3982 82.9585 83.8854C82.2991 83.9844 82.2991 83.9844 81.5381 83.9706C81.2655 83.9678 80.9929 83.965 80.7121 83.9621C80.2863 83.9511 80.2863 83.9511 79.852 83.9399C79.5648 83.936 79.2776 83.932 78.9817 83.928C78.2725 83.9177 77.5636 83.9034 76.8545 83.8854C76.8545 83.3099 76.8545 82.7344 76.8545 82.1414C75.7035 82.1414 74.5525 82.1414 73.3666 82.1414C73.2946 82.5731 73.2227 83.0047 73.1486 83.4494C72.4481 83.9164 72.2685 83.9402 71.4633 83.9415C71.1432 83.9436 71.1432 83.9436 70.8167 83.9458C70.4642 83.9447 70.4642 83.9447 70.1045 83.9437C69.8553 83.9447 69.6061 83.9457 69.3494 83.9467C68.6566 83.949 67.9638 83.9493 67.271 83.9488C66.5243 83.9487 65.7776 83.9511 65.0308 83.9532C63.5675 83.9568 62.1042 83.958 60.6408 83.9582C59.4517 83.9585 58.2626 83.9594 57.0735 83.9607C53.704 83.9646 50.3346 83.9666 46.9651 83.9663C46.6925 83.9662 46.6925 83.9662 46.4144 83.9662C46.1415 83.9662 46.1415 83.9662 45.863 83.9661C42.9132 83.966 39.9634 83.9701 37.0135 83.9763C33.9865 83.9825 30.9595 83.9856 27.9324 83.9852C26.2322 83.985 24.532 83.9862 22.8318 83.9909C21.3844 83.9949 19.9371 83.9959 18.4897 83.9929C17.7509 83.9915 17.0122 83.9915 16.2735 83.9952C15.4733 83.9986 14.6733 83.9966 13.8731 83.9932C13.6386 83.9955 13.4041 83.9977 13.1625 84C11.6066 83.9854 11.6066 83.9854 10.8683 83.4972C10.5834 83.0134 10.5834 83.0134 10.5834 82.1414C9.43238 82.1414 8.28136 82.1414 7.09545 82.1414C7.09545 82.7169 7.09545 83.2925 7.09545 83.8854C6.09634 83.9107 5.09732 83.9262 4.09799 83.9399C3.67226 83.9509 3.67226 83.9509 3.23792 83.9621C2.96534 83.9649 2.69276 83.9677 2.41192 83.9706C2.16076 83.9751 1.90961 83.9797 1.65084 83.9844C0.823879 83.8602 0.623657 83.6723 0.119543 83.0134C0.00881441 82.3186 0.0088144 82.3186 0.00671213 81.4874C0.00518413 81.3356 0.00365613 81.1838 0.00208182 81.0274C-0.00174917 80.5267 0.000782378 80.0262 0.0037317 79.5255C0.00314417 79.1769 0.00229778 78.8283 0.00120366 78.4798C-8.12456e-05 77.7497 0.00178457 77.0197 0.00586058 76.2896C0.0108287 75.3541 0.0079695 74.4189 0.0027471 73.4835C-0.000405266 72.7639 0.000597961 72.0443 0.00285687 71.3246C0.00343818 70.9797 0.00272603 70.6348 0.000694725 70.29C-0.00152242 69.8077 0.00185869 69.3258 0.00671213 68.8436C0.00740588 68.5693 0.00809963 68.2951 0.0088144 68.0125C0.138827 67.1966 0.342784 66.9399 0.991531 66.4456C1.42997 66.3328 1.42997 66.3328 1.88907 66.3298C2.05739 66.3287 2.22572 66.3276 2.39915 66.3264C2.57309 66.3298 2.74704 66.3332 2.92626 66.3366C3.09852 66.3333 3.27078 66.3299 3.44826 66.3264C4.90259 66.3361 5.70621 66.8004 6.74121 67.8354C7.30913 69.1023 7.14744 70.2998 7.09545 71.6776C8.24648 71.6776 9.3975 71.6776 10.5834 71.6776C10.5654 71.201 10.5474 70.7244 10.5289 70.2333C10.5314 68.9978 10.5449 68.2281 11.4554 67.3176C12.6832 66.2189 13.8742 66.3319 15.4662 66.3605C15.7256 66.3617 15.9851 66.363 16.2524 66.3642C17.0787 66.3691 17.9048 66.38 18.7311 66.3911C19.2922 66.3955 19.8534 66.3995 20.4146 66.4031C21.7882 66.4127 23.1617 66.4272 24.5352 66.4456C24.5168 64.0029 24.4961 61.5602 24.4725 59.1175C24.4617 57.9832 24.4516 56.8489 24.4433 55.7145C24.4352 54.619 24.4251 53.5236 24.4136 52.4282C24.4095 52.011 24.4062 51.5938 24.4037 51.1767C24.4 50.5907 24.3937 50.0048 24.3867 49.4189C24.3863 49.2478 24.3858 49.0767 24.3853 48.9005C24.348 46.4156 23.6613 45.3073 21.9193 43.5559C21.7575 43.3904 21.5957 43.225 21.429 43.0545C20.9268 42.5458 20.4189 42.0433 19.9093 41.542C19.5156 41.1525 19.1218 40.763 18.728 40.3735C18.5203 40.1685 18.3127 39.9636 18.105 39.7586C17.4561 39.1179 16.8086 38.4758 16.1615 37.8332C16.0516 37.7241 15.9417 37.615 15.8285 37.5026C15.6041 37.2798 15.3796 37.0569 15.1552 36.8341C13.6521 35.3419 12.148 33.8506 10.64 32.3634C9.61757 31.355 8.59753 30.3444 7.58012 29.331C7.04354 28.7967 6.50586 28.2637 5.96524 27.7336C5.36271 27.1426 4.7654 26.5466 4.1684 25.9501C3.99116 25.7779 3.81392 25.6057 3.63131 25.4283C2.43021 24.2163 1.42753 22.877 1.42753 21.1022C1.25217 21.0393 1.07682 20.9763 0.896158 20.9115C0.33754 20.6662 0.33754 20.6662 0.119543 20.2302C0.0949867 19.7385 0.0847953 19.2461 0.0809568 18.7538C0.0795243 18.602 0.0780918 18.4503 0.0766158 18.2939C0.0723132 17.7909 0.0697717 17.2879 0.0675981 16.7849C0.0667096 16.6132 0.0658224 16.4415 0.064907 16.2646C0.0603593 15.3562 0.0572402 14.4477 0.0551973 13.5393C0.0527837 12.6004 0.0452822 11.6617 0.0366295 10.7229C0.0309337 10.0014 0.0291069 9.27993 0.0283236 8.5584C0.0272608 8.2123 0.0247209 7.8662 0.0206829 7.52012C0.0153824 7.03577 0.015574 6.55172 0.0170904 6.06735C0.0158116 5.79177 0.0145328 5.51618 0.0132152 5.23225C0.119543 4.53445 0.119543 4.53445 0.466567 4.0097C1.17834 3.53889 1.66648 3.55178 2.51751 3.54963C2.66933 3.5481 2.82114 3.54658 2.97756 3.545C3.47829 3.54117 3.97875 3.5437 4.47949 3.54665C4.82805 3.54606 5.17662 3.54522 5.52519 3.54412C6.25529 3.54284 6.98529 3.5447 7.71538 3.54878C8.65081 3.55375 9.58603 3.55089 10.5215 3.54566C11.2411 3.54251 11.9607 3.54352 12.6804 3.54578C13.0252 3.54636 13.3701 3.54564 13.715 3.54361C14.1972 3.5414 14.6791 3.54478 15.1613 3.54963C15.5727 3.55067 15.5727 3.55067 15.9925 3.55173C16.6873 3.66246 16.6873 3.66246 17.2116 4.01013C17.6833 4.72145 17.67 5.20936 17.6721 6.06043C17.6737 6.21225 17.6752 6.36406 17.6768 6.52048C17.6806 7.02121 17.6781 7.52167 17.6751 8.0224C17.6757 8.37097 17.6766 8.71954 17.6777 9.06811C17.6789 9.79821 17.6771 10.5282 17.673 11.2583C17.668 12.1937 17.6709 13.129 17.6761 14.0644C17.6793 14.784 17.6783 15.5036 17.676 16.2233C17.6754 16.5681 17.6761 16.913 17.6782 17.2579C17.6804 17.7402 17.677 18.222 17.6721 18.7043C17.6715 18.9785 17.6708 19.2528 17.67 19.5354C17.5593 20.2302 17.5593 20.2302 17.2253 20.748C16.4641 21.2492 15.8486 21.2599 14.9433 21.3202C16.6122 22.9941 18.2815 24.6673 19.9517 26.3399C20.7271 27.1164 21.5023 27.8932 22.2771 28.6705C23.0244 29.4201 23.7721 30.1691 24.5203 30.9179C24.8061 31.2041 25.0917 31.4905 25.3771 31.7771C25.7759 32.1774 26.1754 32.5771 26.575 32.9766C26.7531 33.1559 26.7531 33.1559 26.9347 33.3387C27.5309 33.9448 27.5309 33.9448 28.2412 34.4001C28.1543 34.2258 28.0675 34.0516 27.978 33.8721C26.4443 30.6927 26.1864 28.0671 26.2792 24.5902C26.0741 24.6003 25.8689 24.6104 25.6576 24.6208C23.4391 24.6851 23.4391 24.6851 22.437 24.2359C21.4212 23.2201 20.9922 22.555 20.9383 21.1022C20.9922 19.6495 21.4212 18.9844 22.437 17.9685C23.6809 17.4109 24.9366 17.5481 26.2792 17.6143C26.2972 17.3445 26.3152 17.0747 26.3337 16.7968C26.8098 12.6789 29.1737 9.44774 32.1787 6.76892C32.8191 6.27843 32.8191 6.27843 33.2551 6.27843C33.245 6.12556 33.2349 5.97269 33.2245 5.81518C33.1699 4.38077 33.2442 3.30226 34.1271 2.13648C35.8373 0.329841 38.0889 -0.566472 40.5614 0.385692Z" fill="#C70A50"/>
<path d="M35.8323 48.8718C35.9775 48.8706 36.1226 48.8693 36.2721 48.8681C36.7494 48.8655 37.2263 48.8708 37.7036 48.8764C38.0367 48.8768 38.3698 48.8768 38.7028 48.8764C39.4 48.8768 40.0969 48.8808 40.794 48.8877C41.6861 48.8964 42.5781 48.8973 43.4702 48.8957C44.1577 48.895 44.8452 48.8977 45.5327 48.9014C45.8615 48.9029 46.1904 48.9036 46.5193 48.9034C46.9795 48.9038 47.4395 48.9085 47.8997 48.9143C48.2919 48.9171 48.2919 48.9171 48.6921 48.9199C49.4527 49.014 49.8671 49.2035 50.4769 49.6599C50.7879 50.2819 50.7261 50.8135 50.73 51.5089C50.7311 51.6539 50.7322 51.7989 50.7333 51.9483C50.7365 52.4291 50.738 52.9098 50.7392 53.3905C50.7404 53.7245 50.7417 54.0585 50.7429 54.3925C50.7452 55.0935 50.7465 55.7945 50.7473 56.4954C50.7485 57.3927 50.7537 58.2899 50.7599 59.1871C50.764 59.8774 50.7651 60.5677 50.7654 61.258C50.7661 61.5887 50.7678 61.9194 50.7707 62.2501C50.7744 62.7135 50.774 63.1767 50.7726 63.6401C50.7738 64.0353 50.7738 64.0353 50.775 64.4385C50.6881 65.1973 50.4806 65.6115 50.0409 66.2277C50.3029 66.2285 50.5649 66.2292 50.8349 66.2301C53.3047 66.2381 55.7745 66.2507 58.2443 66.2677C59.514 66.2764 60.7838 66.2834 62.0535 66.2867C63.279 66.29 64.5045 66.2975 65.7299 66.3079C66.1974 66.3112 66.6648 66.3129 67.1322 66.3131C67.7873 66.3136 68.442 66.3195 69.097 66.3267C69.3866 66.325 69.3866 66.325 69.6819 66.3233C71.1575 66.3482 71.9567 66.7797 73.0123 67.8354C73.5803 69.1023 73.4186 70.2998 73.3666 71.6776C74.5176 71.6776 75.6686 71.6776 76.8545 71.6776C76.8366 71.201 76.8186 70.7244 76.8 70.2334C76.8025 68.9978 76.8161 68.2281 77.7265 67.3176C78.8335 66.4086 79.6496 66.3098 81.0237 66.3367C81.2847 66.3316 81.2847 66.3316 81.5508 66.3264C81.7192 66.3276 81.8875 66.3287 82.0609 66.3298C82.2124 66.3308 82.3639 66.3318 82.52 66.3328C83.1715 66.5005 83.4144 66.7929 83.8305 67.3176C83.9412 68.0125 83.9412 68.0125 83.9433 68.8436C83.9456 69.0714 83.9456 69.0714 83.9479 69.3037C83.9517 69.8044 83.9492 70.3049 83.9463 70.8056C83.9469 71.1542 83.9477 71.5027 83.9488 71.8513C83.9501 72.5814 83.9482 73.3114 83.9441 74.0415C83.9392 74.9769 83.942 75.9121 83.9473 76.8476C83.9504 77.5672 83.9494 78.2868 83.9471 79.0065C83.9466 79.3513 83.9473 79.6962 83.9493 80.0411C83.9515 80.5233 83.9481 81.0052 83.9433 81.4875C83.9426 81.7617 83.9419 82.036 83.9412 82.3186C83.8107 83.1376 83.6189 83.3982 82.9585 83.8854C82.2991 83.9844 82.2991 83.9844 81.5381 83.9706C81.1292 83.9664 81.1292 83.9664 80.7121 83.9621C80.2863 83.9511 80.2863 83.9511 79.852 83.9399C79.5648 83.936 79.2776 83.9321 78.9817 83.928C78.2725 83.9177 77.5636 83.9034 76.8545 83.8854C76.8545 83.3099 76.8545 82.7344 76.8545 82.1414C75.7035 82.1414 74.5525 82.1414 73.3666 82.1414C73.2947 82.5731 73.2227 83.0047 73.1486 83.4494C72.4481 83.9164 72.2685 83.9402 71.4633 83.9415C71.1432 83.9436 71.1432 83.9436 70.8167 83.9458C70.4642 83.9448 70.4642 83.9448 70.1045 83.9437C69.8553 83.9447 69.6061 83.9457 69.3494 83.9467C68.6566 83.949 67.9638 83.9493 67.271 83.9488C66.5243 83.9487 65.7776 83.9511 65.0308 83.9532C63.5675 83.9568 62.1042 83.958 60.6408 83.9583C59.4517 83.9585 58.2626 83.9594 57.0735 83.9607C53.704 83.9646 50.3346 83.9666 46.9651 83.9663C46.6925 83.9662 46.6925 83.9662 46.4144 83.9662C46.1415 83.9662 46.1415 83.9662 45.863 83.9662C42.9132 83.966 39.9634 83.9702 37.0135 83.9763C33.9865 83.9826 30.9595 83.9856 27.9324 83.9852C26.2322 83.9851 24.532 83.9863 22.8318 83.9909C21.3844 83.9949 19.9371 83.9959 18.4897 83.9929C17.7509 83.9915 17.0122 83.9915 16.2735 83.9952C15.4733 83.9986 14.6733 83.9966 13.8731 83.9932C13.6386 83.9955 13.4041 83.9977 13.1625 84C11.6066 83.9854 11.6066 83.9854 10.8683 83.4972C10.5834 83.0134 10.5834 83.0134 10.5834 82.1414C9.43238 82.1414 8.28136 82.1414 7.09545 82.1414C7.09545 82.717 7.09545 83.2925 7.09545 83.8854C6.09634 83.9107 5.09732 83.9262 4.09799 83.9399C3.67226 83.9509 3.67226 83.9509 3.23792 83.9621C2.96534 83.9649 2.69276 83.9677 2.41192 83.9706C2.16076 83.9751 1.90961 83.9797 1.65085 83.9844C0.823879 83.8603 0.623657 83.6723 0.119543 83.0134C0.00881439 82.3186 0.0088144 82.3186 0.00671213 81.4875C0.00518413 81.3356 0.00365613 81.1838 0.00208182 81.0274C-0.00174917 80.5267 0.000782375 80.0262 0.0037317 79.5255C0.00314417 79.1769 0.00229778 78.8283 0.00120366 78.4798C-8.12465e-05 77.7497 0.00178457 77.0197 0.00586058 76.2896C0.0108287 75.3542 0.00796617 74.4189 0.00274377 73.4835C-0.000408591 72.7639 0.00059796 72.0443 0.00285687 71.3246C0.00343818 70.9797 0.00272603 70.6349 0.000694724 70.29C-0.00152242 69.8077 0.00185869 69.3258 0.00671213 68.8436C0.00740588 68.5694 0.00809963 68.2951 0.0088144 68.0125C0.138827 67.1966 0.342784 66.9399 0.991531 66.4457C1.42997 66.3328 1.42997 66.3328 1.88907 66.3298C2.05739 66.3287 2.22572 66.3276 2.39915 66.3264C2.57309 66.3298 2.74704 66.3332 2.92626 66.3367C3.09852 66.3333 3.27078 66.3299 3.44826 66.3264C4.90259 66.3361 5.70621 66.8004 6.74121 67.8354C7.30914 69.1023 7.14744 70.2998 7.09545 71.6776C8.24648 71.6776 9.3975 71.6776 10.5834 71.6776C10.5654 71.201 10.5474 70.7244 10.5289 70.2334C10.5314 68.9978 10.5449 68.2281 11.4554 67.3176C12.5889 66.3775 13.4436 66.3186 14.853 66.3267C15.0594 66.3244 15.2659 66.3221 15.4785 66.3198C16.158 66.3134 16.8373 66.3131 17.5167 66.3128C17.989 66.3095 18.4612 66.3059 18.9334 66.3019C20.1741 66.2924 21.4148 66.288 22.6555 66.2847C23.9225 66.2805 25.1894 66.2713 26.4563 66.2626C28.9406 66.2462 31.4248 66.2352 33.9091 66.2277C33.8031 66.0785 33.6971 65.9293 33.5878 65.7756C33.1895 65.0119 33.1696 64.5092 33.1636 63.6504C33.1617 63.5053 33.1599 63.3602 33.158 63.2107C33.1529 62.7335 33.1527 62.2564 33.1529 61.7792C33.1514 61.4461 33.1497 61.113 33.1479 60.7799C33.145 60.0829 33.1446 59.3858 33.1459 58.6888C33.1472 57.7966 33.1405 56.9047 33.1317 56.0125C33.1261 55.325 33.1254 54.6376 33.1262 53.9501C33.1259 53.6212 33.1238 53.2923 33.1199 52.9635C33.115 52.5032 33.1172 52.0434 33.121 51.5831C33.1205 51.3216 33.1201 51.0601 33.1196 50.7907C33.4196 49.2525 34.3763 48.8693 35.8323 48.8718Z" fill="#F9B400"/>
<path d="M40.5614 0.385692C40.7087 0.468872 40.8559 0.552051 41.0076 0.637751C41.7064 1.12673 41.7064 1.12673 42.3429 0.910248C42.5924 0.761873 42.5924 0.761873 42.847 0.610502C44.2735 -0.0726146 45.9991 -0.0753092 47.522 0.309052C48.8427 0.894314 49.8805 2.02864 50.5178 3.31162C50.7177 3.95389 50.7383 4.47652 50.7221 5.14757C50.7182 5.36029 50.7143 5.57302 50.7102 5.79219C50.7051 5.95265 50.7001 6.11311 50.6949 6.27843C50.8219 6.3366 50.9489 6.39477 51.0798 6.4547C53.9915 8.00727 56.1319 11.2933 57.1019 14.3792C57.4119 15.4625 57.6708 16.4815 57.6708 17.6143C57.8759 17.6042 58.0811 17.594 58.2924 17.5836C60.5109 17.5193 60.5109 17.5193 61.513 17.9685C62.5288 18.9844 62.9578 19.6495 63.0117 21.1022C62.9578 22.555 62.5288 23.2201 61.513 24.2359C60.269 24.7936 59.0134 24.6564 57.6708 24.5902C57.6809 24.867 57.691 25.1438 57.7014 25.429C57.8166 29.9346 56.7668 33.3658 53.7468 36.798C53.5251 37.0509 53.5251 37.0509 53.2989 37.309C50.7401 40.0459 46.8629 41.9304 43.0905 42.1032C38.858 42.177 34.7818 41.1573 31.6065 38.215C31.2013 37.8235 30.8114 37.423 30.4211 37.016C30.1965 36.7863 30.1965 36.7863 29.9673 36.5519C27.3986 33.7819 26.1807 30.3836 26.2519 26.6475C26.2539 26.4484 26.2559 26.2493 26.2579 26.0442C26.263 25.5595 26.2701 25.0749 26.2792 24.5902C26.0741 24.6003 25.8689 24.6104 25.6576 24.6208C23.4391 24.6851 23.4391 24.6851 22.437 24.2359C21.4211 23.2201 20.9922 22.555 20.9383 21.1022C20.9922 19.6495 21.4211 18.9844 22.437 17.9685C23.6809 17.4109 24.9366 17.5481 26.2792 17.6143C26.2972 17.3445 26.3152 17.0747 26.3337 16.7968C26.8098 12.6789 29.1737 9.44774 32.1787 6.76892C32.8191 6.27843 32.8191 6.27843 33.2551 6.27843C33.245 6.12556 33.2349 5.97269 33.2244 5.81518C33.1699 4.38077 33.2441 3.30226 34.1271 2.13648C35.8373 0.329841 38.0889 -0.566472 40.5614 0.385692Z" fill="#EFC79F"/>
<path d="M40.667 66.4456C44.6237 66.4253 48.5803 66.4099 52.537 66.4005C54.3742 66.396 56.2114 66.3898 58.0485 66.3799C59.6499 66.3712 61.2513 66.3655 62.8527 66.3636C63.7006 66.3625 64.5484 66.3598 65.3962 66.3534C66.1946 66.3475 66.9929 66.3457 67.7913 66.347C68.2232 66.3467 68.6551 66.342 69.087 66.3371C70.9269 66.3457 71.7098 66.5329 73.0123 67.8354C73.5802 69.1023 73.4186 70.2998 73.3666 71.6776C74.5176 71.6776 75.6686 71.6776 76.8545 71.6776C76.8365 71.201 76.8186 70.7244 76.8 70.2333C76.8025 68.9978 76.8161 68.2281 77.7265 67.3176C78.8335 66.4086 79.6496 66.3097 81.0237 66.3366C81.1977 66.3333 81.3716 66.3299 81.5508 66.3264C81.7192 66.3275 81.8875 66.3287 82.0609 66.3298C82.2124 66.3308 82.3639 66.3318 82.52 66.3328C83.1715 66.5005 83.4144 66.7928 83.8304 67.3176C83.9412 68.0125 83.9412 68.0125 83.9433 68.8436C83.9448 68.9954 83.9463 69.1472 83.9479 69.3037C83.9517 69.8044 83.9492 70.3048 83.9462 70.8056C83.9468 71.1541 83.9477 71.5027 83.9488 71.8513C83.9501 72.5814 83.9482 73.3114 83.9441 74.0415C83.9391 74.9769 83.942 75.9121 83.9472 76.8475C83.9504 77.5672 83.9494 78.2868 83.9471 79.0064C83.9465 79.3513 83.9472 79.6962 83.9493 80.0411C83.9515 80.5233 83.9481 81.0052 83.9433 81.4874C83.9426 81.7617 83.9419 82.036 83.9412 82.3186C83.8106 83.1375 83.6189 83.3982 82.9584 83.8854C82.2991 83.9844 82.2991 83.9844 81.5381 83.9706C81.2655 83.9678 80.9929 83.9649 80.712 83.962C80.4282 83.9547 80.1444 83.9474 79.852 83.9399C79.5648 83.936 79.2776 83.932 78.9817 83.928C78.2725 83.9177 77.5636 83.9034 76.8545 83.8854C76.8545 83.3099 76.8545 82.7344 76.8545 82.1414C75.7035 82.1414 74.5525 82.1414 73.3666 82.1414C73.2946 82.5731 73.2227 83.0047 73.1486 83.4494C72.3902 83.955 72.1024 83.9394 71.2076 83.9378C70.9389 83.9384 70.6702 83.939 70.3934 83.9397C70.0951 83.9381 69.7969 83.9365 69.4987 83.9349C69.185 83.9348 68.8713 83.9348 68.5577 83.9351C67.7055 83.9352 66.8535 83.9327 66.0014 83.9296C65.1111 83.9269 64.2208 83.9266 63.3305 83.9261C61.6443 83.9248 59.9582 83.9212 58.272 83.9168C56.3525 83.9119 54.433 83.9095 52.5135 83.9073C48.5646 83.9028 44.6158 83.8951 40.667 83.8854C40.8064 83.791 40.9458 83.6966 41.0894 83.5993C41.5973 83.2505 41.5973 83.2505 41.757 82.5774C41.7787 82.0962 41.7871 81.6144 41.7886 81.1328C41.7894 80.987 41.7901 80.8413 41.7909 80.6911C41.7929 80.2094 41.7934 79.7278 41.7936 79.2462C41.7943 78.9114 41.795 78.5767 41.7958 78.2419C41.7971 77.5404 41.7975 76.839 41.7974 76.1375C41.7974 75.238 41.8003 74.3385 41.8041 73.4391C41.8065 72.7479 41.8069 72.0567 41.8068 71.3655C41.8071 71.0338 41.8081 70.7021 41.8097 70.3705C41.8119 69.907 41.8112 69.4437 41.8099 68.9803C41.8102 68.7165 41.8106 68.4527 41.8109 68.1809C41.8059 67.4949 41.8059 67.4949 41.321 66.8816C41.1052 66.7377 40.8893 66.5939 40.667 66.4456Z" fill="#009FC7"/>
<path d="M1.88907 66.3298C2.05739 66.3287 2.22572 66.3276 2.39915 66.3264C2.57309 66.3298 2.74704 66.3332 2.92626 66.3366C3.09852 66.3333 3.27078 66.3299 3.44826 66.3264C4.90259 66.3361 5.70621 66.8004 6.74121 67.8354C7.30913 69.1023 7.14744 70.2998 7.09545 71.6776C8.24648 71.6776 9.3975 71.6776 10.5834 71.6776C10.5654 71.201 10.5474 70.7244 10.5289 70.2333C10.5314 68.9978 10.5449 68.2281 11.4554 67.3176C12.7142 66.1578 14.0637 66.3336 15.7046 66.3605C16.1301 66.3623 16.1301 66.3623 16.5641 66.3642C17.3146 66.3675 18.065 66.3761 18.8154 66.3858C19.5826 66.3947 20.3499 66.3987 21.1171 66.4031C22.6199 66.4124 24.1225 66.4272 25.6252 66.4456C25.4835 66.5947 25.3418 66.7438 25.1958 66.8975C24.6563 67.6753 24.6451 68.0873 24.6473 69.0263C24.6465 69.1718 24.6457 69.3173 24.6448 69.4671C24.6432 69.9455 24.6478 70.4235 24.6527 70.9018C24.6533 71.2354 24.6535 71.569 24.6533 71.9026C24.654 72.6006 24.6576 73.2985 24.6635 73.9965C24.6709 74.8906 24.6726 75.7845 24.6722 76.6787C24.6723 77.3671 24.6747 78.0555 24.6779 78.7439C24.6793 79.0735 24.6801 79.4032 24.6805 79.7329C24.6814 80.1936 24.6852 80.6542 24.6899 81.1149C24.6915 81.3769 24.6932 81.6389 24.6949 81.9089C24.7737 82.8122 24.9904 83.2506 25.6252 83.8854C23.7928 83.9056 21.9604 83.9211 20.1278 83.9306C19.2769 83.9351 18.4261 83.9413 17.5752 83.9512C16.7539 83.9607 15.9328 83.9659 15.1115 83.9681C14.7982 83.9697 14.485 83.9729 14.1718 83.9776C13.7329 83.9839 13.294 83.9843 12.8551 83.9844C12.6053 83.9863 12.3556 83.9883 12.0982 83.9903C11.3089 83.8615 11.047 83.6576 10.5834 83.0134C10.5834 82.7257 10.5834 82.4379 10.5834 82.1414C9.43238 82.1414 8.28136 82.1414 7.09545 82.1414C7.09545 82.7169 7.09545 83.2925 7.09545 83.8854C6.09634 83.9107 5.09732 83.9262 4.09799 83.9399C3.81417 83.9472 3.53035 83.9545 3.23792 83.962C2.96534 83.9649 2.69276 83.9677 2.41192 83.9706C2.16076 83.9751 1.90961 83.9797 1.65084 83.9844C0.823879 83.8602 0.623657 83.6723 0.119543 83.0134C0.00881441 82.3185 0.0088144 82.3185 0.00671213 81.4874C0.00518413 81.3356 0.00365613 81.1838 0.00208182 81.0274C-0.00174917 80.5267 0.000782378 80.0262 0.0037317 79.5255C0.00314417 79.1769 0.00229778 78.8283 0.00120366 78.4798C-8.12456e-05 77.7497 0.00178457 77.0197 0.00586058 76.2896C0.0108287 75.3541 0.00796783 74.4189 0.00274543 73.4835C-0.000406929 72.7638 0.000597961 72.0442 0.00285687 71.3246C0.00343818 70.9797 0.00272603 70.6348 0.000694725 70.29C-0.00152242 69.8077 0.00185869 69.3258 0.00671213 68.8436C0.00740588 68.5693 0.00809963 68.2951 0.0088144 68.0125C0.184539 66.9097 0.766457 66.3371 1.88907 66.3298Z" fill="#00A0C7"/>
<path d="M40.667 66.4456C42.922 66.4305 45.177 66.4189 47.4321 66.4117C48.4792 66.4083 49.5263 66.4037 50.5735 66.3963C51.5841 66.3892 52.5947 66.3853 53.6054 66.3836C53.9908 66.3824 54.3763 66.38 54.7617 66.3765C55.3019 66.3717 55.8419 66.3711 56.3821 66.3714C56.5413 66.369 56.7004 66.3667 56.8644 66.3643C57.8245 66.3701 58.4336 66.5078 59.1968 67.0996C59.5078 67.7216 59.4459 68.2532 59.4499 68.9486C59.4515 69.1661 59.4515 69.1661 59.4532 69.3881C59.4563 69.8688 59.4578 70.3495 59.459 70.8303C59.4603 71.1643 59.4615 71.4983 59.4628 71.8323C59.4651 72.5333 59.4664 73.2342 59.4671 73.9352C59.4683 74.8324 59.4735 75.7296 59.4798 76.6269C59.4838 77.3171 59.485 78.0074 59.4853 78.6977C59.4859 79.0284 59.4877 79.3591 59.4906 79.6898C59.4943 80.1532 59.4939 80.6164 59.4925 81.0798C59.4936 81.475 59.4936 81.475 59.4949 81.8782C59.4066 82.6487 59.2359 83.0588 58.7608 83.6674C57.9718 83.9304 57.2526 83.9142 56.4316 83.9101C56.2614 83.9102 56.0912 83.9102 55.9159 83.9102C55.3532 83.9101 54.7906 83.9084 54.2279 83.9067C53.8379 83.9063 53.4478 83.906 53.0577 83.9058C52.031 83.9049 51.0042 83.9028 49.9774 83.9004C48.9297 83.8981 47.8821 83.8971 46.8344 83.896C44.7786 83.8937 42.7228 83.89 40.667 83.8854C40.8064 83.791 40.9458 83.6966 41.0894 83.5993C41.5973 83.2505 41.5973 83.2505 41.757 82.5774C41.7787 82.0962 41.7871 81.6144 41.7886 81.1328C41.7894 80.987 41.7901 80.8412 41.7909 80.6911C41.7929 80.2094 41.7934 79.7278 41.7936 79.2461C41.7943 78.9114 41.795 78.5767 41.7958 78.2419C41.7971 77.5404 41.7975 76.8389 41.7974 76.1375C41.7974 75.238 41.8003 74.3385 41.8041 73.4391C41.8065 72.7479 41.8069 72.0567 41.8068 71.3655C41.8071 71.0338 41.8081 70.7021 41.8097 70.3705C41.8119 69.907 41.8112 69.4437 41.8099 68.9803C41.8102 68.7165 41.8106 68.4527 41.8109 68.1809C41.8059 67.4949 41.8059 67.4949 41.321 66.8816C41.1052 66.7377 40.8893 66.5939 40.667 66.4456Z" fill="#0A5077"/>
<path d="M68.7886 3.54962C68.9404 3.54809 69.0923 3.54656 69.2487 3.54499C69.7494 3.54116 70.2499 3.54369 70.7506 3.54664C71.0992 3.54605 71.4477 3.54521 71.7963 3.54411C72.5264 3.54283 73.2564 3.54469 73.9865 3.54877C74.9219 3.55374 75.8571 3.55088 76.7926 3.54565C77.5122 3.5425 78.2318 3.54351 78.9515 3.54576C79.2963 3.54635 79.6412 3.54563 79.9861 3.5436C80.4684 3.54139 80.9502 3.54477 81.4325 3.54962C81.8439 3.55066 81.8439 3.55066 82.2636 3.55172C82.9584 3.66245 82.9584 3.66245 83.4828 4.01012C83.9544 4.72144 83.9411 5.20935 83.9433 6.06042C83.9448 6.21224 83.9463 6.36405 83.9479 6.52047C83.9517 7.0212 83.9492 7.52166 83.9462 8.02239C83.9468 8.37096 83.9477 8.71953 83.9488 9.0681C83.9501 9.7982 83.9482 10.5282 83.9441 11.2583C83.9391 12.1937 83.942 13.1289 83.9472 14.0644C83.9504 14.784 83.9494 15.5036 83.9471 16.2233C83.9465 16.5681 83.9473 16.913 83.9493 17.2579C83.9515 17.7401 83.9481 18.222 83.9433 18.7043C83.9426 18.9785 83.9419 19.2528 83.9412 19.5354C83.8304 20.2302 83.8304 20.2302 83.4828 20.7545C82.7714 21.2262 82.2835 21.2129 81.4325 21.2151C81.2806 21.2166 81.1288 21.2181 80.9724 21.2197C80.4717 21.2235 79.9712 21.221 79.4705 21.218C79.1219 21.2186 78.7734 21.2195 78.4248 21.2206C77.6947 21.2218 76.9647 21.22 76.2346 21.2159C75.2992 21.2109 74.3639 21.2138 73.4285 21.219C72.7089 21.2222 71.9893 21.2212 71.2696 21.2189C70.9247 21.2183 70.5799 21.219 70.235 21.2211C69.7527 21.2233 69.2708 21.2199 68.7886 21.2151C68.5144 21.2144 68.2401 21.2137 67.9575 21.2129C67.2626 21.1022 67.2626 21.1022 66.7383 20.7545C66.2667 20.0432 66.28 19.5553 66.2778 18.7043C66.2763 18.5524 66.2748 18.4006 66.2732 18.2442C66.2694 17.7435 66.2719 17.243 66.2748 16.7423C66.2743 16.3937 66.2734 16.0451 66.2723 15.6966C66.271 14.9665 66.2729 14.2365 66.277 13.5064C66.2819 12.5709 66.2791 11.6357 66.2739 10.7003C66.2707 9.98066 66.2717 9.26106 66.274 8.54141C66.2746 8.19654 66.2738 7.85165 66.2718 7.50678C66.2696 7.02453 66.273 6.54264 66.2778 6.06042C66.2785 5.78615 66.2792 5.51188 66.2799 5.2293C66.3907 4.53444 66.3907 4.53444 66.7383 4.01012C67.4496 3.53845 67.9376 3.55177 68.7886 3.54962Z" fill="#C80A4F"/>
<path d="M2.51751 3.54962C2.66933 3.54809 2.82115 3.54656 2.97756 3.54499C3.47829 3.54116 3.97875 3.54369 4.47949 3.54664C4.82805 3.54605 5.17662 3.54521 5.52519 3.54411C6.25529 3.54283 6.98529 3.54469 7.71538 3.54877C8.65082 3.55374 9.58603 3.55088 10.5215 3.54565C11.2411 3.5425 11.9607 3.54351 12.6804 3.54576C13.0252 3.54635 13.3701 3.54563 13.715 3.5436C14.1972 3.54139 14.6791 3.54477 15.1613 3.54962C15.5727 3.55066 15.5727 3.55066 15.9925 3.55172C16.6873 3.66245 16.6873 3.66245 17.2116 4.01012C17.6833 4.72144 17.67 5.20935 17.6721 6.06042C17.6737 6.21224 17.6752 6.36405 17.6768 6.52047C17.6806 7.0212 17.6781 7.52166 17.6751 8.02239C17.6757 8.37096 17.6766 8.71953 17.6777 9.0681C17.6789 9.7982 17.6771 10.5282 17.673 11.2583C17.668 12.1937 17.6709 13.1289 17.6761 14.0644C17.6793 14.784 17.6783 15.5036 17.676 16.2233C17.6754 16.5681 17.6761 16.913 17.6782 17.2579C17.6804 17.7401 17.677 18.222 17.6721 18.7043C17.6715 18.9785 17.6708 19.2528 17.67 19.5354C17.5593 20.2302 17.5593 20.2302 17.2116 20.7545C16.5003 21.2262 16.0124 21.2129 15.1613 21.2151C15.0095 21.2166 14.8577 21.2181 14.7013 21.2197C14.2006 21.2235 13.7001 21.221 13.1994 21.218C12.8508 21.2186 12.5022 21.2195 12.1537 21.2206C11.4236 21.2218 10.6936 21.22 9.96348 21.2159C9.02804 21.2109 8.09283 21.2138 7.1574 21.219C6.43775 21.2222 5.71816 21.2212 4.99851 21.2189C4.65363 21.2183 4.30874 21.219 3.96387 21.2211C3.48163 21.2233 2.99973 21.2199 2.51751 21.2151C2.24324 21.2144 1.96898 21.2137 1.6864 21.2129C0.991531 21.1022 0.991531 21.1022 0.467215 20.7545C-0.00445505 20.0432 0.00886488 19.5553 0.00671213 18.7043C0.00518413 18.5524 0.00365613 18.4006 0.00208182 18.2442C-0.00174917 17.7435 0.000782378 17.243 0.0037317 16.7423C0.00314417 16.3937 0.00229778 16.0451 0.00120366 15.6966C-8.12456e-05 14.9665 0.00178457 14.2365 0.00586058 13.5064C0.0108287 12.5709 0.00796783 11.6357 0.00274543 10.7003C-0.000406929 9.98066 0.000597961 9.26106 0.00285687 8.54141C0.00343818 8.19654 0.00272603 7.85165 0.000694725 7.50678C-0.00152242 7.02453 0.00185869 6.54264 0.00671213 6.06042C0.00740588 5.78615 0.00809963 5.51188 0.0088144 5.2293C0.119543 4.53444 0.119543 4.53444 0.467215 4.01012C1.17853 3.53845 1.66644 3.55177 2.51751 3.54962Z" fill="#009FC7"/>
<path d="M35.8323 48.8718C35.9774 48.8706 36.1226 48.8693 36.2721 48.8681C36.7494 48.8655 37.2263 48.8708 37.7036 48.8764C38.0367 48.8768 38.3698 48.8768 38.7028 48.8764C39.3999 48.8768 40.0969 48.8808 40.794 48.8877C41.6861 48.8964 42.5781 48.8973 43.4702 48.8957C44.1577 48.895 44.8452 48.8977 45.5326 48.9014C45.8615 48.9029 46.1904 48.9036 46.5193 48.9034C46.9795 48.9038 47.4395 48.9085 47.8997 48.9143C48.2919 48.9171 48.2919 48.9171 48.6921 48.9199C49.4527 49.014 49.8671 49.2035 50.4769 49.6599C50.7879 50.2819 50.7261 50.8135 50.73 51.5089C50.7316 51.7264 50.7316 51.7264 50.7333 51.9483C50.7365 52.4291 50.738 52.9098 50.7392 53.3905C50.7404 53.7245 50.7417 54.0585 50.7429 54.3925C50.7452 55.0935 50.7465 55.7945 50.7472 56.4954C50.7484 57.3927 50.7537 58.2899 50.7599 59.1871C50.7639 59.8774 50.7651 60.5677 50.7654 61.258C50.7661 61.5887 50.7678 61.9194 50.7707 62.2501C50.7744 62.7135 50.774 63.1767 50.7726 63.6401C50.7738 64.0353 50.7738 64.0353 50.775 64.4385C50.6867 65.209 50.516 65.6191 50.0409 66.2277C49.2994 66.4748 48.7277 66.4764 47.9457 66.4808C47.8003 66.4819 47.6549 66.4829 47.5051 66.4841C47.0245 66.4872 46.5439 66.4887 46.0633 66.4899C45.7291 66.4912 45.3949 66.4924 45.0606 66.4937C44.3601 66.496 43.6595 66.4973 42.9589 66.498C42.0614 66.4992 41.1639 66.5045 40.2664 66.5107C39.5762 66.5147 38.8859 66.5159 38.1956 66.5162C37.8647 66.5169 37.5339 66.5186 37.203 66.5215C36.7401 66.5252 36.2774 66.5248 35.8145 66.5234C35.5512 66.5242 35.2879 66.5249 35.0166 66.5258C34.2844 66.4384 33.9863 66.3124 33.4731 65.7917C33.2268 65.0528 33.2214 64.4791 33.2131 63.6999C33.2113 63.5549 33.2095 63.4098 33.2077 63.2604C33.2022 62.7808 33.1986 62.3013 33.1955 61.8217C33.1943 61.6577 33.1932 61.4938 33.192 61.3248C33.1862 60.4571 33.1819 59.5894 33.1788 58.7217C33.1759 58.004 33.1698 57.2864 33.1609 56.5687C33.1501 55.7015 33.1447 54.8344 33.1432 53.9671C33.1417 53.637 33.1384 53.3069 33.1332 52.9768C33.1263 52.5144 33.1263 52.0525 33.1279 51.59C33.1261 51.3272 33.1244 51.0644 33.1226 50.7936C33.4154 49.2521 34.3759 48.8693 35.8323 48.8718Z" fill="#EFEFEF"/>
<path d="M40.5614 0.385692C40.7087 0.468872 40.8559 0.552051 41.0076 0.637751C41.7064 1.12673 41.7064 1.12673 42.3429 0.910248C42.5092 0.811332 42.6756 0.712415 42.847 0.610502C44.2735 -0.0726146 45.9992 -0.0753092 47.522 0.309052C48.8416 0.893835 49.8896 2.02971 50.5152 3.31843C50.955 4.69416 50.8637 6.28427 50.2802 7.606C49.508 8.94967 48.55 9.94442 47.0886 10.5021C45.7228 10.8495 44.4511 10.8599 43.1876 10.2024C43.0575 10.1214 42.9274 10.0405 42.7933 9.95713C42.3522 9.7015 42.3522 9.7015 41.539 9.76638C41.0992 9.95493 41.0992 9.95493 40.6534 10.2024C39.3537 10.8009 38.0854 10.8819 36.7005 10.5098C35.1887 9.86652 34.0226 8.55034 33.3641 7.06867C33.1162 5.27159 32.9837 3.64621 34.1271 2.13648C35.8373 0.329841 38.0889 -0.566472 40.5614 0.385692Z" fill="#00325A"/>
<path d="M81.0238 66.3366C81.1977 66.3333 81.3716 66.3299 81.5509 66.3264C81.7192 66.3275 81.8875 66.3287 82.0609 66.3298C82.2124 66.3308 82.3639 66.3318 82.52 66.3328C83.1715 66.5005 83.4144 66.7928 83.8305 67.3176C83.9412 68.0125 83.9412 68.0125 83.9433 68.8436C83.9448 68.9954 83.9464 69.1472 83.9479 69.3037C83.9518 69.8044 83.9492 70.3048 83.9463 70.8056C83.9469 71.1541 83.9477 71.5027 83.9488 71.8513C83.9501 72.5814 83.9482 73.3114 83.9441 74.0415C83.9392 74.9769 83.942 75.9121 83.9473 76.8475C83.9504 77.5672 83.9494 78.2868 83.9471 79.0064C83.9466 79.3513 83.9473 79.6962 83.9493 80.0411C83.9515 80.5233 83.9481 81.0052 83.9433 81.4874C83.9423 81.8988 83.9423 81.8988 83.9412 82.3185C83.8305 83.0134 83.8305 83.0134 83.4762 83.5395C82.7926 83.9962 82.3564 83.9854 81.5381 83.9706C81.2655 83.9677 80.9929 83.9649 80.7121 83.962C80.4283 83.9547 80.1444 83.9474 79.852 83.9399C79.5648 83.936 79.2776 83.932 78.9817 83.928C78.2725 83.9177 77.5636 83.9034 76.8546 83.8854C76.8343 81.9184 76.8188 79.9514 76.8094 77.9843C76.8048 77.0708 76.7987 76.1574 76.7888 75.244C76.7793 74.362 76.7741 73.48 76.7718 72.5979C76.7702 72.2619 76.7671 71.9259 76.7624 71.59C76.756 71.1182 76.7552 70.6467 76.7556 70.1749C76.7536 69.9067 76.7517 69.6385 76.7497 69.3622C76.9124 68.2189 77.4567 67.5536 78.3107 66.8067C79.2496 66.3384 79.9899 66.3164 81.0238 66.3366Z" fill="#F0C89F"/>
<path d="M1.88907 66.3298C2.05739 66.3287 2.22572 66.3276 2.39915 66.3264C2.57309 66.3298 2.74704 66.3332 2.92626 66.3366C3.09852 66.3333 3.27078 66.3299 3.44826 66.3264C4.61755 66.3342 5.31472 66.5228 6.22346 67.3176C6.99929 68.2977 7.20343 68.9308 7.19444 70.1749C7.19457 70.3239 7.1947 70.473 7.19483 70.6265C7.19423 71.1149 7.18746 71.603 7.18061 72.0914C7.17898 72.4317 7.17774 72.7719 7.17687 73.1122C7.17355 74.0046 7.16499 74.8969 7.15533 75.7893C7.14638 76.7011 7.14242 77.613 7.13803 78.5249C7.1287 80.3118 7.11383 82.0986 7.09545 83.8854C6.09634 83.9107 5.09732 83.9262 4.09799 83.9399C3.81417 83.9472 3.53035 83.9545 3.23792 83.962C2.96534 83.9649 2.69276 83.9677 2.41192 83.9706C2.16076 83.9751 1.90961 83.9797 1.65084 83.9844C0.991531 83.8854 0.991531 83.8854 0.473815 83.5395C-0.00585535 82.8272 0.00887757 82.3435 0.00671213 81.4874C0.00518413 81.3356 0.00365613 81.1838 0.00208182 81.0274C-0.00174917 80.5267 0.000782378 80.0262 0.0037317 79.5255C0.00314417 79.1769 0.00229778 78.8283 0.00120366 78.4798C-8.12456e-05 77.7497 0.00178457 77.0197 0.00586058 76.2896C0.0108287 75.3541 0.00796783 74.4189 0.00274543 73.4835C-0.000406929 72.7638 0.000597961 72.0442 0.00285687 71.3246C0.00343818 70.9797 0.00272603 70.6348 0.000694725 70.29C-0.00152242 69.8077 0.00185869 69.3258 0.00671213 68.8436C0.00740588 68.5693 0.00809963 68.2951 0.0088144 68.0125C0.184539 66.9097 0.766457 66.3371 1.88907 66.3298Z" fill="#F0C8A0"/>
<path d="M77.5903 7.58641C78.9883 8.37759 79.8403 9.56103 80.3425 11.0744C80.5692 12.9856 80.3166 14.3471 79.1418 15.8567C78.0849 17.0365 76.9886 17.4893 75.4342 17.6824C74.1259 17.7466 73.1135 17.5356 72.0586 16.7423C70.9312 15.6708 70.0107 14.6734 69.7977 13.0883C69.7608 11.4594 69.9856 10.2225 70.9686 8.8944C72.8066 7.10831 75.1925 6.50904 77.5903 7.58641Z" fill="#F9B200"/>
<path d="M53.1746 70.3696C54.5727 71.1607 55.4246 72.3442 55.9268 73.8575C56.1168 75.4586 56.0664 76.9138 55.0548 78.2175C53.6869 79.7016 52.521 80.3739 50.4905 80.4792C49.0917 80.439 48.1752 80.0313 47.1627 79.069C45.8126 77.6121 45.3403 76.5371 45.3821 74.5413C45.5364 73.237 46.0308 72.1849 46.9753 71.2671C48.8289 69.8137 50.9661 69.3772 53.1746 70.3696Z" fill="#F8B300"/>
<path d="M35.7348 70.3696C37.1367 71.163 37.9779 72.3437 38.4871 73.8576C38.694 75.4457 38.5298 76.8808 37.6151 78.2175C36.4993 79.4455 35.4759 80.2893 33.7933 80.4503C32.402 80.5153 31.3249 80.3845 30.2032 79.5255C29.0763 78.4527 28.1554 77.4575 27.9423 75.8715C27.9053 74.2426 28.1301 73.0057 29.1132 71.6776C30.9511 69.8915 33.3371 69.2922 35.7348 70.3696Z" fill="#EFEFEE"/>
<path d="M11.2868 7.59494C12.7724 8.3999 13.5383 9.47963 14.0714 11.0744C14.3269 12.6544 14.1099 14.1037 13.1994 15.4343C12.0836 16.6623 11.0602 17.5061 9.3776 17.6671C7.9851 17.7321 6.9108 17.6003 5.78746 16.7423C4.35417 15.4007 3.62556 14.3035 3.51212 12.3279C3.54721 10.8108 4.02209 9.55209 5.11984 8.48311C6.95725 7.0459 9.10032 6.62219 11.2868 7.59494Z" fill="#C60A50"/>
<path d="M44.2503 52.8617C45.6241 53.6723 46.6998 54.8964 47.2069 56.4177C47.3837 58.3317 47.0724 59.7582 45.8717 61.2682C44.86 62.3502 43.6758 62.9866 42.1794 63.0394C40.0956 62.8409 39.0418 62.3352 37.615 60.7777C36.769 59.4028 36.5466 58.0126 36.7431 56.4177C37.2476 54.8096 38.1112 53.7515 39.577 52.9298C41.0247 52.2427 42.7849 52.1735 44.2503 52.8617Z" fill="#D1D1D1"/>
<path d="M70.5643 21.0033C70.9701 21.0033 70.9701 21.0033 71.3841 21.0035C71.6782 21.0079 71.9723 21.0125 72.2664 21.0171C72.5682 21.0187 72.8699 21.02 73.1717 21.0208C73.9645 21.0242 74.7572 21.0327 75.5499 21.0424C76.3595 21.0513 77.169 21.0553 77.9786 21.0597C79.5659 21.069 81.1532 21.0839 82.7405 21.1022C82.339 23.0428 81.4512 24.2032 80.0598 25.5695C79.9304 25.6983 79.801 25.8271 79.6676 25.9598C79.2578 26.3672 78.8464 26.7731 78.435 27.1789C78.1553 27.4564 77.8757 27.734 77.5962 28.0117C76.9142 28.689 76.2307 29.3649 75.5466 30.0401C74.9029 29.7502 74.4514 29.4346 73.9552 28.9343C73.82 28.799 73.6848 28.6638 73.5454 28.5244C73.4021 28.3788 73.2588 28.2332 73.1111 28.0833C72.9624 27.9339 72.8136 27.7845 72.6603 27.6306C72.1862 27.1541 71.7137 26.676 71.2411 26.1979C70.9196 25.8742 70.598 25.5506 70.2763 25.2272C69.4886 24.4347 68.7023 23.6408 67.9167 22.8462C68.4881 21.5129 69.0995 20.9913 70.5643 21.0033Z" fill="#EFC59F"/>
<path d="M1.42752 21.1022C3.13871 21.0719 4.84983 21.0486 6.56121 21.0344C7.35598 21.0276 8.15057 21.0184 8.94523 21.0035C9.71276 20.9893 10.4801 20.9815 11.2478 20.9781C11.6818 20.9745 12.1158 20.9643 12.5497 20.954C14.7509 20.9532 14.7509 20.9532 15.5691 21.7642C15.7223 21.9774 15.8755 22.1906 16.0333 22.4102C15.7434 23.0539 15.4278 23.5053 14.9275 24.0015C14.7246 24.2044 14.7246 24.2044 14.5176 24.4113C14.2992 24.6263 14.2992 24.6263 14.0765 24.8456C13.8524 25.0688 13.8524 25.0688 13.6238 25.2964C13.1473 25.7705 12.6692 26.2431 12.1911 26.7156C11.8674 27.0371 11.5438 27.3587 11.2204 27.6805C10.4279 28.4682 9.634 29.2545 8.83942 30.0401C7.96867 29.6365 7.35125 29.0657 6.67308 28.3983C6.55057 28.2783 6.42807 28.1583 6.30185 28.0346C6.04328 27.7802 5.78532 27.5251 5.52795 27.2694C5.13779 26.8834 4.74323 26.5024 4.34834 26.1213C1.81991 23.6393 1.81991 23.6393 1.42752 21.7562C1.42752 21.5404 1.42752 21.3246 1.42752 21.1022Z" fill="#EFC69F"/>
<path d="M38.8549 24.4454C39.1024 24.4444 39.3499 24.4434 39.6049 24.4423C40.1275 24.4415 40.6501 24.4436 41.1726 24.4481C41.9722 24.4539 42.7712 24.4482 43.5708 24.4412C44.0789 24.4419 44.587 24.4433 45.0951 24.4454C45.334 24.4432 45.5729 24.441 45.8191 24.4388C47.4697 24.4642 47.4697 24.4642 48.3446 25.1008C48.7329 25.6802 48.7329 25.6802 48.7738 26.3751C48.1863 28.2611 47.2065 29.7272 45.4629 30.6941C43.6957 31.5655 41.8432 31.9575 39.9091 31.4145C39.4056 31.2086 38.9538 30.9733 38.487 30.6941C38.3345 30.6042 38.1819 30.5143 38.0246 30.4216C36.5367 29.4316 35.7026 28.065 35.1762 26.3751C35.2171 25.6802 35.2171 25.6802 35.6054 25.1008C36.6513 24.3397 37.5916 24.4338 38.8549 24.4454Z" fill="#C80B50"/>
<path d="M27.5872 34.1821C28.7709 34.6151 29.2799 35.2773 30.0226 36.2752C31.7692 38.5666 34.2549 40.1905 36.9611 41.158C37.2287 41.2553 37.2287 41.2553 37.5018 41.3547C41.5883 42.6054 45.9136 41.8319 49.6516 39.9397C51.8147 38.7633 53.4509 37.047 54.8769 35.0532C55.3337 34.5511 55.722 34.3854 56.3628 34.1821C55.3601 37.5595 52.6089 40.1635 49.6364 41.8878C45.7198 43.9458 41.4378 44.3588 37.1791 43.12C33.0121 41.7121 29.79 38.9692 27.8052 35.0541C27.6511 34.5363 27.6511 34.5363 27.5872 34.1821Z" fill="#A2032A"/>
<path d="M73.3666 71.6776C74.5176 71.6776 75.6686 71.6776 76.8545 71.6776C76.8545 75.1306 76.8545 78.5837 76.8545 82.1414C75.7035 82.1414 74.5525 82.1414 73.3666 82.1414C73.3666 78.6883 73.3666 75.2353 73.3666 71.6776Z" fill="#00325A"/>
<path d="M7.09546 71.6776C8.24648 71.6776 9.39751 71.6776 10.5834 71.6776C10.5834 75.1306 10.5834 78.5837 10.5834 82.1414C9.43239 82.1414 8.28136 82.1414 7.09546 82.1414C7.09546 78.6883 7.09546 75.2353 7.09546 71.6776Z" fill="#00325A"/>
<path d="M33.2551 6.27844C33.5231 6.81435 33.791 7.35026 34.059 7.88617C34.7761 9.13042 35.8187 9.97101 37.1791 10.4204C38.7792 10.6539 39.8985 10.3856 41.258 9.52626C41.757 9.3304 41.757 9.3304 42.3293 9.4939C42.7001 9.6891 43.0629 9.90004 43.4192 10.1206C44.7857 10.6774 46.2133 10.6223 47.5884 10.0934C48.7598 9.49825 49.7165 8.57338 50.2316 7.35225C50.3719 6.89763 50.3719 6.89763 50.4769 6.27844C50.5488 6.27844 50.6208 6.27844 50.6949 6.27844C50.8062 7.78675 50.7509 8.96512 49.8229 10.2024C48.583 11.5293 47.5602 12.2998 45.7218 12.4505C44.5088 12.4203 43.3814 11.9977 42.3063 11.4559C41.7603 11.232 41.7603 11.232 41.258 11.4882C41.0059 11.6476 41.0059 11.6476 40.7488 11.8101C39.4003 12.5425 38.1858 12.6551 36.7013 12.2529C35.2778 11.6512 34.1067 10.385 33.4254 9.01363C33.2406 8.41102 33.2111 7.92875 33.2279 7.3003C33.2318 7.10781 33.2357 6.91532 33.2398 6.71699C33.2449 6.57227 33.2499 6.42755 33.2551 6.27844Z" fill="#CEA881"/>
<path d="M72.2877 20.9958C72.5891 20.9978 72.8906 20.9994 73.1921 21.0005C73.9831 21.0046 74.7739 21.0153 75.5649 21.0274C76.373 21.0386 77.1811 21.0435 77.9892 21.049C79.5731 21.0607 81.1567 21.0793 82.7405 21.1022C82.5966 21.6777 82.4527 22.2533 82.3045 22.8462C77.6284 22.9181 72.9524 22.9901 68.1346 23.0642C68.1346 22.1922 68.1346 22.1922 68.4882 21.5994C69.4883 20.6883 71.0247 20.9708 72.2877 20.9958Z" fill="#D2AA82"/>
<path d="M8.83942 57.0717C9.38442 57.535 9.38442 57.535 9.71141 58.1617C9.77067 59.2086 9.48072 59.7831 8.8258 60.5597C8.5438 60.8544 8.25751 61.145 7.96743 61.4317C7.75583 61.6543 7.75583 61.6543 7.53996 61.8813C6.8388 62.5686 6.30486 63.0533 5.29697 63.1075C4.47948 62.9577 4.47948 62.9577 3.93449 62.6307C3.56662 62.0176 3.44419 61.5267 3.48146 60.8092C3.73563 59.8664 4.45201 59.262 5.13347 58.5977C5.27145 58.4522 5.40942 58.3066 5.55158 58.1566C6.62572 57.0344 7.23543 56.6778 8.83942 57.0717Z" fill="#FAB300"/>
<path d="M79.4705 35.054C80.0155 35.381 80.0155 35.381 80.3425 35.926C80.509 36.8344 80.5564 37.3308 80.0606 38.1171C79.6685 38.5792 79.2557 38.9964 78.8165 39.414C78.6726 39.5596 78.5288 39.7051 78.3805 39.8551C77.6879 40.518 77.1918 40.9016 76.2687 41.1988C75.5466 41.158 75.5466 41.158 74.9198 40.831C74.3182 40.1231 74.2386 39.6836 74.2386 38.76C74.6949 37.8242 75.3677 37.1356 76.1052 36.4165C76.213 36.3089 76.3207 36.2013 76.4318 36.0904C77.4067 35.1273 78.0899 34.8658 79.4705 35.054Z" fill="#FAB300"/>
<path d="M76.6382 56.921C77.5394 57.2338 78.1585 57.932 78.8165 58.5977C79.0391 58.8093 79.0391 58.8093 79.2661 59.0252C79.9534 59.7264 80.4381 60.2603 80.4924 61.2682C80.3425 62.0857 80.3425 62.0857 80.0155 62.6307C79.4023 62.9986 78.9117 63.1215 78.194 63.0828C77.2448 62.8287 76.6423 62.1257 75.9825 61.4317C75.837 61.2878 75.6914 61.1439 75.5414 60.9957C74.8785 60.303 74.495 59.807 74.1977 58.8838C74.2479 57.9964 74.4808 57.6835 75.1106 57.0717C75.6493 56.8024 76.0505 56.8247 76.6382 56.921Z" fill="#FAB300"/>
<path d="M5.75595 34.9288C6.70516 35.183 7.30764 35.886 7.96743 36.58C8.11299 36.7239 8.25856 36.8678 8.40853 37.016C9.07144 37.7087 9.45501 38.2047 9.75228 39.1278C9.71141 39.85 9.71141 39.85 9.38441 40.4767C8.66902 41.0848 8.24934 41.1741 7.31344 41.1579C5.93445 40.5144 4.28425 39.0235 3.60749 37.67C3.48351 36.1326 3.48351 36.1326 3.93448 35.381C4.5477 35.0131 5.0383 34.8902 5.75595 34.9288Z" fill="#FAB300"/>
<path d="M1.42752 21.1022C3.13871 21.0719 4.84983 21.0486 6.56121 21.0344C7.35598 21.0276 8.15057 21.0184 8.94523 21.0035C9.71276 20.9893 10.4801 20.9815 11.2478 20.9781C11.6818 20.9745 12.1158 20.9643 12.5497 20.954C14.7509 20.9532 14.7509 20.9532 15.5691 21.7642C15.7223 21.9774 15.8755 22.1906 16.0333 22.4102C15.9614 22.626 15.8895 22.8418 15.8153 23.0642C8.90918 22.9563 8.90918 22.9563 1.86352 22.8462C1.42752 21.7562 1.42752 21.7562 1.42752 21.1022Z" fill="#D2AA82"/>
<path d="M37.4293 24.4986C37.6527 24.4951 37.8761 24.4917 38.1062 24.4881C38.3463 24.4881 38.5863 24.488 38.8336 24.488C39.0814 24.4863 39.3292 24.4847 39.5845 24.4829C40.1084 24.4806 40.6323 24.48 41.1562 24.4809C41.9577 24.4812 42.7587 24.4721 43.5601 24.4624C44.0692 24.4613 44.5783 24.4607 45.0874 24.4607C45.4468 24.4554 45.4468 24.4554 45.8135 24.4499C47.4725 24.4649 47.4725 24.4649 48.3434 25.1049C48.7695 25.7342 48.839 26.0271 48.7329 26.7701C47.8609 26.7701 47.8609 26.7701 47.4249 26.5521C47.0734 26.5303 46.7209 26.522 46.3687 26.5205C46.1489 26.5191 45.9292 26.5177 45.7028 26.5162C45.4646 26.516 45.2264 26.5158 44.981 26.5155C44.6148 26.5144 44.6148 26.5144 44.2413 26.5133C43.7242 26.5122 43.207 26.5117 42.6899 26.5117C41.898 26.5113 41.1063 26.5073 40.3145 26.5032C39.8126 26.5025 39.3108 26.5021 38.8089 26.5019C38.5716 26.5003 38.3343 26.4988 38.0898 26.4971C37.7581 26.4981 37.7581 26.4981 37.4197 26.4992C37.2255 26.4989 37.0312 26.4986 36.8311 26.4982C36.2726 26.5557 35.9162 26.7063 35.4351 26.9881C35.3631 26.9162 35.2912 26.8442 35.2171 26.7701C35.2941 25.3827 35.2941 25.3827 35.812 24.8735C36.398 24.5381 36.757 24.5049 37.4293 24.4986Z" fill="#A10229"/>
<path d="M49.8229 17.6143C51.032 18.0471 51.8684 18.8714 52.4389 20.0122C52.4596 20.3342 52.4672 20.657 52.4661 20.9796C52.467 21.2355 52.467 21.2355 52.4678 21.4965C52.4389 21.9742 52.4389 21.9742 52.2209 22.6282C51.6685 22.3733 51.2544 22.1157 50.7766 21.729C49.7853 21.1783 48.9724 21.1377 47.8609 21.3202C47.0863 21.7287 46.4837 22.1964 45.8989 22.8462C45.3642 21.9009 45.3127 21.0789 45.463 20.0122C46.4246 18.1245 47.7751 17.3726 49.8229 17.6143Z" fill="#06193E"/>
<path d="M36.0891 17.6143C37.1737 18.1259 37.977 18.9239 38.487 20.0122C38.6324 20.8959 38.5528 21.777 38.269 22.6282C37.7167 22.3733 37.3026 22.1157 36.8248 21.729C35.8347 21.1789 35.0196 21.1358 33.9091 21.3202C33.1751 21.7003 33.1751 21.7003 32.6011 22.1922C32.3135 22.3436 32.0242 22.492 31.7291 22.6282C31.4457 21.7779 31.3882 20.8965 31.5111 20.0122C32.5501 18.0112 33.9352 17.382 36.0891 17.6143Z" fill="#06183E"/>
<path d="M78.9255 47.1461C79.1548 47.145 79.3841 47.1439 79.6204 47.1427C79.8587 47.1461 80.097 47.1494 80.3425 47.1529C80.6999 47.1479 80.6999 47.1479 81.0646 47.1427C81.2939 47.1438 81.5232 47.1449 81.7595 47.1461C82.0731 47.1476 82.0731 47.1476 82.393 47.1491C83.1139 47.2929 83.3746 47.5695 83.8304 48.1339C83.9462 48.5699 83.9462 48.5699 83.9394 49.0059C83.9417 49.1498 83.9439 49.2937 83.9462 49.4419C83.7773 50.078 83.4618 50.3342 82.9584 50.7499C82.393 50.8627 82.393 50.8627 81.7595 50.8657C81.5301 50.8668 81.3008 50.8679 81.0646 50.8691C80.8263 50.8657 80.588 50.8623 80.3425 50.8589C79.985 50.8639 79.985 50.8639 79.6204 50.8691C79.3911 50.868 79.1617 50.8668 78.9255 50.8657C78.7164 50.8647 78.5073 50.8637 78.2919 50.8627C77.5711 50.7189 77.3103 50.4422 76.8545 49.8779C76.7387 49.4419 76.7387 49.4419 76.7455 49.0059C76.7421 48.7901 76.7421 48.7901 76.7387 48.5699C77.0393 47.4383 77.8484 47.1512 78.9255 47.1461Z" fill="#FAB300"/>
<path d="M2.19051 47.1461C2.41981 47.145 2.64912 47.1439 2.88537 47.1427C3.12367 47.1461 3.36197 47.1494 3.60749 47.1529C3.96494 47.1479 3.96494 47.1479 4.3296 47.1427C4.55891 47.1438 4.78822 47.1449 5.02447 47.1461C5.33808 47.1476 5.33808 47.1476 5.65802 47.1491C6.37888 47.2929 6.63963 47.5695 7.09544 48.1339C7.21125 48.5699 7.21125 48.5699 7.20444 49.0059C7.20669 49.1498 7.20894 49.2937 7.21125 49.4419C7.04229 50.078 6.7268 50.3342 6.22345 50.7499C5.65802 50.8627 5.65802 50.8627 5.02447 50.8657C4.79516 50.8668 4.56586 50.8679 4.3296 50.8691C4.09131 50.8657 3.85301 50.8623 3.60749 50.8589C3.25004 50.8639 3.25004 50.8639 2.88537 50.8691C2.65607 50.868 2.42676 50.8668 2.19051 50.8657C1.98143 50.8647 1.77236 50.8637 1.55695 50.8627C0.836094 50.7189 0.575347 50.4422 0.119534 49.8779C0.00372314 49.4419 0.00372314 49.4419 0.0105356 49.0059C0.00716341 48.7901 0.00716341 48.7901 0.00372314 48.5699C0.304307 47.4383 1.1134 47.1512 2.19051 47.1461Z" fill="#FAB300"/>
<path d="M35.7348 70.3696C37.1277 71.1579 37.9941 72.3448 38.487 73.8576C38.5296 74.4886 38.5296 74.4886 38.5143 75.1247C38.5103 75.3374 38.5064 75.5501 38.5024 75.7693C38.4973 75.9298 38.4922 76.0902 38.487 76.2555C38.4151 76.2555 38.3432 76.2555 38.269 76.2555C38.2395 76.1341 38.21 76.0127 38.1796 75.8877C37.703 74.1982 36.8803 73.0273 35.3669 72.1136C33.7124 71.6649 31.9424 71.6893 30.4211 72.5496C29.0635 73.6782 28.4621 74.7341 28.2412 76.4735C28.1692 76.4735 28.0973 76.4735 28.0232 76.4735C27.8809 74.6341 27.9907 73.1939 29.1132 71.6776C30.9511 69.8915 33.337 69.2922 35.7348 70.3696Z" fill="#D4D2CD"/>
<path d="M77.5903 7.58641C78.9799 8.37284 79.8555 9.5621 80.3425 11.0744C80.3851 11.7531 80.3851 11.7531 80.3698 12.4505C80.3658 12.6834 80.3619 12.9164 80.3578 13.1564C80.3528 13.3326 80.3477 13.5088 80.3425 13.6903C80.2706 13.6903 80.1986 13.6903 80.1245 13.6903C80.1038 13.5082 80.1038 13.5082 80.0828 13.3225C79.8197 11.6833 79.0842 10.6618 77.7512 9.68208C76.4505 8.93013 75.1659 8.94269 73.7174 9.20777C72.2862 9.59721 71.2447 10.4399 70.4994 11.7258C70.2309 12.3632 70.1755 13.007 70.0966 13.6903C70.0247 13.6903 69.9528 13.6903 69.8786 13.6903C69.7364 11.8509 69.8462 10.4107 70.9686 8.8944C72.8066 7.10831 75.1925 6.50904 77.5903 7.58641Z" fill="#DC9302"/>
<path d="M53.1746 70.3696C54.5643 71.156 55.4399 72.3453 55.9268 73.8576C55.9694 74.5363 55.9694 74.5363 55.9541 75.2337C55.9501 75.4666 55.9462 75.6996 55.9421 75.9396C55.9371 76.1158 55.932 76.292 55.9268 76.4735C55.8549 76.4735 55.7829 76.4735 55.7088 76.4735C55.6882 76.2914 55.6882 76.2914 55.6671 76.1057C55.4033 74.462 54.6648 73.4684 53.3509 72.4653C52.1116 71.7279 50.7902 71.7138 49.3869 71.8956C47.9552 72.2845 46.8982 73.2716 46.1169 74.5116C45.8905 75.1608 45.7584 75.7911 45.681 76.4735C45.609 76.4735 45.5371 76.4735 45.463 76.4735C45.3207 74.6341 45.4305 73.1939 46.5529 71.6776C48.3909 69.8915 50.7768 69.2922 53.1746 70.3696Z" fill="#D69503"/>
<path d="M11.2868 7.59491C12.771 8.39911 13.5297 9.48458 14.0714 11.0743C14.1512 11.7596 14.1272 12.3438 14.0714 13.0363C13.6354 12.3823 13.6354 12.3823 13.2675 11.6602C12.5577 10.4102 11.5138 9.55503 10.1474 9.11237C8.54668 8.92249 7.0946 8.97801 5.78746 9.98436C4.82474 10.8804 4.12035 11.7258 3.82549 13.0363C3.75355 13.0363 3.68161 13.0363 3.60749 13.0363C3.47547 11.3993 3.7404 10.2495 4.69748 8.89438C6.51586 7.11632 8.9124 6.53855 11.2868 7.59491Z" fill="#9E042D"/>
<path d="M44.2503 52.8617C45.6241 53.6723 46.6998 54.8965 47.2069 56.4178C47.2216 56.7581 47.2255 57.099 47.2205 57.4396C47.2186 57.6158 47.2166 57.792 47.2146 57.9736C47.212 58.1076 47.2095 58.2417 47.2069 58.3798C46.7709 57.7258 46.7709 57.7258 46.403 57.0037C45.6933 55.7536 44.6493 54.8985 43.283 54.4558C41.6838 54.2661 40.2282 54.3201 38.923 55.3278C38.0548 56.1514 37.2915 56.9868 36.961 58.1618C36.8891 58.1618 36.8172 58.1618 36.743 58.1618C36.6 56.6166 36.9433 55.5169 37.833 54.2378C39.5483 52.5571 41.9759 51.7937 44.2503 52.8617Z" fill="#B6B6B6"/>
<path d="M41.757 82.5774C41.9009 82.5774 42.0447 82.5774 42.193 82.5774C42.2559 82.7123 42.3189 82.8472 42.3837 82.9861C42.6153 83.4784 42.6153 83.4784 43.065 83.8854C42.2736 83.8854 41.4823 83.8854 40.667 83.8854C40.9547 83.6696 41.2425 83.4537 41.539 83.2314C41.6109 83.0156 41.6829 82.7997 41.757 82.5774Z" fill="#0E9EBA"/>
<path d="M40.667 66.4456C41.4583 66.4456 42.2497 66.4456 43.065 66.4456C42.7858 66.8178 42.4943 67.1811 42.193 67.5356C42.0491 67.5356 41.9052 67.5356 41.757 67.5356C41.6131 67.3198 41.4692 67.104 41.321 66.8816C41.1052 66.7377 40.8893 66.5939 40.667 66.4456Z" fill="#099FBF"/>
</svg>
