<svg width="84" height="84" viewBox="0 0 84 84" fill="none" xmlns="http://www.w3.org/2000/svg">
<path d="M71.2179 0.775437C71.3691 0.856203 71.5203 0.93697 71.6761 1.02018C73.6472 2.17391 74.8015 3.77591 75.4114 5.95951C75.8742 8.02824 75.5678 10.0339 74.5585 11.9038C73.5347 13.5022 72.0603 14.7751 70.2432 15.3842C70.0287 15.3842 69.8143 15.3842 69.5933 15.3842C69.5933 15.4913 69.5933 15.5984 69.5933 15.7088C69.7487 15.7002 69.9041 15.6916 70.0642 15.6828C70.8473 15.6842 71.5504 15.8965 72.2942 16.1247C72.4377 16.1686 72.5811 16.2125 72.7289 16.2577C76.7646 17.5428 79.8202 20.4629 81.8014 24.1429C82.6778 25.8624 83.2554 27.8664 83.2638 29.7987C83.2656 30.0751 83.2656 30.0751 83.2673 30.3571C83.268 30.6569 83.268 30.6569 83.2687 30.9628C83.2703 31.2813 83.2703 31.2813 83.2719 31.6062C83.2753 32.3082 83.277 33.0102 83.2786 33.7123C83.2793 33.9549 83.28 34.1976 83.2806 34.4402C83.2837 35.5808 83.286 36.7213 83.2874 37.8619C83.289 39.174 83.2933 40.486 83.2998 41.7981C83.3047 42.8152 83.3071 43.8323 83.3077 44.8494C83.308 45.4555 83.3095 46.0615 83.3136 46.6676C83.3181 47.3451 83.3174 48.0224 83.3163 48.6999C83.3184 48.8978 83.3204 49.0957 83.3226 49.2996C83.3087 51.606 82.5499 53.3286 80.9744 55.0008C80.236 55.6923 79.0968 56.6132 78.0412 56.6132C78.0417 56.7413 78.0421 56.8694 78.0426 57.0014C78.0533 60.1172 78.0614 63.233 78.0665 66.3489C78.069 67.8557 78.0724 69.3624 78.078 70.8692C78.0828 72.1825 78.086 73.4957 78.0871 74.809C78.0877 75.5044 78.0892 76.1998 78.0927 76.8952C78.096 77.5498 78.0971 78.2043 78.0963 78.8588C78.0965 79.0991 78.0974 79.3393 78.0993 79.5795C78.1017 79.9076 78.1009 80.2357 78.0998 80.5638C78.1003 80.7474 78.1007 80.931 78.1012 81.1201C77.9973 81.9691 77.5354 82.5192 76.904 83.0713C76.4503 83.2224 76.1737 83.2549 75.7046 83.2575C75.4863 83.2592 75.4863 83.2592 75.2636 83.261C75.0247 83.2616 75.0248 83.2616 74.781 83.2623C74.529 83.2639 74.529 83.2639 74.2718 83.2655C73.7148 83.2687 73.1577 83.2706 72.6007 83.2722C72.4106 83.2729 72.2205 83.2736 72.0246 83.2743C71.0186 83.2776 70.0125 83.28 69.0065 83.2815C67.9669 83.2833 66.9273 83.2889 65.8877 83.2953C65.0887 83.2996 64.2897 83.3009 63.4907 83.3015C63.1074 83.3023 62.7242 83.3042 62.3409 83.3072C61.8046 83.3111 61.2684 83.311 60.7321 83.3099C60.5738 83.3119 60.4155 83.314 60.2525 83.3162C59.3055 83.3089 58.7854 83.204 58.0587 82.5843C57.4748 81.9204 57.3884 81.3696 57.3831 80.5021C57.3808 80.2061 57.3808 80.2061 57.3783 79.9041C57.3774 79.6851 57.3764 79.4661 57.3755 79.2471C57.3739 79.0168 57.3723 78.7864 57.3706 78.5561C57.3662 77.9303 57.3628 77.3046 57.3596 76.6788C57.356 76.025 57.3516 75.3712 57.3472 74.7174C57.3391 73.4791 57.3318 72.2409 57.3248 71.0026C57.3168 69.593 57.3078 68.1834 57.2989 66.7737C57.2804 63.8739 57.263 60.974 57.2464 58.0741C57.2139 58.2084 57.1814 58.3426 57.1479 58.481C57.1048 58.6568 57.0617 58.8327 57.0172 59.0139C56.9747 59.1883 56.9321 59.3627 56.8883 59.5425C56.7476 60.0644 56.562 60.5073 56.2919 60.9756C56.2153 61.1124 56.1386 61.2492 56.0597 61.3902C55.4526 62.3098 54.8224 62.9521 53.916 63.5625C53.8257 63.6264 53.7355 63.6904 53.6425 63.7562C53.1089 64.1219 52.6804 64.2991 52.0477 64.4045C52.0491 64.6132 52.0506 64.8218 52.0521 65.0367C52.0652 67.0046 52.075 68.9725 52.0814 70.9404C52.0847 71.952 52.0893 72.9637 52.0967 73.9754C52.1038 74.952 52.1077 75.9287 52.1093 76.9054C52.1105 77.2776 52.1129 77.6499 52.1164 78.0221C52.1211 78.5443 52.1218 79.0664 52.1215 79.5887C52.125 79.8185 52.125 79.8185 52.1285 80.0529C52.1225 81.0274 51.9842 81.7867 51.3979 82.5843C50.581 83.3607 49.7847 83.3264 48.7173 83.3176C48.4627 83.3193 48.4627 83.3193 48.203 83.321C47.6433 83.3239 47.0838 83.322 46.5241 83.3198C46.1344 83.3202 45.7448 83.3209 45.3551 83.3217C44.539 83.3226 43.7229 83.3213 42.9068 83.3182C41.8612 83.3145 40.8156 83.3167 39.77 83.3205C38.9656 83.3229 38.1611 83.3221 37.3567 83.3205C36.9712 83.32 36.5856 83.3205 36.2001 83.3221C35.6611 83.3237 35.1223 83.3212 34.5833 83.3176C34.4243 83.3189 34.2652 83.3202 34.1014 83.3216C33.1867 83.3102 32.5947 83.2421 31.9027 82.5843C31.2622 81.6907 31.1577 80.8418 31.1642 79.7675C31.1625 79.6216 31.1608 79.4758 31.1591 79.3255C31.1543 78.8477 31.1541 78.3701 31.1539 77.8923C31.1514 77.5593 31.1487 77.2263 31.1457 76.8934C31.1386 76.0203 31.1354 75.1472 31.1329 74.274C31.1297 73.3818 31.1229 72.4896 31.1164 71.5973C31.1042 69.849 31.096 68.1007 31.0904 66.3524C31.0488 66.483 31.0072 66.6136 30.9643 66.7482C30.9081 66.9212 30.8519 67.0942 30.794 67.2724C30.739 67.4432 30.684 67.614 30.6273 67.7899C29.9118 69.7449 28.5737 71.1386 26.704 72.0335C26.4341 72.0918 26.1634 72.1465 25.8917 72.1959C25.8928 72.3096 25.8939 72.4234 25.895 72.5406C25.9048 73.6152 25.9122 74.6898 25.9169 75.7644C25.9195 76.3168 25.9229 76.8692 25.9285 77.4216C25.9348 78.0574 25.9371 78.6932 25.9393 79.329C25.9418 79.5264 25.9443 79.7237 25.9469 79.9271C25.9473 81.6526 25.9473 81.6526 25.4043 82.422C24.7874 82.9783 24.3992 83.2532 23.5736 83.2564C23.3553 83.2578 23.3553 83.2578 23.1325 83.2592C22.9724 83.2594 22.8123 83.2595 22.6474 83.2597C22.4791 83.2605 22.3108 83.2613 22.1374 83.2622C21.5787 83.2645 21.0201 83.2656 20.4614 83.2665C20.074 83.2675 19.6867 83.2684 19.2994 83.2693C18.4864 83.2711 17.6733 83.272 16.8603 83.2726C15.818 83.2735 14.7756 83.2774 13.7333 83.282C12.9329 83.285 12.1325 83.2859 11.3321 83.2861C10.9478 83.2866 10.5635 83.2879 10.1792 83.29C9.64166 83.2928 9.10423 83.2925 8.56672 83.2914C8.32804 83.2937 8.32804 83.2937 8.08455 83.296C7.28139 83.291 6.71864 83.2778 6.07164 82.7466C5.44898 82.0381 5.2404 81.6587 5.22598 80.7242C5.22274 80.539 5.2195 80.3538 5.21616 80.163C5.21345 79.9622 5.21073 79.7616 5.20794 79.5548C5.20456 79.3499 5.20119 79.145 5.19771 78.9338C5.18887 78.3889 5.18071 77.844 5.17287 77.2991C5.16471 76.7431 5.15567 76.1872 5.1467 75.6312C5.12927 74.5402 5.11274 73.4492 5.09688 72.3582C4.98517 72.3037 4.87346 72.2492 4.75837 72.1931C4.61191 72.1209 4.46546 72.0488 4.31457 71.9745C4.16935 71.9032 4.02413 71.832 3.87452 71.7586C2.05649 70.8003 0.855071 69.068 0.223093 67.164C0.0316688 66.4861 0.028359 65.8224 0.0219224 65.1223C0.020611 64.9853 0.0192972 64.8482 0.0179461 64.707C0.0157003 64.4162 0.0139597 64.1253 0.0126809 63.8344C0.0108255 63.5416 0.00752917 63.2489 0.00268582 62.9562C-0.0737206 58.3314 1.47971 54.4256 4.71104 51.0842C7.02643 48.7686 10.1635 47.364 13.3823 46.8741C13.1467 46.7589 13.1467 46.7589 12.9064 46.6414C10.6472 45.5077 8.92017 44.1834 8.05161 41.7204C7.4514 39.6956 7.53372 37.573 8.42349 35.6398C9.54038 33.6169 11.1323 32.205 13.3684 31.5387C15.3969 31.0301 17.5256 31.2609 19.3832 32.2349C21.205 33.325 22.4292 34.8117 23.1483 36.8287C23.6821 39.1663 23.4105 41.3904 22.1996 43.4571C21.0621 45.1712 19.4855 46.1187 17.6063 46.8741C17.7872 46.9078 17.9681 46.9415 18.1546 46.9762C21.1477 47.5662 23.5092 48.6938 25.8917 50.6074C25.8953 50.3931 25.8953 50.3931 25.8989 50.1744C25.9949 44.99 26.4527 40.1672 30.1156 36.161C30.2289 36.0346 30.3422 35.9083 30.459 35.778C32.9259 33.1646 36.1051 31.9123 39.5383 31.1291C39.3526 31.061 39.3526 31.061 39.1632 30.9915C36.8626 30.099 35.4296 28.7903 34.3815 26.5671C33.562 24.683 33.6055 22.5087 34.2876 20.5834C35.2672 18.3363 36.7948 16.957 39.0509 16.0334C40.8423 15.3938 42.9738 15.5449 44.737 16.1958C46.9 17.2323 48.3922 18.8261 49.1945 21.0958C49.7869 23.2558 49.5691 25.393 48.5535 27.3907C47.4368 29.2798 45.839 30.4375 43.7622 31.1291C43.9493 31.1708 44.1363 31.2124 44.329 31.2553C45.7598 31.5917 47.1182 32.0005 48.4533 32.6204C48.6293 32.6997 48.6293 32.6997 48.8088 32.7805C50.0055 33.3606 51.0144 34.1989 52.0477 35.0248C52.05 34.7822 52.05 34.7822 52.0523 34.5347C52.1183 28.5378 52.1183 28.5378 52.86 26.2595C52.9186 26.0725 52.9773 25.8854 53.0377 25.6927C54.3069 22.051 57.0084 19.1904 60.3331 17.332C60.472 17.2535 60.6108 17.1751 60.7539 17.0942C62.3607 16.2382 64.0395 15.7816 65.8568 15.7088C65.8568 15.6017 65.8568 15.4945 65.8568 15.3842C65.5502 15.339 65.5502 15.339 65.2374 15.2929C63.5149 14.9011 62.1581 13.7036 61.1454 12.3001C59.999 10.4099 59.6158 8.32548 60.0374 6.15289C60.5797 4.08603 61.5792 2.40025 63.4199 1.26239C65.7374 -0.0482694 68.7765 -0.541621 71.2179 0.775437Z" fill="#00DBFE"/>
<path d="M71.2468 0.775497C71.3977 0.856269 71.5485 0.937042 71.7039 1.02026C73.6703 2.17407 74.8219 3.7762 75.4303 5.95996C75.892 8.02886 75.5864 10.0347 74.5794 11.9047C73.5581 13.5032 72.0873 14.7762 70.2744 15.3853C70.0605 15.3853 69.8465 15.3853 69.6261 15.3853C69.6261 15.4925 69.6261 15.5996 69.6261 15.71C69.7812 15.7014 69.9362 15.6929 70.0959 15.684C70.8771 15.6854 71.5785 15.8977 72.3206 16.126C72.4637 16.1699 72.6068 16.2137 72.7542 16.2589C76.7803 17.5441 79.8286 20.4644 81.8051 24.1447C82.6794 25.8644 83.2556 27.8685 83.264 29.801C83.2657 30.0775 83.2657 30.0775 83.2675 30.3595C83.2679 30.5593 83.2684 30.7592 83.2688 30.9651C83.2699 31.1775 83.271 31.3898 83.2721 31.6086C83.2755 32.3107 83.2771 33.0128 83.2788 33.7149C83.2794 33.9575 83.2801 34.2002 83.2808 34.4429C83.2839 35.5835 83.2862 36.7242 83.2875 37.8648C83.2891 39.177 83.2934 40.4891 83.2999 41.8013C83.3048 42.8185 83.3072 43.8356 83.3077 44.8528C83.3081 45.459 83.3095 46.0651 83.3136 46.6712C83.3182 47.3487 83.3174 48.0261 83.3163 48.7037C83.3194 49.0005 83.3194 49.0005 83.3226 49.3034C83.3087 51.61 82.5518 53.3327 80.98 55.0051C80.2434 55.6966 79.1069 56.6176 78.0539 56.6176C78.0543 56.7457 78.0548 56.8738 78.0552 57.0057C78.066 60.1218 78.074 63.2379 78.079 66.354C78.0816 67.8609 78.085 69.3678 78.0905 70.8747C78.0954 72.188 78.0985 73.5014 78.0996 74.8147C78.1002 75.5102 78.1017 76.2057 78.1053 76.9011C78.1086 77.5557 78.1096 78.2103 78.1088 78.8649C78.109 79.1051 78.11 79.3454 78.1118 79.5856C78.1142 79.9137 78.1134 80.2419 78.1123 80.57C78.1128 80.7536 78.1132 80.9372 78.1137 81.1264C78.0101 81.9755 77.5493 82.5256 76.9194 83.0777C76.4667 83.2288 76.1908 83.2613 75.7229 83.2639C75.5051 83.2656 75.5051 83.2656 75.2829 83.2674C75.0446 83.2681 75.0446 83.2681 74.8015 83.2687C74.55 83.2703 74.55 83.2703 74.2934 83.2719C73.7377 83.2751 73.1821 83.277 72.6264 83.2787C72.4367 83.2793 72.247 83.28 72.0516 83.2807C71.048 83.2841 70.0444 83.2864 69.0407 83.2879C68.0036 83.2897 66.9665 83.2953 65.9294 83.3017C65.1323 83.306 64.3352 83.3073 63.5381 83.3079C63.1557 83.3087 62.7734 83.3106 62.391 83.3136C61.856 83.3175 61.3211 83.3174 60.7861 83.3163C60.6282 83.3184 60.4703 83.3204 60.3076 83.3226C59.3629 83.3153 58.844 83.2104 58.119 82.5907C57.5417 81.9326 57.4505 81.3873 57.4462 80.5272C57.4442 80.2366 57.4442 80.2366 57.4421 79.9402C57.4414 79.727 57.4408 79.5139 57.4401 79.2943C57.4388 79.0674 57.4374 78.8406 57.436 78.6137C57.433 78.1227 57.4306 77.6316 57.4286 77.1406C57.4253 76.3513 57.4208 75.562 57.4161 74.7727C57.4072 73.2223 57.3995 71.6719 57.3918 70.1215C57.3702 65.7538 57.345 61.3862 57.3117 57.0186C57.3087 56.6166 57.3058 56.2146 57.3029 55.8125C57.2927 54.3881 57.2808 52.9637 57.2648 51.5393C57.258 50.9449 57.252 50.3505 57.2479 49.7561C57.2135 44.9024 56.6683 40.2236 53.2569 36.4885C53.1773 36.4224 53.0978 36.3563 53.0158 36.2882C52.516 35.8562 52.2255 35.5421 52.1638 34.8691C52.1596 34.6252 52.1609 34.3811 52.1667 34.1372C52.1666 34.005 52.1664 33.8728 52.1662 33.7365C52.167 33.4566 52.1701 33.1766 52.1755 32.8966C52.183 32.4786 52.1822 32.0613 52.18 31.6432C52.1957 27.0977 53.7143 23.1162 56.913 19.8292C57.9731 18.8182 59.113 18.0478 60.3881 17.3333C60.5266 17.2549 60.6651 17.1764 60.8078 17.0955C62.4107 16.2394 64.0855 15.7828 65.8985 15.71C65.8985 15.6029 65.8985 15.4957 65.8985 15.3853C65.5926 15.3401 65.5926 15.3401 65.2806 15.294C63.5623 14.9023 62.2086 13.7046 61.1984 12.301C60.0547 10.4107 59.6725 8.32612 60.093 6.15337C60.6341 4.08634 61.6311 2.40043 63.4674 1.26249C65.7794 -0.0482731 68.8113 -0.541662 71.2468 0.775497Z" fill="#FEAF44"/>
<path d="M20.8132 33.0845C22.3945 34.5516 23.2982 36.4712 23.3866 38.6182C23.415 40.9912 22.8048 42.903 21.1787 44.6823C20.1086 45.6341 18.9262 46.2657 17.6048 46.7984C17.7858 46.8322 17.9667 46.8659 18.1531 46.9007C21.8128 47.6243 24.963 49.2341 27.3516 52.17C27.4674 52.3105 27.5832 52.4511 27.7025 52.596C29.1633 54.4488 30.2217 56.5373 30.763 58.8437C30.7915 58.963 30.8199 59.0823 30.8492 59.2052C31.1231 60.497 31.1484 61.7815 31.1481 63.0961C31.1488 63.4715 31.1547 63.8466 31.1609 64.222C31.1791 66.6122 30.601 68.7283 28.9355 70.5229C28.0579 71.3476 27.0767 71.9749 25.8896 72.1913C25.8912 72.3624 25.8912 72.3624 25.8929 72.537C25.9027 73.6146 25.9101 74.6922 25.9149 75.7699C25.9174 76.3239 25.9208 76.8778 25.9264 77.4318C25.9327 78.0693 25.9351 78.7069 25.9372 79.3445C25.9397 79.5424 25.9422 79.7403 25.9448 79.9443C25.9452 81.6746 25.9452 81.6746 25.4023 82.4462C24.7854 83.004 24.3973 83.2797 23.5717 83.2829C23.4261 83.2838 23.2806 83.2848 23.1307 83.2857C22.8905 83.286 22.8905 83.286 22.6456 83.2863C22.3931 83.2875 22.3931 83.2875 22.1356 83.2887C21.577 83.2911 21.0184 83.2922 20.4597 83.2931C20.0724 83.294 19.6851 83.295 19.2978 83.2959C18.4849 83.2976 17.6719 83.2986 16.859 83.2991C15.8167 83.3 14.7744 83.3039 13.7322 83.3086C12.9318 83.3116 12.1315 83.3125 11.3312 83.3127C10.9469 83.3132 10.5626 83.3145 10.1784 83.3166C9.64089 83.3194 9.1035 83.3191 8.56602 83.3181C8.40692 83.3196 8.24782 83.3211 8.0839 83.3226C7.2808 83.3176 6.7181 83.3044 6.07115 82.7717C5.44854 82.0612 5.23998 81.6808 5.22556 80.7436C5.22232 80.5579 5.21908 80.3722 5.21574 80.1808C5.21303 79.9795 5.21031 79.7783 5.20752 79.5709C5.20414 79.3654 5.20076 79.1599 5.19729 78.9482C5.18845 78.4018 5.18029 77.8554 5.17246 77.3089C5.1643 76.7514 5.15525 76.1938 5.14628 75.6363C5.12886 74.5422 5.11233 73.4482 5.09647 72.3541C4.98477 72.2995 4.87307 72.2448 4.75798 72.1885C4.61154 72.1162 4.4651 72.0438 4.31422 71.9693C4.16901 71.8979 4.02381 71.8264 3.8742 71.7528C2.05633 70.7918 0.855002 69.0546 0.223075 67.1453C0.0316662 66.4655 0.0283567 65.7999 0.0219206 65.0979C0.0199538 64.8917 0.0199538 64.8917 0.0179472 64.6814C0.0157016 64.3897 0.0139585 64.098 0.0126799 63.8063C0.0108247 63.5128 0.00752856 63.2192 0.0026856 62.9257C-0.0737146 58.2879 1.47959 54.3711 4.71066 51.0204C7.02586 48.6982 10.1627 47.2897 13.3812 46.7984C13.1457 46.6829 13.1457 46.6829 12.9053 46.565C10.6464 45.4282 8.91945 44.1001 8.05096 41.6303C7.4508 39.5997 7.53312 37.4712 8.42281 35.5325C9.53961 33.5039 11.1314 32.0881 13.3673 31.4199C16.0247 30.7517 18.6698 31.4035 20.8132 33.0845Z" fill="#FE79BA"/>
<path d="M67.742 15.7257C67.742 38.0327 67.742 60.3396 67.742 83.3226C59.0467 83.3226 59.0467 83.3226 58.0805 82.6726C57.5069 82.0139 57.4163 81.4681 57.412 80.607C57.41 80.3162 57.41 80.3162 57.408 80.0195C57.4073 79.8061 57.4066 79.5928 57.4059 79.373C57.4046 79.1459 57.4033 78.9188 57.4019 78.6917C57.399 78.2002 57.3966 77.7086 57.3945 77.2171C57.3912 76.427 57.3868 75.637 57.3822 74.8469C57.3733 73.295 57.3656 71.743 57.358 70.1911C57.3365 65.8191 57.3115 61.4471 57.2784 57.0752C57.2754 56.6728 57.2725 56.2704 57.2697 55.8679C57.2595 54.4421 57.2477 53.0163 57.2318 51.5905C57.2251 50.9955 57.2191 50.4005 57.2151 49.8055C57.1809 44.947 56.6391 40.2636 53.2498 36.5247C53.1708 36.4586 53.0917 36.3924 53.0103 36.3243C52.5137 35.8919 52.225 35.5775 52.1638 34.9038C52.1596 34.6596 52.1609 34.4153 52.1667 34.1711C52.1665 34.0388 52.1664 33.9064 52.1662 33.7701C52.1669 33.4898 52.1701 33.2096 52.1754 32.9293C52.1829 32.5109 52.182 32.0932 52.1799 31.6747C52.1955 27.1247 53.7042 23.1392 56.8823 19.8489C57.9355 18.837 59.0681 18.0658 60.3349 17.3506C60.4725 17.2721 60.6101 17.1935 60.7519 17.1126C62.8319 15.9934 65.3995 15.2529 67.742 15.7257Z" fill="#FEE300"/>
<path d="M42 31.1613C46.1719 31.1613 49.7375 32.3308 52.749 35.3317C53.1178 35.7333 53.4627 36.1464 53.8038 36.5724C53.923 36.7146 54.0423 36.8569 54.1651 37.0034C56.3911 39.8018 57.5305 43.2862 57.5489 46.8675C57.5501 47.0477 57.5501 47.0477 57.5513 47.2316C57.5536 47.6249 57.5548 48.0183 57.5557 48.4116C57.5563 48.615 57.5563 48.615 57.557 48.8226C57.5595 49.5404 57.561 50.2582 57.5617 50.9759C57.5625 51.7121 57.5664 52.4482 57.571 53.1843C57.5741 53.7552 57.5749 54.326 57.5751 54.8969C57.5756 55.1681 57.5769 55.4392 57.579 55.7103C57.593 57.6099 57.5363 59.4523 56.5728 61.1475C56.4966 61.2857 56.4203 61.424 56.3417 61.5664C55.7375 62.4953 55.1102 63.1442 54.208 63.7608C54.1182 63.8254 54.0284 63.8899 53.9358 63.9565C53.4048 64.3258 52.9783 64.5049 52.3485 64.6114C52.35 64.8221 52.3514 65.0328 52.3529 65.25C52.366 67.2379 52.3757 69.2258 52.3821 71.2137C52.3854 72.2357 52.39 73.2576 52.3973 74.2796C52.4044 75.2662 52.4082 76.2528 52.4099 77.2395C52.4111 77.6155 52.4134 77.9915 52.4169 78.3675C52.4216 78.8951 52.4223 79.4225 52.422 79.95C52.4243 80.1048 52.4266 80.2595 52.429 80.419C52.4232 81.3735 52.3128 82.2158 51.7018 82.9761C49.005 84.7993 45.2411 83.632 42 83.632C42 66.3167 42 49.0014 42 31.1613Z" fill="#00A8FE"/>
<path d="M15.5806 46.7419C18.0467 46.7419 18.0467 46.7419 19.1042 46.998C19.226 47.0267 19.3479 47.0555 19.4734 47.0852C22.5998 47.8742 25.3379 49.6173 27.3729 52.1492C27.4881 52.2907 27.6032 52.4323 27.7219 52.5781C29.1744 54.4432 30.227 56.5456 30.7652 58.8674C30.7935 58.9874 30.8218 59.1075 30.851 59.2312C31.1233 60.5316 31.1484 61.8247 31.1482 63.148C31.1489 63.5259 31.1548 63.9035 31.1609 64.2814C31.179 66.6875 30.6041 68.8176 28.9479 70.6241C28.0752 71.4543 27.0995 72.0858 25.9191 72.3037C25.9207 72.4759 25.9207 72.4759 25.9223 72.6516C25.9321 73.7364 25.9394 74.8212 25.9442 75.906C25.9467 76.4637 25.9501 77.0213 25.9556 77.5789C25.9619 78.2208 25.9643 78.8626 25.9664 79.5044C25.9701 79.8033 25.9701 79.8033 25.974 80.1081C25.9743 81.85 25.9743 81.85 25.4345 82.6267C22.7 85.1297 20.4541 83.446 15.5806 83.446C15.5806 71.3336 15.5806 59.2213 15.5806 46.7419Z" fill="#FE3D8C"/>
<path d="M46.9905 17.5776C48.5259 18.9987 49.3566 20.946 49.4506 23.0262C49.4825 25.2619 48.7766 27.2181 47.2772 28.883C45.6126 30.4791 43.6254 31.1678 41.3598 31.1612C39.207 31.0994 37.2908 30.2101 35.8032 28.651C34.2644 26.795 33.7588 24.748 33.8911 22.3896C34.0855 20.3396 35.1707 18.4915 36.7357 17.19C39.9933 14.8762 43.9056 15.1025 46.9905 17.5776Z" fill="#FEDCD7"/>
<path d="M21.0485 33.0662C22.6831 34.5244 23.6172 36.4325 23.7087 38.5667C23.738 40.9241 23.1084 42.8279 21.4263 44.5945C19.1991 46.4775 17.1505 46.8253 14.2854 46.7269C13.4447 46.6682 12.7593 46.432 12.023 46.0507C11.8773 45.9783 11.7316 45.906 11.5815 45.8314C9.64426 44.7937 8.37673 43.2532 7.74501 41.1979C7.17497 39.091 7.43528 36.9067 8.52819 34.9977C9.75143 33.1261 11.4632 31.8682 13.7021 31.3268C16.3647 30.8317 18.9162 31.4579 21.0485 33.0662Z" fill="#C8645A"/>
<path d="M71.5215 0.790626C71.6708 0.871051 71.8201 0.951475 71.974 1.03434C73.9206 2.18318 75.0606 3.7784 75.6629 5.95275C76.12 8.01273 75.8174 10.0099 74.8206 11.8719C73.6731 13.6781 72.0015 15.0013 69.917 15.4992C69.3137 15.5712 68.7192 15.584 68.112 15.58C67.8681 15.5784 67.8681 15.5784 67.6193 15.5768C65.557 15.5263 64.0287 14.864 62.5366 13.3979C61.0292 11.7784 60.3812 9.94859 60.2903 7.74081C60.384 5.67323 61.1096 3.74877 62.5366 2.24532C64.8612 0.108394 68.6619 -0.764801 71.5215 0.790626Z" fill="#953627"/>
<path d="M42 15.5806C44.1423 15.5806 45.8253 16.3148 47.3986 17.8484C48.834 19.4837 49.4806 21.4923 49.4506 23.7031C49.3581 25.8599 48.5196 27.7739 47.0437 29.2644C45.5286 30.5939 43.9472 31.1613 42 31.1613C42 26.0197 42 20.878 42 15.5806Z" fill="#FEB9BC"/>
<path d="M15.5806 31.1613C15.5806 36.3029 15.5806 41.4445 15.5806 46.742C13.2924 46.742 11.4202 46.1153 9.72171 44.5915C8.11318 42.9336 7.41816 40.875 7.45283 38.6359C7.60606 36.4595 8.48846 34.5598 10.1577 33.0677C11.7564 31.826 13.5191 31.1613 15.5806 31.1613Z" fill="#E37F6D"/>
<path d="M67.7419 0C70.0422 0 71.7883 0.613477 73.5046 2.14875C75.0044 3.70314 75.7986 5.655 75.871 7.79032C75.7953 10.0232 74.9391 11.9463 73.3753 13.5587C71.6395 15.1217 70.1 15.5806 67.7419 15.5806C67.7419 10.439 67.7419 5.29742 67.7419 0Z" fill="#64141E"/>
</svg>
