<svg width="100" height="101" viewBox="0 0 100 101" fill="none" xmlns="http://www.w3.org/2000/svg">
<path d="M64.7073 13.2805C64.9302 13.5883 64.9302 13.5883 65.1248 13.9914C65.2354 14.2135 65.2354 14.2135 65.3482 14.4401C65.4641 14.6795 65.4641 14.6795 65.5823 14.9238C66.3833 16.512 67.2536 17.9847 68.2927 19.4268C68.4105 19.5913 68.4105 19.5913 68.5306 19.7592C71.1617 23.4119 74.2415 26.9616 77.8537 29.6707C78.0557 29.8281 78.2575 29.9858 78.4592 30.1436C81.1077 32.1948 83.9589 33.886 86.9024 35.4756C85.299 40.6631 82.0589 45.4254 78.7073 49.6463C78.5812 49.8057 78.4551 49.965 78.3252 50.1292C75.9705 53.0568 73.315 55.8801 70.3415 58.1829C70.1613 58.3323 69.9817 58.4824 69.8026 58.6331C67.1731 60.825 64.2757 62.7327 61.2528 64.3375C60.9622 64.4941 60.6758 64.6586 60.3897 64.8234C56.3004 67.1313 49.502 70.5372 44.7317 70.1341C44.3901 69.909 44.3901 69.909 44.0541 69.5867C43.8612 69.4045 43.8612 69.4045 43.6644 69.2186C43.526 69.0835 43.3875 68.9483 43.2448 68.8091C43.097 68.6681 42.9492 68.527 42.797 68.3817C42.308 67.913 41.8224 67.4408 41.3378 66.9676C41.1703 66.8044 41.0028 66.6413 40.8352 66.4782C40.1381 65.7987 39.4422 65.1181 38.7494 64.4342C37.759 63.4567 36.7623 62.4868 35.7553 61.5263C35.0464 60.8492 34.3457 60.1642 33.6504 59.4731C33.2355 59.0611 32.818 58.6531 32.3915 58.2532C29.8134 55.8154 29.8134 55.8154 29.6367 54.6402C29.6681 53.7213 29.9087 52.901 30.2492 52.0521C30.4469 51.5517 30.575 51.0374 30.7077 50.5167C30.8131 50.1725 30.9207 49.829 31.0305 49.4863C31.0898 49.2988 31.1491 49.1114 31.2101 48.9183C33.4735 41.8628 36.9584 35.403 41.6585 29.6707C41.7368 29.5746 41.8151 29.4785 41.8958 29.3794C43.1107 27.8996 44.4282 26.5247 45.7774 25.1677C45.9321 25.0114 46.0868 24.8551 46.2462 24.6941C47.2826 23.6625 48.3683 22.7269 49.5122 21.8171C49.7245 21.6421 49.9364 21.4668 50.1478 21.2909C51.7396 19.9826 53.409 18.8258 55.1463 17.7195C55.2509 17.6525 55.3555 17.5855 55.4632 17.5164C56.8904 16.609 58.376 15.8152 59.8735 15.0305C60.0499 14.9377 60.2263 14.845 60.4081 14.7494C63.957 12.9124 63.957 12.9124 64.7073 13.2805ZM48.4024 34.4199C46.0606 37.3907 45.2848 40.4534 45.5854 44.1829C46.0042 47.2565 47.7251 49.8572 50.0244 51.8658C52.6009 53.7953 55.6912 54.7104 58.9024 54.4268C62.216 53.9047 65.1499 52.3267 67.247 49.6783C69.0658 47.1082 70.0129 43.9877 69.5738 40.845C68.9575 37.4358 67.3453 34.4448 64.4726 32.4238C63.457 31.7571 62.442 31.2561 61.2927 30.8658C61.1397 30.8115 60.9868 30.7571 60.8292 30.7011C56.3774 29.3462 51.4426 30.995 48.4024 34.4199Z" fill="#2D365F"/>
<path d="M86.0915 8.80946C86.2198 8.80928 86.3481 8.80909 86.4803 8.8089C87.9374 8.80914 89.3801 8.84303 90.8293 9.01221C90.9928 9.5027 91.0234 9.81728 91.0275 10.3271C91.0291 10.4906 91.0307 10.6542 91.0324 10.8226C91.0335 11.0888 91.0335 11.0888 91.0347 11.3604C91.0359 11.5448 91.0371 11.7292 91.0383 11.9192C91.0413 12.5188 91.0424 13.1184 91.0427 13.718C91.0428 13.9212 91.0429 14.1245 91.043 14.3339C91.0404 17.2064 90.9862 20.0061 90.4878 22.8415C90.4594 23.0163 90.431 23.1912 90.4018 23.3713C89.8242 26.9029 88.9902 30.4678 87.5854 33.7683C84.4417 32.2735 81.5803 30.5025 78.878 28.3049C78.7714 28.2183 78.6648 28.1317 78.555 28.0425C76.0021 25.9459 73.5282 23.6053 71.5366 20.9634C71.3809 20.7652 71.2251 20.5671 71.0691 20.3692C66.2439 14.1727 66.2439 14.1727 66.2439 12.2561C72.6711 9.9618 79.2723 8.8148 86.0915 8.80946Z" fill="#FF6859"/>
<path d="M20.8293 35.9878C25.5056 35.9878 30.182 35.9878 35 35.9878C34.5493 36.8893 34.0985 37.7907 33.6341 38.7195C32.2676 41.456 31.0512 44.1942 30.0488 47.0854C29.977 47.2889 29.977 47.2889 29.9037 47.4965C29.4253 48.8656 29.0372 50.2285 28.7503 51.6511C28.7014 51.8858 28.6524 52.1206 28.6033 52.3553C28.5066 52.8191 28.4194 53.2834 28.337 53.75C28.2934 53.9628 28.2497 54.1756 28.2047 54.3948C28.1692 54.5861 28.1337 54.7773 28.0972 54.9744C27.6885 55.7017 27.068 55.7452 26.2927 55.9634C25.6711 56.1292 25.0467 56.2807 24.4208 56.429C24.2401 56.4724 24.0595 56.5158 23.8734 56.5605C23.281 56.7025 22.6884 56.8435 22.0958 56.9845C21.6823 57.0832 21.2689 57.182 20.8555 57.2808C19.9916 57.4872 19.1275 57.6931 18.2633 57.8986C17.3757 58.1097 16.4883 58.3215 15.601 58.534C14.5278 58.791 13.4544 59.0473 12.3809 59.3029C11.9721 59.4004 11.5633 59.4981 11.1546 59.596C10.5847 59.7324 10.0146 59.8679 9.44439 60.0031C9.19067 60.0641 9.19067 60.0641 8.93183 60.1264C8.77652 60.163 8.62122 60.1996 8.46121 60.2374C8.3266 60.2694 8.19199 60.3015 8.0533 60.3345C7.68293 60.4024 7.68293 60.4024 7 60.4024C7.27703 59.3539 7.83616 58.4864 8.3872 57.564C8.60482 57.1956 8.82223 56.827 9.03944 56.4583C9.20987 56.1693 9.20987 56.1693 9.38374 55.8745C9.90619 54.9852 10.4157 54.0886 10.9258 53.1921C11.9278 51.4311 12.94 49.6765 13.963 47.9276C15.0113 46.1351 16.0478 44.3359 17.0843 42.5365C17.4276 41.9409 17.7715 41.3455 18.1156 40.7503C18.2316 40.5494 18.3477 40.3485 18.4637 40.1476C18.6825 39.769 18.9013 39.3905 19.1202 39.012C19.2198 38.8396 19.3194 38.6671 19.4221 38.4894C19.5518 38.2649 19.5518 38.2649 19.6842 38.0359C20.0714 37.3563 20.4494 36.6715 20.8293 35.9878Z" fill="#FF6859"/>
<path d="M63.3415 65.3536C63.3415 69.6919 63.3415 74.0302 63.3415 78.5C48.9147 86.8232 48.9147 86.8232 48.3592 87.1436C47.9912 87.3559 47.6232 87.5682 47.2553 87.7805C46.4009 88.2735 45.5465 88.7663 44.692 89.259C44.3931 89.4313 44.0942 89.6036 43.7954 89.7759C43.4233 89.9905 43.0511 90.205 42.6789 90.4195C41.4829 91.1092 40.2895 91.8033 39.0976 92.5C38.8637 91.7397 39.0494 91.1185 39.236 90.3654C39.2885 90.1457 39.2885 90.1457 39.342 89.9216C39.4584 89.4355 39.5771 88.95 39.6958 88.4644C39.778 88.1235 39.86 87.7826 39.9418 87.4416C40.1587 86.5399 40.3774 85.6387 40.5966 84.7376C40.8153 83.837 41.0323 82.936 41.2494 82.035C41.5799 80.6643 41.9113 79.2938 42.2435 77.9235C42.7349 75.897 43.2222 73.8695 43.7073 71.8414C43.8866 71.8724 44.0658 71.9034 44.2504 71.9353C45.1681 72.0435 45.9212 71.8513 46.8125 71.6387C47.0029 71.5937 47.1932 71.5488 47.3894 71.5024C52.6339 70.206 57.6698 68.2536 62.4071 65.6611C63 65.3536 63 65.3536 63.3415 65.3536Z" fill="#FF6859"/>
<path d="M63.6829 34.1097C65.8899 35.771 67.2774 38.1958 67.7164 40.9177C67.7406 41.1521 67.7619 41.3869 67.7805 41.6219C67.7897 41.7335 67.7989 41.8451 67.8085 41.9601C67.9155 44.554 67.0191 47.0903 65.3155 49.0381C65.0593 49.3012 64.7999 49.5611 64.5366 49.8171C64.4298 49.9273 64.3231 50.0376 64.2131 50.1512C62.4645 51.8409 59.9485 52.5398 57.5686 52.6235C54.5938 52.5473 52.0998 51.4406 50.0244 49.3049C47.8383 46.8759 47.2652 44.2123 47.428 41.0234C47.6534 38.3087 49.1243 36.0802 51.1277 34.3233C54.7047 31.4131 60.0105 31.5258 63.6829 34.1097Z" fill="#FF6859"/>
<path d="M28.5123 56.4756C29.4178 57.2325 30.2628 58.0301 31.0969 58.8647C31.297 59.0639 31.297 59.0639 31.5011 59.2671C31.9385 59.7029 32.3752 60.1393 32.8119 60.5758C33.1164 60.8798 33.4209 61.1837 33.7254 61.4877C34.3616 62.1228 34.9975 62.7583 35.6331 63.3941C36.3683 64.1294 37.1045 64.8638 37.8412 65.5977C38.5509 66.3049 39.2596 67.0131 39.968 67.7216C40.2694 68.0227 40.571 68.3236 40.8729 68.6242C41.2931 69.0427 41.7122 69.4623 42.1311 69.8822C42.2569 70.0071 42.3827 70.132 42.5124 70.2606C42.6256 70.3745 42.7388 70.4884 42.8554 70.6058C42.9546 70.7049 43.0538 70.804 43.1559 70.906C43.3659 71.1585 43.3659 71.1585 43.3659 71.5C43.1223 71.7046 43.1223 71.7046 42.7764 71.9348C42.6476 72.0215 42.5188 72.1083 42.3861 72.1976C42.2446 72.2914 42.1031 72.3851 41.9574 72.4817C41.658 72.6831 41.3588 72.8848 41.0597 73.0866C40.9045 73.191 40.7493 73.2954 40.5894 73.403C39.8518 73.9025 39.1225 74.4135 38.3934 74.9253C38.2528 75.0234 38.1122 75.1215 37.9674 75.2226C37.263 75.7151 36.5636 76.213 35.8711 76.722C35.7386 76.8183 35.6061 76.9147 35.4697 77.014C35.2195 77.1964 34.9706 77.3806 34.7232 77.5667C33.8951 78.1677 33.8951 78.1677 33.4594 78.1233C33.0866 77.9736 32.888 77.817 32.6056 77.533C32.5084 77.4365 32.4112 77.34 32.3111 77.2406C32.2066 77.1343 32.1021 77.0279 31.9944 76.9183C31.8827 76.8067 31.7711 76.6951 31.656 76.5802C31.2871 76.2109 30.9201 75.8399 30.553 75.4688C30.2977 75.2125 30.0422 74.9563 29.7866 74.7002C29.114 74.0257 28.4431 73.3497 27.7724 72.6734C27.0878 71.9835 26.4018 71.2951 25.7159 70.6066C24.3701 69.2554 23.0261 67.9026 21.683 66.5488C21.8194 66.3012 21.9561 66.0537 22.0929 65.8063C22.207 65.5996 22.207 65.5996 22.3235 65.3887C22.5418 65.003 22.7757 64.6419 23.0395 64.2859C23.1272 64.1663 23.215 64.0466 23.3054 63.9233C23.3968 63.8002 23.4882 63.6771 23.5824 63.5503C23.78 63.2804 23.9774 63.0103 24.1746 62.74C24.2725 62.6057 24.3705 62.4715 24.4714 62.3332C25.1312 61.4198 25.7622 60.4864 26.3967 59.5553C26.8263 58.9259 27.2586 58.2984 27.6906 57.6707C27.8496 57.4395 28.0085 57.2083 28.1675 56.9771C28.2812 56.8116 28.395 56.6461 28.5123 56.4756Z" fill="#2D365F"/>
<path d="M77.3415 71.1585C77.6664 71.6459 77.8407 72.0648 78.0457 72.6097C78.9048 74.6774 80.2066 76.2239 82.256 77.1868C82.5396 77.3008 82.8254 77.41 83.1137 77.5116C83.4834 77.6447 83.823 77.8056 84.1707 77.9878C84.0693 78.0252 83.9678 78.0626 83.8633 78.1012C81.3331 79.0692 79.4019 80.262 78.1951 82.7683C77.9382 83.4434 77.7147 84.1237 77.5122 84.817C77.0875 84.3923 77.0012 84.03 76.8079 83.4619C75.9978 81.3283 74.6832 79.7783 72.6037 78.7887C72.1943 78.6224 71.7835 78.4732 71.3659 78.3292C71.0808 78.2167 70.7961 78.1032 70.5122 77.9878C70.9966 77.735 71.4829 77.5357 71.9954 77.3475C73.9122 76.5837 75.5762 75.258 76.4878 73.378C76.6873 72.8381 76.8666 72.2965 77.0347 71.7461C77.1707 71.3292 77.1707 71.3292 77.3415 71.1585Z" fill="#FF6859"/>
<path d="M36.5366 8.5C36.8781 8.67073 36.8781 8.67073 37.0501 9.14425C37.1131 9.34716 37.176 9.55008 37.2409 9.75915C37.9843 11.958 39.3423 13.4472 41.4011 14.5283C42.0952 14.8473 42.8063 15.1046 43.5366 15.3293C42.9989 15.6115 42.4494 15.8271 41.8826 16.0442C39.3823 17.0845 38.0602 18.8592 37.0488 21.3049C36.9341 21.5891 36.82 21.8735 36.7073 22.1585C36.3875 21.6788 36.2571 21.3349 36.0884 20.7927C35.3858 18.8371 34.0231 17.298 32.2016 16.301C31.4489 15.9515 30.6811 15.705 29.8781 15.5C30.0488 15.1585 30.0488 15.1585 30.4536 15.0178C30.6264 14.9692 30.7991 14.9205 30.9771 14.8704C32.9446 14.234 34.5923 12.9016 35.6149 11.0883C36.0091 10.248 36.3163 9.40118 36.5366 8.5Z" fill="#FF6859"/>
<path d="M22.0244 77.4757C22.3659 77.7531 22.3659 77.7531 22.5366 78.1586C22.5099 79.1397 22.0428 79.6282 21.3754 80.2839C21.2721 80.3887 21.1688 80.4935 21.0624 80.6015C20.7212 80.9465 20.3769 81.2882 20.0323 81.6299C19.7938 81.8691 19.5553 82.1083 19.317 82.3477C18.8173 82.8487 18.3161 83.3481 17.8138 83.8464C17.1703 84.485 16.5308 85.1273 15.8924 85.7709C15.4007 86.2656 14.9071 86.7582 14.4128 87.2503C14.1762 87.4863 13.9402 87.723 13.7049 87.9603C13.3755 88.2919 13.0436 88.6205 12.7108 88.9486C12.6141 89.0469 12.5175 89.1453 12.418 89.2466C11.8311 89.818 11.4127 90.0872 10.5854 90.1098C10.1799 89.9391 10.1799 89.9391 9.90249 89.5976C9.82299 89.0453 9.77548 88.6115 10.0747 88.119C10.3319 87.8174 10.6029 87.5406 10.8866 87.2638C10.9912 87.157 11.0959 87.0503 11.2037 86.9403C11.5498 86.589 11.9 86.2422 12.2507 85.8955C12.493 85.6524 12.7351 85.4092 12.9771 85.1657C13.4846 84.6565 13.9941 84.1494 14.5053 83.6439C15.1601 82.9959 15.8093 82.3427 16.4571 81.6878C16.956 81.1845 17.4578 80.6842 17.9604 80.1847C18.2009 79.9449 18.4406 79.7043 18.6793 79.4627C19.0136 79.1254 19.3515 78.7922 19.6906 78.4597C19.7885 78.3594 19.8863 78.2591 19.9872 78.1558C20.6497 77.5172 21.0687 77.3381 22.0244 77.4757Z" fill="#2E3660"/>
<path d="M19.1219 23.0123C19.5544 23.419 19.6302 23.6515 19.6841 24.2474C19.6782 24.4455 19.6723 24.6435 19.6661 24.8476C19.6615 25.0475 19.6569 25.2473 19.6521 25.4532C19.6462 25.6055 19.6402 25.7578 19.6341 25.9147C19.7864 25.9068 19.9387 25.8988 20.0956 25.8907C20.2955 25.8845 20.4953 25.8784 20.7012 25.872C20.9983 25.8601 20.9983 25.8601 21.3014 25.848C21.8536 25.9147 21.8536 25.9147 22.2678 26.2201C22.5366 26.5976 22.5366 26.5976 22.5259 27.2165C22.3658 27.7927 22.3658 27.7927 21.8536 28.1342C21.3181 28.1676 21.3181 28.1676 20.7119 28.1555C20.5105 28.1525 20.3091 28.1494 20.1016 28.1462C19.9474 28.1422 19.7931 28.1383 19.6341 28.1342C19.642 28.2865 19.65 28.4388 19.6581 28.5957C19.6674 28.8955 19.6674 28.8955 19.6768 29.2013C19.6847 29.3994 19.6926 29.5974 19.7008 29.8015C19.6341 30.3537 19.6341 30.3537 19.3227 30.7625C18.8248 31.1299 18.5319 31.1268 17.9268 31.0366C17.6414 30.8526 17.6414 30.8526 17.4146 30.5244C17.3646 29.9516 17.3646 29.9516 17.3826 29.2973C17.3872 29.0801 17.3918 28.8629 17.3966 28.6391C17.4025 28.4725 17.4085 28.3059 17.4146 28.1342C17.2623 28.1401 17.11 28.1461 16.9531 28.1522C16.7533 28.1568 16.5534 28.1615 16.3475 28.1662C16.0504 28.1751 16.0504 28.1751 15.7473 28.1842C15.1514 28.1303 14.9189 28.0545 14.5122 27.622C14.3875 26.6243 14.3875 26.6243 14.6962 26.1354C15.203 25.7945 15.6506 25.8661 16.2515 25.8827C16.4687 25.8873 16.6859 25.8919 16.9097 25.8967C17.1597 25.9056 17.1597 25.9056 17.4146 25.9147C17.4057 25.6648 17.4057 25.6648 17.3966 25.4098C17.392 25.1926 17.3874 24.9754 17.3826 24.7516C17.3737 24.4277 17.3737 24.4277 17.3646 24.0973C17.4146 23.5244 17.4146 23.5244 17.6354 23.1963C18.1338 22.8815 18.5527 22.9411 19.1219 23.0123Z" fill="#FF6859"/>
<path d="M88.3003 53.4131C88.7805 53.5731 88.7805 53.5731 89.122 53.9146C89.1553 54.4708 89.1553 54.4708 89.1433 55.1311C89.1402 55.3498 89.1372 55.5686 89.134 55.794C89.13 55.9626 89.1261 56.1312 89.122 56.3048C89.329 56.2959 89.329 56.2959 89.5401 56.2868C89.7226 56.2822 89.905 56.2776 90.093 56.2728C90.2733 56.2669 90.4535 56.261 90.6392 56.2548C91.244 56.3117 91.555 56.4336 92.0244 56.817C92.1631 57.3068 92.082 57.6649 92.0244 58.1829C91.6829 58.5244 91.6829 58.5244 91.0894 58.5577C90.8533 58.5554 90.6172 58.5514 90.3811 58.5457C90.2002 58.5434 90.2002 58.5434 90.0156 58.541C89.7177 58.537 89.4198 58.5309 89.122 58.5244C89.1259 58.691 89.1299 58.8576 89.134 59.0292C89.1386 59.3551 89.1386 59.3551 89.1433 59.6875C89.1473 59.9034 89.1512 60.1193 89.1553 60.3417C89.122 60.9146 89.122 60.9146 88.7805 61.4268C88.3857 61.5762 88.3857 61.5762 87.9269 61.5975C87.142 61.2229 87.142 61.2229 86.9025 60.7439C86.8904 60.367 86.8881 59.9898 86.8918 59.6128C86.8933 59.4099 86.8949 59.2069 86.8965 58.9979C86.8984 58.8416 86.9004 58.6854 86.9025 58.5244C86.6526 58.5362 86.6526 58.5362 86.3976 58.5484C86.0718 58.5576 86.0718 58.5576 85.7394 58.567C85.5234 58.575 85.3075 58.5829 85.0851 58.5911C84.5122 58.5244 84.5122 58.5244 84.1794 58.2129C83.9193 57.6743 83.9801 57.3771 84.1708 56.817C84.7268 56.261 85.2675 56.2757 86.0168 56.2728C86.3121 56.281 86.6074 56.2909 86.9025 56.3048C86.8926 56.1669 86.8827 56.0289 86.8724 55.8867C86.8097 54.4006 86.8097 54.4006 87.2653 53.6905C87.7561 53.4024 87.7561 53.4024 88.3003 53.4131Z" fill="#FF685A"/>
<path d="M28 83.4512C28.3414 83.7927 28.3414 83.7927 28.4325 84.3319C28.3051 85.2495 27.8715 85.6304 27.2257 86.2623C27.0537 86.436 27.0537 86.436 26.8783 86.6132C26.6356 86.8567 26.3914 87.0987 26.1458 87.3392C25.771 87.7077 25.4029 88.082 25.0352 88.4575C24.7982 88.6936 24.5609 88.9294 24.3232 89.1647C24.2136 89.2768 24.104 89.3888 23.9911 89.5042C23.434 90.0414 23.1819 90.2639 22.3922 90.3622C21.8536 90.2805 21.8536 90.2805 21.5228 90.0884C21.2334 89.5777 21.2315 89.3267 21.3414 88.7439C22.1646 87.5872 23.2811 86.6071 24.2857 85.6067C24.5564 85.3369 24.8261 85.0662 25.0958 84.7954C25.2682 84.6232 25.4406 84.451 25.613 84.2789C25.8457 84.0465 25.8457 84.0465 26.0831 83.8094C26.7504 83.1808 27.1153 83.2774 28 83.4512Z" fill="#2E375F"/>
<path d="M16.2195 71.6707C16.561 72.0122 16.561 72.0122 16.657 72.5457C16.5581 73.2276 16.5113 73.333 16.0755 73.8102C15.967 73.9291 15.8585 74.048 15.7467 74.1704C15.0806 74.8748 14.4099 75.5739 13.7272 76.2622C13.5594 76.432 13.3924 76.6025 13.2262 76.7738C12.9823 77.025 12.7362 77.2738 12.4894 77.5223C12.3451 77.6692 12.2007 77.816 12.0519 77.9674C11.568 78.3634 11.1933 78.5339 10.5854 78.6707C10.1052 78.5 10.1052 78.5 9.73173 78.1585C9.51832 77.6997 9.51832 77.6997 9.561 77.1341C10.3757 75.9469 11.5594 74.9388 12.5782 73.924C12.8613 73.6418 13.1434 73.3587 13.4255 73.0756C13.6056 72.8956 13.7858 72.7156 13.966 72.5357C14.0501 72.4513 14.1342 72.3668 14.2209 72.2798C14.9461 71.5596 15.2084 71.439 16.2195 71.6707Z" fill="#2E3660"/>
</svg>
